M48
; DRILL file {KiCad 9.0.0} date 2026-03-17T13:32:48-0400
; FORMAT={-:-/ absolute / metric / decimal}
; #@! TF.CreationDate,2026-03-17T13:32:48-04:00
; #@! TF.GenerationSoftware,Kicad,Pcbnew,9.0.0
; #@! TF.FileFunction,MixedPlating,1,4
FMAT,2
METRIC
; #@! TA.AperFunction,Plated,PTH,ViaDrill
T1C0.300
; #@! TA.AperFunction,Plated,PTH,ComponentDrill
T2C1.000
; #@! TA.AperFunction,Plated,PTH,ComponentDrill
T3C1.100
; #@! TA.AperFunction,Plated,PTH,ComponentDrill
T4C2.700
; #@! TA.AperFunction,NonPlated,NPTH,ComponentDrill
T5C0.650
; #@! TA.AperFunction,NonPlated,NPTH,ComponentDrill
T6C1.000
; #@! TA.AperFunction,NonPlated,NPTH,ComponentDrill
T7C2.200
%
G90
G05
T1
X50.8Y-106.55
X50.925Y-75.25
X51.3Y-82.3
X51.3Y-118.85
X51.45Y-108.2
X51.5Y-56.1
X51.55Y-58.3
X51.6Y-60.85
X51.6Y-63.4
X51.65Y-66.1
X51.65Y-68.95
X51.926Y-80.333
X52.129Y-77.965
X52.55Y-108.2
X52.554Y-104.0
X52.604Y-91.45
X52.604Y-93.2
X52.604Y-97.7
X52.604Y-99.5
X52.65Y-86.05
X52.95Y-101.45
X53.45Y-57.15
X53.548Y-85.152
X53.7Y-108.3
X54.075Y-88.8
X54.075Y-89.7
X54.5Y-84.7
X54.508Y-75.442
X54.65Y-119.2
X55.25Y-85.15
X55.425Y-103.0
X55.775Y-87.4
X55.925Y-84.63
X56.05Y-108.2
X56.498Y-86.098
X56.696Y-82.077
X56.77Y-114.25
X56.858Y-108.342
X57.15Y-61.8
X57.25Y-90.25
X57.317Y-81.573
X57.5Y-118.0
X57.55Y-74.0
X57.55Y-91.05
X57.567Y-74.998
X57.65Y-69.85
X57.958Y-81.095
X58.2Y-102.25
X58.299Y-92.651
X58.3Y-103.6
X58.4Y-53.15
X58.4Y-93.9
X58.425Y-75.024
X58.475Y-114.35
X58.503Y-85.749
X58.582Y-80.594
X58.716Y-100.873
X58.8Y-122.85
X59.0Y-105.9
X59.2Y-74.475
X59.366Y-100.273
X59.529Y-86.037
X59.55Y-61.75
X59.6Y-54.2
X59.7Y-95.6
X59.7Y-101.573
X59.833Y-92.417
X59.9Y-121.2
X60.113Y-85.49
X60.15Y-51.4
X60.193Y-114.008
X60.25Y-105.25
X60.3Y-91.1
X60.42Y-84.751
X60.434Y-91.889
X60.7Y-66.0
X60.7Y-108.4
X60.75Y-67.7
X60.8Y-57.25
X60.9Y-103.6
X61.0Y-59.5
X61.2Y-52.6
X61.2Y-63.384
X61.2Y-106.2
X61.4Y-95.129
X61.45Y-122.85
X61.5Y-102.5
X61.65Y-55.35
X61.796Y-92.487
X61.85Y-103.65
X62.182Y-109.799
X62.35Y-102.85
X62.675Y-88.117
X62.748Y-88.914
X62.75Y-57.85
X62.75Y-121.2
X62.774Y-94.353
X62.85Y-100.267
X62.9Y-101.1
X63.0Y-67.0
X63.375Y-73.641
X63.397Y-71.9
X63.55Y-69.15
X63.65Y-81.25
X63.7Y-75.6
X63.7Y-105.424
X63.766Y-89.95
X63.862Y-63.385
X63.926Y-65.994
X63.95Y-122.85
X64.052Y-98.963
X64.1Y-114.0
X64.15Y-79.35
X64.416Y-101.573
X64.45Y-100.1
X64.5Y-71.95
X64.75Y-111.15
X64.85Y-113.25
X65.148Y-73.352
X65.17Y-117.85
X65.358Y-91.358
X65.65Y-99.25
X65.678Y-102.294
X65.8Y-108.0
X65.828Y-92.723
X66.075Y-100.075
X66.158Y-79.058
X66.448Y-93.348
X66.5Y-70.1
X66.5Y-71.0
X66.525Y-73.025
X66.55Y-69.05
X66.55Y-72.05
X66.55Y-114.7
X66.604Y-87.346
X66.631Y-85.5
X66.642Y-86.5
X66.65Y-88.3
X66.683Y-89.217
X66.684Y-90.102
X66.7Y-105.2
X66.7Y-91.2
X66.8Y-92.4
X67.0Y-59.45
X67.129Y-95.295
X67.3Y-84.3
X67.6Y-109.8
X67.692Y-112.592
X67.788Y-93.295
X68.1Y-106.1
X68.25Y-118.75
X68.45Y-116.55
X68.479Y-69.483
X68.7Y-63.1
X68.8Y-52.6
X68.888Y-120.438
X68.999Y-67.397
X69.225Y-96.75
X69.267Y-84.299
X69.371Y-97.537
X69.376Y-104.957
X69.4Y-86.15
X69.603Y-100.567
X69.717Y-83.638
X69.732Y-68.15
X69.85Y-51.4
X70.025Y-102.375
X70.1Y-69.5
X70.15Y-71.25
X70.176Y-101.125
X70.2Y-64.6
X70.225Y-85.925
X70.25Y-59.65
X70.275Y-107.155
X70.4Y-54.2
X70.4Y-56.1
X70.4Y-57.75
X70.4Y-84.55
X70.5Y-83.25
X70.575Y-88.0
X70.65Y-82.45
X70.7Y-81.1
X70.802Y-106.519
X70.85Y-68.1
X71.1Y-75.0
X71.2Y-98.2
X71.25Y-80.45
X71.454Y-85.454
X71.6Y-53.15
X71.6Y-62.85
X71.69Y-106.434
X71.872Y-96.075
X71.9Y-93.2
X71.94Y-77.248
X72.0Y-51.0
X72.198Y-73.902
X72.2Y-76.1
X72.486Y-86.936
X72.6Y-106.434
X72.75Y-58.0
X72.8Y-54.2
X72.8Y-56.1
X72.8Y-59.9
X72.8Y-61.8
X73.3Y-75.0
X73.629Y-101.6
X73.75Y-107.059
X73.9Y-100.2
X73.901Y-103.85
X73.948Y-86.902
X73.975Y-92.5
X74.0Y-53.0
X74.0Y-57.0
X74.0Y-59.0
X74.0Y-61.15
X74.0Y-64.2
X74.0Y-67.7
X74.0Y-51.0
X74.0Y-55.0
X74.1Y-73.3
X74.1Y-85.3
X74.15Y-99.3
X74.249Y-102.448
X75.1Y-62.7
X75.1Y-71.4
X75.336Y-80.903
X75.5Y-108.0
X75.5Y-109.5
X75.5Y-111.0
X75.649Y-89.725
X76.0Y-55.0
X76.0Y-57.0
X76.0Y-59.0
X76.076Y-98.62
X76.1Y-61.1
X76.878Y-106.41
X77.0Y-108.0
X77.0Y-109.5
X77.0Y-111.0
X77.063Y-66.199
X77.3Y-63.6
X77.4Y-95.875
X77.4Y-97.8
X77.738Y-84.175
X77.9Y-70.4
X78.1Y-88.45
X78.2Y-86.5
X78.2Y-106.4
X78.6Y-76.8
X79.0Y-83.658
X79.525Y-61.1
X79.6Y-56.4
X80.0Y-65.0
X80.0Y-67.3
X81.0Y-70.5
X81.2Y-95.9
X81.323Y-82.377
X81.534Y-80.775
X82.0Y-53.0
X82.0Y-51.0
X82.0Y-55.0
X82.0Y-57.0
X82.0Y-108.0
X82.0Y-109.5
X82.0Y-111.0
X82.1Y-67.3
X82.1Y-78.3
X82.1Y-81.4
X82.3Y-70.1
X82.3Y-63.7
X82.3Y-91.9
X82.4Y-86.4
X83.1Y-108.9
X83.5Y-84.5
X83.54Y-61.4
X83.54Y-63.56
X83.85Y-116.45
X84.0Y-51.0
X84.0Y-53.0
X84.0Y-55.0
X84.0Y-57.0
X84.0Y-59.0
X84.2Y-108.9
X84.3Y-67.3
X84.9Y-70.0
X85.05Y-59.8
X86.0Y-55.0
X86.0Y-57.0
X86.0Y-59.0
X86.0Y-61.0
X86.0Y-63.0
X86.0Y-72.2
X86.9Y-66.23
X86.99Y-70.04
X87.0Y-64.0
X87.1Y-68.1
X87.1Y-116.0
X88.0Y-57.0
X88.0Y-59.0
X88.0Y-61.0
X88.0Y-73.4
X88.2Y-77.6
X88.75Y-84.95
T2
X51.83Y-72.0
X54.37Y-72.0
X56.91Y-72.0
X59.45Y-72.0
T3
X71.75Y-121.5
X75.25Y-121.5
X78.75Y-121.5
X82.25Y-121.5
X86.5Y-86.75
X86.5Y-90.25
X86.5Y-93.75
X86.5Y-97.25
X86.5Y-100.75
X86.5Y-104.25
X86.5Y-107.75
X86.5Y-111.25
T4
X73.0Y-109.55
X73.0Y-114.55
X79.45Y-109.55
X79.45Y-114.55
T5
X58.41Y-118.645
X64.19Y-118.645
T6
X54.25Y-59.45
X54.25Y-67.45
T7
X52.5Y-52.5
X52.5Y-122.5
X87.5Y-52.5
X87.5Y-122.5
M30
