%TF.GenerationSoftware,KiCad,Pcbnew,9.0.0*%
%TF.CreationDate,2026-03-17T13:32:31-04:00*%
%TF.ProjectId,CUR_flight_computer_25-26,4355525f-666c-4696-9768-745f636f6d70,rev?*%
%TF.SameCoordinates,Original*%
%TF.FileFunction,Paste,Top*%
%TF.FilePolarity,Positive*%
%FSLAX46Y46*%
G04 Gerber Fmt 4.6, Leading zero omitted, Abs format (unit mm)*
G04 Created by KiCad (PCBNEW 9.0.0) date 2026-03-17 13:32:31*
%MOMM*%
%LPD*%
G01*
G04 APERTURE LIST*
G04 Aperture macros list*
%AMRoundRect*
0 Rectangle with rounded corners*
0 $1 Rounding radius*
0 $2 $3 $4 $5 $6 $7 $8 $9 X,Y pos of 4 corners*
0 Add a 4 corners polygon primitive as box body*
4,1,4,$2,$3,$4,$5,$6,$7,$8,$9,$2,$3,0*
0 Add four circle primitives for the rounded corners*
1,1,$1+$1,$2,$3*
1,1,$1+$1,$4,$5*
1,1,$1+$1,$6,$7*
1,1,$1+$1,$8,$9*
0 Add four rect primitives between the rounded corners*
20,1,$1+$1,$2,$3,$4,$5,0*
20,1,$1+$1,$4,$5,$6,$7,0*
20,1,$1+$1,$6,$7,$8,$9,0*
20,1,$1+$1,$8,$9,$2,$3,0*%
G04 Aperture macros list end*
%ADD10R,1.150000X0.700000*%
%ADD11R,1.200000X0.700000*%
%ADD12R,0.600000X1.150000*%
%ADD13R,0.300000X1.150000*%
%ADD14R,1.500000X1.500000*%
%ADD15R,0.203200X0.228600*%
%ADD16R,0.406400X1.397000*%
%ADD17RoundRect,0.200000X0.200000X0.275000X-0.200000X0.275000X-0.200000X-0.275000X0.200000X-0.275000X0*%
%ADD18RoundRect,0.250000X0.262500X0.450000X-0.262500X0.450000X-0.262500X-0.450000X0.262500X-0.450000X0*%
%ADD19RoundRect,0.150000X-0.850000X-0.350000X0.850000X-0.350000X0.850000X0.350000X-0.850000X0.350000X0*%
%ADD20R,1.500000X3.500000*%
%ADD21RoundRect,0.150000X-0.350000X0.850000X-0.350000X-0.850000X0.350000X-0.850000X0.350000X0.850000X0*%
%ADD22RoundRect,0.225000X-0.225000X-0.250000X0.225000X-0.250000X0.225000X0.250000X-0.225000X0.250000X0*%
%ADD23RoundRect,0.200000X-0.200000X-0.275000X0.200000X-0.275000X0.200000X0.275000X-0.200000X0.275000X0*%
%ADD24RoundRect,0.225000X0.250000X-0.225000X0.250000X0.225000X-0.250000X0.225000X-0.250000X-0.225000X0*%
%ADD25RoundRect,0.150000X0.850000X0.350000X-0.850000X0.350000X-0.850000X-0.350000X0.850000X-0.350000X0*%
%ADD26RoundRect,0.150000X0.350000X-0.850000X0.350000X0.850000X-0.350000X0.850000X-0.350000X-0.850000X0*%
%ADD27R,0.355600X0.381000*%
%ADD28R,0.381000X0.355600*%
%ADD29RoundRect,0.200000X-0.275000X0.200000X-0.275000X-0.200000X0.275000X-0.200000X0.275000X0.200000X0*%
%ADD30RoundRect,0.225000X0.225000X0.250000X-0.225000X0.250000X-0.225000X-0.250000X0.225000X-0.250000X0*%
%ADD31R,0.800000X1.000000*%
%ADD32RoundRect,0.225000X-0.250000X0.225000X-0.250000X-0.225000X0.250000X-0.225000X0.250000X0.225000X0*%
%ADD33R,0.711200X0.990600*%
%ADD34RoundRect,0.200000X0.275000X-0.200000X0.275000X0.200000X-0.275000X0.200000X-0.275000X-0.200000X0*%
%ADD35RoundRect,0.087500X0.087500X-0.225000X0.087500X0.225000X-0.087500X0.225000X-0.087500X-0.225000X0*%
%ADD36RoundRect,0.087500X0.225000X-0.087500X0.225000X0.087500X-0.225000X0.087500X-0.225000X-0.087500X0*%
%ADD37RoundRect,0.050000X-0.285000X-0.100000X0.285000X-0.100000X0.285000X0.100000X-0.285000X0.100000X0*%
%ADD38RoundRect,0.250000X0.450000X-0.262500X0.450000X0.262500X-0.450000X0.262500X-0.450000X-0.262500X0*%
%ADD39RoundRect,0.150000X-0.150000X0.512500X-0.150000X-0.512500X0.150000X-0.512500X0.150000X0.512500X0*%
%ADD40R,0.720000X0.580000*%
%ADD41R,0.580000X0.720000*%
%ADD42RoundRect,0.140625X-0.309375X0.609375X-0.309375X-0.609375X0.309375X-0.609375X0.309375X0.609375X0*%
%ADD43RoundRect,0.140625X-0.609375X-0.309375X0.609375X-0.309375X0.609375X0.309375X-0.609375X0.309375X0*%
%ADD44RoundRect,0.200000X-0.053033X0.335876X-0.335876X0.053033X0.053033X-0.335876X0.335876X-0.053033X0*%
%ADD45RoundRect,0.150000X0.150000X-0.512500X0.150000X0.512500X-0.150000X0.512500X-0.150000X-0.512500X0*%
%ADD46RoundRect,0.150000X0.512500X0.150000X-0.512500X0.150000X-0.512500X-0.150000X0.512500X-0.150000X0*%
G04 APERTURE END LIST*
%TO.C,U12*%
G36*
X80249999Y-99115000D02*
G01*
X79549999Y-99115000D01*
X79549999Y-99815000D01*
X80249999Y-99815000D01*
X80249999Y-99115000D01*
G37*
G36*
X79200999Y-99520000D02*
G01*
X78200999Y-99520000D01*
X78200999Y-100620000D01*
X79200999Y-100620000D01*
X79200999Y-99520000D01*
G37*
G36*
X77400999Y-99520000D02*
G01*
X76400999Y-99520000D01*
X76400999Y-100620000D01*
X77400999Y-100620000D01*
X77400999Y-99520000D01*
G37*
G36*
X80249999Y-100384872D02*
G01*
X79549999Y-100384872D01*
X79549999Y-101084872D01*
X80249999Y-101084872D01*
X80249999Y-100384872D01*
G37*
G36*
X80249999Y-101654003D02*
G01*
X79549999Y-101654003D01*
X79549999Y-102354003D01*
X80249999Y-102354003D01*
X80249999Y-101654003D01*
G37*
G36*
X79200999Y-102120000D02*
G01*
X78200999Y-102120000D01*
X78200999Y-103220000D01*
X79200999Y-103220000D01*
X79200999Y-102120000D01*
G37*
G36*
X77400999Y-102120000D02*
G01*
X76400999Y-102120000D01*
X76400999Y-103220000D01*
X77400999Y-103220000D01*
X77400999Y-102120000D01*
G37*
G36*
X80249999Y-102923875D02*
G01*
X79549999Y-102923875D01*
X79549999Y-103623875D01*
X80249999Y-103623875D01*
X80249999Y-102923875D01*
G37*
%TO.C,U13*%
G36*
X80249000Y-89645000D02*
G01*
X79549000Y-89645000D01*
X79549000Y-90345000D01*
X80249000Y-90345000D01*
X80249000Y-89645000D01*
G37*
G36*
X79200000Y-90050000D02*
G01*
X78200000Y-90050000D01*
X78200000Y-91150000D01*
X79200000Y-91150000D01*
X79200000Y-90050000D01*
G37*
G36*
X77400000Y-90050000D02*
G01*
X76400000Y-90050000D01*
X76400000Y-91150000D01*
X77400000Y-91150000D01*
X77400000Y-90050000D01*
G37*
G36*
X80249000Y-90914872D02*
G01*
X79549000Y-90914872D01*
X79549000Y-91614872D01*
X80249000Y-91614872D01*
X80249000Y-90914872D01*
G37*
G36*
X80249000Y-92184003D02*
G01*
X79549000Y-92184003D01*
X79549000Y-92884003D01*
X80249000Y-92884003D01*
X80249000Y-92184003D01*
G37*
G36*
X79200000Y-92650000D02*
G01*
X78200000Y-92650000D01*
X78200000Y-93750000D01*
X79200000Y-93750000D01*
X79200000Y-92650000D01*
G37*
G36*
X77400000Y-92650000D02*
G01*
X76400000Y-92650000D01*
X76400000Y-93750000D01*
X77400000Y-93750000D01*
X77400000Y-92650000D01*
G37*
G36*
X80249000Y-93453875D02*
G01*
X79549000Y-93453875D01*
X79549000Y-94153875D01*
X80249000Y-94153875D01*
X80249000Y-93453875D01*
G37*
%TD*%
D10*
%TO.C,U12*%
X74974999Y-99465000D03*
X74974999Y-100735000D03*
X74974999Y-102005000D03*
X74974999Y-103275000D03*
D11*
X80849999Y-99465000D03*
X80849999Y-100735000D03*
X80849999Y-102005000D03*
X80849999Y-103275000D03*
%TD*%
D10*
%TO.C,U13*%
X74974000Y-89995000D03*
X74974000Y-91265000D03*
X74974000Y-92535000D03*
X74974000Y-93805000D03*
D11*
X80849000Y-89995000D03*
X80849000Y-91265000D03*
X80849000Y-92535000D03*
X80849000Y-93805000D03*
%TD*%
D12*
%TO.C,J12*%
X58100000Y-117580000D03*
X58900000Y-117580000D03*
D13*
X60050000Y-117580000D03*
X61050000Y-117580000D03*
X61550000Y-117580000D03*
X62550000Y-117580000D03*
D12*
X63700000Y-117580000D03*
X64500000Y-117580000D03*
X64500000Y-117580000D03*
X63700000Y-117580000D03*
D13*
X63050000Y-117580000D03*
X62050000Y-117580000D03*
X60550000Y-117580000D03*
X59550000Y-117580000D03*
D12*
X58900000Y-117580000D03*
X58100000Y-117580000D03*
D14*
X56180000Y-118145000D03*
X56180000Y-122075000D03*
X66420000Y-118145000D03*
X66420000Y-122075000D03*
%TD*%
D15*
%TO.C,U8*%
X64344500Y-107109600D03*
X64344500Y-106703200D03*
X64344500Y-106296800D03*
X64344500Y-105890400D03*
X63455500Y-105890400D03*
X63455500Y-106296800D03*
X63455500Y-106703200D03*
X63455500Y-107109600D03*
D16*
X63900000Y-106500000D03*
%TD*%
D17*
%TO.C,R45*%
X72825000Y-88000000D03*
X71175000Y-88000000D03*
%TD*%
D18*
%TO.C,R18*%
X68412500Y-111500000D03*
X66587500Y-111500000D03*
%TD*%
D19*
%TO.C,TP34*%
X64500000Y-67000000D03*
%TD*%
D20*
%TO.C,J14*%
X78000000Y-52250000D03*
X80700000Y-52250000D03*
X75300000Y-52250000D03*
%TD*%
D21*
%TO.C,TP11*%
X61950000Y-97100001D03*
%TD*%
D22*
%TO.C,C26*%
X77975000Y-60550000D03*
X79525000Y-60550000D03*
%TD*%
D23*
%TO.C,R31*%
X71175000Y-94100000D03*
X72825000Y-94100000D03*
%TD*%
D17*
%TO.C,R37*%
X72825000Y-95850000D03*
X71175000Y-95850000D03*
%TD*%
D24*
%TO.C,C34*%
X62000000Y-107275000D03*
X62000000Y-105725000D03*
%TD*%
D25*
%TO.C,TP40*%
X59600000Y-103600000D03*
%TD*%
D21*
%TO.C,TP24*%
X80250000Y-75000000D03*
%TD*%
D24*
%TO.C,C5*%
X74150000Y-66475000D03*
X74150000Y-64925000D03*
%TD*%
D26*
%TO.C,TP41*%
X88000000Y-63000000D03*
%TD*%
D27*
%TO.C,U2*%
X64249999Y-74338200D03*
X64750000Y-74338200D03*
X65250000Y-74338200D03*
X65750001Y-74338200D03*
D28*
X65838200Y-73750000D03*
X65838200Y-73250000D03*
D27*
X65750001Y-72661800D03*
X65250000Y-72661800D03*
X64750000Y-72661800D03*
X64249999Y-72661800D03*
D28*
X64161800Y-73250000D03*
X64161800Y-73750000D03*
%TD*%
D17*
%TO.C,R34*%
X75875000Y-97500000D03*
X74225000Y-97500000D03*
%TD*%
%TO.C,R44*%
X75825000Y-87999999D03*
X74175000Y-87999999D03*
%TD*%
D19*
%TO.C,TP32*%
X67500000Y-67000000D03*
%TD*%
D29*
%TO.C,R55*%
X54550000Y-79025000D03*
X54550000Y-80675000D03*
%TD*%
D30*
%TO.C,C33*%
X62274999Y-67000000D03*
X60724999Y-67000000D03*
%TD*%
D31*
%TO.C,LED_2*%
X51250000Y-81450000D03*
X52650000Y-81450000D03*
X52650000Y-78950000D03*
X51250000Y-78950000D03*
%TD*%
D17*
%TO.C,R43*%
X72899000Y-105400000D03*
X71249000Y-105400000D03*
%TD*%
D25*
%TO.C,TP10*%
X65937500Y-103650000D03*
%TD*%
%TO.C,TP14*%
X65000000Y-77750000D03*
%TD*%
D17*
%TO.C,R35*%
X72900000Y-97500000D03*
X71250000Y-97500000D03*
%TD*%
D32*
%TO.C,C35*%
X65800000Y-105725000D03*
X65800000Y-107275000D03*
%TD*%
D33*
%TO.C,SW1*%
X72424999Y-67449999D03*
X72424999Y-71950001D03*
X70275001Y-67449999D03*
X70275001Y-71950001D03*
%TD*%
D26*
%TO.C,TP13*%
X67500000Y-76499999D03*
%TD*%
D29*
%TO.C,R29*%
X54000000Y-63675001D03*
X54000000Y-65325001D03*
%TD*%
D17*
%TO.C,R41*%
X72825000Y-89500000D03*
X71175000Y-89500000D03*
%TD*%
D22*
%TO.C,C25*%
X83500000Y-60500000D03*
X85050000Y-60500000D03*
%TD*%
D21*
%TO.C,TP25*%
X81750000Y-75000001D03*
%TD*%
%TO.C,TP27*%
X83250000Y-75000001D03*
%TD*%
D23*
%TO.C,R56*%
X51175000Y-77000000D03*
X52825000Y-77000000D03*
%TD*%
D17*
%TO.C,R53*%
X88325000Y-82800000D03*
X86675000Y-82800000D03*
%TD*%
D21*
%TO.C,TP38*%
X55950000Y-53050000D03*
%TD*%
%TO.C,TP39*%
X55950000Y-55750000D03*
%TD*%
D33*
%TO.C,SW4*%
X53774999Y-93199999D03*
X53774999Y-97700001D03*
X51625001Y-93199999D03*
X51625001Y-97700001D03*
%TD*%
D29*
%TO.C,R15*%
X68250000Y-119425000D03*
X68250000Y-121075000D03*
%TD*%
%TO.C,R5*%
X60350000Y-96075000D03*
X60350000Y-97725000D03*
%TD*%
D26*
%TO.C,TP36*%
X56000000Y-58500000D03*
%TD*%
D22*
%TO.C,C27*%
X78025000Y-55600000D03*
X79575000Y-55600000D03*
%TD*%
D17*
%TO.C,R40*%
X72700000Y-102200000D03*
X71050000Y-102200000D03*
%TD*%
%TO.C,R10*%
X64825000Y-112500000D03*
X63175000Y-112500000D03*
%TD*%
D24*
%TO.C,C22*%
X67500000Y-74275000D03*
X67500000Y-72725000D03*
%TD*%
D17*
%TO.C,R36*%
X75825000Y-95850001D03*
X74175000Y-95850001D03*
%TD*%
D34*
%TO.C,R46*%
X57500000Y-115825000D03*
X57500000Y-114175000D03*
%TD*%
D26*
%TO.C,TP15*%
X67500000Y-70500000D03*
%TD*%
D17*
%TO.C,R32*%
X72875000Y-99050000D03*
X71225000Y-99050000D03*
%TD*%
D35*
%TO.C,U4*%
X60400000Y-101562500D03*
X60900000Y-101562499D03*
X61400000Y-101562499D03*
X61900000Y-101562500D03*
D36*
X62062500Y-100899998D03*
X62062500Y-100399999D03*
X62062500Y-99900000D03*
D35*
X61900000Y-99237498D03*
X61400000Y-99237499D03*
X60900000Y-99237499D03*
X60400000Y-99237498D03*
D36*
X60237500Y-99900000D03*
X60237500Y-100399999D03*
X60237500Y-100899998D03*
%TD*%
D26*
%TO.C,TP6*%
X58750000Y-97100000D03*
%TD*%
D23*
%TO.C,R16*%
X80375000Y-105450000D03*
X82025000Y-105450000D03*
%TD*%
D21*
%TO.C,TP26*%
X84749999Y-74999999D03*
%TD*%
D29*
%TO.C,R9*%
X78000000Y-57275000D03*
X78000000Y-58925000D03*
%TD*%
D21*
%TO.C,TP29*%
X75750000Y-75000000D03*
%TD*%
D23*
%TO.C,R3*%
X64325000Y-76000000D03*
X65975000Y-76000000D03*
%TD*%
%TO.C,R17*%
X77350000Y-105450000D03*
X79000000Y-105450000D03*
%TD*%
D26*
%TO.C,TP35*%
X56000000Y-61500000D03*
%TD*%
D22*
%TO.C,C24*%
X63525000Y-98650000D03*
X65075000Y-98650000D03*
%TD*%
D31*
%TO.C,LED_1*%
X88300000Y-78550000D03*
X86900000Y-78550000D03*
X86900000Y-81050000D03*
X88300000Y-81050000D03*
%TD*%
D29*
%TO.C,R28*%
X56000000Y-63675000D03*
X56000000Y-65325000D03*
%TD*%
D37*
%TO.C,U7*%
X63260000Y-109250000D03*
X63260000Y-109750000D03*
X63260000Y-110250000D03*
X63260000Y-110750000D03*
X64740000Y-110750000D03*
X64740000Y-110250000D03*
X64740000Y-109750000D03*
X64740000Y-109250000D03*
%TD*%
D19*
%TO.C,TP33*%
X58500000Y-67000000D03*
%TD*%
D38*
%TO.C,R19*%
X88000000Y-116912500D03*
X88000000Y-115087500D03*
%TD*%
D39*
%TO.C,U15*%
X68449999Y-113362500D03*
X67500000Y-113362500D03*
X66550001Y-113362500D03*
X66550001Y-115637500D03*
X68449999Y-115637500D03*
%TD*%
D34*
%TO.C,R7*%
X88000000Y-72825000D03*
X88000000Y-71175000D03*
%TD*%
D24*
%TO.C,C23*%
X63650000Y-101725000D03*
X63650000Y-100175000D03*
%TD*%
D17*
%TO.C,R42*%
X75975000Y-105399999D03*
X74325000Y-105399999D03*
%TD*%
D26*
%TO.C,TP30*%
X88000001Y-69000000D03*
%TD*%
D21*
%TO.C,TP28*%
X77250000Y-74999998D03*
%TD*%
D40*
%TO.C,U11*%
X72100001Y-61375000D03*
X72100001Y-59475000D03*
X72100001Y-58425000D03*
X72100001Y-57575000D03*
X72100001Y-56525000D03*
X72100001Y-54625000D03*
X72100000Y-62225000D03*
X72100000Y-60325000D03*
X72100000Y-55675000D03*
X72100000Y-53775000D03*
X71100000Y-62225000D03*
X71100000Y-61375000D03*
X71100000Y-60325000D03*
X71100000Y-59475000D03*
X71100000Y-58425000D03*
X71100000Y-57575000D03*
X71100000Y-56525000D03*
X71100000Y-55675000D03*
X71100000Y-54625000D03*
X71100000Y-53775000D03*
D41*
X69225000Y-65100000D03*
X69225000Y-64100000D03*
X69225000Y-51900000D03*
X69225000Y-50900000D03*
X68375000Y-65100001D03*
X68375000Y-64100000D03*
X68375000Y-51900000D03*
X68375000Y-50899999D03*
X67325000Y-65100000D03*
X67325000Y-64100000D03*
X67325000Y-51900000D03*
X67325000Y-50900000D03*
X66475000Y-65100001D03*
X66475000Y-64100000D03*
X66475000Y-51900000D03*
X66475000Y-50899999D03*
X65425000Y-65100001D03*
X65425000Y-64100000D03*
X65425000Y-51900000D03*
X65425000Y-50899999D03*
X64575000Y-65100001D03*
X64575000Y-64100000D03*
X64575000Y-51900000D03*
X64575000Y-50899999D03*
X63525000Y-65100001D03*
X63525000Y-64100000D03*
X63525000Y-51900000D03*
X63525000Y-50899999D03*
X62675000Y-65100000D03*
X62675000Y-64100000D03*
X62675000Y-51900000D03*
X62675000Y-50900000D03*
X61625000Y-65100001D03*
X61625000Y-64100000D03*
X61625000Y-51900000D03*
X61625000Y-50899999D03*
X60775000Y-65100000D03*
X60775000Y-64100000D03*
X60775000Y-51900000D03*
X60775000Y-50900000D03*
D40*
X58900000Y-62225000D03*
X58900000Y-61375000D03*
X58900000Y-60325000D03*
X58900000Y-59475000D03*
X58900000Y-58425000D03*
X58900000Y-57575000D03*
X58900000Y-56525000D03*
X58900000Y-55675000D03*
X58900000Y-54625000D03*
X58900000Y-53775000D03*
X57900000Y-62225000D03*
X57900000Y-60325000D03*
X57900000Y-55675000D03*
X57900000Y-53775000D03*
X57899999Y-61375000D03*
X57899999Y-59475000D03*
X57899999Y-58425000D03*
X57899999Y-57575000D03*
X57899999Y-56525000D03*
X57899999Y-54625000D03*
%TD*%
D34*
%TO.C,R8*%
X74200000Y-70000000D03*
X74200000Y-68350000D03*
%TD*%
D21*
%TO.C,TP22*%
X78750000Y-75000000D03*
%TD*%
D33*
%TO.C,SW5*%
X53724999Y-99499999D03*
X53724999Y-104000001D03*
X51575001Y-99499999D03*
X51575001Y-104000001D03*
%TD*%
D30*
%TO.C,C20*%
X65775000Y-71150000D03*
X64225000Y-71150000D03*
%TD*%
D33*
%TO.C,SW3*%
X53774999Y-86899999D03*
X53774999Y-91400001D03*
X51625001Y-86899999D03*
X51625001Y-91400001D03*
%TD*%
D34*
%TO.C,R47*%
X63200000Y-115650000D03*
X63200000Y-114000000D03*
%TD*%
D42*
%TO.C,U5*%
X83540000Y-62600000D03*
X82270000Y-62600000D03*
X81000000Y-62600000D03*
X79730000Y-62600000D03*
X78460000Y-62600000D03*
D43*
X76100000Y-64960000D03*
X76100000Y-66230000D03*
X76100000Y-67500000D03*
X76100000Y-68770000D03*
X76100000Y-70040000D03*
D42*
X78460000Y-72410000D03*
X79730000Y-72410000D03*
X81000000Y-72410000D03*
X82270000Y-72410000D03*
X83540000Y-72410000D03*
D43*
X85900000Y-70040000D03*
X85900000Y-68770000D03*
X85900000Y-67500000D03*
X85900000Y-66230000D03*
X85900000Y-64960000D03*
%TD*%
D29*
%TO.C,R14*%
X68250001Y-122425000D03*
X68250001Y-124075000D03*
%TD*%
D23*
%TO.C,R54*%
X51375000Y-83300000D03*
X53025000Y-83300000D03*
%TD*%
D44*
%TO.C,R51*%
X84683363Y-79816636D03*
X83516637Y-80983362D03*
%TD*%
D23*
%TO.C,R11*%
X66675000Y-109500000D03*
X68325000Y-109500000D03*
%TD*%
D45*
%TO.C,U14*%
X59700001Y-115087500D03*
X60650000Y-115087500D03*
X61599999Y-115087500D03*
X61599999Y-112812500D03*
X60650000Y-112812500D03*
X59700001Y-112812500D03*
%TD*%
D23*
%TO.C,R30*%
X71200000Y-100550000D03*
X72850000Y-100550000D03*
%TD*%
%TO.C,R39*%
X71175000Y-91000000D03*
X72825000Y-91000000D03*
%TD*%
D26*
%TO.C,TP23*%
X81500000Y-60000001D03*
%TD*%
D23*
%TO.C,R38*%
X71175000Y-103750000D03*
X72825000Y-103750000D03*
%TD*%
D30*
%TO.C,C21*%
X65775000Y-69650000D03*
X64225000Y-69650000D03*
%TD*%
D17*
%TO.C,R33*%
X72825000Y-92600000D03*
X71175000Y-92600000D03*
%TD*%
D25*
%TO.C,TP37*%
X63087500Y-103637500D03*
%TD*%
D46*
%TO.C,U16*%
X86137500Y-116949999D03*
X86137500Y-116000000D03*
X86137500Y-115050001D03*
X83862500Y-115050001D03*
X83862500Y-116949999D03*
%TD*%
D44*
%TO.C,R52*%
X84783363Y-82016637D03*
X83616637Y-83183363D03*
%TD*%
D26*
%TO.C,TP31*%
X88000000Y-66000000D03*
%TD*%
%TO.C,TP12*%
X62699294Y-76300000D03*
%TD*%
M02*
