%TF.GenerationSoftware,KiCad,Pcbnew,9.0.0*%
%TF.CreationDate,2026-03-19T12:57:30-04:00*%
%TF.ProjectId,CUR_flight_computer_25-26,4355525f-666c-4696-9768-745f636f6d70,rev?*%
%TF.SameCoordinates,Original*%
%TF.FileFunction,Legend,Bot*%
%TF.FilePolarity,Positive*%
%FSLAX46Y46*%
G04 Gerber Fmt 4.6, Leading zero omitted, Abs format (unit mm)*
G04 Created by KiCad (PCBNEW 9.0.0) date 2026-03-19 12:57:30*
%MOMM*%
%LPD*%
G01*
G04 APERTURE LIST*
%ADD10C,0.100000*%
%ADD11C,0.150000*%
%ADD12C,0.200000*%
%ADD13C,0.300000*%
%ADD14C,0.120000*%
%ADD15C,0.127000*%
%ADD16C,0.152400*%
%ADD17C,0.250000*%
%ADD18C,0.000000*%
G04 APERTURE END LIST*
D10*
X77000000Y-120000000D02*
X84000000Y-120000000D01*
X84000000Y-125000000D01*
X77000000Y-125000000D01*
X77000000Y-120000000D01*
X85000000Y-85000000D02*
X90000000Y-85000000D01*
X90000000Y-92000000D01*
X85000000Y-92000000D01*
X85000000Y-85000000D01*
X85000000Y-92000000D02*
X90000000Y-92000000D01*
X90000000Y-99000000D01*
X85000000Y-99000000D01*
X85000000Y-92000000D01*
X85000000Y-99000000D02*
X90000000Y-99000000D01*
X90000000Y-106000000D01*
X85000000Y-106000000D01*
X85000000Y-99000000D01*
X85000000Y-106000000D02*
X90000000Y-106000000D01*
X90000000Y-113000000D01*
X85000000Y-113000000D01*
X85000000Y-106000000D01*
X70000000Y-120000000D02*
X77000000Y-120000000D01*
X77000000Y-125000000D01*
X70000000Y-125000000D01*
X70000000Y-120000000D01*
D11*
X55555779Y-78107142D02*
X55508160Y-77964285D01*
X55508160Y-77964285D02*
X55460541Y-77916666D01*
X55460541Y-77916666D02*
X55365303Y-77869047D01*
X55365303Y-77869047D02*
X55222446Y-77869047D01*
X55222446Y-77869047D02*
X55127208Y-77916666D01*
X55127208Y-77916666D02*
X55079589Y-77964285D01*
X55079589Y-77964285D02*
X55031969Y-78059523D01*
X55031969Y-78059523D02*
X55031969Y-78440475D01*
X55031969Y-78440475D02*
X56031969Y-78440475D01*
X56031969Y-78440475D02*
X56031969Y-78107142D01*
X56031969Y-78107142D02*
X55984350Y-78011904D01*
X55984350Y-78011904D02*
X55936731Y-77964285D01*
X55936731Y-77964285D02*
X55841493Y-77916666D01*
X55841493Y-77916666D02*
X55746255Y-77916666D01*
X55746255Y-77916666D02*
X55651017Y-77964285D01*
X55651017Y-77964285D02*
X55603398Y-78011904D01*
X55603398Y-78011904D02*
X55555779Y-78107142D01*
X55555779Y-78107142D02*
X55555779Y-78440475D01*
X56031969Y-77249999D02*
X56031969Y-77059523D01*
X56031969Y-77059523D02*
X55984350Y-76964285D01*
X55984350Y-76964285D02*
X55889112Y-76869047D01*
X55889112Y-76869047D02*
X55698636Y-76821428D01*
X55698636Y-76821428D02*
X55365303Y-76821428D01*
X55365303Y-76821428D02*
X55174827Y-76869047D01*
X55174827Y-76869047D02*
X55079589Y-76964285D01*
X55079589Y-76964285D02*
X55031969Y-77059523D01*
X55031969Y-77059523D02*
X55031969Y-77249999D01*
X55031969Y-77249999D02*
X55079589Y-77345237D01*
X55079589Y-77345237D02*
X55174827Y-77440475D01*
X55174827Y-77440475D02*
X55365303Y-77488094D01*
X55365303Y-77488094D02*
X55698636Y-77488094D01*
X55698636Y-77488094D02*
X55889112Y-77440475D01*
X55889112Y-77440475D02*
X55984350Y-77345237D01*
X55984350Y-77345237D02*
X56031969Y-77249999D01*
X56031969Y-76202380D02*
X56031969Y-76011904D01*
X56031969Y-76011904D02*
X55984350Y-75916666D01*
X55984350Y-75916666D02*
X55889112Y-75821428D01*
X55889112Y-75821428D02*
X55698636Y-75773809D01*
X55698636Y-75773809D02*
X55365303Y-75773809D01*
X55365303Y-75773809D02*
X55174827Y-75821428D01*
X55174827Y-75821428D02*
X55079589Y-75916666D01*
X55079589Y-75916666D02*
X55031969Y-76011904D01*
X55031969Y-76011904D02*
X55031969Y-76202380D01*
X55031969Y-76202380D02*
X55079589Y-76297618D01*
X55079589Y-76297618D02*
X55174827Y-76392856D01*
X55174827Y-76392856D02*
X55365303Y-76440475D01*
X55365303Y-76440475D02*
X55698636Y-76440475D01*
X55698636Y-76440475D02*
X55889112Y-76392856D01*
X55889112Y-76392856D02*
X55984350Y-76297618D01*
X55984350Y-76297618D02*
X56031969Y-76202380D01*
X56031969Y-75488094D02*
X56031969Y-74916666D01*
X55031969Y-75202380D02*
X56031969Y-75202380D01*
D12*
G36*
X55104989Y-105361645D02*
G01*
X54968824Y-105361645D01*
X54875172Y-105358668D01*
X54807929Y-105348822D01*
X54766708Y-105337333D01*
X54735572Y-105323634D01*
X54708802Y-105306239D01*
X54688784Y-105287685D01*
X54673400Y-105266403D01*
X54663291Y-105243263D01*
X54655582Y-105191438D01*
X54662304Y-105146201D01*
X54681991Y-105107708D01*
X54714300Y-105077226D01*
X54764499Y-105053746D01*
X54822431Y-105042679D01*
X54907534Y-105039244D01*
X55104989Y-105039244D01*
X55104989Y-105361645D01*
G37*
G36*
X55104989Y-104863389D02*
G01*
X54917456Y-104863389D01*
X54838162Y-104858411D01*
X54790984Y-104846445D01*
X54749996Y-104822438D01*
X54724428Y-104792711D01*
X54709534Y-104756551D01*
X54704431Y-104715164D01*
X54710251Y-104672376D01*
X54727329Y-104635099D01*
X54756688Y-104605565D01*
X54805410Y-104582968D01*
X54858914Y-104573275D01*
X54934401Y-104570298D01*
X55104989Y-104570298D01*
X55104989Y-104863389D01*
G37*
G36*
X57303175Y-105361645D02*
G01*
X57217155Y-105361645D01*
X57095257Y-105355069D01*
X57001764Y-105337454D01*
X56931086Y-105311346D01*
X56874768Y-105276299D01*
X56829170Y-105232782D01*
X56793165Y-105180065D01*
X56768208Y-105120781D01*
X56752108Y-105048357D01*
X56746301Y-104960018D01*
X56750316Y-104892058D01*
X56761642Y-104833851D01*
X56780666Y-104779988D01*
X56805911Y-104733635D01*
X56837985Y-104692723D01*
X56876131Y-104658149D01*
X56919689Y-104629563D01*
X56969402Y-104606095D01*
X57019713Y-104590147D01*
X57077555Y-104578846D01*
X57138948Y-104572553D01*
X57211202Y-104570298D01*
X57303175Y-104570298D01*
X57303175Y-105361645D01*
G37*
G36*
X57652113Y-105695928D02*
G01*
X51943595Y-105695928D01*
X51943595Y-104926892D01*
X52082484Y-104926892D01*
X52082484Y-105500939D01*
X52147895Y-105520479D01*
X52236815Y-105538721D01*
X52338176Y-105551925D01*
X52441597Y-105557039D01*
X52543663Y-105552071D01*
X52632744Y-105537980D01*
X52710493Y-105515747D01*
X52784444Y-105483660D01*
X52847876Y-105444883D01*
X52901995Y-105399502D01*
X52948586Y-105346533D01*
X52986681Y-105287289D01*
X53016560Y-105221052D01*
X53037342Y-105151102D01*
X53050159Y-105075154D01*
X53050616Y-105066569D01*
X53268283Y-105066569D01*
X53270435Y-105136552D01*
X53276450Y-105196246D01*
X53287453Y-105252568D01*
X53303393Y-105302034D01*
X53330649Y-105358907D01*
X53365522Y-105409043D01*
X53408399Y-105452469D01*
X53460548Y-105489262D01*
X53519623Y-105517797D01*
X53589386Y-105539560D01*
X53664493Y-105552460D01*
X53752036Y-105557039D01*
X53839422Y-105552449D01*
X53913847Y-105539560D01*
X53982635Y-105517783D01*
X54040548Y-105489262D01*
X54091546Y-105452535D01*
X54133895Y-105409043D01*
X54168347Y-105358943D01*
X54195490Y-105302034D01*
X54211447Y-105252570D01*
X54222509Y-105196246D01*
X54223156Y-105189759D01*
X54440648Y-105189759D01*
X54440773Y-105191438D01*
X54443808Y-105232270D01*
X54453853Y-105279747D01*
X54471740Y-105326261D01*
X54500335Y-105372636D01*
X54538077Y-105414830D01*
X54588950Y-105455297D01*
X54649219Y-105488102D01*
X54728702Y-105515212D01*
X54775185Y-105524677D01*
X54830979Y-105531928D01*
X54899138Y-105536202D01*
X54983555Y-105537500D01*
X55315038Y-105537500D01*
X55315038Y-105361645D01*
X55536001Y-105361645D01*
X55536001Y-105537500D01*
X56307885Y-105537500D01*
X56307885Y-104961697D01*
X56531367Y-104961697D01*
X56536611Y-105052185D01*
X56551823Y-105134728D01*
X56577833Y-105212395D01*
X56614105Y-105282037D01*
X56661152Y-105344478D01*
X56719511Y-105399502D01*
X56787653Y-105445068D01*
X56870025Y-105482850D01*
X56945478Y-105506268D01*
X57034660Y-105523837D01*
X57129638Y-105533889D01*
X57241961Y-105537500D01*
X57513224Y-105537500D01*
X57513224Y-104394443D01*
X57211278Y-104394443D01*
X57129762Y-104397038D01*
X57049162Y-104404671D01*
X56973294Y-104417112D01*
X56905822Y-104434590D01*
X56818837Y-104469322D01*
X56744698Y-104513206D01*
X56680094Y-104567506D01*
X56627385Y-104630214D01*
X56585992Y-104701186D01*
X56555715Y-104781034D01*
X56537629Y-104866545D01*
X56531477Y-104960018D01*
X56531367Y-104961697D01*
X56307885Y-104961697D01*
X56307885Y-104394443D01*
X55566684Y-104394443D01*
X55566684Y-104570298D01*
X56097836Y-104570298D01*
X56097836Y-104863389D01*
X55641865Y-104863389D01*
X55641865Y-105039244D01*
X56097836Y-105039244D01*
X56097836Y-105361645D01*
X55536001Y-105361645D01*
X55315038Y-105361645D01*
X55315038Y-104394443D01*
X54918907Y-104394443D01*
X54798383Y-104401605D01*
X54714429Y-104420012D01*
X54659376Y-104442081D01*
X54613908Y-104469013D01*
X54574517Y-104501457D01*
X54543612Y-104536333D01*
X54519376Y-104574737D01*
X54502701Y-104614719D01*
X54492768Y-104656315D01*
X54489497Y-104697762D01*
X54491555Y-104715164D01*
X54497948Y-104769238D01*
X54522851Y-104833622D01*
X54548822Y-104871252D01*
X54584943Y-104905416D01*
X54632990Y-104936280D01*
X54632990Y-104939715D01*
X54591740Y-104956478D01*
X54554832Y-104976962D01*
X54521807Y-105001936D01*
X54494229Y-105030925D01*
X54471853Y-105064020D01*
X54454845Y-105101602D01*
X54444334Y-105142495D01*
X54440648Y-105189759D01*
X54223156Y-105189759D01*
X54228467Y-105136553D01*
X54230600Y-105066569D01*
X54230600Y-104394443D01*
X54020551Y-104394443D01*
X54020551Y-105048251D01*
X54016721Y-105129289D01*
X54006499Y-105191230D01*
X53991471Y-105237768D01*
X53965615Y-105284987D01*
X53934060Y-105321024D01*
X53896521Y-105347524D01*
X53830162Y-105372392D01*
X53749441Y-105381184D01*
X53668720Y-105372392D01*
X53602361Y-105347524D01*
X53564822Y-105321024D01*
X53533268Y-105284987D01*
X53507412Y-105237768D01*
X53492383Y-105191230D01*
X53482161Y-105129289D01*
X53478332Y-105048251D01*
X53478332Y-104394443D01*
X53268283Y-104394443D01*
X53268283Y-105066569D01*
X53050616Y-105066569D01*
X53054570Y-104992380D01*
X53049509Y-104905121D01*
X53034649Y-104823318D01*
X53009808Y-104745312D01*
X52976031Y-104674254D01*
X52933157Y-104608966D01*
X52882074Y-104550377D01*
X52823100Y-104499248D01*
X52755525Y-104455809D01*
X52681512Y-104421499D01*
X52599286Y-104395817D01*
X52512378Y-104380269D01*
X52416944Y-104374904D01*
X52331881Y-104378008D01*
X52252996Y-104387039D01*
X52179015Y-104401233D01*
X52125761Y-104416577D01*
X52125761Y-104589837D01*
X52260247Y-104560757D01*
X52328368Y-104553264D01*
X52397328Y-104550758D01*
X52488260Y-104557824D01*
X52571504Y-104578465D01*
X52647751Y-104613114D01*
X52712020Y-104660362D01*
X52764630Y-104720180D01*
X52805519Y-104793780D01*
X52824018Y-104847618D01*
X52835592Y-104908339D01*
X52839637Y-104977038D01*
X52831643Y-105078344D01*
X52810338Y-105160372D01*
X52777457Y-105226733D01*
X52733467Y-105280205D01*
X52678188Y-105322642D01*
X52611594Y-105354037D01*
X52531395Y-105374032D01*
X52434651Y-105381184D01*
X52360157Y-105377368D01*
X52292533Y-105367674D01*
X52292533Y-105102747D01*
X52548682Y-105102747D01*
X52548682Y-104926892D01*
X52082484Y-104926892D01*
X51943595Y-104926892D01*
X51943595Y-104236015D01*
X57652113Y-104236015D01*
X57652113Y-105695928D01*
G37*
D13*
G36*
X82995000Y-70974913D02*
G01*
X82995000Y-70722855D01*
X81834357Y-70722855D01*
X81834357Y-70280195D01*
X81623332Y-70280195D01*
X81623332Y-71416474D01*
X81834357Y-71416474D01*
X81834357Y-70974913D01*
X82995000Y-70974913D01*
G37*
G36*
X81913950Y-71826344D02*
G01*
X82040163Y-71823779D01*
X82129739Y-71815078D01*
X82129739Y-71819200D01*
X82072403Y-71872048D01*
X82022669Y-71940924D01*
X81988414Y-72026195D01*
X81978509Y-72075460D01*
X81975041Y-72131525D01*
X81984842Y-72227513D01*
X81997365Y-72273017D01*
X82015158Y-72314891D01*
X82038671Y-72353525D01*
X82068556Y-72388805D01*
X82104093Y-72419270D01*
X82146591Y-72444858D01*
X82187418Y-72461548D01*
X82234977Y-72473618D01*
X82286921Y-72480341D01*
X82355053Y-72482869D01*
X82995000Y-72482869D01*
X82995000Y-72242534D01*
X82388483Y-72242534D01*
X82313104Y-72238412D01*
X82262271Y-72223941D01*
X82223311Y-72197010D01*
X82198707Y-72161750D01*
X82185008Y-72119393D01*
X82180205Y-72069610D01*
X82189257Y-72000599D01*
X82214094Y-71937627D01*
X82253594Y-71880701D01*
X82310539Y-71826344D01*
X82995000Y-71826344D01*
X82995000Y-71586009D01*
X81511957Y-71586009D01*
X81511957Y-71826344D01*
X81913950Y-71826344D01*
G37*
G36*
X82772030Y-72713534D02*
G01*
X82833158Y-72732088D01*
X82887883Y-72762045D01*
X82933267Y-72800964D01*
X82969429Y-72848680D01*
X82996465Y-72906019D01*
X83012845Y-72968861D01*
X83018447Y-73037544D01*
X83015548Y-73088487D01*
X83007181Y-73134447D01*
X82976040Y-73216055D01*
X82933542Y-73281359D01*
X82889487Y-73330361D01*
X82889487Y-73334391D01*
X82995000Y-73344649D01*
X82995000Y-73562910D01*
X82868695Y-73558880D01*
X82699160Y-73556865D01*
X82324278Y-73556865D01*
X82251411Y-73549998D01*
X82185609Y-73529938D01*
X82126428Y-73496430D01*
X82075242Y-73448880D01*
X82034289Y-73389505D01*
X82001786Y-73313691D01*
X81982150Y-73228687D01*
X81975041Y-73124006D01*
X81980227Y-73033120D01*
X81993451Y-72947785D01*
X82014848Y-72865619D01*
X82043643Y-72788966D01*
X82232962Y-72788966D01*
X82204123Y-72874055D01*
X82184602Y-72948792D01*
X82172488Y-73022808D01*
X82168482Y-73096346D01*
X82172540Y-73154217D01*
X82183503Y-73198836D01*
X82201633Y-73237767D01*
X82223894Y-73266980D01*
X82251170Y-73289619D01*
X82281780Y-73304898D01*
X82314891Y-73313748D01*
X82349466Y-73316714D01*
X82389583Y-73316714D01*
X82370165Y-73221551D01*
X82364895Y-73145713D01*
X82549501Y-73145713D01*
X82556095Y-73236846D01*
X82570841Y-73316714D01*
X82721509Y-73316714D01*
X82757412Y-73279344D01*
X82790660Y-73229702D01*
X82815298Y-73169252D01*
X82825006Y-73099643D01*
X82816855Y-73043314D01*
X82792400Y-72996786D01*
X82751001Y-72965004D01*
X82724568Y-72956358D01*
X82692383Y-72953280D01*
X82646804Y-72959437D01*
X82611802Y-72976640D01*
X82584763Y-73004938D01*
X82559144Y-73062796D01*
X82549501Y-73145713D01*
X82364895Y-73145713D01*
X82361922Y-73102940D01*
X82367877Y-73017402D01*
X82384911Y-72942381D01*
X82413578Y-72874006D01*
X82451773Y-72817542D01*
X82500364Y-72771271D01*
X82559026Y-72736209D01*
X82625214Y-72714607D01*
X82701908Y-72707083D01*
X82772030Y-72713534D01*
G37*
G36*
X82138348Y-74054846D02*
G01*
X82138348Y-74058876D01*
X82077807Y-74112915D01*
X82025416Y-74187287D01*
X81988963Y-74279427D01*
X81978597Y-74330897D01*
X81975041Y-74386864D01*
X81978163Y-74440244D01*
X81987406Y-74491277D01*
X82003277Y-74539781D01*
X82025874Y-74583418D01*
X82055657Y-74622474D01*
X82093652Y-74657240D01*
X82138368Y-74685497D01*
X82192753Y-74707707D01*
X82262179Y-74721446D01*
X82348916Y-74725018D01*
X82995000Y-74725018D01*
X82995000Y-74484683D01*
X82387476Y-74484683D01*
X82318783Y-74481569D01*
X82268499Y-74470395D01*
X82227165Y-74446639D01*
X82200722Y-74414707D01*
X82185630Y-74374816D01*
X82180205Y-74324399D01*
X82188448Y-74255644D01*
X82213453Y-74189119D01*
X82253531Y-74128780D01*
X82309898Y-74074355D01*
X82995000Y-74074355D01*
X82995000Y-73834020D01*
X82004351Y-73834020D01*
X82004351Y-74032589D01*
X82138348Y-74054846D01*
G37*
G36*
X81511957Y-75003455D02*
G01*
X81511957Y-75243790D01*
X82406161Y-75243790D01*
X82406161Y-75248919D01*
X82004351Y-75627007D01*
X82004351Y-75927242D01*
X82469542Y-75491727D01*
X82995000Y-75930265D01*
X82995000Y-75636257D01*
X82533930Y-75247820D01*
X82533930Y-75243790D01*
X82995000Y-75243790D01*
X82995000Y-75003455D01*
X81511957Y-75003455D01*
G37*
G36*
X82004351Y-76388312D02*
G01*
X82004351Y-76648613D01*
X82363021Y-76797174D01*
X82665546Y-76915968D01*
X82665546Y-76920089D01*
X82381431Y-77028716D01*
X82004351Y-77182406D01*
X82004351Y-77445731D01*
X83469808Y-76806333D01*
X83469808Y-76566639D01*
X82939404Y-76794060D01*
X82004351Y-76388312D01*
G37*
G36*
X82610248Y-77547545D02*
G01*
X82709968Y-77572951D01*
X82800234Y-77615258D01*
X82875015Y-77671686D01*
X82935448Y-77742628D01*
X82981078Y-77828764D01*
X83008740Y-77925345D01*
X83018447Y-78037958D01*
X83008792Y-78147852D01*
X82981078Y-78243580D01*
X82935498Y-78329414D01*
X82875015Y-78400659D01*
X82800218Y-78457572D01*
X82709968Y-78500402D01*
X82610222Y-78526219D01*
X82496744Y-78535206D01*
X82383240Y-78526357D01*
X82283520Y-78500951D01*
X82193271Y-78458640D01*
X82118565Y-78402216D01*
X82058079Y-78331264D01*
X82012502Y-78245137D01*
X81984771Y-78148552D01*
X81975041Y-78035943D01*
X82174344Y-78035943D01*
X82179566Y-78088281D01*
X82194860Y-78135594D01*
X82220257Y-78177869D01*
X82256226Y-78213905D01*
X82300847Y-78242334D01*
X82357617Y-78264829D01*
X82420590Y-78278302D01*
X82496744Y-78283148D01*
X82572910Y-78278304D01*
X82635963Y-78264829D01*
X82692580Y-78242316D01*
X82736804Y-78213905D01*
X82772519Y-78178098D01*
X82798170Y-78136602D01*
X82813786Y-78090129D01*
X82819145Y-78037958D01*
X82813800Y-77985709D01*
X82798170Y-77938765D01*
X82772512Y-77896783D01*
X82736804Y-77860455D01*
X82692542Y-77831687D01*
X82635963Y-77809072D01*
X82572910Y-77795598D01*
X82496744Y-77790754D01*
X82420590Y-77795600D01*
X82357617Y-77809072D01*
X82300839Y-77831547D01*
X82256226Y-77859905D01*
X82220215Y-77895924D01*
X82194860Y-77937758D01*
X82179553Y-77984546D01*
X82174344Y-78035943D01*
X81975041Y-78035943D01*
X81984716Y-77926042D01*
X82012502Y-77830230D01*
X82058024Y-77744483D01*
X82118565Y-77673243D01*
X82193286Y-77616334D01*
X82283520Y-77573500D01*
X82383266Y-77547683D01*
X82496744Y-77538695D01*
X82610248Y-77547545D01*
G37*
G36*
X83018447Y-79190266D02*
G01*
X83012215Y-79091532D01*
X82994887Y-79009904D01*
X82967980Y-78942512D01*
X82929513Y-78881200D01*
X82884243Y-78832190D01*
X82831784Y-78794043D01*
X82783915Y-78770995D01*
X82730759Y-78754567D01*
X82673942Y-78745162D01*
X82608302Y-78741836D01*
X82004351Y-78741836D01*
X82004351Y-78982171D01*
X82581832Y-78982171D01*
X82667928Y-78989406D01*
X82730576Y-79011113D01*
X82769700Y-79041242D01*
X82797254Y-79081547D01*
X82813357Y-79129945D01*
X82819145Y-79190266D01*
X82812682Y-79253289D01*
X82794690Y-79303564D01*
X82764057Y-79344715D01*
X82720318Y-79374547D01*
X82667202Y-79391640D01*
X82586961Y-79398361D01*
X82004351Y-79398361D01*
X82004351Y-79638695D01*
X82608302Y-79638695D01*
X82687754Y-79633587D01*
X82754774Y-79619250D01*
X82811359Y-79596747D01*
X82856002Y-79569821D01*
X82896539Y-79535839D01*
X82931722Y-79495511D01*
X82961844Y-79447728D01*
X82985441Y-79394702D01*
X83003609Y-79333056D01*
X83014559Y-79267084D01*
X83018447Y-79190266D01*
G37*
G36*
X82991611Y-80929122D02*
G01*
X83011211Y-80831303D01*
X83018447Y-80725240D01*
X83013395Y-80642690D01*
X82999487Y-80575830D01*
X82978147Y-80521908D01*
X82946799Y-80473941D01*
X82908483Y-80437390D01*
X82862467Y-80410900D01*
X82803058Y-80394107D01*
X82715555Y-80387544D01*
X82203653Y-80387544D01*
X82203653Y-80202072D01*
X82004351Y-80202072D01*
X82004351Y-80387544D01*
X81728845Y-80387544D01*
X81728845Y-80627879D01*
X82004351Y-80627879D01*
X82004351Y-80914834D01*
X82203653Y-80914834D01*
X82203653Y-80627879D01*
X82682216Y-80627879D01*
X82734849Y-80632903D01*
X82766571Y-80645281D01*
X82790824Y-80669835D01*
X82807008Y-80708533D01*
X82813283Y-80767281D01*
X82806688Y-80850720D01*
X82789744Y-80929122D01*
X82991611Y-80929122D01*
G37*
G36*
X82610248Y-81080762D02*
G01*
X82709968Y-81106168D01*
X82800234Y-81148475D01*
X82875015Y-81204903D01*
X82935448Y-81275845D01*
X82981078Y-81361981D01*
X83008740Y-81458562D01*
X83018447Y-81571175D01*
X83008792Y-81681069D01*
X82981078Y-81776797D01*
X82935498Y-81862631D01*
X82875015Y-81933876D01*
X82800218Y-81990789D01*
X82709968Y-82033619D01*
X82610222Y-82059436D01*
X82496744Y-82068423D01*
X82383240Y-82059574D01*
X82283520Y-82034168D01*
X82193271Y-81991857D01*
X82118565Y-81935433D01*
X82058079Y-81864481D01*
X82012502Y-81778354D01*
X81984771Y-81681769D01*
X81975041Y-81569160D01*
X82174344Y-81569160D01*
X82179566Y-81621498D01*
X82194860Y-81668812D01*
X82220257Y-81711086D01*
X82256226Y-81747122D01*
X82300847Y-81775551D01*
X82357617Y-81798047D01*
X82420590Y-81811519D01*
X82496744Y-81816365D01*
X82572910Y-81811521D01*
X82635963Y-81798047D01*
X82692580Y-81775533D01*
X82736804Y-81747122D01*
X82772519Y-81711315D01*
X82798170Y-81669819D01*
X82813786Y-81623346D01*
X82819145Y-81571175D01*
X82813800Y-81518927D01*
X82798170Y-81471982D01*
X82772512Y-81430000D01*
X82736804Y-81393672D01*
X82692542Y-81364904D01*
X82635963Y-81342289D01*
X82572910Y-81328815D01*
X82496744Y-81323971D01*
X82420590Y-81328817D01*
X82357617Y-81342289D01*
X82300839Y-81364764D01*
X82256226Y-81393122D01*
X82220215Y-81429141D01*
X82194860Y-81470975D01*
X82179553Y-81517763D01*
X82174344Y-81569160D01*
X81975041Y-81569160D01*
X81984716Y-81459259D01*
X82012502Y-81363447D01*
X82058024Y-81277700D01*
X82118565Y-81206460D01*
X82193286Y-81149551D01*
X82283520Y-81106717D01*
X82383266Y-81080900D01*
X82496744Y-81071913D01*
X82610248Y-81080762D01*
G37*
D11*
X83642856Y-124454819D02*
X83642856Y-123454819D01*
X83642856Y-123454819D02*
X83261904Y-123454819D01*
X83261904Y-123454819D02*
X83166666Y-123502438D01*
X83166666Y-123502438D02*
X83119047Y-123550057D01*
X83119047Y-123550057D02*
X83071428Y-123645295D01*
X83071428Y-123645295D02*
X83071428Y-123788152D01*
X83071428Y-123788152D02*
X83119047Y-123883390D01*
X83119047Y-123883390D02*
X83166666Y-123931009D01*
X83166666Y-123931009D02*
X83261904Y-123978628D01*
X83261904Y-123978628D02*
X83642856Y-123978628D01*
X82452380Y-123978628D02*
X82452380Y-124454819D01*
X82785713Y-123454819D02*
X82452380Y-123978628D01*
X82452380Y-123978628D02*
X82119047Y-123454819D01*
X81214285Y-124454819D02*
X81547618Y-123978628D01*
X81785713Y-124454819D02*
X81785713Y-123454819D01*
X81785713Y-123454819D02*
X81404761Y-123454819D01*
X81404761Y-123454819D02*
X81309523Y-123502438D01*
X81309523Y-123502438D02*
X81261904Y-123550057D01*
X81261904Y-123550057D02*
X81214285Y-123645295D01*
X81214285Y-123645295D02*
X81214285Y-123788152D01*
X81214285Y-123788152D02*
X81261904Y-123883390D01*
X81261904Y-123883390D02*
X81309523Y-123931009D01*
X81309523Y-123931009D02*
X81404761Y-123978628D01*
X81404761Y-123978628D02*
X81785713Y-123978628D01*
X80595237Y-123454819D02*
X80404761Y-123454819D01*
X80404761Y-123454819D02*
X80309523Y-123502438D01*
X80309523Y-123502438D02*
X80214285Y-123597676D01*
X80214285Y-123597676D02*
X80166666Y-123788152D01*
X80166666Y-123788152D02*
X80166666Y-124121485D01*
X80166666Y-124121485D02*
X80214285Y-124311961D01*
X80214285Y-124311961D02*
X80309523Y-124407200D01*
X80309523Y-124407200D02*
X80404761Y-124454819D01*
X80404761Y-124454819D02*
X80595237Y-124454819D01*
X80595237Y-124454819D02*
X80690475Y-124407200D01*
X80690475Y-124407200D02*
X80785713Y-124311961D01*
X80785713Y-124311961D02*
X80833332Y-124121485D01*
X80833332Y-124121485D02*
X80833332Y-123788152D01*
X80833332Y-123788152D02*
X80785713Y-123597676D01*
X80785713Y-123597676D02*
X80690475Y-123502438D01*
X80690475Y-123502438D02*
X80595237Y-123454819D01*
X79023808Y-124407200D02*
X78880951Y-124454819D01*
X78880951Y-124454819D02*
X78642856Y-124454819D01*
X78642856Y-124454819D02*
X78547618Y-124407200D01*
X78547618Y-124407200D02*
X78499999Y-124359580D01*
X78499999Y-124359580D02*
X78452380Y-124264342D01*
X78452380Y-124264342D02*
X78452380Y-124169104D01*
X78452380Y-124169104D02*
X78499999Y-124073866D01*
X78499999Y-124073866D02*
X78547618Y-124026247D01*
X78547618Y-124026247D02*
X78642856Y-123978628D01*
X78642856Y-123978628D02*
X78833332Y-123931009D01*
X78833332Y-123931009D02*
X78928570Y-123883390D01*
X78928570Y-123883390D02*
X78976189Y-123835771D01*
X78976189Y-123835771D02*
X79023808Y-123740533D01*
X79023808Y-123740533D02*
X79023808Y-123645295D01*
X79023808Y-123645295D02*
X78976189Y-123550057D01*
X78976189Y-123550057D02*
X78928570Y-123502438D01*
X78928570Y-123502438D02*
X78833332Y-123454819D01*
X78833332Y-123454819D02*
X78595237Y-123454819D01*
X78595237Y-123454819D02*
X78452380Y-123502438D01*
X78119046Y-123454819D02*
X77880951Y-124454819D01*
X77880951Y-124454819D02*
X77690475Y-123740533D01*
X77690475Y-123740533D02*
X77499999Y-124454819D01*
X77499999Y-124454819D02*
X77261904Y-123454819D01*
D12*
G36*
X69446124Y-98857305D02*
G01*
X69510884Y-98876328D01*
X69568971Y-98908411D01*
X69618808Y-98953951D01*
X69658522Y-99011023D01*
X69689944Y-99083934D01*
X69708838Y-99165678D01*
X69715666Y-99265971D01*
X69708838Y-99366264D01*
X69689944Y-99448008D01*
X69658502Y-99520855D01*
X69618808Y-99577610D01*
X69569022Y-99622885D01*
X69510884Y-99655233D01*
X69446106Y-99674543D01*
X69373726Y-99681184D01*
X69301357Y-99674541D01*
X69236645Y-99655233D01*
X69178443Y-99622880D01*
X69128644Y-99577610D01*
X69088949Y-99520855D01*
X69057508Y-99448008D01*
X69038614Y-99366264D01*
X69031786Y-99265971D01*
X69038614Y-99165678D01*
X69057508Y-99083934D01*
X69088930Y-99011023D01*
X69128644Y-98953951D01*
X69178493Y-98908416D01*
X69236645Y-98876328D01*
X69301338Y-98857307D01*
X69373726Y-98850758D01*
X69446124Y-98857305D01*
G37*
G36*
X70764689Y-99222008D02*
G01*
X70661573Y-99222008D01*
X70540138Y-99215596D01*
X70492458Y-99207108D01*
X70456256Y-99196286D01*
X70400933Y-99166394D01*
X70368863Y-99130645D01*
X70350834Y-99086622D01*
X70344591Y-99035009D01*
X70349545Y-98990673D01*
X70363749Y-98953111D01*
X70388710Y-98922023D01*
X70428931Y-98896859D01*
X70460983Y-98885450D01*
X70503960Y-98876786D01*
X70615548Y-98870298D01*
X70764689Y-98870298D01*
X70764689Y-99222008D01*
G37*
G36*
X71795470Y-99268948D02*
G01*
X71839434Y-99373438D01*
X71531688Y-99373438D01*
X71576109Y-99269406D01*
X71684263Y-98967995D01*
X71689148Y-98967995D01*
X71795470Y-99268948D01*
G37*
G36*
X73003175Y-99661645D02*
G01*
X72867009Y-99661645D01*
X72773357Y-99658668D01*
X72706114Y-99648822D01*
X72664894Y-99637333D01*
X72633757Y-99623634D01*
X72606987Y-99606239D01*
X72586970Y-99587685D01*
X72571586Y-99566403D01*
X72561477Y-99543263D01*
X72553768Y-99491438D01*
X72560489Y-99446201D01*
X72580177Y-99407708D01*
X72612486Y-99377226D01*
X72662685Y-99353746D01*
X72720616Y-99342679D01*
X72805720Y-99339244D01*
X73003175Y-99339244D01*
X73003175Y-99661645D01*
G37*
G36*
X73003175Y-99163389D02*
G01*
X72815642Y-99163389D01*
X72736348Y-99158411D01*
X72689170Y-99146445D01*
X72648182Y-99122438D01*
X72622614Y-99092711D01*
X72607719Y-99056551D01*
X72602616Y-99015164D01*
X72608436Y-98972376D01*
X72625514Y-98935099D01*
X72654874Y-98905565D01*
X72703596Y-98882968D01*
X72757100Y-98873275D01*
X72832586Y-98870298D01*
X73003175Y-98870298D01*
X73003175Y-99163389D01*
G37*
G36*
X73352113Y-99995928D02*
G01*
X68677963Y-99995928D01*
X68677963Y-99265971D01*
X68816852Y-99265971D01*
X68821165Y-99352216D01*
X68833702Y-99431587D01*
X68854023Y-99504871D01*
X68883066Y-99574877D01*
X68919209Y-99636934D01*
X68962482Y-99691870D01*
X69013174Y-99739838D01*
X69071267Y-99780355D01*
X69137574Y-99813609D01*
X69208023Y-99837241D01*
X69286336Y-99851935D01*
X69373726Y-99857039D01*
X69461116Y-99851935D01*
X69538049Y-99837500D01*
X70061270Y-99837500D01*
X70310397Y-99837500D01*
X70621196Y-99397862D01*
X70764689Y-99397862D01*
X70764689Y-99837500D01*
X70974738Y-99837500D01*
X71135785Y-99837500D01*
X71356978Y-99837500D01*
X71465437Y-99549293D01*
X71904692Y-99549293D01*
X72011549Y-99837500D01*
X72234420Y-99837500D01*
X72096425Y-99489759D01*
X72338834Y-99489759D01*
X72338959Y-99491438D01*
X72341994Y-99532270D01*
X72352038Y-99579747D01*
X72369925Y-99626261D01*
X72398521Y-99672636D01*
X72436263Y-99714830D01*
X72487135Y-99755297D01*
X72547405Y-99788102D01*
X72626888Y-99815212D01*
X72673370Y-99824677D01*
X72729165Y-99831928D01*
X72797324Y-99836202D01*
X72881740Y-99837500D01*
X73213224Y-99837500D01*
X73213224Y-98694443D01*
X72817092Y-98694443D01*
X72696568Y-98701605D01*
X72612615Y-98720012D01*
X72557561Y-98742081D01*
X72512094Y-98769013D01*
X72472703Y-98801457D01*
X72441798Y-98836333D01*
X72417561Y-98874737D01*
X72400887Y-98914719D01*
X72390954Y-98956315D01*
X72387683Y-98997762D01*
X72389740Y-99015164D01*
X72396133Y-99069238D01*
X72421037Y-99133622D01*
X72447008Y-99171252D01*
X72483129Y-99205416D01*
X72531175Y-99236280D01*
X72531175Y-99239715D01*
X72489925Y-99256478D01*
X72453018Y-99276962D01*
X72419992Y-99301936D01*
X72392415Y-99330925D01*
X72370039Y-99364020D01*
X72353031Y-99401602D01*
X72342520Y-99442495D01*
X72338834Y-99489759D01*
X72096425Y-99489759D01*
X71780816Y-98694443D01*
X71589390Y-98694443D01*
X71319941Y-99373438D01*
X71135785Y-99837500D01*
X70974738Y-99837500D01*
X70974738Y-98694443D01*
X70627302Y-98694443D01*
X70542635Y-98696996D01*
X70466865Y-98704289D01*
X70395563Y-98717170D01*
X70339630Y-98733903D01*
X70276105Y-98764714D01*
X70224895Y-98802860D01*
X70184307Y-98848469D01*
X70154713Y-98901536D01*
X70136209Y-98964372D01*
X70130032Y-99035009D01*
X70129658Y-99039283D01*
X70137369Y-99117010D01*
X70159535Y-99184192D01*
X70195832Y-99242997D01*
X70245094Y-99291717D01*
X70311948Y-99333225D01*
X70400385Y-99366950D01*
X70400385Y-99370385D01*
X70061270Y-99837500D01*
X69538049Y-99837500D01*
X69539429Y-99837241D01*
X69609878Y-99813609D01*
X69676185Y-99780355D01*
X69734278Y-99739838D01*
X69784970Y-99691870D01*
X69828243Y-99636934D01*
X69864385Y-99574877D01*
X69893429Y-99504871D01*
X69913750Y-99431587D01*
X69926287Y-99352216D01*
X69930600Y-99265971D01*
X69926287Y-99179727D01*
X69913750Y-99100356D01*
X69893429Y-99027071D01*
X69864382Y-98957068D01*
X69828240Y-98895038D01*
X69784970Y-98840149D01*
X69734273Y-98792135D01*
X69676180Y-98751593D01*
X69609878Y-98718333D01*
X69539429Y-98694701D01*
X69461116Y-98680008D01*
X69373726Y-98674904D01*
X69286336Y-98680008D01*
X69208023Y-98694701D01*
X69137574Y-98718333D01*
X69071272Y-98751593D01*
X69013179Y-98792135D01*
X68962482Y-98840149D01*
X68919212Y-98895038D01*
X68883069Y-98957068D01*
X68854023Y-99027071D01*
X68833702Y-99100356D01*
X68821165Y-99179727D01*
X68816852Y-99265971D01*
X68677963Y-99265971D01*
X68677963Y-98536015D01*
X73352113Y-98536015D01*
X73352113Y-99995928D01*
G37*
D11*
X70907200Y-108738095D02*
X70954819Y-108880952D01*
X70954819Y-108880952D02*
X70954819Y-109119047D01*
X70954819Y-109119047D02*
X70907200Y-109214285D01*
X70907200Y-109214285D02*
X70859580Y-109261904D01*
X70859580Y-109261904D02*
X70764342Y-109309523D01*
X70764342Y-109309523D02*
X70669104Y-109309523D01*
X70669104Y-109309523D02*
X70573866Y-109261904D01*
X70573866Y-109261904D02*
X70526247Y-109214285D01*
X70526247Y-109214285D02*
X70478628Y-109119047D01*
X70478628Y-109119047D02*
X70431009Y-108928571D01*
X70431009Y-108928571D02*
X70383390Y-108833333D01*
X70383390Y-108833333D02*
X70335771Y-108785714D01*
X70335771Y-108785714D02*
X70240533Y-108738095D01*
X70240533Y-108738095D02*
X70145295Y-108738095D01*
X70145295Y-108738095D02*
X70050057Y-108785714D01*
X70050057Y-108785714D02*
X70002438Y-108833333D01*
X70002438Y-108833333D02*
X69954819Y-108928571D01*
X69954819Y-108928571D02*
X69954819Y-109166666D01*
X69954819Y-109166666D02*
X70002438Y-109309523D01*
X70478628Y-109928571D02*
X70954819Y-109928571D01*
X69954819Y-109595238D02*
X70478628Y-109928571D01*
X70478628Y-109928571D02*
X69954819Y-110261904D01*
X70907200Y-110547619D02*
X70954819Y-110690476D01*
X70954819Y-110690476D02*
X70954819Y-110928571D01*
X70954819Y-110928571D02*
X70907200Y-111023809D01*
X70907200Y-111023809D02*
X70859580Y-111071428D01*
X70859580Y-111071428D02*
X70764342Y-111119047D01*
X70764342Y-111119047D02*
X70669104Y-111119047D01*
X70669104Y-111119047D02*
X70573866Y-111071428D01*
X70573866Y-111071428D02*
X70526247Y-111023809D01*
X70526247Y-111023809D02*
X70478628Y-110928571D01*
X70478628Y-110928571D02*
X70431009Y-110738095D01*
X70431009Y-110738095D02*
X70383390Y-110642857D01*
X70383390Y-110642857D02*
X70335771Y-110595238D01*
X70335771Y-110595238D02*
X70240533Y-110547619D01*
X70240533Y-110547619D02*
X70145295Y-110547619D01*
X70145295Y-110547619D02*
X70050057Y-110595238D01*
X70050057Y-110595238D02*
X70002438Y-110642857D01*
X70002438Y-110642857D02*
X69954819Y-110738095D01*
X69954819Y-110738095D02*
X69954819Y-110976190D01*
X69954819Y-110976190D02*
X70002438Y-111119047D01*
X70431009Y-112642857D02*
X70478628Y-112785714D01*
X70478628Y-112785714D02*
X70526247Y-112833333D01*
X70526247Y-112833333D02*
X70621485Y-112880952D01*
X70621485Y-112880952D02*
X70764342Y-112880952D01*
X70764342Y-112880952D02*
X70859580Y-112833333D01*
X70859580Y-112833333D02*
X70907200Y-112785714D01*
X70907200Y-112785714D02*
X70954819Y-112690476D01*
X70954819Y-112690476D02*
X70954819Y-112309524D01*
X70954819Y-112309524D02*
X69954819Y-112309524D01*
X69954819Y-112309524D02*
X69954819Y-112642857D01*
X69954819Y-112642857D02*
X70002438Y-112738095D01*
X70002438Y-112738095D02*
X70050057Y-112785714D01*
X70050057Y-112785714D02*
X70145295Y-112833333D01*
X70145295Y-112833333D02*
X70240533Y-112833333D01*
X70240533Y-112833333D02*
X70335771Y-112785714D01*
X70335771Y-112785714D02*
X70383390Y-112738095D01*
X70383390Y-112738095D02*
X70431009Y-112642857D01*
X70431009Y-112642857D02*
X70431009Y-112309524D01*
X70669104Y-113261905D02*
X70669104Y-113738095D01*
X70954819Y-113166667D02*
X69954819Y-113500000D01*
X69954819Y-113500000D02*
X70954819Y-113833333D01*
X69954819Y-114023810D02*
X69954819Y-114595238D01*
X70954819Y-114309524D02*
X69954819Y-114309524D01*
X69954819Y-114785715D02*
X69954819Y-115357143D01*
X70954819Y-115071429D02*
X69954819Y-115071429D01*
X89454819Y-107309524D02*
X88454819Y-107309524D01*
X88454819Y-107309524D02*
X88454819Y-107690476D01*
X88454819Y-107690476D02*
X88502438Y-107785714D01*
X88502438Y-107785714D02*
X88550057Y-107833333D01*
X88550057Y-107833333D02*
X88645295Y-107880952D01*
X88645295Y-107880952D02*
X88788152Y-107880952D01*
X88788152Y-107880952D02*
X88883390Y-107833333D01*
X88883390Y-107833333D02*
X88931009Y-107785714D01*
X88931009Y-107785714D02*
X88978628Y-107690476D01*
X88978628Y-107690476D02*
X88978628Y-107309524D01*
X88978628Y-108500000D02*
X89454819Y-108500000D01*
X88454819Y-108166667D02*
X88978628Y-108500000D01*
X88978628Y-108500000D02*
X88454819Y-108833333D01*
X89454819Y-109738095D02*
X88978628Y-109404762D01*
X89454819Y-109166667D02*
X88454819Y-109166667D01*
X88454819Y-109166667D02*
X88454819Y-109547619D01*
X88454819Y-109547619D02*
X88502438Y-109642857D01*
X88502438Y-109642857D02*
X88550057Y-109690476D01*
X88550057Y-109690476D02*
X88645295Y-109738095D01*
X88645295Y-109738095D02*
X88788152Y-109738095D01*
X88788152Y-109738095D02*
X88883390Y-109690476D01*
X88883390Y-109690476D02*
X88931009Y-109642857D01*
X88931009Y-109642857D02*
X88978628Y-109547619D01*
X88978628Y-109547619D02*
X88978628Y-109166667D01*
X88454819Y-110357143D02*
X88454819Y-110547619D01*
X88454819Y-110547619D02*
X88502438Y-110642857D01*
X88502438Y-110642857D02*
X88597676Y-110738095D01*
X88597676Y-110738095D02*
X88788152Y-110785714D01*
X88788152Y-110785714D02*
X89121485Y-110785714D01*
X89121485Y-110785714D02*
X89311961Y-110738095D01*
X89311961Y-110738095D02*
X89407200Y-110642857D01*
X89407200Y-110642857D02*
X89454819Y-110547619D01*
X89454819Y-110547619D02*
X89454819Y-110357143D01*
X89454819Y-110357143D02*
X89407200Y-110261905D01*
X89407200Y-110261905D02*
X89311961Y-110166667D01*
X89311961Y-110166667D02*
X89121485Y-110119048D01*
X89121485Y-110119048D02*
X88788152Y-110119048D01*
X88788152Y-110119048D02*
X88597676Y-110166667D01*
X88597676Y-110166667D02*
X88502438Y-110261905D01*
X88502438Y-110261905D02*
X88454819Y-110357143D01*
X88550057Y-111166667D02*
X88502438Y-111214286D01*
X88502438Y-111214286D02*
X88454819Y-111309524D01*
X88454819Y-111309524D02*
X88454819Y-111547619D01*
X88454819Y-111547619D02*
X88502438Y-111642857D01*
X88502438Y-111642857D02*
X88550057Y-111690476D01*
X88550057Y-111690476D02*
X88645295Y-111738095D01*
X88645295Y-111738095D02*
X88740533Y-111738095D01*
X88740533Y-111738095D02*
X88883390Y-111690476D01*
X88883390Y-111690476D02*
X89454819Y-111119048D01*
X89454819Y-111119048D02*
X89454819Y-111738095D01*
X89454819Y-100309524D02*
X88454819Y-100309524D01*
X88454819Y-100309524D02*
X88454819Y-100690476D01*
X88454819Y-100690476D02*
X88502438Y-100785714D01*
X88502438Y-100785714D02*
X88550057Y-100833333D01*
X88550057Y-100833333D02*
X88645295Y-100880952D01*
X88645295Y-100880952D02*
X88788152Y-100880952D01*
X88788152Y-100880952D02*
X88883390Y-100833333D01*
X88883390Y-100833333D02*
X88931009Y-100785714D01*
X88931009Y-100785714D02*
X88978628Y-100690476D01*
X88978628Y-100690476D02*
X88978628Y-100309524D01*
X88978628Y-101500000D02*
X89454819Y-101500000D01*
X88454819Y-101166667D02*
X88978628Y-101500000D01*
X88978628Y-101500000D02*
X88454819Y-101833333D01*
X89454819Y-102738095D02*
X88978628Y-102404762D01*
X89454819Y-102166667D02*
X88454819Y-102166667D01*
X88454819Y-102166667D02*
X88454819Y-102547619D01*
X88454819Y-102547619D02*
X88502438Y-102642857D01*
X88502438Y-102642857D02*
X88550057Y-102690476D01*
X88550057Y-102690476D02*
X88645295Y-102738095D01*
X88645295Y-102738095D02*
X88788152Y-102738095D01*
X88788152Y-102738095D02*
X88883390Y-102690476D01*
X88883390Y-102690476D02*
X88931009Y-102642857D01*
X88931009Y-102642857D02*
X88978628Y-102547619D01*
X88978628Y-102547619D02*
X88978628Y-102166667D01*
X88454819Y-103357143D02*
X88454819Y-103547619D01*
X88454819Y-103547619D02*
X88502438Y-103642857D01*
X88502438Y-103642857D02*
X88597676Y-103738095D01*
X88597676Y-103738095D02*
X88788152Y-103785714D01*
X88788152Y-103785714D02*
X89121485Y-103785714D01*
X89121485Y-103785714D02*
X89311961Y-103738095D01*
X89311961Y-103738095D02*
X89407200Y-103642857D01*
X89407200Y-103642857D02*
X89454819Y-103547619D01*
X89454819Y-103547619D02*
X89454819Y-103357143D01*
X89454819Y-103357143D02*
X89407200Y-103261905D01*
X89407200Y-103261905D02*
X89311961Y-103166667D01*
X89311961Y-103166667D02*
X89121485Y-103119048D01*
X89121485Y-103119048D02*
X88788152Y-103119048D01*
X88788152Y-103119048D02*
X88597676Y-103166667D01*
X88597676Y-103166667D02*
X88502438Y-103261905D01*
X88502438Y-103261905D02*
X88454819Y-103357143D01*
X89454819Y-104738095D02*
X89454819Y-104166667D01*
X89454819Y-104452381D02*
X88454819Y-104452381D01*
X88454819Y-104452381D02*
X88597676Y-104357143D01*
X88597676Y-104357143D02*
X88692914Y-104261905D01*
X88692914Y-104261905D02*
X88740533Y-104166667D01*
D12*
G36*
X71031188Y-51487220D02*
G01*
X71045690Y-51682996D01*
X71166929Y-51704790D01*
X71284819Y-51711924D01*
X71403815Y-51704491D01*
X71505533Y-51683510D01*
X71592602Y-51650418D01*
X71667213Y-51605875D01*
X71731021Y-51549731D01*
X71786373Y-51481810D01*
X71828886Y-51409287D01*
X71859329Y-51331445D01*
X71877914Y-51247301D01*
X71884283Y-51155661D01*
X71877641Y-51061012D01*
X71858136Y-50972855D01*
X71825973Y-50890070D01*
X71780780Y-50811734D01*
X71721632Y-50737166D01*
X71653193Y-50674176D01*
X71575855Y-50625087D01*
X71488360Y-50589263D01*
X71388945Y-50566915D01*
X71275431Y-50559098D01*
X71173050Y-50565151D01*
X71078205Y-50582835D01*
X71108125Y-50778916D01*
X71208457Y-50752969D01*
X71301077Y-50744722D01*
X71386480Y-50752470D01*
X71455954Y-50774104D01*
X71512720Y-50808381D01*
X71558982Y-50855700D01*
X71595374Y-50913077D01*
X71621648Y-50976437D01*
X71637859Y-51046836D01*
X71643475Y-51125588D01*
X71637012Y-51205230D01*
X71618139Y-51277888D01*
X71587053Y-51344862D01*
X71543183Y-51407155D01*
X71489002Y-51458501D01*
X71425429Y-51495319D01*
X71350590Y-51518220D01*
X71261769Y-51526299D01*
X71154244Y-51517047D01*
X71031188Y-51487220D01*
G37*
G36*
X70633912Y-51687500D02*
G01*
X70867011Y-51687500D01*
X70857519Y-51389264D01*
X70854189Y-51054529D01*
X70861412Y-50734697D01*
X70880674Y-50489717D01*
X70633912Y-50476055D01*
X70643261Y-50729430D01*
X70646735Y-51054529D01*
X70643396Y-51390500D01*
X70633912Y-51687500D01*
G37*
G36*
X70229763Y-50852622D02*
G01*
X70336791Y-50866696D01*
X70415544Y-50887070D01*
X70434320Y-51042698D01*
X70310022Y-51017073D01*
X70182445Y-51008504D01*
X70102645Y-51012810D01*
X70050962Y-51023517D01*
X70019336Y-51038043D01*
X69996511Y-51061698D01*
X69981006Y-51100209D01*
X69974914Y-51160088D01*
X69976670Y-51189244D01*
X70120513Y-51198642D01*
X70227760Y-51218332D01*
X70305902Y-51245459D01*
X70361352Y-51278087D01*
X70410302Y-51324007D01*
X70443981Y-51374334D01*
X70464129Y-51430062D01*
X70471033Y-51492868D01*
X70462903Y-51555712D01*
X70439566Y-51607905D01*
X70400584Y-51652008D01*
X70350671Y-51684768D01*
X70292362Y-51704875D01*
X70223432Y-51711924D01*
X70143733Y-51706178D01*
X70076184Y-51689968D01*
X70018744Y-51664300D01*
X69969801Y-51629415D01*
X69958733Y-51629415D01*
X69955577Y-51659043D01*
X69945071Y-51694979D01*
X69743571Y-51687500D01*
X69763285Y-51566504D01*
X69765823Y-51510118D01*
X69971556Y-51510118D01*
X70018849Y-51537507D01*
X70074269Y-51554506D01*
X70139778Y-51560493D01*
X70200579Y-51552803D01*
X70238228Y-51533144D01*
X70260002Y-51503025D01*
X70267853Y-51458980D01*
X70261432Y-51418393D01*
X70242721Y-51384987D01*
X70210203Y-51356842D01*
X70159577Y-51333841D01*
X70084412Y-51317647D01*
X69976670Y-51311366D01*
X69971556Y-51510118D01*
X69765823Y-51510118D01*
X69770895Y-51397461D01*
X69767919Y-51270836D01*
X69764866Y-51139938D01*
X69771222Y-51057926D01*
X69788394Y-50995255D01*
X69814477Y-50947757D01*
X69848977Y-50912334D01*
X69908528Y-50877998D01*
X69986395Y-50855570D01*
X70087648Y-50847304D01*
X70229763Y-50852622D01*
G37*
G36*
X69016490Y-50875087D02*
G01*
X69066026Y-51072008D01*
X69129980Y-51053625D01*
X69194101Y-51047583D01*
X69253407Y-51055145D01*
X69298881Y-51076161D01*
X69333917Y-51110346D01*
X69359804Y-51160317D01*
X69354690Y-51687500D01*
X69581836Y-51687500D01*
X69570508Y-51441957D01*
X69567258Y-51266715D01*
X69572144Y-51131518D01*
X69586508Y-51003153D01*
X69610000Y-50881040D01*
X69392243Y-50857074D01*
X69377741Y-50965609D01*
X69364078Y-50965609D01*
X69320063Y-50912420D01*
X69271327Y-50876218D01*
X69216888Y-50854684D01*
X69154869Y-50847304D01*
X69092067Y-50853746D01*
X69016490Y-50875087D01*
G37*
G36*
X68122103Y-51687500D02*
G01*
X68383367Y-51687500D01*
X68390221Y-51664792D01*
X68424353Y-51603531D01*
X68513197Y-51471268D01*
X68609140Y-51344883D01*
X68657310Y-51296780D01*
X68678901Y-51286941D01*
X68689968Y-51286941D01*
X68679664Y-51687500D01*
X68905970Y-51687500D01*
X68895743Y-51054529D01*
X68902885Y-50739729D01*
X68922228Y-50489717D01*
X68679664Y-50476055D01*
X68688825Y-50788331D01*
X68691647Y-51049568D01*
X68690808Y-51174590D01*
X68678825Y-51174590D01*
X68663683Y-51167658D01*
X68625247Y-51132179D01*
X68543117Y-51036821D01*
X68447859Y-50909221D01*
X68431223Y-50871728D01*
X68176753Y-50871728D01*
X68183049Y-50889190D01*
X68213695Y-50931697D01*
X68292921Y-51019343D01*
X68405917Y-51128764D01*
X68480759Y-51186573D01*
X68480759Y-51199472D01*
X68431218Y-51242401D01*
X68360434Y-51322255D01*
X68261780Y-51454248D01*
X68166224Y-51596837D01*
X68129488Y-51662951D01*
X68122103Y-51687500D01*
G37*
G36*
X67432652Y-51455850D02*
G01*
X67439925Y-51521877D01*
X67460443Y-51575743D01*
X67493767Y-51620200D01*
X67541486Y-51656744D01*
X67606990Y-51685395D01*
X67695103Y-51704699D01*
X67811762Y-51711924D01*
X67945257Y-51703867D01*
X68053410Y-51681699D01*
X68024406Y-51511645D01*
X67916931Y-51541123D01*
X67811762Y-51550724D01*
X67717182Y-51545554D01*
X67669567Y-51534008D01*
X67646968Y-51519854D01*
X67634254Y-51501632D01*
X67629878Y-51478061D01*
X67636053Y-51452478D01*
X67656951Y-51425078D01*
X67699359Y-51394266D01*
X67773370Y-51359451D01*
X67888800Y-51306569D01*
X67956095Y-51262135D01*
X68000369Y-51213498D01*
X68025981Y-51159852D01*
X68034634Y-51099103D01*
X68029139Y-51044100D01*
X68013294Y-50996226D01*
X67987261Y-50953998D01*
X67950141Y-50916455D01*
X67906609Y-50888011D01*
X67852636Y-50866417D01*
X67786030Y-50852388D01*
X67704143Y-50847304D01*
X67561263Y-50855028D01*
X67466769Y-50874400D01*
X67495773Y-51047583D01*
X67561148Y-51026050D01*
X67630380Y-51012959D01*
X67704143Y-51008504D01*
X67774382Y-51014626D01*
X67814072Y-51029274D01*
X67834228Y-51049219D01*
X67840766Y-51075213D01*
X67833536Y-51107516D01*
X67811762Y-51132839D01*
X67774487Y-51154197D01*
X67693076Y-51187870D01*
X67579350Y-51237325D01*
X67512947Y-51280911D01*
X67468164Y-51330940D01*
X67441740Y-51388409D01*
X67432652Y-51455850D01*
G37*
G36*
X66956784Y-50845291D02*
G01*
X67037041Y-50868068D01*
X67111737Y-50905924D01*
X67181997Y-50959961D01*
X67228946Y-51011350D01*
X67265640Y-51069747D01*
X67292498Y-51136151D01*
X67309297Y-51211950D01*
X67315186Y-51298848D01*
X67306770Y-51398254D01*
X67283038Y-51481516D01*
X67245215Y-51551656D01*
X67193065Y-51610868D01*
X67128841Y-51659431D01*
X67059438Y-51693741D01*
X66983729Y-51714556D01*
X66900202Y-51721693D01*
X66812765Y-51713973D01*
X66732624Y-51691329D01*
X66658243Y-51653749D01*
X66588487Y-51600183D01*
X66541856Y-51549123D01*
X66505397Y-51491053D01*
X66478700Y-51424970D01*
X66461996Y-51349487D01*
X66457842Y-51288086D01*
X66679010Y-51288086D01*
X66685784Y-51364066D01*
X66704978Y-51428156D01*
X66735796Y-51482641D01*
X66778291Y-51526566D01*
X66826645Y-51551889D01*
X66883105Y-51560493D01*
X66940879Y-51551358D01*
X66990478Y-51524355D01*
X67034231Y-51477145D01*
X67065763Y-51419031D01*
X67085397Y-51351116D01*
X67092315Y-51271142D01*
X67085541Y-51195162D01*
X67066347Y-51131072D01*
X67035528Y-51076587D01*
X66993033Y-51032662D01*
X66944679Y-51007339D01*
X66888219Y-50998735D01*
X66830445Y-51007870D01*
X66780846Y-51034873D01*
X66737094Y-51082083D01*
X66705562Y-51140197D01*
X66685927Y-51208111D01*
X66679010Y-51288086D01*
X66457842Y-51288086D01*
X66456138Y-51262899D01*
X66464532Y-51163066D01*
X66488202Y-51079389D01*
X66525915Y-51008856D01*
X66577878Y-50949275D01*
X66641942Y-50900253D01*
X66711077Y-50865671D01*
X66786406Y-50844715D01*
X66869443Y-50837534D01*
X66956784Y-50845291D01*
G37*
G36*
X65530458Y-51687500D02*
G01*
X65757604Y-51687500D01*
X65743487Y-51469960D01*
X65738751Y-51248778D01*
X65744512Y-51158823D01*
X65758827Y-51101193D01*
X65778441Y-51066283D01*
X65808108Y-51040460D01*
X65847357Y-51024203D01*
X65899265Y-51018274D01*
X65962032Y-51025464D01*
X66023083Y-51047277D01*
X66083744Y-51085136D01*
X66079470Y-51687500D01*
X66309211Y-51687500D01*
X66297141Y-51434282D01*
X66293793Y-51266715D01*
X66298590Y-51130926D01*
X66312662Y-51002572D01*
X66335620Y-50881040D01*
X66117022Y-50857074D01*
X66102520Y-50946528D01*
X66088858Y-50946528D01*
X66027574Y-50902766D01*
X65962949Y-50872050D01*
X65894104Y-50853579D01*
X65819886Y-50847304D01*
X65734266Y-50854904D01*
X65665252Y-50876020D01*
X65609455Y-50909281D01*
X65577575Y-50942931D01*
X65553037Y-50989629D01*
X65536612Y-51053017D01*
X65530458Y-51137877D01*
X65532595Y-51204128D01*
X65534732Y-51289231D01*
X65530458Y-51687500D01*
G37*
G36*
X64011420Y-50573752D02*
G01*
X64019129Y-51146273D01*
X64026522Y-51279992D01*
X64046922Y-51389152D01*
X64078202Y-51477771D01*
X64119043Y-51549281D01*
X64169033Y-51606396D01*
X64228697Y-51650949D01*
X64299456Y-51683754D01*
X64383502Y-51704530D01*
X64483648Y-51711924D01*
X64577246Y-51706122D01*
X64656621Y-51689808D01*
X64723969Y-51664183D01*
X64781127Y-51629830D01*
X64829481Y-51586673D01*
X64866537Y-51536766D01*
X64897955Y-51470842D01*
X64922807Y-51385237D01*
X64939436Y-51275576D01*
X64945573Y-51136885D01*
X64953282Y-50573752D01*
X64711634Y-50573752D01*
X64719988Y-50858948D01*
X64722701Y-51128489D01*
X64717630Y-51252329D01*
X64704402Y-51342389D01*
X64685560Y-51405953D01*
X64662938Y-51449286D01*
X64629702Y-51486650D01*
X64589041Y-51513377D01*
X64539441Y-51530102D01*
X64478534Y-51536069D01*
X64414287Y-51529987D01*
X64363119Y-51513127D01*
X64322249Y-51486523D01*
X64289857Y-51449744D01*
X64267973Y-51406707D01*
X64249648Y-51343039D01*
X64236735Y-51252251D01*
X64231773Y-51126810D01*
X64234454Y-50863126D01*
X64242840Y-50573752D01*
X64011420Y-50573752D01*
G37*
G36*
X63040402Y-51687500D02*
G01*
X63267548Y-51687500D01*
X63253431Y-51469960D01*
X63248695Y-51248778D01*
X63254456Y-51158823D01*
X63268771Y-51101193D01*
X63288385Y-51066283D01*
X63318052Y-51040460D01*
X63357301Y-51024203D01*
X63409209Y-51018274D01*
X63471976Y-51025464D01*
X63533027Y-51047277D01*
X63593688Y-51085136D01*
X63589414Y-51687500D01*
X63819155Y-51687500D01*
X63807085Y-51434282D01*
X63803737Y-51266715D01*
X63808534Y-51130926D01*
X63822606Y-51002572D01*
X63845564Y-50881040D01*
X63626967Y-50857074D01*
X63612465Y-50946528D01*
X63598802Y-50946528D01*
X63537518Y-50902766D01*
X63472893Y-50872050D01*
X63404048Y-50853579D01*
X63329830Y-50847304D01*
X63244210Y-50854904D01*
X63175196Y-50876020D01*
X63119399Y-50909281D01*
X63087519Y-50942931D01*
X63062981Y-50989629D01*
X63046556Y-51053017D01*
X63040402Y-51137877D01*
X63042539Y-51204128D01*
X63044676Y-51289231D01*
X63040402Y-51687500D01*
G37*
G36*
X62608703Y-51687500D02*
G01*
X62838367Y-51687500D01*
X62829631Y-51503718D01*
X62826461Y-51280835D01*
X62834239Y-51060140D01*
X62855464Y-50881880D01*
X62609542Y-50857074D01*
X62617595Y-51034814D01*
X62620686Y-51280835D01*
X62617563Y-51496790D01*
X62608703Y-51687500D01*
G37*
G36*
X62569395Y-50613136D02*
G01*
X62573831Y-50650599D01*
X62586911Y-50684383D01*
X62609084Y-50715489D01*
X62638182Y-50739382D01*
X62674342Y-50754121D01*
X62719681Y-50759377D01*
X62757834Y-50754867D01*
X62788416Y-50742180D01*
X62813180Y-50721519D01*
X62838372Y-50680083D01*
X62846916Y-50630310D01*
X62842461Y-50592874D01*
X62829368Y-50559410D01*
X62807226Y-50528872D01*
X62778175Y-50505516D01*
X62741762Y-50491018D01*
X62695791Y-50485825D01*
X62657017Y-50490341D01*
X62626493Y-50502945D01*
X62602291Y-50523301D01*
X62577727Y-50564165D01*
X62569395Y-50613136D01*
G37*
G36*
X61677832Y-50871728D02*
G01*
X61685780Y-50910478D01*
X61725931Y-51024607D01*
X61830713Y-51279614D01*
X61935441Y-51534618D01*
X61975574Y-51648749D01*
X61983517Y-51687500D01*
X62216617Y-51687500D01*
X62223982Y-51645206D01*
X62260098Y-51526732D01*
X62352400Y-51269768D01*
X62469985Y-50941410D01*
X62488184Y-50871728D01*
X62238828Y-50871728D01*
X62226218Y-50934796D01*
X62154716Y-51170163D01*
X62083749Y-51405944D01*
X62070605Y-51475390D01*
X62059538Y-51475390D01*
X62047160Y-51411211D01*
X61979320Y-51186878D01*
X61913099Y-50959996D01*
X61899025Y-50871728D01*
X61677832Y-50871728D01*
G37*
G36*
X61272268Y-50856246D02*
G01*
X61354428Y-50881654D01*
X61424611Y-50922630D01*
X61484804Y-50979959D01*
X61533546Y-51049261D01*
X61568087Y-51123772D01*
X61589059Y-51204603D01*
X61596240Y-51293200D01*
X61588722Y-51377504D01*
X61566766Y-51453918D01*
X61530466Y-51524042D01*
X61478851Y-51589039D01*
X61416563Y-51640934D01*
X61341412Y-51679071D01*
X61250761Y-51703273D01*
X61141109Y-51711924D01*
X61025198Y-51706563D01*
X60928819Y-51691703D01*
X60849086Y-51668876D01*
X60831989Y-51501875D01*
X60974919Y-51531562D01*
X61104396Y-51540954D01*
X61178892Y-51533441D01*
X61240002Y-51512293D01*
X61290555Y-51478290D01*
X61331366Y-51432759D01*
X61358719Y-51380881D01*
X61373368Y-51321135D01*
X60823440Y-51311823D01*
X60818326Y-51198861D01*
X60818832Y-51192297D01*
X61018148Y-51192297D01*
X61375047Y-51199014D01*
X61355540Y-51120408D01*
X61326645Y-51065567D01*
X61289637Y-51028730D01*
X61243584Y-51006568D01*
X61185530Y-50998735D01*
X61124110Y-51006818D01*
X61079499Y-51028871D01*
X61047302Y-51064447D01*
X61026169Y-51116827D01*
X61018148Y-51192297D01*
X60818832Y-51192297D01*
X60824295Y-51121458D01*
X60841318Y-51054457D01*
X60868647Y-50996091D01*
X60906330Y-50945001D01*
X60953241Y-50904176D01*
X61011837Y-50873852D01*
X61084693Y-50854357D01*
X61175226Y-50847304D01*
X61272268Y-50856246D01*
G37*
G36*
X60100405Y-50875087D02*
G01*
X60149941Y-51072008D01*
X60213895Y-51053625D01*
X60278015Y-51047583D01*
X60337322Y-51055145D01*
X60382796Y-51076161D01*
X60417832Y-51110346D01*
X60443719Y-51160317D01*
X60438605Y-51687500D01*
X60665751Y-51687500D01*
X60654423Y-51441957D01*
X60651173Y-51266715D01*
X60656059Y-51131518D01*
X60670423Y-51003153D01*
X60693915Y-50881040D01*
X60476157Y-50857074D01*
X60461656Y-50965609D01*
X60447993Y-50965609D01*
X60403977Y-50912420D01*
X60355242Y-50876218D01*
X60300803Y-50854684D01*
X60238784Y-50847304D01*
X60175982Y-50853746D01*
X60100405Y-50875087D01*
G37*
G36*
X59409274Y-51455850D02*
G01*
X59416548Y-51521877D01*
X59437065Y-51575743D01*
X59470389Y-51620200D01*
X59518109Y-51656744D01*
X59583613Y-51685395D01*
X59671725Y-51704699D01*
X59788385Y-51711924D01*
X59921880Y-51703867D01*
X60030033Y-51681699D01*
X60001029Y-51511645D01*
X59893554Y-51541123D01*
X59788385Y-51550724D01*
X59693804Y-51545554D01*
X59646190Y-51534008D01*
X59623591Y-51519854D01*
X59610876Y-51501632D01*
X59606500Y-51478061D01*
X59612675Y-51452478D01*
X59633574Y-51425078D01*
X59675982Y-51394266D01*
X59749993Y-51359451D01*
X59865422Y-51306569D01*
X59932717Y-51262135D01*
X59976991Y-51213498D01*
X60002603Y-51159852D01*
X60011256Y-51099103D01*
X60005762Y-51044100D01*
X59989917Y-50996226D01*
X59963883Y-50953998D01*
X59926764Y-50916455D01*
X59883231Y-50888011D01*
X59829258Y-50866417D01*
X59762652Y-50852388D01*
X59680765Y-50847304D01*
X59537886Y-50855028D01*
X59443392Y-50874400D01*
X59472396Y-51047583D01*
X59537770Y-51026050D01*
X59607002Y-51012959D01*
X59680765Y-51008504D01*
X59751004Y-51014626D01*
X59790695Y-51029274D01*
X59810850Y-51049219D01*
X59817389Y-51075213D01*
X59810158Y-51107516D01*
X59788385Y-51132839D01*
X59751110Y-51154197D01*
X59669698Y-51187870D01*
X59555973Y-51237325D01*
X59489569Y-51280911D01*
X59444787Y-51330940D01*
X59418362Y-51388409D01*
X59409274Y-51455850D01*
G37*
G36*
X59013448Y-51687500D02*
G01*
X59243113Y-51687500D01*
X59234376Y-51503718D01*
X59231206Y-51280835D01*
X59238985Y-51060140D01*
X59260210Y-50881880D01*
X59014288Y-50857074D01*
X59022340Y-51034814D01*
X59025431Y-51280835D01*
X59022308Y-51496790D01*
X59013448Y-51687500D01*
G37*
G36*
X58974140Y-50613136D02*
G01*
X58978576Y-50650599D01*
X58991656Y-50684383D01*
X59013830Y-50715489D01*
X59042927Y-50739382D01*
X59079087Y-50754121D01*
X59124426Y-50759377D01*
X59162579Y-50754867D01*
X59193162Y-50742180D01*
X59217925Y-50721519D01*
X59243117Y-50680083D01*
X59251661Y-50630310D01*
X59247207Y-50592874D01*
X59234114Y-50559410D01*
X59211972Y-50528872D01*
X59182921Y-50505516D01*
X59146507Y-50491018D01*
X59100536Y-50485825D01*
X59061762Y-50490341D01*
X59031238Y-50502945D01*
X59007037Y-50523301D01*
X58982472Y-50564165D01*
X58974140Y-50613136D01*
G37*
G36*
X58739286Y-50647407D02*
G01*
X58746079Y-50886383D01*
X58868200Y-50881269D01*
X58874153Y-51052697D01*
X58756306Y-51047583D01*
X58757985Y-51340827D01*
X58752117Y-51453793D01*
X58736812Y-51535380D01*
X58714864Y-51592690D01*
X58687995Y-51631629D01*
X58650781Y-51663269D01*
X58604971Y-51686677D01*
X58548729Y-51701649D01*
X58479625Y-51707039D01*
X58393541Y-51700141D01*
X58329339Y-51681699D01*
X58314837Y-51531184D01*
X58368033Y-51542334D01*
X58415587Y-51545839D01*
X58464484Y-51539376D01*
X58499406Y-51521848D01*
X58524047Y-51493708D01*
X58538860Y-51456539D01*
X58550167Y-51391981D01*
X58554806Y-51288086D01*
X58553050Y-51047583D01*
X58342162Y-51052697D01*
X58335293Y-50879590D01*
X58549692Y-50886383D01*
X58536869Y-50622601D01*
X58739286Y-50647407D01*
G37*
G36*
X57455560Y-50871728D02*
G01*
X57462675Y-50912642D01*
X57495826Y-51015177D01*
X57577682Y-51224278D01*
X57700648Y-51539944D01*
X57749339Y-51689713D01*
X57783467Y-51799223D01*
X57820258Y-51881665D01*
X57858827Y-51942135D01*
X57898785Y-51984941D01*
X57945616Y-52017198D01*
X58004591Y-52041759D01*
X58078389Y-52057793D01*
X58170276Y-52063633D01*
X58187373Y-51902433D01*
X58119155Y-51895202D01*
X58061879Y-51874599D01*
X58013197Y-51840991D01*
X57975639Y-51796128D01*
X57952878Y-51742331D01*
X57944886Y-51676890D01*
X57955415Y-51607038D01*
X57999173Y-51470508D01*
X58098606Y-51231529D01*
X58234916Y-50919573D01*
X58252250Y-50871728D01*
X57988391Y-50871728D01*
X57977433Y-50926680D01*
X57910692Y-51161843D01*
X57845959Y-51398897D01*
X57832992Y-51480122D01*
X57821085Y-51480122D01*
X57809590Y-51408421D01*
X57750636Y-51187107D01*
X57692832Y-50963443D01*
X57680187Y-50871728D01*
X57455560Y-50871728D01*
G37*
G36*
X71572186Y-52676347D02*
G01*
X71679348Y-52678866D01*
X71827038Y-52678866D01*
X71818978Y-52909312D01*
X71815971Y-53207652D01*
X71818894Y-53522030D01*
X71827038Y-53787500D01*
X71589665Y-53787500D01*
X71597374Y-53343817D01*
X71502577Y-53342978D01*
X71444100Y-53348071D01*
X71397694Y-53362121D01*
X71360856Y-53384065D01*
X71331836Y-53413961D01*
X71300636Y-53467587D01*
X71252152Y-53581232D01*
X71179795Y-53787500D01*
X70927004Y-53787500D01*
X71035281Y-53517519D01*
X71102095Y-53382667D01*
X71151041Y-53314907D01*
X71201132Y-53271822D01*
X71253220Y-53248257D01*
X71253220Y-53235511D01*
X71180857Y-53201908D01*
X71125199Y-53162522D01*
X71083507Y-53117567D01*
X71053965Y-53066511D01*
X71035832Y-53008122D01*
X71035440Y-53003938D01*
X71247267Y-53003938D01*
X71254380Y-53059750D01*
X71274362Y-53103739D01*
X71307189Y-53138795D01*
X71355441Y-53166021D01*
X71423865Y-53184516D01*
X71518835Y-53191547D01*
X71598213Y-53189868D01*
X71600838Y-52988598D01*
X71607602Y-52846859D01*
X71543778Y-52838129D01*
X71465864Y-52834952D01*
X71391098Y-52840979D01*
X71336550Y-52856964D01*
X71297402Y-52880839D01*
X71270210Y-52912182D01*
X71253342Y-52952291D01*
X71247267Y-53003938D01*
X71035440Y-53003938D01*
X71029509Y-52940587D01*
X71037062Y-52871648D01*
X71058350Y-52815455D01*
X71092890Y-52769130D01*
X71142287Y-52731096D01*
X71210012Y-52701310D01*
X71301026Y-52681254D01*
X71421443Y-52673752D01*
X71572186Y-52676347D01*
G37*
G36*
X70490978Y-52945291D02*
G01*
X70571235Y-52968068D01*
X70645931Y-53005924D01*
X70716191Y-53059961D01*
X70763140Y-53111350D01*
X70799834Y-53169747D01*
X70826692Y-53236151D01*
X70843491Y-53311950D01*
X70849380Y-53398848D01*
X70840964Y-53498254D01*
X70817232Y-53581516D01*
X70779409Y-53651656D01*
X70727259Y-53710868D01*
X70663035Y-53759431D01*
X70593632Y-53793741D01*
X70517923Y-53814556D01*
X70434396Y-53821693D01*
X70346959Y-53813973D01*
X70266818Y-53791329D01*
X70192437Y-53753749D01*
X70122681Y-53700183D01*
X70076050Y-53649123D01*
X70039591Y-53591053D01*
X70012894Y-53524970D01*
X69996190Y-53449487D01*
X69992036Y-53388086D01*
X70213204Y-53388086D01*
X70219978Y-53464066D01*
X70239172Y-53528156D01*
X70269990Y-53582641D01*
X70312485Y-53626566D01*
X70360839Y-53651889D01*
X70417299Y-53660493D01*
X70475073Y-53651358D01*
X70524672Y-53624355D01*
X70568425Y-53577145D01*
X70599957Y-53519031D01*
X70619591Y-53451116D01*
X70626509Y-53371142D01*
X70619735Y-53295162D01*
X70600541Y-53231072D01*
X70569722Y-53176587D01*
X70527227Y-53132662D01*
X70478873Y-53107339D01*
X70422413Y-53098735D01*
X70364639Y-53107870D01*
X70315040Y-53134873D01*
X70271288Y-53182083D01*
X70239756Y-53240197D01*
X70220121Y-53308111D01*
X70213204Y-53388086D01*
X69992036Y-53388086D01*
X69990332Y-53362899D01*
X69998726Y-53263066D01*
X70022396Y-53179389D01*
X70060109Y-53108856D01*
X70112072Y-53049275D01*
X70176136Y-53000253D01*
X70245271Y-52965671D01*
X70320600Y-52944715D01*
X70403637Y-52937534D01*
X70490978Y-52945291D01*
G37*
G36*
X69190132Y-53606760D02*
G01*
X69204634Y-53770708D01*
X69258116Y-53792292D01*
X69327203Y-53806628D01*
X69415598Y-53811924D01*
X69525231Y-53803286D01*
X69616046Y-53779102D01*
X69691494Y-53740963D01*
X69754180Y-53689039D01*
X69806224Y-53623985D01*
X69842773Y-53553927D01*
X69864854Y-53477710D01*
X69872409Y-53393734D01*
X69864582Y-53306467D01*
X69841583Y-53226188D01*
X69803313Y-53151366D01*
X69748608Y-53080874D01*
X69682586Y-53023531D01*
X69605645Y-52982174D01*
X69515634Y-52956392D01*
X69409569Y-52947304D01*
X69307838Y-52953677D01*
X69222570Y-52971499D01*
X69251574Y-53147583D01*
X69333488Y-53122208D01*
X69427505Y-53113389D01*
X69492963Y-53121860D01*
X69546373Y-53146008D01*
X69590614Y-53186128D01*
X69623380Y-53237447D01*
X69643399Y-53296482D01*
X69650377Y-53365265D01*
X69642214Y-53439708D01*
X69618623Y-53504200D01*
X69579546Y-53560964D01*
X69541549Y-53595157D01*
X69496470Y-53619919D01*
X69442886Y-53635446D01*
X69378809Y-53640954D01*
X69299124Y-53633371D01*
X69190132Y-53606760D01*
G37*
G36*
X68273534Y-53787500D02*
G01*
X68534798Y-53787500D01*
X68541652Y-53764792D01*
X68575783Y-53703531D01*
X68664628Y-53571268D01*
X68760571Y-53444883D01*
X68808741Y-53396780D01*
X68830331Y-53386941D01*
X68841399Y-53386941D01*
X68831095Y-53787500D01*
X69057401Y-53787500D01*
X69047173Y-53154529D01*
X69054316Y-52839729D01*
X69073658Y-52589717D01*
X68831095Y-52576055D01*
X68840256Y-52888331D01*
X68843078Y-53149568D01*
X68842238Y-53274590D01*
X68830255Y-53274590D01*
X68815114Y-53267658D01*
X68776678Y-53232179D01*
X68694548Y-53136821D01*
X68599290Y-53009221D01*
X68582654Y-52971728D01*
X68328183Y-52971728D01*
X68334480Y-52989190D01*
X68365126Y-53031697D01*
X68444351Y-53119343D01*
X68557348Y-53228764D01*
X68632189Y-53286573D01*
X68632189Y-53299472D01*
X68582648Y-53342401D01*
X68511865Y-53422255D01*
X68413210Y-53554248D01*
X68317655Y-53696837D01*
X68280919Y-53762951D01*
X68273534Y-53787500D01*
G37*
G36*
X67876594Y-52956246D02*
G01*
X67958755Y-52981654D01*
X68028938Y-53022630D01*
X68089131Y-53079959D01*
X68137872Y-53149261D01*
X68172414Y-53223772D01*
X68193385Y-53304603D01*
X68200566Y-53393200D01*
X68193048Y-53477504D01*
X68171093Y-53553918D01*
X68134793Y-53624042D01*
X68083177Y-53689039D01*
X68020889Y-53740934D01*
X67945739Y-53779071D01*
X67855088Y-53803273D01*
X67745435Y-53811924D01*
X67629524Y-53806563D01*
X67533145Y-53791703D01*
X67453412Y-53768876D01*
X67436315Y-53601875D01*
X67579245Y-53631562D01*
X67708722Y-53640954D01*
X67783218Y-53633441D01*
X67844328Y-53612293D01*
X67894881Y-53578290D01*
X67935692Y-53532759D01*
X67963046Y-53480881D01*
X67977695Y-53421135D01*
X67427767Y-53411823D01*
X67422653Y-53298861D01*
X67423159Y-53292297D01*
X67622474Y-53292297D01*
X67979374Y-53299014D01*
X67959867Y-53220408D01*
X67930971Y-53165567D01*
X67893963Y-53128730D01*
X67847911Y-53106568D01*
X67789857Y-53098735D01*
X67728436Y-53106818D01*
X67683825Y-53128871D01*
X67651628Y-53164447D01*
X67630495Y-53216827D01*
X67622474Y-53292297D01*
X67423159Y-53292297D01*
X67428622Y-53221458D01*
X67445645Y-53154457D01*
X67472973Y-53096091D01*
X67510657Y-53045001D01*
X67557567Y-53004176D01*
X67616163Y-52973852D01*
X67689020Y-52954357D01*
X67779553Y-52947304D01*
X67876594Y-52956246D01*
G37*
G36*
X67186424Y-52747407D02*
G01*
X67193217Y-52986383D01*
X67315339Y-52981269D01*
X67321292Y-53152697D01*
X67203445Y-53147583D01*
X67205124Y-53440827D01*
X67199256Y-53553793D01*
X67183951Y-53635380D01*
X67162003Y-53692690D01*
X67135133Y-53731629D01*
X67097920Y-53763269D01*
X67052110Y-53786677D01*
X66995868Y-53801649D01*
X66926764Y-53807039D01*
X66840680Y-53800141D01*
X66776478Y-53781699D01*
X66761976Y-53631184D01*
X66815172Y-53642334D01*
X66862726Y-53645839D01*
X66911623Y-53639376D01*
X66946545Y-53621848D01*
X66971185Y-53593708D01*
X66985999Y-53556539D01*
X66997306Y-53491981D01*
X67001945Y-53388086D01*
X67000189Y-53147583D01*
X66789301Y-53152697D01*
X66782431Y-52979590D01*
X66996831Y-52986383D01*
X66984008Y-52722601D01*
X67186424Y-52747407D01*
G37*
G36*
X66070922Y-52975087D02*
G01*
X66120457Y-53172008D01*
X66184411Y-53153625D01*
X66248532Y-53147583D01*
X66307839Y-53155145D01*
X66353313Y-53176161D01*
X66388348Y-53210346D01*
X66414235Y-53260317D01*
X66409122Y-53787500D01*
X66636267Y-53787500D01*
X66624940Y-53541957D01*
X66621689Y-53366715D01*
X66626575Y-53231518D01*
X66640940Y-53103153D01*
X66664432Y-52981040D01*
X66446674Y-52957074D01*
X66432172Y-53065609D01*
X66418510Y-53065609D01*
X66374494Y-53012420D01*
X66325758Y-52976218D01*
X66271320Y-52954684D01*
X66209300Y-52947304D01*
X66146498Y-52953746D01*
X66070922Y-52975087D01*
G37*
G36*
X65228589Y-52971728D02*
G01*
X65235703Y-53012642D01*
X65268854Y-53115177D01*
X65350710Y-53324278D01*
X65473677Y-53639944D01*
X65522367Y-53789713D01*
X65556496Y-53899223D01*
X65593286Y-53981665D01*
X65631856Y-54042135D01*
X65671813Y-54084941D01*
X65718645Y-54117198D01*
X65777620Y-54141759D01*
X65851417Y-54157793D01*
X65943305Y-54163633D01*
X65960402Y-54002433D01*
X65892184Y-53995202D01*
X65834907Y-53974599D01*
X65786226Y-53940991D01*
X65748667Y-53896128D01*
X65725907Y-53842331D01*
X65717914Y-53776890D01*
X65728444Y-53707038D01*
X65772202Y-53570508D01*
X65871635Y-53331529D01*
X66007945Y-53019573D01*
X66025279Y-52971728D01*
X65761420Y-52971728D01*
X65750461Y-53026680D01*
X65683720Y-53261843D01*
X65618988Y-53498897D01*
X65606021Y-53580122D01*
X65594114Y-53580122D01*
X65582619Y-53508421D01*
X65523665Y-53287107D01*
X65465860Y-53063443D01*
X65453216Y-52971728D01*
X65228589Y-52971728D01*
G37*
G36*
X63919676Y-52673752D02*
G01*
X63925630Y-52862430D01*
X64094196Y-52852708D01*
X64247649Y-52849607D01*
X64249328Y-53207881D01*
X64246893Y-53510200D01*
X64239863Y-53787500D01*
X64478992Y-53787500D01*
X64470785Y-53512098D01*
X64467925Y-53207881D01*
X64471360Y-52849607D01*
X64603032Y-52852574D01*
X64801775Y-52863269D01*
X64794905Y-52673752D01*
X63919676Y-52673752D01*
G37*
G36*
X63621884Y-52956246D02*
G01*
X63704044Y-52981654D01*
X63774227Y-53022630D01*
X63834420Y-53079959D01*
X63883162Y-53149261D01*
X63917703Y-53223772D01*
X63938675Y-53304603D01*
X63945856Y-53393200D01*
X63938338Y-53477504D01*
X63916382Y-53553918D01*
X63880083Y-53624042D01*
X63828467Y-53689039D01*
X63766179Y-53740934D01*
X63691028Y-53779071D01*
X63600377Y-53803273D01*
X63490725Y-53811924D01*
X63374814Y-53806563D01*
X63278435Y-53791703D01*
X63198702Y-53768876D01*
X63181605Y-53601875D01*
X63324535Y-53631562D01*
X63454012Y-53640954D01*
X63528508Y-53633441D01*
X63589618Y-53612293D01*
X63640171Y-53578290D01*
X63680982Y-53532759D01*
X63708336Y-53480881D01*
X63722984Y-53421135D01*
X63173056Y-53411823D01*
X63167943Y-53298861D01*
X63168449Y-53292297D01*
X63367764Y-53292297D01*
X63724664Y-53299014D01*
X63705157Y-53220408D01*
X63676261Y-53165567D01*
X63639253Y-53128730D01*
X63593200Y-53106568D01*
X63535146Y-53098735D01*
X63473726Y-53106818D01*
X63429115Y-53128871D01*
X63396918Y-53164447D01*
X63375785Y-53216827D01*
X63367764Y-53292297D01*
X63168449Y-53292297D01*
X63173911Y-53221458D01*
X63190935Y-53154457D01*
X63218263Y-53096091D01*
X63255946Y-53045001D01*
X63302857Y-53004176D01*
X63361453Y-52973852D01*
X63434309Y-52954357D01*
X63524842Y-52947304D01*
X63621884Y-52956246D01*
G37*
G36*
X62804781Y-52952622D02*
G01*
X62911808Y-52966696D01*
X62990561Y-52987070D01*
X63009337Y-53142698D01*
X62885039Y-53117073D01*
X62757462Y-53108504D01*
X62677663Y-53112810D01*
X62625979Y-53123517D01*
X62594354Y-53138043D01*
X62571529Y-53161698D01*
X62556024Y-53200209D01*
X62549932Y-53260088D01*
X62551687Y-53289244D01*
X62695531Y-53298642D01*
X62802777Y-53318332D01*
X62880919Y-53345459D01*
X62936370Y-53378087D01*
X62985320Y-53424007D01*
X63018998Y-53474334D01*
X63039147Y-53530062D01*
X63046050Y-53592868D01*
X63037920Y-53655712D01*
X63014583Y-53707905D01*
X62975601Y-53752008D01*
X62925689Y-53784768D01*
X62867379Y-53804875D01*
X62798449Y-53811924D01*
X62718751Y-53806178D01*
X62651201Y-53789968D01*
X62593761Y-53764300D01*
X62544818Y-53729415D01*
X62533751Y-53729415D01*
X62530594Y-53759043D01*
X62520088Y-53794979D01*
X62318588Y-53787500D01*
X62338303Y-53666504D01*
X62340841Y-53610118D01*
X62546574Y-53610118D01*
X62593867Y-53637507D01*
X62649286Y-53654506D01*
X62714796Y-53660493D01*
X62775596Y-53652803D01*
X62813246Y-53633144D01*
X62835019Y-53603025D01*
X62842871Y-53558980D01*
X62836449Y-53518393D01*
X62817739Y-53484987D01*
X62785221Y-53456842D01*
X62734594Y-53433841D01*
X62659429Y-53417647D01*
X62551687Y-53411366D01*
X62546574Y-53610118D01*
X62340841Y-53610118D01*
X62345913Y-53497461D01*
X62342936Y-53370836D01*
X62339883Y-53239938D01*
X62346239Y-53157926D01*
X62363411Y-53095255D01*
X62389495Y-53047757D01*
X62423994Y-53012334D01*
X62483545Y-52977998D01*
X62561412Y-52955570D01*
X62662665Y-52947304D01*
X62804781Y-52952622D01*
G37*
G36*
X60889615Y-53787500D02*
G01*
X61115921Y-53787500D01*
X61102400Y-53572101D01*
X61097984Y-53365875D01*
X61103942Y-53262583D01*
X61118342Y-53200197D01*
X61137292Y-53165443D01*
X61166736Y-53140369D01*
X61207312Y-53124254D01*
X61262772Y-53118274D01*
X61307557Y-53123374D01*
X61355827Y-53139514D01*
X61408784Y-53168649D01*
X61412218Y-53360685D01*
X61407104Y-53787500D01*
X61635929Y-53787500D01*
X61621776Y-53554195D01*
X61617153Y-53330765D01*
X61621650Y-53254024D01*
X61633116Y-53201592D01*
X61649210Y-53167123D01*
X61674909Y-53142002D01*
X61716786Y-53124965D01*
X61781941Y-53118274D01*
X61841411Y-53125426D01*
X61892253Y-53146090D01*
X61936501Y-53180556D01*
X61932226Y-53787500D01*
X62161967Y-53787500D01*
X62149905Y-53534913D01*
X62146550Y-53366715D01*
X62151277Y-53233794D01*
X62165283Y-53105377D01*
X62188376Y-52981040D01*
X61969779Y-52957074D01*
X61955277Y-53046528D01*
X61941615Y-53046528D01*
X61883117Y-53002337D01*
X61822506Y-52971687D01*
X61758968Y-52953450D01*
X61691418Y-52947304D01*
X61604380Y-52954633D01*
X61537181Y-52974582D01*
X61485539Y-53005269D01*
X61446412Y-53046528D01*
X61432750Y-53046528D01*
X61366108Y-53001003D01*
X61302792Y-52970468D01*
X61241934Y-52952982D01*
X61182554Y-52947304D01*
X61087604Y-52955382D01*
X61016410Y-52977097D01*
X60963498Y-53010120D01*
X60933847Y-53043774D01*
X60910854Y-53090365D01*
X60895407Y-53153519D01*
X60889615Y-53237877D01*
X60891370Y-53299853D01*
X60893049Y-53361830D01*
X60889615Y-53787500D01*
G37*
G36*
X71196892Y-55708592D02*
G01*
X71214829Y-55887500D01*
X71864591Y-55887500D01*
X71846654Y-55719659D01*
X71717869Y-55639494D01*
X71624300Y-55565503D01*
X71559280Y-55497072D01*
X71517217Y-55433288D01*
X71493810Y-55372877D01*
X71486320Y-55314216D01*
X71492588Y-55263268D01*
X71510105Y-55223376D01*
X71538641Y-55191860D01*
X71580202Y-55167590D01*
X71638687Y-55151207D01*
X71719419Y-55145001D01*
X71782611Y-55147365D01*
X71851768Y-55154771D01*
X71835511Y-54997540D01*
X71753459Y-54984295D01*
X71624622Y-54978916D01*
X71536282Y-54984406D01*
X71464397Y-54999562D01*
X71406117Y-55022894D01*
X71359084Y-55053639D01*
X71319273Y-55094139D01*
X71291094Y-55140641D01*
X71273777Y-55194341D01*
X71267722Y-55257048D01*
X71275233Y-55335206D01*
X71297279Y-55406511D01*
X71334038Y-55472526D01*
X71386867Y-55534340D01*
X71469703Y-55606828D01*
X71553691Y-55665077D01*
X71639200Y-55710271D01*
X71639200Y-55721414D01*
X71442322Y-55718438D01*
X71196892Y-55708592D01*
G37*
G36*
X70709413Y-54975070D02*
G01*
X70776413Y-54991961D01*
X70834760Y-55019062D01*
X70885812Y-55056399D01*
X70930438Y-55104778D01*
X70973557Y-55174332D01*
X71005940Y-55257885D01*
X71026721Y-55358115D01*
X71034165Y-55478240D01*
X71026845Y-55596338D01*
X71006989Y-55688788D01*
X70977001Y-55760505D01*
X70938147Y-55815524D01*
X70886870Y-55860247D01*
X70824079Y-55893176D01*
X70747337Y-55914158D01*
X70653375Y-55921693D01*
X70557265Y-55913332D01*
X70477678Y-55889847D01*
X70411424Y-55852511D01*
X70356239Y-55801022D01*
X70314396Y-55738785D01*
X70282380Y-55659895D01*
X70261396Y-55560632D01*
X70257059Y-55490376D01*
X70464621Y-55490376D01*
X70471198Y-55584477D01*
X70488407Y-55651723D01*
X70513504Y-55698600D01*
X70545408Y-55730047D01*
X70584911Y-55748939D01*
X70634523Y-55755608D01*
X70681546Y-55750180D01*
X70719746Y-55734849D01*
X70751129Y-55709856D01*
X70776718Y-55673863D01*
X70799032Y-55617180D01*
X70814662Y-55535636D01*
X70820682Y-55421683D01*
X70813910Y-55318499D01*
X70796289Y-55245398D01*
X70770838Y-55195062D01*
X70738921Y-55161805D01*
X70699977Y-55142117D01*
X70651620Y-55135232D01*
X70605014Y-55141537D01*
X70566711Y-55159624D01*
X70534671Y-55189986D01*
X70508203Y-55235295D01*
X70485165Y-55303385D01*
X70470095Y-55387370D01*
X70464621Y-55490376D01*
X70257059Y-55490376D01*
X70253733Y-55436490D01*
X70260740Y-55321858D01*
X70280116Y-55228140D01*
X70309989Y-55151780D01*
X70349369Y-55089818D01*
X70401396Y-55038179D01*
X70464200Y-55000898D01*
X70539996Y-54977486D01*
X70632004Y-54969146D01*
X70709413Y-54975070D01*
G37*
G36*
X69423689Y-55708592D02*
G01*
X69441625Y-55887500D01*
X70091388Y-55887500D01*
X70073451Y-55719659D01*
X69944666Y-55639494D01*
X69851097Y-55565503D01*
X69786077Y-55497072D01*
X69744014Y-55433288D01*
X69720607Y-55372877D01*
X69713117Y-55314216D01*
X69719385Y-55263268D01*
X69736902Y-55223376D01*
X69765438Y-55191860D01*
X69806999Y-55167590D01*
X69865484Y-55151207D01*
X69946216Y-55145001D01*
X70009408Y-55147365D01*
X70078565Y-55154771D01*
X70062308Y-54997540D01*
X69980256Y-54984295D01*
X69851419Y-54978916D01*
X69763079Y-54984406D01*
X69691194Y-54999562D01*
X69632914Y-55022894D01*
X69585881Y-55053639D01*
X69546070Y-55094139D01*
X69517891Y-55140641D01*
X69500574Y-55194341D01*
X69494519Y-55257048D01*
X69502030Y-55335206D01*
X69524076Y-55406511D01*
X69560835Y-55472526D01*
X69613664Y-55534340D01*
X69696500Y-55606828D01*
X69780488Y-55665077D01*
X69865997Y-55710271D01*
X69865997Y-55721414D01*
X69669119Y-55718438D01*
X69423689Y-55708592D01*
G37*
G36*
X68759902Y-54753198D02*
G01*
X68866245Y-54779961D01*
X68956855Y-54818507D01*
X69034004Y-54868246D01*
X69099399Y-54929370D01*
X69154082Y-55002840D01*
X69198371Y-55090324D01*
X69231829Y-55194103D01*
X69253300Y-55316969D01*
X69260962Y-55462135D01*
X69252293Y-55578884D01*
X69228170Y-55674621D01*
X69190468Y-55753174D01*
X69139680Y-55817509D01*
X69084506Y-55862818D01*
X69022929Y-55895062D01*
X68953675Y-55914834D01*
X68874982Y-55921693D01*
X68787571Y-55913444D01*
X68711899Y-55889762D01*
X68645644Y-55851143D01*
X68587233Y-55796595D01*
X68544770Y-55738228D01*
X68514610Y-55674804D01*
X68496235Y-55605286D01*
X68492436Y-55558993D01*
X68693097Y-55558993D01*
X68698303Y-55614560D01*
X68713226Y-55662529D01*
X68737519Y-55704394D01*
X68774492Y-55741307D01*
X68817357Y-55762865D01*
X68868189Y-55770263D01*
X68919315Y-55762150D01*
X68961423Y-55738497D01*
X68996927Y-55697356D01*
X69025961Y-55633252D01*
X69046413Y-55538020D01*
X69054348Y-55401456D01*
X69008860Y-55361966D01*
X68956926Y-55338640D01*
X68896353Y-55330626D01*
X68833832Y-55338984D01*
X68783277Y-55362788D01*
X68741793Y-55402448D01*
X68715219Y-55446925D01*
X68698838Y-55498518D01*
X68693097Y-55558993D01*
X68492436Y-55558993D01*
X68489918Y-55528310D01*
X68495310Y-55458936D01*
X68510839Y-55397530D01*
X68536024Y-55342743D01*
X68571052Y-55293531D01*
X68619378Y-55248245D01*
X68675225Y-55215942D01*
X68740086Y-55195972D01*
X68816135Y-55188965D01*
X68889821Y-55195270D01*
X68949180Y-55212761D01*
X68997082Y-55240206D01*
X69035572Y-55277656D01*
X69049234Y-55277656D01*
X69029444Y-55180082D01*
X68996459Y-55099364D01*
X68951062Y-55032599D01*
X68892786Y-54977777D01*
X68819955Y-54933950D01*
X68729838Y-54901319D01*
X68618832Y-54881219D01*
X68635090Y-54739558D01*
X68759902Y-54753198D01*
G37*
D11*
X89454819Y-86309524D02*
X88454819Y-86309524D01*
X88454819Y-86309524D02*
X88454819Y-86690476D01*
X88454819Y-86690476D02*
X88502438Y-86785714D01*
X88502438Y-86785714D02*
X88550057Y-86833333D01*
X88550057Y-86833333D02*
X88645295Y-86880952D01*
X88645295Y-86880952D02*
X88788152Y-86880952D01*
X88788152Y-86880952D02*
X88883390Y-86833333D01*
X88883390Y-86833333D02*
X88931009Y-86785714D01*
X88931009Y-86785714D02*
X88978628Y-86690476D01*
X88978628Y-86690476D02*
X88978628Y-86309524D01*
X88978628Y-87500000D02*
X89454819Y-87500000D01*
X88454819Y-87166667D02*
X88978628Y-87500000D01*
X88978628Y-87500000D02*
X88454819Y-87833333D01*
X89454819Y-88738095D02*
X88978628Y-88404762D01*
X89454819Y-88166667D02*
X88454819Y-88166667D01*
X88454819Y-88166667D02*
X88454819Y-88547619D01*
X88454819Y-88547619D02*
X88502438Y-88642857D01*
X88502438Y-88642857D02*
X88550057Y-88690476D01*
X88550057Y-88690476D02*
X88645295Y-88738095D01*
X88645295Y-88738095D02*
X88788152Y-88738095D01*
X88788152Y-88738095D02*
X88883390Y-88690476D01*
X88883390Y-88690476D02*
X88931009Y-88642857D01*
X88931009Y-88642857D02*
X88978628Y-88547619D01*
X88978628Y-88547619D02*
X88978628Y-88166667D01*
X88454819Y-89357143D02*
X88454819Y-89547619D01*
X88454819Y-89547619D02*
X88502438Y-89642857D01*
X88502438Y-89642857D02*
X88597676Y-89738095D01*
X88597676Y-89738095D02*
X88788152Y-89785714D01*
X88788152Y-89785714D02*
X89121485Y-89785714D01*
X89121485Y-89785714D02*
X89311961Y-89738095D01*
X89311961Y-89738095D02*
X89407200Y-89642857D01*
X89407200Y-89642857D02*
X89454819Y-89547619D01*
X89454819Y-89547619D02*
X89454819Y-89357143D01*
X89454819Y-89357143D02*
X89407200Y-89261905D01*
X89407200Y-89261905D02*
X89311961Y-89166667D01*
X89311961Y-89166667D02*
X89121485Y-89119048D01*
X89121485Y-89119048D02*
X88788152Y-89119048D01*
X88788152Y-89119048D02*
X88597676Y-89166667D01*
X88597676Y-89166667D02*
X88502438Y-89261905D01*
X88502438Y-89261905D02*
X88454819Y-89357143D01*
X88788152Y-90642857D02*
X89454819Y-90642857D01*
X88407200Y-90404762D02*
X89121485Y-90166667D01*
X89121485Y-90166667D02*
X89121485Y-90785714D01*
X89454819Y-93309524D02*
X88454819Y-93309524D01*
X88454819Y-93309524D02*
X88454819Y-93690476D01*
X88454819Y-93690476D02*
X88502438Y-93785714D01*
X88502438Y-93785714D02*
X88550057Y-93833333D01*
X88550057Y-93833333D02*
X88645295Y-93880952D01*
X88645295Y-93880952D02*
X88788152Y-93880952D01*
X88788152Y-93880952D02*
X88883390Y-93833333D01*
X88883390Y-93833333D02*
X88931009Y-93785714D01*
X88931009Y-93785714D02*
X88978628Y-93690476D01*
X88978628Y-93690476D02*
X88978628Y-93309524D01*
X88978628Y-94500000D02*
X89454819Y-94500000D01*
X88454819Y-94166667D02*
X88978628Y-94500000D01*
X88978628Y-94500000D02*
X88454819Y-94833333D01*
X89454819Y-95738095D02*
X88978628Y-95404762D01*
X89454819Y-95166667D02*
X88454819Y-95166667D01*
X88454819Y-95166667D02*
X88454819Y-95547619D01*
X88454819Y-95547619D02*
X88502438Y-95642857D01*
X88502438Y-95642857D02*
X88550057Y-95690476D01*
X88550057Y-95690476D02*
X88645295Y-95738095D01*
X88645295Y-95738095D02*
X88788152Y-95738095D01*
X88788152Y-95738095D02*
X88883390Y-95690476D01*
X88883390Y-95690476D02*
X88931009Y-95642857D01*
X88931009Y-95642857D02*
X88978628Y-95547619D01*
X88978628Y-95547619D02*
X88978628Y-95166667D01*
X88454819Y-96357143D02*
X88454819Y-96547619D01*
X88454819Y-96547619D02*
X88502438Y-96642857D01*
X88502438Y-96642857D02*
X88597676Y-96738095D01*
X88597676Y-96738095D02*
X88788152Y-96785714D01*
X88788152Y-96785714D02*
X89121485Y-96785714D01*
X89121485Y-96785714D02*
X89311961Y-96738095D01*
X89311961Y-96738095D02*
X89407200Y-96642857D01*
X89407200Y-96642857D02*
X89454819Y-96547619D01*
X89454819Y-96547619D02*
X89454819Y-96357143D01*
X89454819Y-96357143D02*
X89407200Y-96261905D01*
X89407200Y-96261905D02*
X89311961Y-96166667D01*
X89311961Y-96166667D02*
X89121485Y-96119048D01*
X89121485Y-96119048D02*
X88788152Y-96119048D01*
X88788152Y-96119048D02*
X88597676Y-96166667D01*
X88597676Y-96166667D02*
X88502438Y-96261905D01*
X88502438Y-96261905D02*
X88454819Y-96357143D01*
X88454819Y-97119048D02*
X88454819Y-97738095D01*
X88454819Y-97738095D02*
X88835771Y-97404762D01*
X88835771Y-97404762D02*
X88835771Y-97547619D01*
X88835771Y-97547619D02*
X88883390Y-97642857D01*
X88883390Y-97642857D02*
X88931009Y-97690476D01*
X88931009Y-97690476D02*
X89026247Y-97738095D01*
X89026247Y-97738095D02*
X89264342Y-97738095D01*
X89264342Y-97738095D02*
X89359580Y-97690476D01*
X89359580Y-97690476D02*
X89407200Y-97642857D01*
X89407200Y-97642857D02*
X89454819Y-97547619D01*
X89454819Y-97547619D02*
X89454819Y-97261905D01*
X89454819Y-97261905D02*
X89407200Y-97166667D01*
X89407200Y-97166667D02*
X89359580Y-97119048D01*
X76119047Y-124407200D02*
X75976190Y-124454819D01*
X75976190Y-124454819D02*
X75738095Y-124454819D01*
X75738095Y-124454819D02*
X75642857Y-124407200D01*
X75642857Y-124407200D02*
X75595238Y-124359580D01*
X75595238Y-124359580D02*
X75547619Y-124264342D01*
X75547619Y-124264342D02*
X75547619Y-124169104D01*
X75547619Y-124169104D02*
X75595238Y-124073866D01*
X75595238Y-124073866D02*
X75642857Y-124026247D01*
X75642857Y-124026247D02*
X75738095Y-123978628D01*
X75738095Y-123978628D02*
X75928571Y-123931009D01*
X75928571Y-123931009D02*
X76023809Y-123883390D01*
X76023809Y-123883390D02*
X76071428Y-123835771D01*
X76071428Y-123835771D02*
X76119047Y-123740533D01*
X76119047Y-123740533D02*
X76119047Y-123645295D01*
X76119047Y-123645295D02*
X76071428Y-123550057D01*
X76071428Y-123550057D02*
X76023809Y-123502438D01*
X76023809Y-123502438D02*
X75928571Y-123454819D01*
X75928571Y-123454819D02*
X75690476Y-123454819D01*
X75690476Y-123454819D02*
X75547619Y-123502438D01*
X74928571Y-123978628D02*
X74928571Y-124454819D01*
X75261904Y-123454819D02*
X74928571Y-123978628D01*
X74928571Y-123978628D02*
X74595238Y-123454819D01*
X74309523Y-124407200D02*
X74166666Y-124454819D01*
X74166666Y-124454819D02*
X73928571Y-124454819D01*
X73928571Y-124454819D02*
X73833333Y-124407200D01*
X73833333Y-124407200D02*
X73785714Y-124359580D01*
X73785714Y-124359580D02*
X73738095Y-124264342D01*
X73738095Y-124264342D02*
X73738095Y-124169104D01*
X73738095Y-124169104D02*
X73785714Y-124073866D01*
X73785714Y-124073866D02*
X73833333Y-124026247D01*
X73833333Y-124026247D02*
X73928571Y-123978628D01*
X73928571Y-123978628D02*
X74119047Y-123931009D01*
X74119047Y-123931009D02*
X74214285Y-123883390D01*
X74214285Y-123883390D02*
X74261904Y-123835771D01*
X74261904Y-123835771D02*
X74309523Y-123740533D01*
X74309523Y-123740533D02*
X74309523Y-123645295D01*
X74309523Y-123645295D02*
X74261904Y-123550057D01*
X74261904Y-123550057D02*
X74214285Y-123502438D01*
X74214285Y-123502438D02*
X74119047Y-123454819D01*
X74119047Y-123454819D02*
X73880952Y-123454819D01*
X73880952Y-123454819D02*
X73738095Y-123502438D01*
X72595237Y-124407200D02*
X72452380Y-124454819D01*
X72452380Y-124454819D02*
X72214285Y-124454819D01*
X72214285Y-124454819D02*
X72119047Y-124407200D01*
X72119047Y-124407200D02*
X72071428Y-124359580D01*
X72071428Y-124359580D02*
X72023809Y-124264342D01*
X72023809Y-124264342D02*
X72023809Y-124169104D01*
X72023809Y-124169104D02*
X72071428Y-124073866D01*
X72071428Y-124073866D02*
X72119047Y-124026247D01*
X72119047Y-124026247D02*
X72214285Y-123978628D01*
X72214285Y-123978628D02*
X72404761Y-123931009D01*
X72404761Y-123931009D02*
X72499999Y-123883390D01*
X72499999Y-123883390D02*
X72547618Y-123835771D01*
X72547618Y-123835771D02*
X72595237Y-123740533D01*
X72595237Y-123740533D02*
X72595237Y-123645295D01*
X72595237Y-123645295D02*
X72547618Y-123550057D01*
X72547618Y-123550057D02*
X72499999Y-123502438D01*
X72499999Y-123502438D02*
X72404761Y-123454819D01*
X72404761Y-123454819D02*
X72166666Y-123454819D01*
X72166666Y-123454819D02*
X72023809Y-123502438D01*
X71690475Y-123454819D02*
X71452380Y-124454819D01*
X71452380Y-124454819D02*
X71261904Y-123740533D01*
X71261904Y-123740533D02*
X71071428Y-124454819D01*
X71071428Y-124454819D02*
X70833333Y-123454819D01*
X82454819Y-108214285D02*
X81454819Y-108214285D01*
X81454819Y-108214285D02*
X81454819Y-108595237D01*
X81454819Y-108595237D02*
X81502438Y-108690475D01*
X81502438Y-108690475D02*
X81550057Y-108738094D01*
X81550057Y-108738094D02*
X81645295Y-108785713D01*
X81645295Y-108785713D02*
X81788152Y-108785713D01*
X81788152Y-108785713D02*
X81883390Y-108738094D01*
X81883390Y-108738094D02*
X81931009Y-108690475D01*
X81931009Y-108690475D02*
X81978628Y-108595237D01*
X81978628Y-108595237D02*
X81978628Y-108214285D01*
X81978628Y-109404761D02*
X82454819Y-109404761D01*
X81454819Y-109071428D02*
X81978628Y-109404761D01*
X81978628Y-109404761D02*
X81454819Y-109738094D01*
X82454819Y-110642856D02*
X81978628Y-110309523D01*
X82454819Y-110071428D02*
X81454819Y-110071428D01*
X81454819Y-110071428D02*
X81454819Y-110452380D01*
X81454819Y-110452380D02*
X81502438Y-110547618D01*
X81502438Y-110547618D02*
X81550057Y-110595237D01*
X81550057Y-110595237D02*
X81645295Y-110642856D01*
X81645295Y-110642856D02*
X81788152Y-110642856D01*
X81788152Y-110642856D02*
X81883390Y-110595237D01*
X81883390Y-110595237D02*
X81931009Y-110547618D01*
X81931009Y-110547618D02*
X81978628Y-110452380D01*
X81978628Y-110452380D02*
X81978628Y-110071428D01*
X81454819Y-111261904D02*
X81454819Y-111452380D01*
X81454819Y-111452380D02*
X81502438Y-111547618D01*
X81502438Y-111547618D02*
X81597676Y-111642856D01*
X81597676Y-111642856D02*
X81788152Y-111690475D01*
X81788152Y-111690475D02*
X82121485Y-111690475D01*
X82121485Y-111690475D02*
X82311961Y-111642856D01*
X82311961Y-111642856D02*
X82407200Y-111547618D01*
X82407200Y-111547618D02*
X82454819Y-111452380D01*
X82454819Y-111452380D02*
X82454819Y-111261904D01*
X82454819Y-111261904D02*
X82407200Y-111166666D01*
X82407200Y-111166666D02*
X82311961Y-111071428D01*
X82311961Y-111071428D02*
X82121485Y-111023809D01*
X82121485Y-111023809D02*
X81788152Y-111023809D01*
X81788152Y-111023809D02*
X81597676Y-111071428D01*
X81597676Y-111071428D02*
X81502438Y-111166666D01*
X81502438Y-111166666D02*
X81454819Y-111261904D01*
X81931009Y-113214285D02*
X81978628Y-113357142D01*
X81978628Y-113357142D02*
X82026247Y-113404761D01*
X82026247Y-113404761D02*
X82121485Y-113452380D01*
X82121485Y-113452380D02*
X82264342Y-113452380D01*
X82264342Y-113452380D02*
X82359580Y-113404761D01*
X82359580Y-113404761D02*
X82407200Y-113357142D01*
X82407200Y-113357142D02*
X82454819Y-113261904D01*
X82454819Y-113261904D02*
X82454819Y-112880952D01*
X82454819Y-112880952D02*
X81454819Y-112880952D01*
X81454819Y-112880952D02*
X81454819Y-113214285D01*
X81454819Y-113214285D02*
X81502438Y-113309523D01*
X81502438Y-113309523D02*
X81550057Y-113357142D01*
X81550057Y-113357142D02*
X81645295Y-113404761D01*
X81645295Y-113404761D02*
X81740533Y-113404761D01*
X81740533Y-113404761D02*
X81835771Y-113357142D01*
X81835771Y-113357142D02*
X81883390Y-113309523D01*
X81883390Y-113309523D02*
X81931009Y-113214285D01*
X81931009Y-113214285D02*
X81931009Y-112880952D01*
X82169104Y-113833333D02*
X82169104Y-114309523D01*
X82454819Y-113738095D02*
X81454819Y-114071428D01*
X81454819Y-114071428D02*
X82454819Y-114404761D01*
X81454819Y-114595238D02*
X81454819Y-115166666D01*
X82454819Y-114880952D02*
X81454819Y-114880952D01*
X81454819Y-115357143D02*
X81454819Y-115928571D01*
X82454819Y-115642857D02*
X81454819Y-115642857D01*
D12*
G36*
X83523438Y-98330349D02*
G01*
X83419406Y-98285927D01*
X83117995Y-98177773D01*
X83117995Y-98172889D01*
X83418948Y-98066567D01*
X83523438Y-98022603D01*
X83523438Y-98330349D01*
G37*
G36*
X84145928Y-100983794D02*
G01*
X82686015Y-100983794D01*
X82686015Y-100107292D01*
X82844443Y-100107292D01*
X83313389Y-100107292D01*
X83313389Y-100634856D01*
X82844443Y-100634856D01*
X82844443Y-100844905D01*
X83987500Y-100844905D01*
X83987500Y-100634856D01*
X83489244Y-100634856D01*
X83489244Y-100107292D01*
X83987500Y-100107292D01*
X83987500Y-99897243D01*
X82844443Y-99897243D01*
X82844443Y-100107292D01*
X82686015Y-100107292D01*
X82686015Y-99269310D01*
X82824904Y-99269310D01*
X82829283Y-99360584D01*
X82842535Y-99452874D01*
X82863482Y-99541496D01*
X82887872Y-99611708D01*
X83064262Y-99611708D01*
X83035073Y-99523276D01*
X83015871Y-99441349D01*
X83004397Y-99360850D01*
X83000758Y-99288086D01*
X83005620Y-99219963D01*
X83018696Y-99168044D01*
X83038387Y-99128870D01*
X83067256Y-99098048D01*
X83103977Y-99079504D01*
X83151120Y-99072923D01*
X83191912Y-99077790D01*
X83222714Y-99091165D01*
X83248128Y-99112442D01*
X83269120Y-99140777D01*
X83285308Y-99173792D01*
X83298506Y-99212829D01*
X83318885Y-99299306D01*
X83354300Y-99437151D01*
X83378589Y-99499858D01*
X83410094Y-99553700D01*
X83451028Y-99599110D01*
X83503288Y-99634300D01*
X83565680Y-99655931D01*
X83650215Y-99663991D01*
X83710757Y-99659928D01*
X83763452Y-99648353D01*
X83809508Y-99629873D01*
X83870807Y-99588691D01*
X83920638Y-99533016D01*
X83958054Y-99465397D01*
X83985744Y-99380746D01*
X84001514Y-99288685D01*
X84007039Y-99184359D01*
X84002485Y-99091915D01*
X83988873Y-99001177D01*
X83966003Y-98915777D01*
X83937735Y-98851349D01*
X83762796Y-98851349D01*
X83794142Y-98936025D01*
X83814927Y-99016137D01*
X83827079Y-99097295D01*
X83831184Y-99181840D01*
X83823094Y-99279156D01*
X83811843Y-99325213D01*
X83795311Y-99364946D01*
X83772015Y-99399388D01*
X83741959Y-99426007D01*
X83705288Y-99443010D01*
X83658688Y-99449057D01*
X83618345Y-99443402D01*
X83588468Y-99427762D01*
X83564514Y-99403225D01*
X83544580Y-99369831D01*
X83516950Y-99287628D01*
X83496037Y-99191839D01*
X83461538Y-99064909D01*
X83437390Y-99007462D01*
X83406202Y-98958435D01*
X83366285Y-98917381D01*
X83316290Y-98885238D01*
X83257554Y-98865328D01*
X83180048Y-98857990D01*
X83093657Y-98866368D01*
X83022893Y-98889894D01*
X82961423Y-98927871D01*
X82912220Y-98976676D01*
X82874222Y-99035423D01*
X82846656Y-99104675D01*
X82830591Y-99180608D01*
X82824904Y-99269310D01*
X82686015Y-99269310D01*
X82686015Y-98081221D01*
X82844443Y-98081221D01*
X82844443Y-98172889D01*
X82844443Y-98177773D01*
X82844443Y-98272646D01*
X83987500Y-98726251D01*
X83987500Y-98505059D01*
X83699293Y-98396600D01*
X83699293Y-97957344D01*
X83987500Y-97850488D01*
X83987500Y-97627616D01*
X82844443Y-98081221D01*
X82686015Y-98081221D01*
X82686015Y-97007850D01*
X82844443Y-97007850D01*
X83811645Y-97007850D01*
X83811645Y-97542360D01*
X83987500Y-97542360D01*
X83987500Y-96797801D01*
X82844443Y-96797801D01*
X82844443Y-97007850D01*
X82686015Y-97007850D01*
X82686015Y-96615153D01*
X82844443Y-96615153D01*
X83020298Y-96615153D01*
X83020298Y-96096824D01*
X83313389Y-96096824D01*
X83313389Y-96539972D01*
X83489244Y-96539972D01*
X83489244Y-96096824D01*
X83987500Y-96096824D01*
X83987500Y-95886775D01*
X82844443Y-95886775D01*
X82844443Y-96615153D01*
X82686015Y-96615153D01*
X82686015Y-95747886D01*
X84145928Y-95747886D01*
X84145928Y-100983794D01*
G37*
D11*
X82114700Y-116428571D02*
X82114700Y-117571429D01*
X82686128Y-117000000D02*
X81543271Y-117000000D01*
X70614700Y-116428571D02*
X70614700Y-117571429D01*
X71186128Y-117000000D02*
X70043271Y-117000000D01*
X82095238Y-106859580D02*
X82142857Y-106907200D01*
X82142857Y-106907200D02*
X82285714Y-106954819D01*
X82285714Y-106954819D02*
X82380952Y-106954819D01*
X82380952Y-106954819D02*
X82523809Y-106907200D01*
X82523809Y-106907200D02*
X82619047Y-106811961D01*
X82619047Y-106811961D02*
X82666666Y-106716723D01*
X82666666Y-106716723D02*
X82714285Y-106526247D01*
X82714285Y-106526247D02*
X82714285Y-106383390D01*
X82714285Y-106383390D02*
X82666666Y-106192914D01*
X82666666Y-106192914D02*
X82619047Y-106097676D01*
X82619047Y-106097676D02*
X82523809Y-106002438D01*
X82523809Y-106002438D02*
X82380952Y-105954819D01*
X82380952Y-105954819D02*
X82285714Y-105954819D01*
X82285714Y-105954819D02*
X82142857Y-106002438D01*
X82142857Y-106002438D02*
X82095238Y-106050057D01*
X81190476Y-106954819D02*
X81666666Y-106954819D01*
X81666666Y-106954819D02*
X81666666Y-105954819D01*
X80857142Y-106954819D02*
X80857142Y-105954819D01*
X80285714Y-106954819D02*
X80714285Y-106383390D01*
X80285714Y-105954819D02*
X80857142Y-106526247D01*
X79699999Y-106954819D02*
X79699999Y-105954819D01*
X79033333Y-105954819D02*
X78842857Y-105954819D01*
X78842857Y-105954819D02*
X78747619Y-106002438D01*
X78747619Y-106002438D02*
X78652381Y-106097676D01*
X78652381Y-106097676D02*
X78604762Y-106288152D01*
X78604762Y-106288152D02*
X78604762Y-106621485D01*
X78604762Y-106621485D02*
X78652381Y-106811961D01*
X78652381Y-106811961D02*
X78747619Y-106907200D01*
X78747619Y-106907200D02*
X78842857Y-106954819D01*
X78842857Y-106954819D02*
X79033333Y-106954819D01*
X79033333Y-106954819D02*
X79128571Y-106907200D01*
X79128571Y-106907200D02*
X79223809Y-106811961D01*
X79223809Y-106811961D02*
X79271428Y-106621485D01*
X79271428Y-106621485D02*
X79271428Y-106288152D01*
X79271428Y-106288152D02*
X79223809Y-106097676D01*
X79223809Y-106097676D02*
X79128571Y-106002438D01*
X79128571Y-106002438D02*
X79033333Y-105954819D01*
X78271428Y-105954819D02*
X77652381Y-105954819D01*
X77652381Y-105954819D02*
X77985714Y-106335771D01*
X77985714Y-106335771D02*
X77842857Y-106335771D01*
X77842857Y-106335771D02*
X77747619Y-106383390D01*
X77747619Y-106383390D02*
X77700000Y-106431009D01*
X77700000Y-106431009D02*
X77652381Y-106526247D01*
X77652381Y-106526247D02*
X77652381Y-106764342D01*
X77652381Y-106764342D02*
X77700000Y-106859580D01*
X77700000Y-106859580D02*
X77747619Y-106907200D01*
X77747619Y-106907200D02*
X77842857Y-106954819D01*
X77842857Y-106954819D02*
X78128571Y-106954819D01*
X78128571Y-106954819D02*
X78223809Y-106907200D01*
X78223809Y-106907200D02*
X78271428Y-106859580D01*
X74004761Y-107554819D02*
X74004761Y-106554819D01*
X73528571Y-107554819D02*
X73528571Y-106554819D01*
X73528571Y-106554819D02*
X72957143Y-107554819D01*
X72957143Y-107554819D02*
X72957143Y-106554819D01*
X72623809Y-106554819D02*
X72052381Y-106554819D01*
X72338095Y-107554819D02*
X72338095Y-106554819D01*
X62097070Y-100028796D02*
X62029727Y-100163483D01*
X62029727Y-100163483D02*
X61861368Y-100331842D01*
X61861368Y-100331842D02*
X61760353Y-100365514D01*
X61760353Y-100365514D02*
X61693009Y-100365514D01*
X61693009Y-100365514D02*
X61591994Y-100331842D01*
X61591994Y-100331842D02*
X61524651Y-100264499D01*
X61524651Y-100264499D02*
X61490979Y-100163483D01*
X61490979Y-100163483D02*
X61490979Y-100096140D01*
X61490979Y-100096140D02*
X61524651Y-99995125D01*
X61524651Y-99995125D02*
X61625666Y-99826766D01*
X61625666Y-99826766D02*
X61659338Y-99725751D01*
X61659338Y-99725751D02*
X61659338Y-99658407D01*
X61659338Y-99658407D02*
X61625666Y-99557392D01*
X61625666Y-99557392D02*
X61558322Y-99490048D01*
X61558322Y-99490048D02*
X61457307Y-99456377D01*
X61457307Y-99456377D02*
X61389964Y-99456377D01*
X61389964Y-99456377D02*
X61288948Y-99490048D01*
X61288948Y-99490048D02*
X61120590Y-99658407D01*
X61120590Y-99658407D02*
X61053246Y-99793094D01*
X61423635Y-100769575D02*
X60716528Y-100062468D01*
X60716528Y-100062468D02*
X60447154Y-100331842D01*
X60447154Y-100331842D02*
X60413483Y-100432857D01*
X60413483Y-100432857D02*
X60413483Y-100500201D01*
X60413483Y-100500201D02*
X60447154Y-100601216D01*
X60447154Y-100601216D02*
X60548170Y-100702231D01*
X60548170Y-100702231D02*
X60649185Y-100735903D01*
X60649185Y-100735903D02*
X60716528Y-100735903D01*
X60716528Y-100735903D02*
X60817544Y-100702231D01*
X60817544Y-100702231D02*
X61086918Y-100432857D01*
X60245124Y-101813399D02*
X60312467Y-101813399D01*
X60312467Y-101813399D02*
X60447154Y-101746056D01*
X60447154Y-101746056D02*
X60514498Y-101678712D01*
X60514498Y-101678712D02*
X60581841Y-101544025D01*
X60581841Y-101544025D02*
X60581841Y-101409338D01*
X60581841Y-101409338D02*
X60548170Y-101308323D01*
X60548170Y-101308323D02*
X60447154Y-101139964D01*
X60447154Y-101139964D02*
X60346139Y-101038949D01*
X60346139Y-101038949D02*
X60177780Y-100937934D01*
X60177780Y-100937934D02*
X60076765Y-100904262D01*
X60076765Y-100904262D02*
X59942078Y-100904262D01*
X59942078Y-100904262D02*
X59807391Y-100971606D01*
X59807391Y-100971606D02*
X59740048Y-101038949D01*
X59740048Y-101038949D02*
X59672704Y-101173636D01*
X59672704Y-101173636D02*
X59672704Y-101240980D01*
X75516666Y-107609580D02*
X75564285Y-107657200D01*
X75564285Y-107657200D02*
X75707142Y-107704819D01*
X75707142Y-107704819D02*
X75802380Y-107704819D01*
X75802380Y-107704819D02*
X75945237Y-107657200D01*
X75945237Y-107657200D02*
X76040475Y-107561961D01*
X76040475Y-107561961D02*
X76088094Y-107466723D01*
X76088094Y-107466723D02*
X76135713Y-107276247D01*
X76135713Y-107276247D02*
X76135713Y-107133390D01*
X76135713Y-107133390D02*
X76088094Y-106942914D01*
X76088094Y-106942914D02*
X76040475Y-106847676D01*
X76040475Y-106847676D02*
X75945237Y-106752438D01*
X75945237Y-106752438D02*
X75802380Y-106704819D01*
X75802380Y-106704819D02*
X75707142Y-106704819D01*
X75707142Y-106704819D02*
X75564285Y-106752438D01*
X75564285Y-106752438D02*
X75516666Y-106800057D01*
X75135713Y-107657200D02*
X74992856Y-107704819D01*
X74992856Y-107704819D02*
X74754761Y-107704819D01*
X74754761Y-107704819D02*
X74659523Y-107657200D01*
X74659523Y-107657200D02*
X74611904Y-107609580D01*
X74611904Y-107609580D02*
X74564285Y-107514342D01*
X74564285Y-107514342D02*
X74564285Y-107419104D01*
X74564285Y-107419104D02*
X74611904Y-107323866D01*
X74611904Y-107323866D02*
X74659523Y-107276247D01*
X74659523Y-107276247D02*
X74754761Y-107228628D01*
X74754761Y-107228628D02*
X74945237Y-107181009D01*
X74945237Y-107181009D02*
X75040475Y-107133390D01*
X75040475Y-107133390D02*
X75088094Y-107085771D01*
X75088094Y-107085771D02*
X75135713Y-106990533D01*
X75135713Y-106990533D02*
X75135713Y-106895295D01*
X75135713Y-106895295D02*
X75088094Y-106800057D01*
X75088094Y-106800057D02*
X75040475Y-106752438D01*
X75040475Y-106752438D02*
X74945237Y-106704819D01*
X74945237Y-106704819D02*
X74707142Y-106704819D01*
X74707142Y-106704819D02*
X74564285Y-106752438D01*
X76226190Y-106427200D02*
X74473809Y-106427200D01*
X78854819Y-88749999D02*
X77854819Y-88749999D01*
X77854819Y-89416665D02*
X77854819Y-89607141D01*
X77854819Y-89607141D02*
X77902438Y-89702379D01*
X77902438Y-89702379D02*
X77997676Y-89797617D01*
X77997676Y-89797617D02*
X78188152Y-89845236D01*
X78188152Y-89845236D02*
X78521485Y-89845236D01*
X78521485Y-89845236D02*
X78711961Y-89797617D01*
X78711961Y-89797617D02*
X78807200Y-89702379D01*
X78807200Y-89702379D02*
X78854819Y-89607141D01*
X78854819Y-89607141D02*
X78854819Y-89416665D01*
X78854819Y-89416665D02*
X78807200Y-89321427D01*
X78807200Y-89321427D02*
X78711961Y-89226189D01*
X78711961Y-89226189D02*
X78521485Y-89178570D01*
X78521485Y-89178570D02*
X78188152Y-89178570D01*
X78188152Y-89178570D02*
X77997676Y-89226189D01*
X77997676Y-89226189D02*
X77902438Y-89321427D01*
X77902438Y-89321427D02*
X77854819Y-89416665D01*
X78854819Y-90797617D02*
X78854819Y-90226189D01*
X78854819Y-90511903D02*
X77854819Y-90511903D01*
X77854819Y-90511903D02*
X77997676Y-90416665D01*
X77997676Y-90416665D02*
X78092914Y-90321427D01*
X78092914Y-90321427D02*
X78140533Y-90226189D01*
X83904819Y-103500000D02*
X82904819Y-103500000D01*
X82904819Y-104166666D02*
X82904819Y-104357142D01*
X82904819Y-104357142D02*
X82952438Y-104452380D01*
X82952438Y-104452380D02*
X83047676Y-104547618D01*
X83047676Y-104547618D02*
X83238152Y-104595237D01*
X83238152Y-104595237D02*
X83571485Y-104595237D01*
X83571485Y-104595237D02*
X83761961Y-104547618D01*
X83761961Y-104547618D02*
X83857200Y-104452380D01*
X83857200Y-104452380D02*
X83904819Y-104357142D01*
X83904819Y-104357142D02*
X83904819Y-104166666D01*
X83904819Y-104166666D02*
X83857200Y-104071428D01*
X83857200Y-104071428D02*
X83761961Y-103976190D01*
X83761961Y-103976190D02*
X83571485Y-103928571D01*
X83571485Y-103928571D02*
X83238152Y-103928571D01*
X83238152Y-103928571D02*
X83047676Y-103976190D01*
X83047676Y-103976190D02*
X82952438Y-104071428D01*
X82952438Y-104071428D02*
X82904819Y-104166666D01*
X82904819Y-105214285D02*
X82904819Y-105309523D01*
X82904819Y-105309523D02*
X82952438Y-105404761D01*
X82952438Y-105404761D02*
X83000057Y-105452380D01*
X83000057Y-105452380D02*
X83095295Y-105499999D01*
X83095295Y-105499999D02*
X83285771Y-105547618D01*
X83285771Y-105547618D02*
X83523866Y-105547618D01*
X83523866Y-105547618D02*
X83714342Y-105499999D01*
X83714342Y-105499999D02*
X83809580Y-105452380D01*
X83809580Y-105452380D02*
X83857200Y-105404761D01*
X83857200Y-105404761D02*
X83904819Y-105309523D01*
X83904819Y-105309523D02*
X83904819Y-105214285D01*
X83904819Y-105214285D02*
X83857200Y-105119047D01*
X83857200Y-105119047D02*
X83809580Y-105071428D01*
X83809580Y-105071428D02*
X83714342Y-105023809D01*
X83714342Y-105023809D02*
X83523866Y-104976190D01*
X83523866Y-104976190D02*
X83285771Y-104976190D01*
X83285771Y-104976190D02*
X83095295Y-105023809D01*
X83095295Y-105023809D02*
X83000057Y-105071428D01*
X83000057Y-105071428D02*
X82952438Y-105119047D01*
X82952438Y-105119047D02*
X82904819Y-105214285D01*
X66554819Y-62166666D02*
X67269104Y-62166666D01*
X67269104Y-62166666D02*
X67411961Y-62119047D01*
X67411961Y-62119047D02*
X67507200Y-62023809D01*
X67507200Y-62023809D02*
X67554819Y-61880952D01*
X67554819Y-61880952D02*
X67554819Y-61785714D01*
X67554819Y-63166666D02*
X67554819Y-62595238D01*
X67554819Y-62880952D02*
X66554819Y-62880952D01*
X66554819Y-62880952D02*
X66697676Y-62785714D01*
X66697676Y-62785714D02*
X66792914Y-62690476D01*
X66792914Y-62690476D02*
X66840533Y-62595238D01*
X80554819Y-88750000D02*
X79554819Y-88750000D01*
X79554819Y-89416666D02*
X79554819Y-89607142D01*
X79554819Y-89607142D02*
X79602438Y-89702380D01*
X79602438Y-89702380D02*
X79697676Y-89797618D01*
X79697676Y-89797618D02*
X79888152Y-89845237D01*
X79888152Y-89845237D02*
X80221485Y-89845237D01*
X80221485Y-89845237D02*
X80411961Y-89797618D01*
X80411961Y-89797618D02*
X80507200Y-89702380D01*
X80507200Y-89702380D02*
X80554819Y-89607142D01*
X80554819Y-89607142D02*
X80554819Y-89416666D01*
X80554819Y-89416666D02*
X80507200Y-89321428D01*
X80507200Y-89321428D02*
X80411961Y-89226190D01*
X80411961Y-89226190D02*
X80221485Y-89178571D01*
X80221485Y-89178571D02*
X79888152Y-89178571D01*
X79888152Y-89178571D02*
X79697676Y-89226190D01*
X79697676Y-89226190D02*
X79602438Y-89321428D01*
X79602438Y-89321428D02*
X79554819Y-89416666D01*
X79650057Y-90226190D02*
X79602438Y-90273809D01*
X79602438Y-90273809D02*
X79554819Y-90369047D01*
X79554819Y-90369047D02*
X79554819Y-90607142D01*
X79554819Y-90607142D02*
X79602438Y-90702380D01*
X79602438Y-90702380D02*
X79650057Y-90749999D01*
X79650057Y-90749999D02*
X79745295Y-90797618D01*
X79745295Y-90797618D02*
X79840533Y-90797618D01*
X79840533Y-90797618D02*
X79983390Y-90749999D01*
X79983390Y-90749999D02*
X80554819Y-90178571D01*
X80554819Y-90178571D02*
X80554819Y-90797618D01*
X74459580Y-94783333D02*
X74507200Y-94735714D01*
X74507200Y-94735714D02*
X74554819Y-94592857D01*
X74554819Y-94592857D02*
X74554819Y-94497619D01*
X74554819Y-94497619D02*
X74507200Y-94354762D01*
X74507200Y-94354762D02*
X74411961Y-94259524D01*
X74411961Y-94259524D02*
X74316723Y-94211905D01*
X74316723Y-94211905D02*
X74126247Y-94164286D01*
X74126247Y-94164286D02*
X73983390Y-94164286D01*
X73983390Y-94164286D02*
X73792914Y-94211905D01*
X73792914Y-94211905D02*
X73697676Y-94259524D01*
X73697676Y-94259524D02*
X73602438Y-94354762D01*
X73602438Y-94354762D02*
X73554819Y-94497619D01*
X73554819Y-94497619D02*
X73554819Y-94592857D01*
X73554819Y-94592857D02*
X73602438Y-94735714D01*
X73602438Y-94735714D02*
X73650057Y-94783333D01*
X74507200Y-95164286D02*
X74554819Y-95307143D01*
X74554819Y-95307143D02*
X74554819Y-95545238D01*
X74554819Y-95545238D02*
X74507200Y-95640476D01*
X74507200Y-95640476D02*
X74459580Y-95688095D01*
X74459580Y-95688095D02*
X74364342Y-95735714D01*
X74364342Y-95735714D02*
X74269104Y-95735714D01*
X74269104Y-95735714D02*
X74173866Y-95688095D01*
X74173866Y-95688095D02*
X74126247Y-95640476D01*
X74126247Y-95640476D02*
X74078628Y-95545238D01*
X74078628Y-95545238D02*
X74031009Y-95354762D01*
X74031009Y-95354762D02*
X73983390Y-95259524D01*
X73983390Y-95259524D02*
X73935771Y-95211905D01*
X73935771Y-95211905D02*
X73840533Y-95164286D01*
X73840533Y-95164286D02*
X73745295Y-95164286D01*
X73745295Y-95164286D02*
X73650057Y-95211905D01*
X73650057Y-95211905D02*
X73602438Y-95259524D01*
X73602438Y-95259524D02*
X73554819Y-95354762D01*
X73554819Y-95354762D02*
X73554819Y-95592857D01*
X73554819Y-95592857D02*
X73602438Y-95735714D01*
X73277200Y-94073810D02*
X73277200Y-95826191D01*
X59782772Y-97810438D02*
X59075666Y-97103331D01*
X59075666Y-97103331D02*
X59345040Y-97844110D01*
X59345040Y-97844110D02*
X58604261Y-97574736D01*
X58604261Y-97574736D02*
X59311368Y-98281842D01*
X58132857Y-98046140D02*
X57998170Y-98180827D01*
X57998170Y-98180827D02*
X57964498Y-98281842D01*
X57964498Y-98281842D02*
X57964498Y-98416529D01*
X57964498Y-98416529D02*
X58065513Y-98584888D01*
X58065513Y-98584888D02*
X58301215Y-98820590D01*
X58301215Y-98820590D02*
X58469574Y-98921606D01*
X58469574Y-98921606D02*
X58604261Y-98921606D01*
X58604261Y-98921606D02*
X58705276Y-98887934D01*
X58705276Y-98887934D02*
X58839963Y-98753247D01*
X58839963Y-98753247D02*
X58873635Y-98652232D01*
X58873635Y-98652232D02*
X58873635Y-98517545D01*
X58873635Y-98517545D02*
X58772620Y-98349186D01*
X58772620Y-98349186D02*
X58536918Y-98113484D01*
X58536918Y-98113484D02*
X58368559Y-98012468D01*
X58368559Y-98012468D02*
X58233872Y-98012468D01*
X58233872Y-98012468D02*
X58132857Y-98046140D01*
X58233872Y-99291995D02*
X58166528Y-99426682D01*
X58166528Y-99426682D02*
X57998170Y-99595041D01*
X57998170Y-99595041D02*
X57897154Y-99628712D01*
X57897154Y-99628712D02*
X57829811Y-99628712D01*
X57829811Y-99628712D02*
X57728796Y-99595041D01*
X57728796Y-99595041D02*
X57661452Y-99527697D01*
X57661452Y-99527697D02*
X57627780Y-99426682D01*
X57627780Y-99426682D02*
X57627780Y-99359338D01*
X57627780Y-99359338D02*
X57661452Y-99258323D01*
X57661452Y-99258323D02*
X57762467Y-99089964D01*
X57762467Y-99089964D02*
X57796139Y-98988949D01*
X57796139Y-98988949D02*
X57796139Y-98921606D01*
X57796139Y-98921606D02*
X57762467Y-98820590D01*
X57762467Y-98820590D02*
X57695124Y-98753247D01*
X57695124Y-98753247D02*
X57594109Y-98719575D01*
X57594109Y-98719575D02*
X57526765Y-98719575D01*
X57526765Y-98719575D02*
X57425750Y-98753247D01*
X57425750Y-98753247D02*
X57257391Y-98921606D01*
X57257391Y-98921606D02*
X57190048Y-99056293D01*
X57560437Y-100032773D02*
X56853330Y-99325667D01*
X60982772Y-99010437D02*
X60275666Y-98303330D01*
X60275666Y-98303330D02*
X60545040Y-99044109D01*
X60545040Y-99044109D02*
X59804261Y-98774735D01*
X59804261Y-98774735D02*
X60511368Y-99481841D01*
X60174650Y-99818559D02*
X59467544Y-99111452D01*
X59837933Y-100087933D02*
X59770590Y-100222620D01*
X59770590Y-100222620D02*
X59602231Y-100390978D01*
X59602231Y-100390978D02*
X59501216Y-100424650D01*
X59501216Y-100424650D02*
X59433872Y-100424650D01*
X59433872Y-100424650D02*
X59332857Y-100390978D01*
X59332857Y-100390978D02*
X59265513Y-100323635D01*
X59265513Y-100323635D02*
X59231842Y-100222620D01*
X59231842Y-100222620D02*
X59231842Y-100155276D01*
X59231842Y-100155276D02*
X59265513Y-100054261D01*
X59265513Y-100054261D02*
X59366529Y-99885902D01*
X59366529Y-99885902D02*
X59400200Y-99784887D01*
X59400200Y-99784887D02*
X59400200Y-99717543D01*
X59400200Y-99717543D02*
X59366529Y-99616528D01*
X59366529Y-99616528D02*
X59299185Y-99549184D01*
X59299185Y-99549184D02*
X59198170Y-99515513D01*
X59198170Y-99515513D02*
X59130826Y-99515513D01*
X59130826Y-99515513D02*
X59029811Y-99549184D01*
X59029811Y-99549184D02*
X58861452Y-99717543D01*
X58861452Y-99717543D02*
X58794109Y-99852230D01*
X58322704Y-100256291D02*
X58188017Y-100390978D01*
X58188017Y-100390978D02*
X58154346Y-100491994D01*
X58154346Y-100491994D02*
X58154346Y-100626681D01*
X58154346Y-100626681D02*
X58255361Y-100795039D01*
X58255361Y-100795039D02*
X58491063Y-101030742D01*
X58491063Y-101030742D02*
X58659422Y-101131757D01*
X58659422Y-101131757D02*
X58794109Y-101131757D01*
X58794109Y-101131757D02*
X58895124Y-101098085D01*
X58895124Y-101098085D02*
X59029811Y-100963398D01*
X59029811Y-100963398D02*
X59063483Y-100862383D01*
X59063483Y-100862383D02*
X59063483Y-100727696D01*
X59063483Y-100727696D02*
X58962468Y-100559337D01*
X58962468Y-100559337D02*
X58726765Y-100323635D01*
X58726765Y-100323635D02*
X58558407Y-100222620D01*
X58558407Y-100222620D02*
X58423720Y-100222620D01*
X58423720Y-100222620D02*
X58322704Y-100256291D01*
D14*
%TO.C,U1*%
X56944942Y-85000000D02*
X57439916Y-85494975D01*
X57439916Y-84505025D02*
X56944942Y-85000000D01*
X66505025Y-75439916D02*
X67000000Y-74944942D01*
X67000000Y-74944942D02*
X67494975Y-75439916D01*
X67000000Y-95055058D02*
X66505025Y-94560084D01*
X67494975Y-94560084D02*
X67000000Y-95055058D01*
X76560084Y-85494975D02*
X77055058Y-85000000D01*
X77055058Y-85000000D02*
X76560084Y-84505025D01*
X67938684Y-74996207D02*
X67365928Y-74904283D01*
X67846760Y-74423450D01*
X67938684Y-74996207D01*
G36*
X67938684Y-74996207D02*
G01*
X67365928Y-74904283D01*
X67846760Y-74423450D01*
X67938684Y-74996207D01*
G37*
%TO.C,D11*%
X69000000Y-57939999D02*
X68200000Y-57940000D01*
X69000000Y-57939999D02*
X69800000Y-57940000D01*
X69000000Y-61060001D02*
X68200000Y-61060000D01*
X69000000Y-61060001D02*
X69800000Y-61060000D01*
X67940000Y-61340000D02*
X67460000Y-61340000D01*
X67700000Y-61010000D01*
X67940000Y-61340000D01*
G36*
X67940000Y-61340000D02*
G01*
X67460000Y-61340000D01*
X67700000Y-61010000D01*
X67940000Y-61340000D01*
G37*
%TO.C,D19*%
X55439999Y-108000000D02*
X55440000Y-107200000D01*
X55439999Y-108000000D02*
X55440000Y-108800000D01*
X58560001Y-108000000D02*
X58560000Y-107200000D01*
X58560001Y-108000000D02*
X58560000Y-108800000D01*
X58840000Y-109540000D02*
X58510000Y-109300000D01*
X58840000Y-109060000D01*
X58840000Y-109540000D01*
G36*
X58840000Y-109540000D02*
G01*
X58510000Y-109300000D01*
X58840000Y-109060000D01*
X58840000Y-109540000D01*
G37*
%TO.C,C16*%
X78787978Y-80509227D02*
X78986789Y-80708038D01*
X79509227Y-79787978D02*
X79708038Y-79986789D01*
%TO.C,U10*%
X76514999Y-95573358D02*
X76784999Y-95573358D01*
X76514999Y-98333358D02*
X76514999Y-95573358D01*
X76514999Y-98333358D02*
X76514999Y-101093358D01*
X76514999Y-101093358D02*
X76784999Y-101093358D01*
X82034999Y-95573358D02*
X81764999Y-95573358D01*
X82034999Y-98333358D02*
X82034999Y-95573358D01*
X82034999Y-98333358D02*
X82034999Y-101093358D01*
X82034999Y-101093358D02*
X81764999Y-101093358D01*
X76785000Y-94808358D02*
X76454999Y-95048358D01*
X76454999Y-94568358D01*
X76785000Y-94808358D01*
G36*
X76785000Y-94808358D02*
G01*
X76454999Y-95048358D01*
X76454999Y-94568358D01*
X76785000Y-94808358D01*
G37*
%TO.C,C13*%
X63938781Y-73560030D02*
X63739970Y-73361219D01*
X64660030Y-72838781D02*
X64461219Y-72639970D01*
%TO.C,D3*%
X61426763Y-103713572D02*
X61426763Y-104713572D01*
X61426763Y-105833572D02*
X61426763Y-106833572D01*
X61426763Y-106833572D02*
X62946763Y-106833572D01*
X62946763Y-103713572D02*
X61426763Y-103713572D01*
X62946763Y-103763572D02*
X62946763Y-103713572D01*
X62946763Y-105663572D02*
X62946763Y-104883572D01*
X62946763Y-106833572D02*
X62946763Y-106783572D01*
X63726763Y-105223572D02*
X63246763Y-105223572D01*
X63486763Y-104893572D01*
X63726763Y-105223572D01*
G36*
X63726763Y-105223572D02*
G01*
X63246763Y-105223572D01*
X63486763Y-104893572D01*
X63726763Y-105223572D01*
G37*
D12*
%TO.C,J15*%
X50975000Y-115714500D02*
X50975000Y-112285500D01*
X60025000Y-115714500D02*
X60025000Y-112285500D01*
X59410000Y-118429000D02*
G75*
G02*
X59210000Y-118429000I-100000J0D01*
G01*
X59210000Y-118429000D02*
G75*
G02*
X59410000Y-118429000I100000J0D01*
G01*
D14*
%TO.C,R49*%
X67437258Y-101827500D02*
X66962742Y-101827500D01*
X67437258Y-102872500D02*
X66962742Y-102872500D01*
D15*
%TO.C,BZ1*%
X61250000Y-109618572D02*
X61250000Y-113328572D01*
X61625000Y-106363572D02*
X62225000Y-106363572D01*
X61925000Y-106663572D02*
X61925000Y-106063572D01*
X66855000Y-107723572D02*
X63145000Y-107723572D01*
X66855000Y-115223572D02*
X63145000Y-115223572D01*
X68075000Y-106663572D02*
X68075000Y-106063572D01*
X68750000Y-109618572D02*
X68750000Y-113328572D01*
D16*
%TO.C,SW2*%
X50171200Y-78974099D02*
X50171200Y-74325899D01*
X51613341Y-74325899D02*
X52386659Y-74325899D01*
X52386659Y-78974099D02*
X51613341Y-78974099D01*
X53828800Y-74325899D02*
X53828800Y-78974099D01*
D17*
X53225000Y-79849999D02*
G75*
G02*
X52975000Y-79849999I-125000J0D01*
G01*
X52975000Y-79849999D02*
G75*
G02*
X53225000Y-79849999I125000J0D01*
G01*
D14*
%TO.C,R2*%
X77914940Y-81853867D02*
X77579407Y-81518334D01*
X78653867Y-81114940D02*
X78318334Y-80779407D01*
%TO.C,R12*%
X52237257Y-80127500D02*
X51762741Y-80127500D01*
X52237257Y-81172500D02*
X51762741Y-81172500D01*
%TO.C,C9*%
X76991829Y-76974749D02*
X76793018Y-76775938D01*
X77713078Y-76253500D02*
X77514267Y-76054689D01*
%TO.C,R57*%
X54062258Y-117977500D02*
X53587742Y-117977500D01*
X54062258Y-119022500D02*
X53587742Y-119022500D01*
%TO.C,C2*%
X70639970Y-73638781D02*
X70838781Y-73439970D01*
X71361219Y-74360030D02*
X71560030Y-74161219D01*
%TO.C,C11*%
X77789970Y-87288781D02*
X77988781Y-87089970D01*
X78511219Y-88010030D02*
X78710030Y-87811219D01*
%TO.C,C10*%
X79789970Y-82138781D02*
X79988781Y-81939970D01*
X80511219Y-82860030D02*
X80710030Y-82661219D01*
%TO.C,U3*%
X70380000Y-102685001D02*
X70379999Y-102880000D01*
X70390000Y-100890000D02*
X70390000Y-101314999D01*
X70565000Y-100890000D02*
X70390000Y-100890000D01*
X72435000Y-100890000D02*
X72610000Y-100890000D01*
X72435000Y-103110000D02*
X72610000Y-103110000D01*
X72610000Y-100890000D02*
X72610000Y-101314999D01*
X72610000Y-103110000D02*
X72610000Y-102685001D01*
X70519999Y-103310000D02*
X70240000Y-103309999D01*
X70380000Y-103120000D01*
X70519999Y-103310000D01*
G36*
X70519999Y-103310000D02*
G01*
X70240000Y-103309999D01*
X70380000Y-103120000D01*
X70519999Y-103310000D01*
G37*
%TO.C,C14*%
X72839970Y-75838781D02*
X73038781Y-75639970D01*
X73561219Y-76560030D02*
X73760030Y-76361219D01*
%TO.C,R20*%
X76177500Y-91712742D02*
X76177500Y-92187258D01*
X77222500Y-91712742D02*
X77222500Y-92187258D01*
%TO.C,D18*%
X51139999Y-108050000D02*
X51140000Y-107250000D01*
X51139999Y-108050000D02*
X51140000Y-108850000D01*
X54260001Y-108050000D02*
X54260000Y-107250000D01*
X54260001Y-108050000D02*
X54260000Y-108850000D01*
X54540000Y-109590000D02*
X54210000Y-109350000D01*
X54540000Y-109110000D01*
X54540000Y-109590000D01*
G36*
X54540000Y-109590000D02*
G01*
X54210000Y-109350000D01*
X54540000Y-109110000D01*
X54540000Y-109590000D01*
G37*
%TO.C,C32*%
X68990000Y-63940581D02*
X68990000Y-63659419D01*
X70010000Y-63940581D02*
X70010000Y-63659419D01*
%TO.C,R27*%
X76777500Y-104937258D02*
X76777500Y-104462742D01*
X77822500Y-104937258D02*
X77822500Y-104462742D01*
%TO.C,C17*%
X62438781Y-74610030D02*
X62239970Y-74411219D01*
X63160030Y-73888781D02*
X62961219Y-73689970D01*
D15*
%TO.C,J1*%
X50250000Y-69875000D02*
X50250000Y-55125000D01*
X53230001Y-55125000D02*
X50250000Y-55125000D01*
X53230001Y-69875000D02*
X50250000Y-69875000D01*
X62730000Y-69875000D02*
X56070000Y-69875000D01*
X63130000Y-55125000D02*
X56070000Y-55125000D01*
X64750000Y-56770000D02*
X64750000Y-59580000D01*
D17*
X66824999Y-60300000D02*
G75*
G02*
X66574999Y-60300000I-125000J0D01*
G01*
X66574999Y-60300000D02*
G75*
G02*
X66824999Y-60300000I125000J0D01*
G01*
D14*
%TO.C,C15*%
X71239970Y-96261219D02*
X71438781Y-96460030D01*
X71961219Y-95539970D02*
X72160030Y-95738781D01*
%TO.C,FB1*%
X82125799Y-84045593D02*
X81895594Y-84275798D01*
X82847048Y-84766842D02*
X82616843Y-84997047D01*
%TO.C,R48*%
X66112742Y-100227500D02*
X66587258Y-100227500D01*
X66112742Y-101272500D02*
X66587258Y-101272500D01*
%TO.C,C12*%
X55486789Y-88041962D02*
X55287978Y-88240773D01*
X56208038Y-88763211D02*
X56009227Y-88962022D01*
%TO.C,C3*%
X74870509Y-74853428D02*
X74671698Y-74654617D01*
X75591758Y-74132179D02*
X75392947Y-73933368D01*
%TO.C,C31*%
X67490000Y-63940581D02*
X67490000Y-63659419D01*
X68510000Y-63940581D02*
X68510000Y-63659419D01*
%TO.C,C19*%
X71359420Y-105190001D02*
X71640582Y-105190001D01*
X71359420Y-106210001D02*
X71640582Y-106210001D01*
D18*
%TO.C,G\u002A\u002A\u002A*%
G36*
X80437835Y-65858385D02*
G01*
X80492930Y-65858917D01*
X80658966Y-65860733D01*
X80796844Y-65862972D01*
X80910473Y-65866149D01*
X81003761Y-65870778D01*
X81080619Y-65877374D01*
X81144953Y-65886451D01*
X81200674Y-65898523D01*
X81251691Y-65914104D01*
X81301911Y-65933710D01*
X81355245Y-65957854D01*
X81415600Y-65987050D01*
X81428647Y-65993585D01*
X81565570Y-66081940D01*
X81686382Y-66197009D01*
X81788523Y-66335377D01*
X81869430Y-66493627D01*
X81926541Y-66668345D01*
X81944987Y-66754166D01*
X81972560Y-66958614D01*
X81981623Y-67172745D01*
X81971952Y-67384289D01*
X81943320Y-67580978D01*
X81907855Y-67720827D01*
X81837875Y-67901350D01*
X81745699Y-68057175D01*
X81631472Y-68188169D01*
X81495339Y-68294205D01*
X81337447Y-68375151D01*
X81157940Y-68430878D01*
X80956965Y-68461255D01*
X80949623Y-68461830D01*
X80886883Y-68465291D01*
X80797809Y-68468546D01*
X80688325Y-68471459D01*
X80564352Y-68473889D01*
X80431813Y-68475698D01*
X80296632Y-68476747D01*
X79794114Y-68479071D01*
X79794114Y-68246501D01*
X79794114Y-68013931D01*
X80347570Y-68013931D01*
X80391526Y-68013883D01*
X80537019Y-68013030D01*
X80670229Y-68011193D01*
X80786967Y-68008486D01*
X80883046Y-68005023D01*
X80954278Y-68000919D01*
X80996477Y-67996286D01*
X81108600Y-67967616D01*
X81227513Y-67913336D01*
X81325220Y-67837230D01*
X81402334Y-67738231D01*
X81459471Y-67615272D01*
X81497246Y-67467284D01*
X81516272Y-67293201D01*
X81517164Y-67091955D01*
X81509714Y-66973398D01*
X81485488Y-66807674D01*
X81444942Y-66669087D01*
X81386767Y-66555854D01*
X81309655Y-66466190D01*
X81212298Y-66398310D01*
X81093386Y-66350430D01*
X80951610Y-66320766D01*
X80940873Y-66319473D01*
X80882766Y-66315035D01*
X80798416Y-66311063D01*
X80693289Y-66307710D01*
X80572850Y-66305126D01*
X80442561Y-66303465D01*
X80307889Y-66302878D01*
X79794114Y-66302878D01*
X79794114Y-66077557D01*
X79794114Y-65852237D01*
X80437835Y-65858385D01*
G37*
G36*
X77468776Y-66797089D02*
G01*
X77468784Y-66817749D01*
X77468930Y-67016505D01*
X77469238Y-67185024D01*
X77469794Y-67326031D01*
X77470679Y-67442254D01*
X77471977Y-67536419D01*
X77473772Y-67611252D01*
X77476147Y-67669480D01*
X77479186Y-67713829D01*
X77482970Y-67747025D01*
X77487585Y-67771796D01*
X77493112Y-67790868D01*
X77499636Y-67806966D01*
X77546437Y-67880542D01*
X77624461Y-67945938D01*
X77727824Y-67990286D01*
X77780726Y-68000494D01*
X77858974Y-68008144D01*
X77954661Y-68012886D01*
X78061463Y-68014836D01*
X78173052Y-68014113D01*
X78283105Y-68010832D01*
X78385294Y-68005112D01*
X78473294Y-67997068D01*
X78540780Y-67986819D01*
X78581426Y-67974482D01*
X78622702Y-67950335D01*
X78696931Y-67887923D01*
X78753317Y-67806278D01*
X78759830Y-67793742D01*
X78766468Y-67778337D01*
X78772051Y-67759730D01*
X78776687Y-67735190D01*
X78780488Y-67701990D01*
X78783562Y-67657400D01*
X78786021Y-67598690D01*
X78787973Y-67523132D01*
X78789530Y-67427996D01*
X78790800Y-67310553D01*
X78791895Y-67168074D01*
X78792924Y-66997829D01*
X78793997Y-66797089D01*
X78798916Y-65854349D01*
X79030721Y-65854349D01*
X79262525Y-65854349D01*
X79261945Y-66788783D01*
X79261741Y-66966637D01*
X79261135Y-67161903D01*
X79259962Y-67328994D01*
X79258032Y-67470719D01*
X79255153Y-67589884D01*
X79251136Y-67689300D01*
X79245789Y-67771773D01*
X79238922Y-67840113D01*
X79230345Y-67897126D01*
X79219866Y-67945623D01*
X79207296Y-67988410D01*
X79192443Y-68028297D01*
X79175118Y-68068091D01*
X79169343Y-68080391D01*
X79092865Y-68202850D01*
X78992415Y-68302350D01*
X78868089Y-68378829D01*
X78719985Y-68432227D01*
X78548202Y-68462481D01*
X78502953Y-68466172D01*
X78409341Y-68470460D01*
X78298583Y-68472539D01*
X78176972Y-68472565D01*
X78050805Y-68470693D01*
X77926375Y-68467080D01*
X77809976Y-68461880D01*
X77707904Y-68455250D01*
X77626454Y-68447346D01*
X77571919Y-68438323D01*
X77434596Y-68393185D01*
X77305805Y-68322441D01*
X77201632Y-68230367D01*
X77123061Y-68117666D01*
X77121490Y-68114719D01*
X77100059Y-68074189D01*
X77081694Y-68037177D01*
X77066139Y-68000855D01*
X77053138Y-67962397D01*
X77042436Y-67918979D01*
X77033776Y-67867772D01*
X77026904Y-67805952D01*
X77021564Y-67730691D01*
X77017499Y-67639164D01*
X77014455Y-67528545D01*
X77012176Y-67396007D01*
X77010406Y-67238724D01*
X77008889Y-67053871D01*
X77007370Y-66838620D01*
X77000543Y-65854349D01*
X77234477Y-65854349D01*
X77468411Y-65854349D01*
X77468776Y-66797089D01*
G37*
G36*
X77317888Y-57904718D02*
G01*
X77627523Y-57951559D01*
X77929532Y-58028682D01*
X78221751Y-58135008D01*
X78502019Y-58269458D01*
X78768173Y-58430951D01*
X79018051Y-58618409D01*
X79249491Y-58830750D01*
X79460331Y-59066897D01*
X79648409Y-59325768D01*
X79785825Y-59557444D01*
X79921935Y-59844722D01*
X80027720Y-60141989D01*
X80102861Y-60446871D01*
X80147041Y-60756995D01*
X80159939Y-61069985D01*
X80141238Y-61383468D01*
X80090619Y-61695069D01*
X80007762Y-62002413D01*
X79952876Y-62171047D01*
X79777975Y-62160353D01*
X79602865Y-62146567D01*
X79388445Y-62123433D01*
X79160967Y-62093342D01*
X78930249Y-62057712D01*
X78706109Y-62017961D01*
X78498365Y-61975507D01*
X78455717Y-61965977D01*
X77973560Y-61841578D01*
X77509400Y-61690228D01*
X77061747Y-61511158D01*
X76629114Y-61303595D01*
X76210010Y-61066768D01*
X75802947Y-60799905D01*
X75406436Y-60502236D01*
X75018987Y-60172989D01*
X74980949Y-60138754D01*
X74892548Y-60059648D01*
X74823766Y-59999409D01*
X74770984Y-59955473D01*
X74730582Y-59925274D01*
X74698942Y-59906250D01*
X74672443Y-59895836D01*
X74647469Y-59891468D01*
X74620398Y-59890582D01*
X74574778Y-59895337D01*
X74513686Y-59923892D01*
X74475073Y-59975932D01*
X74461609Y-60048799D01*
X74462684Y-60073098D01*
X74468095Y-60102074D01*
X74480159Y-60134429D01*
X74501163Y-60173975D01*
X74533390Y-60224524D01*
X74579125Y-60289889D01*
X74640655Y-60373882D01*
X74720263Y-60480314D01*
X74721391Y-60481813D01*
X74850501Y-60649677D01*
X74975359Y-60803416D01*
X75103508Y-60951760D01*
X75242486Y-61103439D01*
X75399833Y-61267185D01*
X75648751Y-61510174D01*
X75991406Y-61809235D01*
X76345355Y-62078132D01*
X76711946Y-62317532D01*
X77092524Y-62528099D01*
X77488437Y-62710500D01*
X77901030Y-62865399D01*
X78331649Y-62993462D01*
X78781641Y-63095356D01*
X79252352Y-63171744D01*
X79333546Y-63182512D01*
X79235740Y-63282138D01*
X79075509Y-63432837D01*
X78837046Y-63619828D01*
X78578048Y-63784861D01*
X78302607Y-63925902D01*
X78014819Y-64040919D01*
X77718777Y-64127877D01*
X77418574Y-64184744D01*
X77277724Y-64200250D01*
X76985080Y-64210584D01*
X76686849Y-64193685D01*
X76390259Y-64150446D01*
X76102539Y-64081759D01*
X75830915Y-63988519D01*
X75778952Y-63967439D01*
X75682400Y-63926842D01*
X75601970Y-63890032D01*
X75527267Y-63851828D01*
X75447896Y-63807049D01*
X75353463Y-63750511D01*
X75100051Y-63578886D01*
X74855010Y-63374560D01*
X74632661Y-63147111D01*
X74434395Y-62898295D01*
X74261605Y-62629867D01*
X74115682Y-62343581D01*
X73998018Y-62041192D01*
X73944540Y-61863061D01*
X73878309Y-61555138D01*
X73843635Y-61246281D01*
X73839653Y-60938584D01*
X73865496Y-60634143D01*
X73920298Y-60335054D01*
X74003192Y-60043411D01*
X74113313Y-59761309D01*
X74249794Y-59490845D01*
X74411769Y-59234114D01*
X74598372Y-58993210D01*
X74808736Y-58770229D01*
X75041995Y-58567266D01*
X75297284Y-58386417D01*
X75573735Y-58229777D01*
X75727573Y-58156709D01*
X75982436Y-58055349D01*
X76238069Y-57979928D01*
X76503391Y-57928001D01*
X76787320Y-57897122D01*
X77002788Y-57889240D01*
X77317888Y-57904718D01*
G37*
G36*
X76405232Y-66077848D02*
G01*
X76405232Y-66301346D01*
X75628614Y-66306265D01*
X75457664Y-66307411D01*
X75304187Y-66308659D01*
X75178102Y-66310057D01*
X75076395Y-66311736D01*
X74996051Y-66313825D01*
X74934058Y-66316455D01*
X74887401Y-66319755D01*
X74853066Y-66323856D01*
X74828039Y-66328886D01*
X74809306Y-66334977D01*
X74793852Y-66342258D01*
X74718555Y-66391621D01*
X74656990Y-66460531D01*
X74622117Y-66545603D01*
X74611118Y-66651605D01*
X74621001Y-66756381D01*
X74655861Y-66853733D01*
X74716147Y-66930033D01*
X74802158Y-66985803D01*
X74808821Y-66988772D01*
X74829544Y-66996362D01*
X74854874Y-67002442D01*
X74888390Y-67007179D01*
X74933667Y-67010742D01*
X74994283Y-67013299D01*
X75073814Y-67015019D01*
X75175839Y-67016069D01*
X75303933Y-67016619D01*
X75461674Y-67016836D01*
X75512979Y-67016885D01*
X75680458Y-67017457D01*
X75818965Y-67018916D01*
X75931836Y-67021622D01*
X76022409Y-67025937D01*
X76094020Y-67032221D01*
X76150005Y-67040835D01*
X76193702Y-67052141D01*
X76228446Y-67066498D01*
X76257575Y-67084269D01*
X76284425Y-67105812D01*
X76305077Y-67124216D01*
X76329521Y-67148465D01*
X76349206Y-67174100D01*
X76364687Y-67204658D01*
X76376522Y-67243676D01*
X76385268Y-67294693D01*
X76391480Y-67361246D01*
X76395717Y-67446872D01*
X76398535Y-67555109D01*
X76400492Y-67689494D01*
X76402143Y-67853565D01*
X76403023Y-67966893D01*
X76403559Y-68095054D01*
X76403542Y-68209876D01*
X76402995Y-68307382D01*
X76401943Y-68383596D01*
X76400411Y-68434541D01*
X76398424Y-68456240D01*
X76389376Y-68465763D01*
X76366729Y-68472308D01*
X76325716Y-68475821D01*
X76261400Y-68476715D01*
X76168844Y-68475403D01*
X75948398Y-68470765D01*
X75940092Y-67972400D01*
X75931786Y-67474035D01*
X75558334Y-67474035D01*
X75184882Y-67474035D01*
X74888078Y-67976553D01*
X74591275Y-68479071D01*
X74341931Y-68479071D01*
X74283166Y-68478941D01*
X74202877Y-68477895D01*
X74148959Y-68475436D01*
X74117043Y-68471132D01*
X74102756Y-68464549D01*
X74101726Y-68455254D01*
X74109232Y-68440767D01*
X74131983Y-68399930D01*
X74167861Y-68336750D01*
X74214887Y-68254685D01*
X74271080Y-68157188D01*
X74334458Y-68047714D01*
X74403041Y-67929720D01*
X74462277Y-67827763D01*
X74525196Y-67718902D01*
X74580650Y-67622345D01*
X74626775Y-67541368D01*
X74661708Y-67479244D01*
X74683586Y-67439247D01*
X74690544Y-67424650D01*
X74685317Y-67422128D01*
X74656832Y-67410277D01*
X74612967Y-67392888D01*
X74591342Y-67384044D01*
X74462283Y-67311375D01*
X74352908Y-67213795D01*
X74264905Y-67094061D01*
X74199958Y-66954928D01*
X74159754Y-66799151D01*
X74145978Y-66629487D01*
X74149490Y-66547657D01*
X74177305Y-66391966D01*
X74231420Y-66251242D01*
X74310132Y-66128472D01*
X74411736Y-66026641D01*
X74534526Y-65948736D01*
X74572508Y-65930737D01*
X74614565Y-65913008D01*
X74657798Y-65898268D01*
X74705412Y-65886242D01*
X74760612Y-65876653D01*
X74826603Y-65869227D01*
X74906589Y-65863687D01*
X75003775Y-65859758D01*
X75121366Y-65857164D01*
X75262566Y-65855630D01*
X75430580Y-65854879D01*
X75628614Y-65854638D01*
X76405232Y-65854349D01*
X76405232Y-66077848D01*
G37*
G36*
X79003412Y-56033698D02*
G01*
X79056042Y-56059984D01*
X79128680Y-56101353D01*
X79218356Y-56156072D01*
X79322103Y-56222409D01*
X79436952Y-56298629D01*
X79669523Y-56455581D01*
X80181433Y-57091896D01*
X80693343Y-57728211D01*
X81115759Y-57974635D01*
X81148422Y-57993716D01*
X81252722Y-58054997D01*
X81346029Y-58110350D01*
X81424790Y-58157633D01*
X81485455Y-58194701D01*
X81524470Y-58219411D01*
X81538283Y-58229619D01*
X81531239Y-58235554D01*
X81500515Y-58250187D01*
X81453660Y-58268273D01*
X81441371Y-58273225D01*
X81392755Y-58299959D01*
X81337604Y-58338023D01*
X81282859Y-58381628D01*
X81235459Y-58424984D01*
X81202347Y-58462303D01*
X81190463Y-58487794D01*
X81190471Y-58487904D01*
X81203391Y-58505577D01*
X81235835Y-58536507D01*
X81280861Y-58574068D01*
X81292544Y-58583180D01*
X81346681Y-58620587D01*
X81390714Y-58639460D01*
X81435292Y-58644670D01*
X81473962Y-58648004D01*
X81551935Y-58678282D01*
X81620111Y-58739430D01*
X81677710Y-58830619D01*
X81723952Y-58951022D01*
X81742845Y-59009416D01*
X81771441Y-59090954D01*
X81804963Y-59181910D01*
X81839454Y-59271310D01*
X81859938Y-59323707D01*
X81949912Y-59576048D01*
X82018703Y-59813647D01*
X82067983Y-60044059D01*
X82099427Y-60274838D01*
X82114710Y-60513538D01*
X82116694Y-60589243D01*
X82117134Y-60743949D01*
X82111135Y-60879063D01*
X82097847Y-61003800D01*
X82076421Y-61127373D01*
X82046009Y-61258996D01*
X82020524Y-61351469D01*
X81929106Y-61602879D01*
X81810702Y-61836116D01*
X81666575Y-62050132D01*
X81497985Y-62243882D01*
X81306191Y-62416317D01*
X81092455Y-62566392D01*
X80858037Y-62693060D01*
X80604198Y-62795274D01*
X80332197Y-62871986D01*
X80043296Y-62922151D01*
X79973631Y-62929967D01*
X79827262Y-62940963D01*
X79678599Y-62944068D01*
X79521716Y-62939012D01*
X79350690Y-62925526D01*
X79159598Y-62903341D01*
X78942514Y-62872190D01*
X78782466Y-62845521D01*
X78332993Y-62748232D01*
X77894740Y-62619706D01*
X77467997Y-62460074D01*
X77053055Y-62269463D01*
X76650206Y-62048004D01*
X76259740Y-61795825D01*
X75881949Y-61513056D01*
X75852930Y-61489287D01*
X75758100Y-61406850D01*
X75649867Y-61307177D01*
X75533759Y-61195808D01*
X75415303Y-61078284D01*
X75300025Y-60960147D01*
X75193452Y-60846938D01*
X75101113Y-60744198D01*
X75028533Y-60657467D01*
X74955894Y-60563448D01*
X74880097Y-60460379D01*
X74811256Y-60361733D01*
X74751650Y-60271114D01*
X74703558Y-60192124D01*
X74669259Y-60128366D01*
X74651034Y-60083444D01*
X74651161Y-60060960D01*
X74656650Y-60062621D01*
X74682805Y-60081450D01*
X74726224Y-60117487D01*
X74782562Y-60167066D01*
X74847471Y-60226521D01*
X74896981Y-60272638D01*
X75008422Y-60375910D01*
X75102712Y-60462303D01*
X75184755Y-60536207D01*
X75259456Y-60602014D01*
X75331721Y-60664113D01*
X75406455Y-60726897D01*
X75462134Y-60772834D01*
X75860232Y-61078779D01*
X76271814Y-61356882D01*
X76695280Y-61606385D01*
X77129030Y-61826531D01*
X77571466Y-62016562D01*
X78020989Y-62175720D01*
X78475999Y-62303248D01*
X78934897Y-62398388D01*
X79023045Y-62412754D01*
X79247044Y-62443127D01*
X79466871Y-62464522D01*
X79677923Y-62476825D01*
X79875596Y-62479925D01*
X80055288Y-62473708D01*
X80212395Y-62458062D01*
X80342315Y-62432873D01*
X80375538Y-62423501D01*
X80481690Y-62386920D01*
X80597331Y-62339302D01*
X80712033Y-62285436D01*
X80815371Y-62230111D01*
X80896919Y-62178118D01*
X80957485Y-62130576D01*
X81046413Y-62051670D01*
X81136997Y-61962950D01*
X81219573Y-61873984D01*
X81284480Y-61794341D01*
X81387423Y-61637183D01*
X81494947Y-61423062D01*
X81578314Y-61193607D01*
X81636293Y-60954153D01*
X81667653Y-60710036D01*
X81671163Y-60466591D01*
X81645593Y-60229154D01*
X81632820Y-60160745D01*
X81579074Y-59945226D01*
X81508147Y-59754565D01*
X81418109Y-59584940D01*
X81307027Y-59432524D01*
X81172970Y-59293495D01*
X81094903Y-59219393D01*
X81031656Y-59150798D01*
X80992140Y-59093862D01*
X80974399Y-59044840D01*
X80976477Y-58999989D01*
X80996417Y-58955563D01*
X81006842Y-58933601D01*
X81007616Y-58908326D01*
X80996358Y-58871819D01*
X80971443Y-58814944D01*
X80970892Y-58813751D01*
X80943902Y-58762005D01*
X80918872Y-58725158D01*
X80901157Y-58711118D01*
X80899673Y-58711165D01*
X80865440Y-58724520D01*
X80818405Y-58757254D01*
X80765885Y-58803027D01*
X80715196Y-58855495D01*
X80673654Y-58908316D01*
X80646250Y-58947126D01*
X80620358Y-58980212D01*
X80606623Y-58993097D01*
X80605293Y-58991611D01*
X80594393Y-58967639D01*
X80574473Y-58917359D01*
X80546980Y-58844631D01*
X80513356Y-58753319D01*
X80475048Y-58647283D01*
X80433500Y-58530384D01*
X80270171Y-58067243D01*
X79759697Y-57431839D01*
X79249224Y-56796435D01*
X79141084Y-56536936D01*
X79118759Y-56482768D01*
X79072007Y-56365004D01*
X79032289Y-56258841D01*
X79000870Y-56168041D01*
X78979016Y-56096368D01*
X78967993Y-56047587D01*
X78969067Y-56025461D01*
X78973757Y-56024229D01*
X79003412Y-56033698D01*
G37*
G36*
X82967053Y-60754559D02*
G01*
X82967275Y-61135465D01*
X82967428Y-61520078D01*
X82967511Y-61906922D01*
X82967524Y-62294520D01*
X82967468Y-62681393D01*
X82967342Y-63066065D01*
X82967147Y-63447059D01*
X82966881Y-63822897D01*
X82966546Y-64192102D01*
X82966141Y-64553197D01*
X82965666Y-64904704D01*
X82965121Y-65245146D01*
X82964506Y-65573046D01*
X82963821Y-65886926D01*
X82963066Y-66185310D01*
X82962241Y-66466720D01*
X82961346Y-66729678D01*
X82961336Y-66732137D01*
X82960380Y-66972707D01*
X82959344Y-67194331D01*
X82958238Y-67393071D01*
X82957062Y-67567451D01*
X82955815Y-67715993D01*
X82954498Y-67837220D01*
X82953110Y-67929654D01*
X82951652Y-67991819D01*
X82950123Y-68022237D01*
X82928771Y-68160682D01*
X82871564Y-68367465D01*
X82785403Y-68558273D01*
X82669765Y-68734178D01*
X82524127Y-68896254D01*
X82431056Y-68979709D01*
X82259846Y-69101661D01*
X82075661Y-69194132D01*
X81875364Y-69258877D01*
X81873006Y-69259453D01*
X81857759Y-69262944D01*
X81841044Y-69266166D01*
X81821540Y-69269129D01*
X81797922Y-69271846D01*
X81768867Y-69274326D01*
X81733052Y-69276582D01*
X81689155Y-69278625D01*
X81635850Y-69280466D01*
X81571817Y-69282116D01*
X81495730Y-69283586D01*
X81406268Y-69284888D01*
X81302106Y-69286034D01*
X81181922Y-69287033D01*
X81044392Y-69287898D01*
X80888193Y-69288639D01*
X80712002Y-69289269D01*
X80514496Y-69289797D01*
X80294351Y-69290237D01*
X80050244Y-69290597D01*
X79780852Y-69290891D01*
X79484852Y-69291129D01*
X79160921Y-69291323D01*
X78807735Y-69291483D01*
X78423971Y-69291621D01*
X78008306Y-69291748D01*
X77771893Y-69291816D01*
X77374511Y-69291919D01*
X77008285Y-69291991D01*
X76671887Y-69292021D01*
X76363990Y-69291997D01*
X76083269Y-69291908D01*
X75828396Y-69291744D01*
X75598045Y-69291494D01*
X75390888Y-69291146D01*
X75205599Y-69290690D01*
X75040852Y-69290115D01*
X74895319Y-69289409D01*
X74767673Y-69288562D01*
X74656589Y-69287563D01*
X74560739Y-69286400D01*
X74478796Y-69285064D01*
X74409434Y-69283542D01*
X74351326Y-69281825D01*
X74303145Y-69279900D01*
X74263564Y-69277757D01*
X74231257Y-69275386D01*
X74204897Y-69272774D01*
X74183157Y-69269911D01*
X74164711Y-69266787D01*
X74148231Y-69263390D01*
X74132391Y-69259709D01*
X73996378Y-69219663D01*
X73804513Y-69135887D01*
X73628304Y-69025789D01*
X73470432Y-68892114D01*
X73333574Y-68737611D01*
X73220412Y-68565026D01*
X73133624Y-68377107D01*
X73075891Y-68176600D01*
X73075088Y-68172459D01*
X73072783Y-68157449D01*
X73070619Y-68137715D01*
X73068592Y-68112239D01*
X73066699Y-68080004D01*
X73064933Y-68039992D01*
X73063291Y-67991184D01*
X73061769Y-67932563D01*
X73060361Y-67863111D01*
X73059065Y-67781811D01*
X73057874Y-67687643D01*
X73056786Y-67579591D01*
X73055794Y-67456637D01*
X73054896Y-67317762D01*
X73054086Y-67161948D01*
X73053361Y-66988179D01*
X73052715Y-66795435D01*
X73052145Y-66582700D01*
X73051646Y-66348955D01*
X73051213Y-66093182D01*
X73050842Y-65814364D01*
X73050529Y-65511482D01*
X73050485Y-65455657D01*
X73431655Y-65455657D01*
X73431943Y-66722335D01*
X73431946Y-66732487D01*
X73432103Y-66975307D01*
X73432469Y-67187242D01*
X73433085Y-67370543D01*
X73433989Y-67527461D01*
X73435222Y-67660248D01*
X73436824Y-67771154D01*
X73438835Y-67862430D01*
X73441294Y-67936328D01*
X73444242Y-67995098D01*
X73447718Y-68040991D01*
X73451762Y-68076259D01*
X73456414Y-68103153D01*
X73490985Y-68224314D01*
X73563657Y-68381107D01*
X73662261Y-68524358D01*
X73783019Y-68650291D01*
X73922152Y-68755130D01*
X74075880Y-68835099D01*
X74240425Y-68886424D01*
X74256252Y-68888303D01*
X74306976Y-68891083D01*
X74387849Y-68893690D01*
X74497008Y-68896124D01*
X74632587Y-68898387D01*
X74792724Y-68900478D01*
X74975554Y-68902397D01*
X75179214Y-68904146D01*
X75401839Y-68905724D01*
X75641566Y-68907132D01*
X75896530Y-68908370D01*
X76164869Y-68909439D01*
X76444717Y-68910338D01*
X76734211Y-68911068D01*
X77031487Y-68911630D01*
X77334681Y-68912023D01*
X77641930Y-68912248D01*
X77951369Y-68912306D01*
X78261134Y-68912197D01*
X78569362Y-68911921D01*
X78874189Y-68911478D01*
X79173750Y-68910868D01*
X79466182Y-68910093D01*
X79749621Y-68909153D01*
X80022203Y-68908047D01*
X80282064Y-68906776D01*
X80527340Y-68905341D01*
X80756167Y-68903741D01*
X80966682Y-68901977D01*
X81157020Y-68900050D01*
X81325317Y-68897960D01*
X81469711Y-68895707D01*
X81588336Y-68893291D01*
X81679328Y-68890713D01*
X81740825Y-68887973D01*
X81770962Y-68885071D01*
X81833118Y-68869523D01*
X81984949Y-68810711D01*
X82126431Y-68723381D01*
X82261627Y-68605217D01*
X82356801Y-68500376D01*
X82434973Y-68389216D01*
X82492692Y-68271241D01*
X82535529Y-68136927D01*
X82538177Y-68126395D01*
X82543924Y-68101327D01*
X82548892Y-68074464D01*
X82553138Y-68043390D01*
X82556719Y-68005687D01*
X82559690Y-67958936D01*
X82562109Y-67900721D01*
X82564032Y-67828623D01*
X82565515Y-67740225D01*
X82566615Y-67633108D01*
X82567389Y-67504856D01*
X82567892Y-67353051D01*
X82568182Y-67175274D01*
X82568314Y-66969109D01*
X82568345Y-66732137D01*
X82568345Y-65455657D01*
X78000000Y-65455657D01*
X73431655Y-65455657D01*
X73050485Y-65455657D01*
X73050269Y-65183519D01*
X73050204Y-65073577D01*
X73431655Y-65073577D01*
X78000000Y-65073577D01*
X82568345Y-65073577D01*
X82568345Y-60632481D01*
X82568343Y-60246451D01*
X82568329Y-59819365D01*
X82568295Y-59423275D01*
X82568233Y-59056974D01*
X82568132Y-58719255D01*
X82567986Y-58408909D01*
X82567784Y-58124730D01*
X82567520Y-57865511D01*
X82567182Y-57630043D01*
X82566765Y-57417119D01*
X82566257Y-57225532D01*
X82565651Y-57054075D01*
X82564939Y-56901539D01*
X82564111Y-56766718D01*
X82563159Y-56648404D01*
X82562073Y-56545389D01*
X82560847Y-56456467D01*
X82559470Y-56380429D01*
X82557934Y-56316069D01*
X82556230Y-56262178D01*
X82554351Y-56217550D01*
X82552286Y-56180976D01*
X82550028Y-56151251D01*
X82547567Y-56127165D01*
X82544896Y-56107512D01*
X82542005Y-56091083D01*
X82538885Y-56076673D01*
X82535529Y-56063073D01*
X82496255Y-55937808D01*
X82439899Y-55819119D01*
X82363560Y-55708192D01*
X82261627Y-55595443D01*
X82228534Y-55562932D01*
X82152056Y-55494828D01*
X82080431Y-55443478D01*
X82003532Y-55401263D01*
X82001525Y-55400287D01*
X81976874Y-55387910D01*
X81954801Y-55376472D01*
X81933980Y-55365938D01*
X81913086Y-55356273D01*
X81890792Y-55347440D01*
X81865772Y-55339406D01*
X81836700Y-55332133D01*
X81802251Y-55325587D01*
X81761098Y-55319733D01*
X81711915Y-55314534D01*
X81653377Y-55309956D01*
X81584156Y-55305964D01*
X81502928Y-55302520D01*
X81408366Y-55299591D01*
X81299144Y-55297141D01*
X81173935Y-55295134D01*
X81031415Y-55293534D01*
X80870257Y-55292308D01*
X80689135Y-55291418D01*
X80486722Y-55290830D01*
X80261694Y-55290508D01*
X80012723Y-55290416D01*
X79738485Y-55290520D01*
X79437652Y-55290784D01*
X79108899Y-55291172D01*
X78750899Y-55291649D01*
X78362327Y-55292180D01*
X77941858Y-55292729D01*
X74270569Y-55297318D01*
X74137672Y-55342630D01*
X74132986Y-55344240D01*
X73970435Y-55417125D01*
X73823242Y-55516075D01*
X73694827Y-55637305D01*
X73588605Y-55777033D01*
X73507995Y-55931475D01*
X73456414Y-56096847D01*
X73453962Y-56111642D01*
X73451618Y-56133456D01*
X73449443Y-56163120D01*
X73447432Y-56201790D01*
X73445578Y-56250618D01*
X73443875Y-56310757D01*
X73442316Y-56383361D01*
X73440896Y-56469582D01*
X73439608Y-56570575D01*
X73438446Y-56687493D01*
X73437404Y-56821489D01*
X73436476Y-56973716D01*
X73435656Y-57145327D01*
X73434936Y-57337477D01*
X73434312Y-57551317D01*
X73433776Y-57788002D01*
X73433323Y-58048685D01*
X73432946Y-58334519D01*
X73432640Y-58646658D01*
X73432397Y-58986254D01*
X73432213Y-59354461D01*
X73432080Y-59752433D01*
X73431992Y-60181322D01*
X73431943Y-60642282D01*
X73431655Y-65073577D01*
X73050204Y-65073577D01*
X73050059Y-64829457D01*
X73049893Y-64448278D01*
X73049767Y-64038964D01*
X73049676Y-63600497D01*
X73049617Y-63131859D01*
X73049585Y-62632033D01*
X73049575Y-62100000D01*
X73049573Y-61901011D01*
X73049553Y-61379133D01*
X73049522Y-60889068D01*
X73049497Y-60429785D01*
X73049491Y-60000249D01*
X73049520Y-59599428D01*
X73049599Y-59226288D01*
X73049743Y-58879798D01*
X73049967Y-58558923D01*
X73050286Y-58262632D01*
X73050714Y-57989891D01*
X73051268Y-57739667D01*
X73051961Y-57510927D01*
X73052810Y-57302638D01*
X73053828Y-57113767D01*
X73055031Y-56943282D01*
X73056434Y-56790149D01*
X73058052Y-56653336D01*
X73059900Y-56531809D01*
X73061993Y-56424536D01*
X73064345Y-56330484D01*
X73066973Y-56248619D01*
X73069890Y-56177908D01*
X73073113Y-56117320D01*
X73076655Y-56065820D01*
X73080533Y-56022377D01*
X73084760Y-55985956D01*
X73089352Y-55955525D01*
X73094325Y-55930051D01*
X73099692Y-55908502D01*
X73105469Y-55889843D01*
X73111671Y-55873043D01*
X73118313Y-55857068D01*
X73125411Y-55840885D01*
X73132978Y-55823462D01*
X73141030Y-55803765D01*
X73162045Y-55752944D01*
X73241833Y-55598803D01*
X73343453Y-55455153D01*
X73472361Y-55313931D01*
X73488424Y-55298209D01*
X73610710Y-55190162D01*
X73734695Y-55103764D01*
X73870861Y-55032546D01*
X74029693Y-54970042D01*
X74187508Y-54915239D01*
X78000000Y-54915239D01*
X81812492Y-54915239D01*
X81953695Y-54962859D01*
X82132548Y-55032731D01*
X82289001Y-55116058D01*
X82429141Y-55217183D01*
X82560992Y-55341105D01*
X82647233Y-55438659D01*
X82765461Y-55606118D01*
X82853977Y-55783871D01*
X82914755Y-55976220D01*
X82949772Y-56187464D01*
X82951219Y-56216431D01*
X82952685Y-56277977D01*
X82954082Y-56369822D01*
X82955410Y-56490489D01*
X82956669Y-56638500D01*
X82957860Y-56812379D01*
X82958982Y-57010648D01*
X82960035Y-57231829D01*
X82961019Y-57474446D01*
X82961933Y-57737021D01*
X82962779Y-58018077D01*
X82963556Y-58316136D01*
X82964263Y-58629722D01*
X82964902Y-58957357D01*
X82965471Y-59297563D01*
X82965970Y-59648864D01*
X82966401Y-60009781D01*
X82966762Y-60378839D01*
X82966958Y-60632481D01*
X82967053Y-60754559D01*
G37*
D14*
%TO.C,C18*%
X71359419Y-103690000D02*
X71640581Y-103690000D01*
X71359419Y-104710000D02*
X71640581Y-104710000D01*
%TO.C,C7*%
X80850630Y-83199441D02*
X81049441Y-83000630D01*
X81571879Y-83920690D02*
X81770690Y-83721879D01*
%TO.C,Y1*%
X75290202Y-73325736D02*
X77623655Y-70992283D01*
X77623655Y-70992283D02*
X80452082Y-73820710D01*
%TO.C,C1*%
X53288781Y-85789970D02*
X53089970Y-85988781D01*
X54010030Y-86511219D02*
X53811219Y-86710030D01*
%TO.C,D12*%
X69000000Y-66439999D02*
X68200000Y-66440000D01*
X69000000Y-66439999D02*
X69800000Y-66440000D01*
X69000000Y-69560001D02*
X68200000Y-69560000D01*
X69000000Y-69560001D02*
X69800000Y-69560000D01*
X67940000Y-69840000D02*
X67460000Y-69840000D01*
X67700000Y-69510000D01*
X67940000Y-69840000D01*
G36*
X67940000Y-69840000D02*
G01*
X67460000Y-69840000D01*
X67700000Y-69510000D01*
X67940000Y-69840000D01*
G37*
%TO.C,C30*%
X74890000Y-99565581D02*
X74890000Y-99284419D01*
X75910000Y-99565581D02*
X75910000Y-99284419D01*
%TO.C,C4*%
X54386789Y-86941962D02*
X54187978Y-87140773D01*
X55108038Y-87663211D02*
X54909227Y-87862022D01*
%TO.C,C8*%
X69689970Y-96961218D02*
X69888781Y-97160029D01*
X70411219Y-96239969D02*
X70610030Y-96438780D01*
%TO.C,C6*%
X71739970Y-74738781D02*
X71938781Y-74539970D01*
X72461219Y-75460030D02*
X72660030Y-75261219D01*
%TO.C,Q1*%
X66137501Y-103639999D02*
X65487501Y-103640000D01*
X66137501Y-103639999D02*
X66787501Y-103640000D01*
X66137501Y-106760001D02*
X65487501Y-106760000D01*
X66137501Y-106760001D02*
X66787501Y-106760000D01*
X67300001Y-103690000D02*
X67060001Y-103360001D01*
X67540001Y-103360000D01*
X67300001Y-103690000D01*
G36*
X67300001Y-103690000D02*
G01*
X67060001Y-103360001D01*
X67540001Y-103360000D01*
X67300001Y-103690000D01*
G37*
%TO.C,R4*%
X74827500Y-102262742D02*
X74827500Y-102737258D01*
X75872500Y-102262742D02*
X75872500Y-102737258D01*
%TO.C,R26*%
X81177500Y-91837742D02*
X81177500Y-92312258D01*
X82222500Y-91837742D02*
X82222500Y-92312258D01*
D18*
%TO.C,G\u002A\u002A\u002A*%
G36*
X84585456Y-72212940D02*
G01*
X84585456Y-73575927D01*
X84585456Y-74938917D01*
X84279739Y-74938917D01*
X83974022Y-74938917D01*
X83974022Y-73575927D01*
X83974022Y-72212940D01*
X84279739Y-72212939D01*
X84585456Y-72212940D01*
G37*
G36*
X84610933Y-71181143D02*
G01*
X84610933Y-71652457D01*
X84292477Y-71652457D01*
X83974022Y-71652457D01*
X83974022Y-71181143D01*
X83974022Y-70709828D01*
X84292477Y-70709829D01*
X84610933Y-70709828D01*
X84610933Y-71181143D01*
G37*
G36*
X86649047Y-70709829D02*
G01*
X86649047Y-71181143D01*
X86649047Y-71652457D01*
X85795587Y-71652457D01*
X84942126Y-71652457D01*
X84942126Y-71181143D01*
X84942126Y-70709828D01*
X85795587Y-70709828D01*
X86649047Y-70709829D01*
G37*
G36*
X89425978Y-72302106D02*
G01*
X89425978Y-72518656D01*
X88419659Y-72518656D01*
X87413340Y-72518656D01*
X87413340Y-72302106D01*
X87413340Y-72085556D01*
X88419659Y-72085556D01*
X89425978Y-72085556D01*
X89425978Y-72302106D01*
G37*
G36*
X89425978Y-78964191D02*
G01*
X89425979Y-79193480D01*
X88419660Y-79193480D01*
X87413341Y-79193480D01*
X87413340Y-78964191D01*
X87413340Y-78734905D01*
X88419659Y-78734905D01*
X89425978Y-78734905D01*
X89425978Y-78964191D01*
G37*
G36*
X86649047Y-73601404D02*
G01*
X86649047Y-75015346D01*
X86292377Y-75015346D01*
X85935707Y-75015346D01*
X85935707Y-74085456D01*
X85935707Y-73155567D01*
X85796003Y-73155567D01*
X85656298Y-73155567D01*
X85649513Y-73837061D01*
X85642728Y-74518555D01*
X85298796Y-74518555D01*
X84954864Y-74518555D01*
X84948238Y-73353009D01*
X84941612Y-72187462D01*
X85795330Y-72187462D01*
X86649047Y-72187462D01*
X86649047Y-73601404D01*
G37*
G36*
X87846439Y-79728485D02*
G01*
X87846439Y-79932297D01*
X88636208Y-79932297D01*
X89425978Y-79932297D01*
X89425978Y-80161585D01*
X89425979Y-80390872D01*
X88636208Y-80390872D01*
X87846439Y-80390872D01*
X87846439Y-80594684D01*
X87846439Y-80798495D01*
X87629891Y-80798495D01*
X87413341Y-80798495D01*
X87413340Y-80161585D01*
X87413340Y-79524674D01*
X87629890Y-79524674D01*
X87846439Y-79524674D01*
X87846439Y-79728485D01*
G37*
G36*
X84516017Y-67576723D02*
G01*
X84520984Y-67606803D01*
X84525519Y-67680580D01*
X84529435Y-67791582D01*
X84532547Y-67933334D01*
X84534671Y-68099365D01*
X84535622Y-68283199D01*
X84536076Y-68431589D01*
X84537996Y-68634410D01*
X84542011Y-68795966D01*
X84548846Y-68922241D01*
X84559225Y-69019220D01*
X84573874Y-69092890D01*
X84593515Y-69149233D01*
X84618873Y-69194236D01*
X84650674Y-69233883D01*
X84692001Y-69264817D01*
X84755002Y-69283149D01*
X84814744Y-69283149D01*
X84814744Y-69783402D01*
X84814744Y-70283656D01*
X84700258Y-70267964D01*
X84612947Y-70250965D01*
X84440063Y-70181628D01*
X84292178Y-70069022D01*
X84169901Y-69914254D01*
X84073836Y-69718431D01*
X84004592Y-69482661D01*
X83962773Y-69208051D01*
X83948988Y-68895708D01*
X83949011Y-68884994D01*
X83955196Y-68658359D01*
X83974001Y-68468069D01*
X84008059Y-68301047D01*
X84060005Y-68144208D01*
X84132472Y-67984473D01*
X84171969Y-67909170D01*
X84232859Y-67810097D01*
X84294812Y-67736084D01*
X84368907Y-67672516D01*
X84430343Y-67627848D01*
X84486498Y-67590681D01*
X84515396Y-67576357D01*
X84516017Y-67576723D01*
G37*
G36*
X88050292Y-73053661D02*
G01*
X88419659Y-73053661D01*
X89425978Y-73053661D01*
X89425978Y-73270210D01*
X89425978Y-73486760D01*
X89102402Y-73486760D01*
X88778826Y-73486761D01*
X89070556Y-73692204D01*
X89103572Y-73715429D01*
X89208773Y-73789078D01*
X89298145Y-73851126D01*
X89363098Y-73895628D01*
X89395043Y-73916645D01*
X89408689Y-73936013D01*
X89418438Y-73987377D01*
X89422188Y-74076125D01*
X89420520Y-74208927D01*
X89413240Y-74482211D01*
X89009757Y-74189238D01*
X88606275Y-73896264D01*
X88524517Y-74003599D01*
X88478287Y-74058813D01*
X88355565Y-74159702D01*
X88211072Y-74217851D01*
X88037568Y-74236722D01*
X87976182Y-74235028D01*
X87819403Y-74207635D01*
X87688175Y-74143024D01*
X87571249Y-74036364D01*
X87515631Y-73960721D01*
X87467877Y-73857656D01*
X87436245Y-73730080D01*
X87418733Y-73569518D01*
X87416524Y-73486760D01*
X87839813Y-73486760D01*
X87853031Y-73604030D01*
X87857930Y-73636628D01*
X87878377Y-73711713D01*
X87904385Y-73759436D01*
X87952894Y-73786620D01*
X88033999Y-73797200D01*
X88118108Y-73783949D01*
X88182669Y-73747811D01*
X88191467Y-73737641D01*
X88225605Y-73672477D01*
X88246601Y-73592404D01*
X88260771Y-73486760D01*
X88050292Y-73486760D01*
X87839813Y-73486760D01*
X87416524Y-73486760D01*
X87413340Y-73367492D01*
X87413340Y-73053661D01*
X88050292Y-73053661D01*
G37*
G36*
X88272354Y-76696846D02*
G01*
X88477018Y-76697636D01*
X88640337Y-76700082D01*
X88768721Y-76705093D01*
X88868583Y-76713575D01*
X88946335Y-76726433D01*
X89008388Y-76744574D01*
X89061155Y-76768905D01*
X89111047Y-76800332D01*
X89164476Y-76839760D01*
X89254714Y-76926684D01*
X89346946Y-77056081D01*
X89414709Y-77198744D01*
X89439011Y-77302623D01*
X89448890Y-77446776D01*
X89439462Y-77594892D01*
X89410895Y-77723900D01*
X89358568Y-77832903D01*
X89262119Y-77960963D01*
X89142108Y-78072369D01*
X89012736Y-78151856D01*
X88973816Y-78168739D01*
X88934107Y-78182875D01*
X88889260Y-78193790D01*
X88832731Y-78202002D01*
X88757975Y-78208035D01*
X88658447Y-78212407D01*
X88527604Y-78215637D01*
X88358899Y-78218247D01*
X88145787Y-78220756D01*
X87413340Y-78228874D01*
X87413340Y-77997837D01*
X87413340Y-77766799D01*
X88089284Y-77766800D01*
X88302172Y-77766284D01*
X88486386Y-77763985D01*
X88630695Y-77758941D01*
X88740814Y-77750191D01*
X88822452Y-77736773D01*
X88881323Y-77717728D01*
X88923137Y-77692094D01*
X88953609Y-77658909D01*
X88978448Y-77617215D01*
X89010214Y-77520735D01*
X89013868Y-77397004D01*
X88981119Y-77284641D01*
X88963865Y-77254858D01*
X88932581Y-77217718D01*
X88889752Y-77188649D01*
X88829750Y-77166690D01*
X88746951Y-77150878D01*
X88635725Y-77140254D01*
X88490443Y-77133855D01*
X88305481Y-77130722D01*
X88075211Y-77129889D01*
X87413340Y-77129889D01*
X87413340Y-76913340D01*
X87413340Y-76696790D01*
X88152975Y-76696790D01*
X88272354Y-76696846D01*
G37*
G36*
X88678634Y-70050289D02*
G01*
X88845575Y-70104503D01*
X88901190Y-70132367D01*
X89073522Y-70250560D01*
X89223493Y-70401655D01*
X89341573Y-70574760D01*
X89418232Y-70758982D01*
X89433013Y-70836803D01*
X89442690Y-70962080D01*
X89442439Y-71105732D01*
X89438299Y-71185979D01*
X89425347Y-71299972D01*
X89401552Y-71395783D01*
X89362638Y-71494248D01*
X89291638Y-71652457D01*
X89014876Y-71652457D01*
X88920825Y-71651651D01*
X88826217Y-71648815D01*
X88761865Y-71644421D01*
X88738114Y-71638970D01*
X88752192Y-71614524D01*
X88790172Y-71561765D01*
X88843673Y-71492480D01*
X88920679Y-71387843D01*
X88979201Y-71281389D01*
X89009631Y-71177243D01*
X89018355Y-71059582D01*
X89007239Y-70941046D01*
X88954076Y-70785956D01*
X88862140Y-70656233D01*
X88737082Y-70557323D01*
X88584556Y-70494675D01*
X88410216Y-70473733D01*
X88240438Y-70496130D01*
X88084562Y-70561500D01*
X87956936Y-70665431D01*
X87862863Y-70803545D01*
X87807645Y-70971459D01*
X87801812Y-71018752D01*
X87815039Y-71164764D01*
X87870106Y-71319314D01*
X87963926Y-71472507D01*
X87970779Y-71481653D01*
X88023913Y-71554761D01*
X88061481Y-71610294D01*
X88075727Y-71636846D01*
X88061708Y-71641827D01*
X88006233Y-71647322D01*
X87918371Y-71651071D01*
X87808654Y-71652457D01*
X87541579Y-71652457D01*
X87478822Y-71528608D01*
X87427048Y-71407286D01*
X87378409Y-71198815D01*
X87374774Y-70988932D01*
X87413271Y-70784051D01*
X87491023Y-70590588D01*
X87605155Y-70414962D01*
X87752794Y-70263589D01*
X87931064Y-70142886D01*
X88137091Y-70059269D01*
X88294809Y-70029413D01*
X88488484Y-70024840D01*
X88678634Y-70050289D01*
G37*
G36*
X84565502Y-76301350D02*
G01*
X84572718Y-77307114D01*
X84641234Y-77375607D01*
X84681562Y-77408637D01*
X84767634Y-77442674D01*
X84851701Y-77435318D01*
X84920620Y-77386077D01*
X84922855Y-77383254D01*
X84934259Y-77365310D01*
X84943550Y-77340651D01*
X84950943Y-77304364D01*
X84956653Y-77251529D01*
X84960894Y-77177235D01*
X84963883Y-77076566D01*
X84965833Y-76944605D01*
X84966958Y-76776437D01*
X84967478Y-76567148D01*
X84967603Y-76311821D01*
X84967603Y-75295587D01*
X85808325Y-75295587D01*
X86649047Y-75295587D01*
X86649047Y-75766901D01*
X86649047Y-76238214D01*
X86189687Y-76238214D01*
X85730327Y-76238214D01*
X85737481Y-76548183D01*
X85744634Y-76858151D01*
X86190472Y-77129919D01*
X86636309Y-77401686D01*
X86643195Y-77928175D01*
X86643750Y-77974131D01*
X86644902Y-78127120D01*
X86644838Y-78259169D01*
X86643630Y-78362776D01*
X86641352Y-78430442D01*
X86638077Y-78454664D01*
X86634844Y-78453304D01*
X86598872Y-78432032D01*
X86528796Y-78388134D01*
X86431049Y-78325709D01*
X86312065Y-78248860D01*
X86178279Y-78161685D01*
X86135721Y-78133900D01*
X86005236Y-78049473D01*
X85891088Y-77976748D01*
X85799815Y-77919819D01*
X85737966Y-77882788D01*
X85712082Y-77869750D01*
X85699679Y-77880861D01*
X85670236Y-77927175D01*
X85634453Y-77997079D01*
X85570782Y-78109622D01*
X85454468Y-78240167D01*
X85306497Y-78334815D01*
X85123841Y-78395336D01*
X84903466Y-78423494D01*
X84857047Y-78425614D01*
X84728971Y-78426174D01*
X84628671Y-78415610D01*
X84538965Y-78392455D01*
X84426406Y-78340234D01*
X84289180Y-78239367D01*
X84165579Y-78108992D01*
X84068048Y-77960523D01*
X83986761Y-77805015D01*
X83979479Y-76550301D01*
X83972199Y-75295587D01*
X84265243Y-75295587D01*
X84558286Y-75295587D01*
X84565502Y-76301350D01*
G37*
G36*
X88543141Y-74647363D02*
G01*
X88637907Y-74652226D01*
X88710165Y-74663442D01*
X88774520Y-74683331D01*
X88845576Y-74714216D01*
X88898507Y-74741114D01*
X89072341Y-74860664D01*
X89223101Y-75012462D01*
X89341496Y-75185861D01*
X89418232Y-75370216D01*
X89432860Y-75446717D01*
X89442622Y-75573699D01*
X89442205Y-75721458D01*
X89434822Y-75846351D01*
X89421242Y-75939766D01*
X89397479Y-76019322D01*
X89359513Y-76103605D01*
X89285857Y-76250953D01*
X89011986Y-76258184D01*
X88920467Y-76259690D01*
X88826087Y-76258881D01*
X88761839Y-76255431D01*
X88738114Y-76249663D01*
X88738253Y-76248703D01*
X88755444Y-76219189D01*
X88795764Y-76162361D01*
X88851193Y-76089573D01*
X88871276Y-76063651D01*
X88945312Y-75958122D01*
X88990198Y-75867911D01*
X89012392Y-75776741D01*
X89018355Y-75668338D01*
X89011872Y-75579806D01*
X88966940Y-75427467D01*
X88885491Y-75298152D01*
X88774910Y-75195389D01*
X88642582Y-75122699D01*
X88495891Y-75083606D01*
X88342223Y-75081634D01*
X88188963Y-75120308D01*
X88043494Y-75203152D01*
X87939981Y-75299722D01*
X87850778Y-75437940D01*
X87808149Y-75590102D01*
X87812519Y-75751557D01*
X87864304Y-75917654D01*
X87963926Y-76083740D01*
X87970778Y-76092886D01*
X88023913Y-76165995D01*
X88061481Y-76221526D01*
X88075727Y-76248080D01*
X88061708Y-76253060D01*
X88006234Y-76258556D01*
X87918371Y-76262304D01*
X87808654Y-76263691D01*
X87541580Y-76263691D01*
X87478821Y-76139841D01*
X87417062Y-75988197D01*
X87375480Y-75778220D01*
X87379116Y-75566894D01*
X87425612Y-75360745D01*
X87512607Y-75166296D01*
X87637741Y-74990072D01*
X87798654Y-74838596D01*
X87992989Y-74718392D01*
X87995643Y-74717101D01*
X88065712Y-74685412D01*
X88128628Y-74664954D01*
X88198909Y-74653283D01*
X88291079Y-74647950D01*
X88419659Y-74646510D01*
X88543141Y-74647363D01*
G37*
G36*
X85930416Y-67411432D02*
G01*
X86084026Y-67468761D01*
X86230421Y-67565122D01*
X86360433Y-67694131D01*
X86464889Y-67849401D01*
X86507424Y-67938274D01*
X86577807Y-68130604D01*
X86634572Y-68347267D01*
X86672833Y-68571291D01*
X86676704Y-68608187D01*
X86684195Y-68734859D01*
X86686566Y-68878859D01*
X86683243Y-69015647D01*
X86654834Y-69325360D01*
X86600731Y-69608401D01*
X86522178Y-69850386D01*
X86419751Y-70050420D01*
X86294028Y-70207606D01*
X86145585Y-70321048D01*
X85975001Y-70389855D01*
X85782848Y-70413126D01*
X85731359Y-70411729D01*
X85572953Y-70382971D01*
X85437843Y-70313280D01*
X85315184Y-70197659D01*
X85256462Y-70119018D01*
X85194209Y-70007360D01*
X85136492Y-69868422D01*
X85081212Y-69696323D01*
X85026270Y-69485182D01*
X84969565Y-69229115D01*
X84865697Y-68729243D01*
X84865697Y-68124075D01*
X84865697Y-67518907D01*
X84945573Y-67534882D01*
X85075745Y-67583641D01*
X85200857Y-67681699D01*
X85310344Y-67825417D01*
X85402299Y-68012797D01*
X85405840Y-68022144D01*
X85430019Y-68097247D01*
X85462184Y-68210188D01*
X85499671Y-68351018D01*
X85539817Y-68509790D01*
X85579961Y-68676557D01*
X85590083Y-68719421D01*
X85629068Y-68879073D01*
X85666387Y-69024015D01*
X85699665Y-69145497D01*
X85726527Y-69234768D01*
X85744596Y-69283076D01*
X85773084Y-69329543D01*
X85812505Y-69354094D01*
X85878545Y-69354664D01*
X85922235Y-69348229D01*
X85977267Y-69320065D01*
X86023629Y-69257673D01*
X86051337Y-69183826D01*
X86070797Y-69070092D01*
X86078556Y-68938429D01*
X86074452Y-68805458D01*
X86058323Y-68687803D01*
X86030007Y-68602086D01*
X86029746Y-68601602D01*
X85964604Y-68521763D01*
X85876110Y-68464409D01*
X85784114Y-68442427D01*
X85772204Y-68441858D01*
X85757616Y-68435806D01*
X85747053Y-68417746D01*
X85739865Y-68381189D01*
X85735405Y-68319643D01*
X85733023Y-68226616D01*
X85732069Y-68095619D01*
X85731896Y-67920160D01*
X85731896Y-67397894D01*
X85816525Y-67397894D01*
X85930416Y-67411432D01*
G37*
G36*
X88860358Y-81042512D02*
G01*
X88988335Y-81074309D01*
X89157481Y-81154169D01*
X89292123Y-81270653D01*
X89390736Y-81422668D01*
X89442309Y-81583580D01*
X89451961Y-81759849D01*
X89418273Y-81933267D01*
X89343398Y-82093065D01*
X89229493Y-82228470D01*
X89216013Y-82240358D01*
X89089032Y-82326319D01*
X88946901Y-82373735D01*
X88776329Y-82387264D01*
X88648606Y-82377342D01*
X88528371Y-82343383D01*
X88423665Y-82280236D01*
X88328158Y-82182701D01*
X88235519Y-82045571D01*
X88139418Y-81863642D01*
X88089147Y-81762138D01*
X88044165Y-81679524D01*
X88009089Y-81629094D01*
X87978294Y-81602988D01*
X87946164Y-81593347D01*
X87883516Y-81600420D01*
X87835436Y-81646813D01*
X87805037Y-81737951D01*
X87800267Y-81769526D01*
X87805768Y-81813818D01*
X87835194Y-81859231D01*
X87896296Y-81921340D01*
X88003783Y-82023589D01*
X87898366Y-82201030D01*
X87870406Y-82247724D01*
X87821873Y-82319753D01*
X87780510Y-82353027D01*
X87735130Y-82348634D01*
X87674548Y-82307655D01*
X87587576Y-82231180D01*
X87532280Y-82177164D01*
X87442637Y-82055316D01*
X87393159Y-81918906D01*
X87377657Y-81753861D01*
X87378151Y-81701482D01*
X87386397Y-81605949D01*
X87409262Y-81525737D01*
X87452541Y-81436265D01*
X87506767Y-81349213D01*
X87615372Y-81235225D01*
X87746961Y-81164741D01*
X87906385Y-81134536D01*
X88020832Y-81135198D01*
X88140571Y-81161239D01*
X88245047Y-81219263D01*
X88339982Y-81313868D01*
X88431096Y-81449653D01*
X88524108Y-81631219D01*
X88526576Y-81636509D01*
X88594583Y-81771007D01*
X88655064Y-81862329D01*
X88714167Y-81916138D01*
X88778042Y-81938094D01*
X88852839Y-81933862D01*
X88867508Y-81930675D01*
X88953526Y-81886662D01*
X89003229Y-81808672D01*
X89013640Y-81701019D01*
X89010912Y-81679644D01*
X88971585Y-81589713D01*
X88890021Y-81527508D01*
X88767129Y-81493793D01*
X88716130Y-81484897D01*
X88676417Y-81466891D01*
X88671896Y-81438338D01*
X88672607Y-81435736D01*
X88685463Y-81380503D01*
X88700091Y-81308023D01*
X88700805Y-81304249D01*
X88719707Y-81214168D01*
X88741438Y-81122396D01*
X88748334Y-81096041D01*
X88767297Y-81048639D01*
X88798704Y-81034782D01*
X88860358Y-81042512D01*
G37*
G36*
X84565502Y-79666905D02*
G01*
X84572718Y-80675336D01*
X84655918Y-80749654D01*
X84685859Y-80774628D01*
X84764153Y-80816692D01*
X84834406Y-80812162D01*
X84905070Y-80761439D01*
X84967603Y-80698906D01*
X84967603Y-79678690D01*
X84967603Y-78658475D01*
X85808325Y-78658475D01*
X86649047Y-78658475D01*
X86649047Y-79129789D01*
X86649047Y-79601103D01*
X86189687Y-79601103D01*
X85730328Y-79601103D01*
X85737481Y-79910862D01*
X85744634Y-80220621D01*
X86190472Y-80492100D01*
X86636309Y-80763578D01*
X86643041Y-81558167D01*
X86649773Y-82352755D01*
X86509290Y-82421654D01*
X86368806Y-82490554D01*
X86368806Y-83249817D01*
X86368806Y-84009079D01*
X86508927Y-84077800D01*
X86649047Y-84146522D01*
X86649047Y-84574314D01*
X86648916Y-84647845D01*
X86647375Y-84791450D01*
X86643714Y-84892652D01*
X86637459Y-84957477D01*
X86628132Y-84991953D01*
X86615259Y-85002106D01*
X86597736Y-84995640D01*
X86537752Y-84968315D01*
X86439664Y-84921496D01*
X86307638Y-84857234D01*
X86145835Y-84777581D01*
X85958418Y-84684588D01*
X85749551Y-84580307D01*
X85523395Y-84466790D01*
X85284116Y-84346088D01*
X83986760Y-83690070D01*
X83979775Y-83294979D01*
X83972791Y-82899888D01*
X84266666Y-82753606D01*
X84284648Y-82744666D01*
X84393639Y-82691001D01*
X84484007Y-82647368D01*
X84546783Y-82618047D01*
X84572999Y-82607322D01*
X84573920Y-82608224D01*
X84578433Y-82640705D01*
X84582099Y-82712887D01*
X84584556Y-82815310D01*
X84585456Y-82938515D01*
X84585809Y-83065237D01*
X84587758Y-83160507D01*
X84592560Y-83220466D01*
X84601469Y-83253238D01*
X84615741Y-83266945D01*
X84636631Y-83269709D01*
X84658369Y-83275439D01*
X84722909Y-83301138D01*
X84821027Y-83344602D01*
X84945846Y-83402681D01*
X85090484Y-83472218D01*
X85248065Y-83550061D01*
X85808325Y-83830413D01*
X85808326Y-83296436D01*
X85808326Y-82762460D01*
X85420482Y-82952393D01*
X85321035Y-83000763D01*
X85203148Y-83057154D01*
X85107083Y-83102008D01*
X85040784Y-83131631D01*
X85012195Y-83142327D01*
X85008560Y-83135777D01*
X85002814Y-83088977D01*
X84999066Y-83004537D01*
X84997621Y-82891232D01*
X84998785Y-82757835D01*
X85005817Y-82373343D01*
X85667365Y-82031322D01*
X85711592Y-82008434D01*
X85877627Y-81922088D01*
X86027627Y-81843437D01*
X86155736Y-81775594D01*
X86256093Y-81721678D01*
X86322842Y-81684805D01*
X86350123Y-81668091D01*
X86349418Y-81664014D01*
X86321453Y-81636755D01*
X86262416Y-81590410D01*
X86181019Y-81530930D01*
X86085979Y-81464271D01*
X85986009Y-81396382D01*
X85889824Y-81333216D01*
X85806139Y-81280728D01*
X85743667Y-81244870D01*
X85711124Y-81231595D01*
X85700289Y-81240601D01*
X85672186Y-81284495D01*
X85637805Y-81352608D01*
X85568607Y-81472748D01*
X85440506Y-81609206D01*
X85273320Y-81713247D01*
X85269290Y-81715140D01*
X85202570Y-81743846D01*
X85140096Y-81762512D01*
X85068075Y-81773243D01*
X84972715Y-81778143D01*
X84840221Y-81779317D01*
X84727314Y-81778496D01*
X84626414Y-81774306D01*
X84553995Y-81764994D01*
X84497740Y-81748839D01*
X84445336Y-81724118D01*
X84393844Y-81692574D01*
X84267301Y-81587219D01*
X84150713Y-81453864D01*
X84058500Y-81308024D01*
X83986760Y-81167904D01*
X83979479Y-79913189D01*
X83972199Y-78658475D01*
X84265242Y-78658475D01*
X84558286Y-78658475D01*
X84565502Y-79666905D01*
G37*
%TD*%
M02*
