%TF.GenerationSoftware,KiCad,Pcbnew,9.0.0*%
%TF.CreationDate,2026-03-19T12:57:30-04:00*%
%TF.ProjectId,CUR_flight_computer_25-26,4355525f-666c-4696-9768-745f636f6d70,rev?*%
%TF.SameCoordinates,Original*%
%TF.FileFunction,Legend,Top*%
%TF.FilePolarity,Positive*%
%FSLAX46Y46*%
G04 Gerber Fmt 4.6, Leading zero omitted, Abs format (unit mm)*
G04 Created by KiCad (PCBNEW 9.0.0) date 2026-03-19 12:57:30*
%MOMM*%
%LPD*%
G01*
G04 APERTURE LIST*
%ADD10C,0.150000*%
%ADD11C,0.250000*%
%ADD12C,0.200000*%
%ADD13C,0.127000*%
%ADD14C,0.120000*%
%ADD15C,0.100000*%
%ADD16C,0.152400*%
%ADD17C,0.000000*%
G04 APERTURE END LIST*
D10*
X50528571Y-120154819D02*
X50528571Y-119154819D01*
X50528571Y-119154819D02*
X50861904Y-119869104D01*
X50861904Y-119869104D02*
X51195237Y-119154819D01*
X51195237Y-119154819D02*
X51195237Y-120154819D01*
X51623809Y-119250057D02*
X51671428Y-119202438D01*
X51671428Y-119202438D02*
X51766666Y-119154819D01*
X51766666Y-119154819D02*
X52004761Y-119154819D01*
X52004761Y-119154819D02*
X52099999Y-119202438D01*
X52099999Y-119202438D02*
X52147618Y-119250057D01*
X52147618Y-119250057D02*
X52195237Y-119345295D01*
X52195237Y-119345295D02*
X52195237Y-119440533D01*
X52195237Y-119440533D02*
X52147618Y-119583390D01*
X52147618Y-119583390D02*
X51576190Y-120154819D01*
X51576190Y-120154819D02*
X52195237Y-120154819D01*
X53290476Y-120154819D02*
X53814285Y-119488152D01*
X53290476Y-119488152D02*
X53814285Y-120154819D01*
X54623809Y-119488152D02*
X54623809Y-120154819D01*
X54385714Y-119107200D02*
X54147619Y-119821485D01*
X54147619Y-119821485D02*
X54766666Y-119821485D01*
X59550000Y-77799999D02*
X60050000Y-78300001D01*
X66319670Y-95812737D02*
G75*
G02*
X67380330Y-95812737I530330J-530330D01*
G01*
X66850000Y-94343067D02*
X66350000Y-94843067D01*
D11*
X66975000Y-96843067D02*
G75*
G02*
X66725000Y-96843067I-125000J0D01*
G01*
X66725000Y-96843067D02*
G75*
G02*
X66975000Y-96843067I125000J0D01*
G01*
D10*
X60049999Y-79800000D02*
G75*
G02*
X59050001Y-79800000I-499999J0D01*
G01*
X59050001Y-79800000D02*
G75*
G02*
X60049999Y-79800000I499999J0D01*
G01*
X67850000Y-96843067D02*
G75*
G02*
X66850000Y-97843100I-1000000J-33D01*
G01*
X65786922Y-96319670D02*
X65786922Y-96673223D01*
X66850000Y-96843067D02*
X64350000Y-96843067D01*
X67380330Y-95812737D02*
X67026777Y-95812737D01*
X65786922Y-97380330D02*
G75*
G02*
X65786922Y-96319670I530378J530330D01*
G01*
X67350000Y-96843067D02*
G75*
G02*
X66350000Y-96843067I-500000J0D01*
G01*
X66350000Y-96843067D02*
G75*
G02*
X67350000Y-96843067I500000J0D01*
G01*
X67850000Y-96843067D02*
X67600000Y-97093067D01*
X66850000Y-94343067D02*
X67350000Y-94843067D01*
X67380330Y-95812737D02*
X67380330Y-95459184D01*
X67850000Y-96843067D02*
X68100000Y-97093067D01*
X61550001Y-79800000D02*
X61050000Y-79300000D01*
D11*
X59675000Y-79800000D02*
G75*
G02*
X59425000Y-79800000I-125000J0D01*
G01*
X59425000Y-79800000D02*
G75*
G02*
X59675000Y-79800000I125000J0D01*
G01*
D10*
X64350000Y-96843067D02*
X64850000Y-97343067D01*
X59550000Y-79800000D02*
X59550000Y-77799999D01*
X64350000Y-96843067D02*
X64850000Y-96343067D01*
X61550001Y-79800000D02*
X61050000Y-80300000D01*
X59550000Y-77799999D02*
X59050000Y-78300001D01*
X59550000Y-79800000D02*
X61550001Y-79800000D01*
X66850000Y-96843067D02*
X66850000Y-94343067D01*
X65786922Y-96319670D02*
X65433369Y-96319669D01*
X68836779Y-107838866D02*
X69598684Y-107838866D01*
D12*
G36*
X81384321Y-87261782D02*
G01*
X81466065Y-87280676D01*
X81538976Y-87312098D01*
X81596048Y-87351812D01*
X81641588Y-87401649D01*
X81673671Y-87459737D01*
X81692694Y-87524496D01*
X81699241Y-87596894D01*
X81692692Y-87669282D01*
X81673671Y-87733975D01*
X81641583Y-87792127D01*
X81596048Y-87841977D01*
X81538976Y-87881690D01*
X81466065Y-87913112D01*
X81384321Y-87932006D01*
X81284028Y-87938834D01*
X81183735Y-87932006D01*
X81101991Y-87913112D01*
X81029144Y-87881671D01*
X80972389Y-87841977D01*
X80927119Y-87792177D01*
X80894766Y-87733975D01*
X80875458Y-87669263D01*
X80868815Y-87596894D01*
X80875456Y-87524514D01*
X80894766Y-87459737D01*
X80927114Y-87401599D01*
X80972389Y-87351812D01*
X81029144Y-87312118D01*
X81101991Y-87280676D01*
X81183735Y-87261782D01*
X81284028Y-87254954D01*
X81384321Y-87261782D01*
G37*
G36*
X81679701Y-86355072D02*
G01*
X81673213Y-86466660D01*
X81664549Y-86509637D01*
X81653140Y-86541689D01*
X81627976Y-86581910D01*
X81596888Y-86606871D01*
X81559326Y-86621075D01*
X81514990Y-86626029D01*
X81463377Y-86619786D01*
X81419354Y-86601757D01*
X81383605Y-86569687D01*
X81353713Y-86514364D01*
X81342891Y-86478162D01*
X81334403Y-86430482D01*
X81327991Y-86309047D01*
X81327991Y-86205931D01*
X81679701Y-86205931D01*
X81679701Y-86355072D01*
G37*
G36*
X81679701Y-84163908D02*
G01*
X81674969Y-84271222D01*
X81660009Y-84344724D01*
X81634069Y-84394800D01*
X81602459Y-84424485D01*
X81563001Y-84441435D01*
X81514990Y-84447383D01*
X81475066Y-84443492D01*
X81439046Y-84432117D01*
X81407314Y-84412322D01*
X81379893Y-84382048D01*
X81358940Y-84343630D01*
X81341730Y-84290380D01*
X81331763Y-84230087D01*
X81327991Y-84149483D01*
X81329289Y-84092162D01*
X81333105Y-84046824D01*
X81679701Y-84046824D01*
X81679701Y-84163908D01*
G37*
G36*
X82013984Y-88292657D02*
G01*
X80554071Y-88292657D01*
X80554071Y-87596894D01*
X80692960Y-87596894D01*
X80698064Y-87684284D01*
X80712758Y-87762597D01*
X80736390Y-87833046D01*
X80769644Y-87899353D01*
X80810161Y-87957446D01*
X80858129Y-88008138D01*
X80913065Y-88051411D01*
X80975122Y-88087554D01*
X81045128Y-88116597D01*
X81118412Y-88136918D01*
X81197783Y-88149455D01*
X81284028Y-88153768D01*
X81370272Y-88149455D01*
X81449643Y-88136918D01*
X81522928Y-88116597D01*
X81592931Y-88087551D01*
X81654961Y-88051408D01*
X81709850Y-88008138D01*
X81757864Y-87957441D01*
X81798406Y-87899348D01*
X81831666Y-87833046D01*
X81855298Y-87762597D01*
X81869991Y-87684284D01*
X81875095Y-87596894D01*
X81869991Y-87509504D01*
X81855298Y-87431191D01*
X81831666Y-87360742D01*
X81798406Y-87294440D01*
X81757864Y-87236347D01*
X81709850Y-87185650D01*
X81654961Y-87142381D01*
X81592931Y-87106238D01*
X81522928Y-87077191D01*
X81449643Y-87056870D01*
X81370272Y-87044333D01*
X81284028Y-87040020D01*
X81197783Y-87044333D01*
X81118412Y-87056870D01*
X81045128Y-87077191D01*
X80975122Y-87106235D01*
X80913065Y-87142377D01*
X80858129Y-87185650D01*
X80810161Y-87236342D01*
X80769644Y-87294435D01*
X80736390Y-87360742D01*
X80712758Y-87431191D01*
X80698064Y-87509504D01*
X80692960Y-87596894D01*
X80554071Y-87596894D01*
X80554071Y-86205931D01*
X80712500Y-86205931D01*
X81152137Y-86205931D01*
X81152137Y-86309047D01*
X81152137Y-86349424D01*
X80712500Y-86660223D01*
X80712500Y-86909351D01*
X81179614Y-86570235D01*
X81183049Y-86570235D01*
X81216774Y-86658672D01*
X81258282Y-86725526D01*
X81307002Y-86774788D01*
X81365807Y-86811085D01*
X81432989Y-86833251D01*
X81510716Y-86840963D01*
X81585627Y-86834411D01*
X81648463Y-86815907D01*
X81701530Y-86786313D01*
X81747139Y-86745725D01*
X81785285Y-86694515D01*
X81816096Y-86630990D01*
X81832829Y-86575057D01*
X81845710Y-86503755D01*
X81853003Y-86427985D01*
X81855556Y-86343318D01*
X81855556Y-85995882D01*
X80712500Y-85995882D01*
X80712500Y-86205931D01*
X80554071Y-86205931D01*
X80554071Y-85199651D01*
X80712500Y-85199651D01*
X80712500Y-85409699D01*
X81172974Y-85409699D01*
X81855556Y-85842620D01*
X81855556Y-85610360D01*
X81363483Y-85305973D01*
X81363483Y-85303377D01*
X81855556Y-84998990D01*
X81855556Y-84766730D01*
X81172974Y-85199651D01*
X80712500Y-85199651D01*
X80554071Y-85199651D01*
X80554071Y-84046824D01*
X80712500Y-84046824D01*
X81156411Y-84046824D01*
X81152976Y-84097734D01*
X81152189Y-84149483D01*
X81152137Y-84152917D01*
X81158731Y-84271364D01*
X81177019Y-84369378D01*
X81208152Y-84458388D01*
X81248231Y-84528975D01*
X81300092Y-84586959D01*
X81361041Y-84628351D01*
X81430699Y-84653596D01*
X81510716Y-84662316D01*
X81589748Y-84654804D01*
X81655789Y-84633550D01*
X81711453Y-84599347D01*
X81758062Y-84552946D01*
X81796424Y-84493862D01*
X81826400Y-84419753D01*
X81838848Y-84369458D01*
X81848229Y-84309538D01*
X81855556Y-84165282D01*
X81855556Y-83836775D01*
X80712500Y-83836775D01*
X80712500Y-84046824D01*
X80554071Y-84046824D01*
X80554071Y-83697886D01*
X82013984Y-83697886D01*
X82013984Y-88292657D01*
G37*
D10*
X54054819Y-70438094D02*
X54054819Y-69819047D01*
X54054819Y-69819047D02*
X54435771Y-70152380D01*
X54435771Y-70152380D02*
X54435771Y-70009523D01*
X54435771Y-70009523D02*
X54483390Y-69914285D01*
X54483390Y-69914285D02*
X54531009Y-69866666D01*
X54531009Y-69866666D02*
X54626247Y-69819047D01*
X54626247Y-69819047D02*
X54864342Y-69819047D01*
X54864342Y-69819047D02*
X54959580Y-69866666D01*
X54959580Y-69866666D02*
X55007200Y-69914285D01*
X55007200Y-69914285D02*
X55054819Y-70009523D01*
X55054819Y-70009523D02*
X55054819Y-70295237D01*
X55054819Y-70295237D02*
X55007200Y-70390475D01*
X55007200Y-70390475D02*
X54959580Y-70438094D01*
X54054819Y-69533332D02*
X55054819Y-69199999D01*
X55054819Y-69199999D02*
X54054819Y-68866666D01*
X54054819Y-68628570D02*
X54054819Y-68009523D01*
X54054819Y-68009523D02*
X54435771Y-68342856D01*
X54435771Y-68342856D02*
X54435771Y-68199999D01*
X54435771Y-68199999D02*
X54483390Y-68104761D01*
X54483390Y-68104761D02*
X54531009Y-68057142D01*
X54531009Y-68057142D02*
X54626247Y-68009523D01*
X54626247Y-68009523D02*
X54864342Y-68009523D01*
X54864342Y-68009523D02*
X54959580Y-68057142D01*
X54959580Y-68057142D02*
X55007200Y-68104761D01*
X55007200Y-68104761D02*
X55054819Y-68199999D01*
X55054819Y-68199999D02*
X55054819Y-68485713D01*
X55054819Y-68485713D02*
X55007200Y-68580951D01*
X55007200Y-68580951D02*
X54959580Y-68628570D01*
D12*
G36*
X70307554Y-73276786D02*
G01*
X70350530Y-73285450D01*
X70382582Y-73296859D01*
X70422804Y-73322023D01*
X70447764Y-73353111D01*
X70461968Y-73390673D01*
X70466922Y-73435009D01*
X70460679Y-73486622D01*
X70442650Y-73530645D01*
X70410580Y-73566394D01*
X70355257Y-73596286D01*
X70319055Y-73607108D01*
X70271375Y-73615596D01*
X70149941Y-73622008D01*
X70046824Y-73622008D01*
X70046824Y-73270298D01*
X70195965Y-73270298D01*
X70307554Y-73276786D01*
G37*
G36*
X72920394Y-74395928D02*
G01*
X69697886Y-74395928D01*
X69697886Y-73270298D01*
X69836775Y-73270298D01*
X69836775Y-73622008D01*
X69836775Y-74237500D01*
X70046824Y-74237500D01*
X70046824Y-73797862D01*
X70190317Y-73797862D01*
X70501116Y-74237500D01*
X70750244Y-74237500D01*
X70587113Y-74012796D01*
X70898698Y-74012796D01*
X70898698Y-74187735D01*
X70963125Y-74216003D01*
X71048525Y-74238873D01*
X71139263Y-74252485D01*
X71231707Y-74257039D01*
X71336033Y-74251514D01*
X71428094Y-74235744D01*
X71512745Y-74208054D01*
X71580364Y-74170638D01*
X71636039Y-74120807D01*
X71677222Y-74059508D01*
X71695701Y-74013452D01*
X71707276Y-73960757D01*
X71711339Y-73900215D01*
X71703279Y-73815680D01*
X71681649Y-73753288D01*
X71646458Y-73701028D01*
X71601048Y-73660094D01*
X71547206Y-73628589D01*
X71484499Y-73604300D01*
X71346654Y-73568885D01*
X71260177Y-73548506D01*
X71221140Y-73535308D01*
X71188125Y-73519120D01*
X71159790Y-73498128D01*
X71138514Y-73472714D01*
X71125138Y-73441912D01*
X71120272Y-73401120D01*
X71126853Y-73353977D01*
X71145396Y-73317256D01*
X71176219Y-73288387D01*
X71215392Y-73268696D01*
X71267311Y-73255620D01*
X71335434Y-73250758D01*
X71408198Y-73254397D01*
X71488697Y-73265871D01*
X71570624Y-73285073D01*
X71659056Y-73314262D01*
X71659056Y-73270298D01*
X71834606Y-73270298D01*
X72203489Y-73270298D01*
X72203489Y-74237500D01*
X72413538Y-74237500D01*
X72413538Y-73270298D01*
X72781505Y-73270298D01*
X72781505Y-73094443D01*
X71834606Y-73094443D01*
X71834606Y-73270298D01*
X71659056Y-73270298D01*
X71659056Y-73137872D01*
X71588844Y-73113482D01*
X71500222Y-73092535D01*
X71407932Y-73079283D01*
X71316658Y-73074904D01*
X71227956Y-73080591D01*
X71152023Y-73096656D01*
X71082771Y-73124222D01*
X71024025Y-73162220D01*
X70975219Y-73211423D01*
X70937242Y-73272893D01*
X70913717Y-73343657D01*
X70905338Y-73430048D01*
X70912676Y-73507554D01*
X70932586Y-73566290D01*
X70964729Y-73616285D01*
X71005783Y-73656202D01*
X71054810Y-73687390D01*
X71112257Y-73711538D01*
X71239187Y-73746037D01*
X71334976Y-73766950D01*
X71417179Y-73794580D01*
X71450573Y-73814514D01*
X71475111Y-73838468D01*
X71490750Y-73868345D01*
X71496406Y-73908688D01*
X71490358Y-73955288D01*
X71473355Y-73991959D01*
X71446736Y-74022015D01*
X71412295Y-74045311D01*
X71372561Y-74061843D01*
X71326504Y-74073094D01*
X71229189Y-74081184D01*
X71144643Y-74077079D01*
X71063485Y-74064927D01*
X70983374Y-74044142D01*
X70898698Y-74012796D01*
X70587113Y-74012796D01*
X70411128Y-73770385D01*
X70411128Y-73766950D01*
X70499565Y-73733225D01*
X70566420Y-73691717D01*
X70615681Y-73642997D01*
X70651978Y-73584192D01*
X70674144Y-73517010D01*
X70681856Y-73439283D01*
X70675305Y-73364372D01*
X70656800Y-73301536D01*
X70627206Y-73248469D01*
X70586618Y-73202860D01*
X70535408Y-73164714D01*
X70471883Y-73133903D01*
X70415950Y-73117170D01*
X70344648Y-73104289D01*
X70268879Y-73096996D01*
X70184211Y-73094443D01*
X69836775Y-73094443D01*
X69836775Y-73270298D01*
X69697886Y-73270298D01*
X69697886Y-72936015D01*
X72920394Y-72936015D01*
X72920394Y-74395928D01*
G37*
D10*
X85619048Y-118038152D02*
X84857143Y-118323866D01*
X84857143Y-118323866D02*
X85619048Y-118609580D01*
X86809524Y-118657200D02*
X86952381Y-118704819D01*
X86952381Y-118704819D02*
X87190476Y-118704819D01*
X87190476Y-118704819D02*
X87285714Y-118657200D01*
X87285714Y-118657200D02*
X87333333Y-118609580D01*
X87333333Y-118609580D02*
X87380952Y-118514342D01*
X87380952Y-118514342D02*
X87380952Y-118419104D01*
X87380952Y-118419104D02*
X87333333Y-118323866D01*
X87333333Y-118323866D02*
X87285714Y-118276247D01*
X87285714Y-118276247D02*
X87190476Y-118228628D01*
X87190476Y-118228628D02*
X87000000Y-118181009D01*
X87000000Y-118181009D02*
X86904762Y-118133390D01*
X86904762Y-118133390D02*
X86857143Y-118085771D01*
X86857143Y-118085771D02*
X86809524Y-117990533D01*
X86809524Y-117990533D02*
X86809524Y-117895295D01*
X86809524Y-117895295D02*
X86857143Y-117800057D01*
X86857143Y-117800057D02*
X86904762Y-117752438D01*
X86904762Y-117752438D02*
X87000000Y-117704819D01*
X87000000Y-117704819D02*
X87238095Y-117704819D01*
X87238095Y-117704819D02*
X87380952Y-117752438D01*
X88000000Y-118228628D02*
X88000000Y-118704819D01*
X87666667Y-117704819D02*
X88000000Y-118228628D01*
X88000000Y-118228628D02*
X88333333Y-117704819D01*
X88619048Y-118657200D02*
X88761905Y-118704819D01*
X88761905Y-118704819D02*
X89000000Y-118704819D01*
X89000000Y-118704819D02*
X89095238Y-118657200D01*
X89095238Y-118657200D02*
X89142857Y-118609580D01*
X89142857Y-118609580D02*
X89190476Y-118514342D01*
X89190476Y-118514342D02*
X89190476Y-118419104D01*
X89190476Y-118419104D02*
X89142857Y-118323866D01*
X89142857Y-118323866D02*
X89095238Y-118276247D01*
X89095238Y-118276247D02*
X89000000Y-118228628D01*
X89000000Y-118228628D02*
X88809524Y-118181009D01*
X88809524Y-118181009D02*
X88714286Y-118133390D01*
X88714286Y-118133390D02*
X88666667Y-118085771D01*
X88666667Y-118085771D02*
X88619048Y-117990533D01*
X88619048Y-117990533D02*
X88619048Y-117895295D01*
X88619048Y-117895295D02*
X88666667Y-117800057D01*
X88666667Y-117800057D02*
X88714286Y-117752438D01*
X88714286Y-117752438D02*
X88809524Y-117704819D01*
X88809524Y-117704819D02*
X89047619Y-117704819D01*
X89047619Y-117704819D02*
X89190476Y-117752438D01*
X51402438Y-69961904D02*
X51354819Y-70057142D01*
X51354819Y-70057142D02*
X51354819Y-70199999D01*
X51354819Y-70199999D02*
X51402438Y-70342856D01*
X51402438Y-70342856D02*
X51497676Y-70438094D01*
X51497676Y-70438094D02*
X51592914Y-70485713D01*
X51592914Y-70485713D02*
X51783390Y-70533332D01*
X51783390Y-70533332D02*
X51926247Y-70533332D01*
X51926247Y-70533332D02*
X52116723Y-70485713D01*
X52116723Y-70485713D02*
X52211961Y-70438094D01*
X52211961Y-70438094D02*
X52307200Y-70342856D01*
X52307200Y-70342856D02*
X52354819Y-70199999D01*
X52354819Y-70199999D02*
X52354819Y-70104761D01*
X52354819Y-70104761D02*
X52307200Y-69961904D01*
X52307200Y-69961904D02*
X52259580Y-69914285D01*
X52259580Y-69914285D02*
X51926247Y-69914285D01*
X51926247Y-69914285D02*
X51926247Y-70104761D01*
X52354819Y-69485713D02*
X51354819Y-69485713D01*
X51354819Y-69485713D02*
X52354819Y-68914285D01*
X52354819Y-68914285D02*
X51354819Y-68914285D01*
X52354819Y-68438094D02*
X51354819Y-68438094D01*
X51354819Y-68438094D02*
X51354819Y-68199999D01*
X51354819Y-68199999D02*
X51402438Y-68057142D01*
X51402438Y-68057142D02*
X51497676Y-67961904D01*
X51497676Y-67961904D02*
X51592914Y-67914285D01*
X51592914Y-67914285D02*
X51783390Y-67866666D01*
X51783390Y-67866666D02*
X51926247Y-67866666D01*
X51926247Y-67866666D02*
X52116723Y-67914285D01*
X52116723Y-67914285D02*
X52211961Y-67961904D01*
X52211961Y-67961904D02*
X52307200Y-68057142D01*
X52307200Y-68057142D02*
X52354819Y-68199999D01*
X52354819Y-68199999D02*
X52354819Y-68438094D01*
X55545180Y-78880952D02*
X55545180Y-78404762D01*
X55545180Y-78404762D02*
X56545180Y-78404762D01*
X56068990Y-79214286D02*
X56068990Y-79547619D01*
X55545180Y-79690476D02*
X55545180Y-79214286D01*
X55545180Y-79214286D02*
X56545180Y-79214286D01*
X56545180Y-79214286D02*
X56545180Y-79690476D01*
X55545180Y-80119048D02*
X56545180Y-80119048D01*
X56545180Y-80119048D02*
X56545180Y-80357143D01*
X56545180Y-80357143D02*
X56497561Y-80500000D01*
X56497561Y-80500000D02*
X56402323Y-80595238D01*
X56402323Y-80595238D02*
X56307085Y-80642857D01*
X56307085Y-80642857D02*
X56116609Y-80690476D01*
X56116609Y-80690476D02*
X55973752Y-80690476D01*
X55973752Y-80690476D02*
X55783276Y-80642857D01*
X55783276Y-80642857D02*
X55688038Y-80595238D01*
X55688038Y-80595238D02*
X55592800Y-80500000D01*
X55592800Y-80500000D02*
X55545180Y-80357143D01*
X55545180Y-80357143D02*
X55545180Y-80119048D01*
X55545180Y-81642857D02*
X55545180Y-81071429D01*
X55545180Y-81357143D02*
X56545180Y-81357143D01*
X56545180Y-81357143D02*
X56402323Y-81261905D01*
X56402323Y-81261905D02*
X56307085Y-81166667D01*
X56307085Y-81166667D02*
X56259466Y-81071429D01*
X86380952Y-76954819D02*
X85904762Y-76954819D01*
X85904762Y-76954819D02*
X85904762Y-75954819D01*
X86714286Y-76431009D02*
X87047619Y-76431009D01*
X87190476Y-76954819D02*
X86714286Y-76954819D01*
X86714286Y-76954819D02*
X86714286Y-75954819D01*
X86714286Y-75954819D02*
X87190476Y-75954819D01*
X87619048Y-76954819D02*
X87619048Y-75954819D01*
X87619048Y-75954819D02*
X87857143Y-75954819D01*
X87857143Y-75954819D02*
X88000000Y-76002438D01*
X88000000Y-76002438D02*
X88095238Y-76097676D01*
X88095238Y-76097676D02*
X88142857Y-76192914D01*
X88142857Y-76192914D02*
X88190476Y-76383390D01*
X88190476Y-76383390D02*
X88190476Y-76526247D01*
X88190476Y-76526247D02*
X88142857Y-76716723D01*
X88142857Y-76716723D02*
X88095238Y-76811961D01*
X88095238Y-76811961D02*
X88000000Y-76907200D01*
X88000000Y-76907200D02*
X87857143Y-76954819D01*
X87857143Y-76954819D02*
X87619048Y-76954819D01*
X88571429Y-76050057D02*
X88619048Y-76002438D01*
X88619048Y-76002438D02*
X88714286Y-75954819D01*
X88714286Y-75954819D02*
X88952381Y-75954819D01*
X88952381Y-75954819D02*
X89047619Y-76002438D01*
X89047619Y-76002438D02*
X89095238Y-76050057D01*
X89095238Y-76050057D02*
X89142857Y-76145295D01*
X89142857Y-76145295D02*
X89142857Y-76240533D01*
X89142857Y-76240533D02*
X89095238Y-76383390D01*
X89095238Y-76383390D02*
X88523810Y-76954819D01*
X88523810Y-76954819D02*
X89142857Y-76954819D01*
D12*
G36*
X67221222Y-106125030D02*
G01*
X67294724Y-106139990D01*
X67344800Y-106165930D01*
X67374485Y-106197540D01*
X67391435Y-106236998D01*
X67397383Y-106285009D01*
X67393492Y-106324933D01*
X67382117Y-106360953D01*
X67362322Y-106392685D01*
X67332048Y-106420106D01*
X67293630Y-106441059D01*
X67240380Y-106458269D01*
X67180087Y-106468236D01*
X67099483Y-106472008D01*
X67042162Y-106470710D01*
X66996824Y-106466894D01*
X66996824Y-106120298D01*
X67113908Y-106120298D01*
X67221222Y-106125030D01*
G37*
G36*
X69900261Y-106126786D02*
G01*
X69943238Y-106135450D01*
X69975290Y-106146859D01*
X70015511Y-106172023D01*
X70040472Y-106203111D01*
X70054676Y-106240673D01*
X70059630Y-106285009D01*
X70053387Y-106336622D01*
X70035358Y-106380645D01*
X70003287Y-106416394D01*
X69947965Y-106446286D01*
X69911763Y-106457108D01*
X69864083Y-106465596D01*
X69742648Y-106472008D01*
X69639532Y-106472008D01*
X69639532Y-106120298D01*
X69788673Y-106120298D01*
X69900261Y-106126786D01*
G37*
G36*
X70481840Y-107226389D02*
G01*
X66647886Y-107226389D01*
X66647886Y-106120298D01*
X66786775Y-106120298D01*
X66786775Y-106466894D01*
X66786775Y-107087500D01*
X66996824Y-107087500D01*
X66996824Y-106643588D01*
X67047734Y-106647023D01*
X67102917Y-106647862D01*
X67221364Y-106641268D01*
X67319378Y-106622980D01*
X67408388Y-106591847D01*
X67478975Y-106551768D01*
X67536959Y-106499907D01*
X67578351Y-106438958D01*
X67603596Y-106369300D01*
X67612316Y-106289283D01*
X67604804Y-106210251D01*
X67583550Y-106144210D01*
X67549347Y-106088546D01*
X67502946Y-106041937D01*
X67443862Y-106003575D01*
X67369753Y-105973599D01*
X67319458Y-105961151D01*
X67259538Y-105951770D01*
X67115282Y-105944443D01*
X67717341Y-105944443D01*
X68080194Y-107087500D01*
X68288564Y-107087500D01*
X68416639Y-106574895D01*
X68493499Y-106245167D01*
X68498613Y-106245167D01*
X68575473Y-106574895D01*
X68703548Y-107087500D01*
X68911917Y-107087500D01*
X69219012Y-106120298D01*
X69429483Y-106120298D01*
X69429483Y-106472008D01*
X69429483Y-107087500D01*
X69639532Y-107087500D01*
X69639532Y-106647862D01*
X69783025Y-106647862D01*
X70093824Y-107087500D01*
X70342951Y-107087500D01*
X70003835Y-106620385D01*
X70003835Y-106616950D01*
X70092273Y-106583225D01*
X70159127Y-106541717D01*
X70208389Y-106492997D01*
X70244686Y-106434192D01*
X70266852Y-106367010D01*
X70274563Y-106289283D01*
X70268012Y-106214372D01*
X70249507Y-106151536D01*
X70219914Y-106098469D01*
X70179326Y-106052860D01*
X70128116Y-106014714D01*
X70064591Y-105983903D01*
X70008658Y-105967170D01*
X69937356Y-105954289D01*
X69861586Y-105946996D01*
X69776919Y-105944443D01*
X69429483Y-105944443D01*
X69429483Y-106120298D01*
X69219012Y-106120298D01*
X69274847Y-105944443D01*
X69051975Y-105944443D01*
X68914512Y-106399803D01*
X68863077Y-106585628D01*
X68813762Y-106787615D01*
X68808572Y-106787615D01*
X68768268Y-106599265D01*
X68721484Y-106405757D01*
X68603637Y-105944443D01*
X68388474Y-105944443D01*
X68270627Y-106405757D01*
X68223741Y-106600553D01*
X68183539Y-106787615D01*
X68178425Y-106787615D01*
X68135488Y-106609533D01*
X68077675Y-106399803D01*
X67940212Y-105944443D01*
X67717341Y-105944443D01*
X67115282Y-105944443D01*
X66786775Y-105944443D01*
X66786775Y-106120298D01*
X66647886Y-106120298D01*
X66647886Y-105805554D01*
X70481840Y-105805554D01*
X70481840Y-107226389D01*
G37*
D10*
X59883332Y-77560180D02*
X59216666Y-76560180D01*
X59216666Y-77560180D02*
X59883332Y-76560180D01*
X57407200Y-70490475D02*
X57454819Y-70347618D01*
X57454819Y-70347618D02*
X57454819Y-70109523D01*
X57454819Y-70109523D02*
X57407200Y-70014285D01*
X57407200Y-70014285D02*
X57359580Y-69966666D01*
X57359580Y-69966666D02*
X57264342Y-69919047D01*
X57264342Y-69919047D02*
X57169104Y-69919047D01*
X57169104Y-69919047D02*
X57073866Y-69966666D01*
X57073866Y-69966666D02*
X57026247Y-70014285D01*
X57026247Y-70014285D02*
X56978628Y-70109523D01*
X56978628Y-70109523D02*
X56931009Y-70299999D01*
X56931009Y-70299999D02*
X56883390Y-70395237D01*
X56883390Y-70395237D02*
X56835771Y-70442856D01*
X56835771Y-70442856D02*
X56740533Y-70490475D01*
X56740533Y-70490475D02*
X56645295Y-70490475D01*
X56645295Y-70490475D02*
X56550057Y-70442856D01*
X56550057Y-70442856D02*
X56502438Y-70395237D01*
X56502438Y-70395237D02*
X56454819Y-70299999D01*
X56454819Y-70299999D02*
X56454819Y-70061904D01*
X56454819Y-70061904D02*
X56502438Y-69919047D01*
X57359580Y-68919047D02*
X57407200Y-68966666D01*
X57407200Y-68966666D02*
X57454819Y-69109523D01*
X57454819Y-69109523D02*
X57454819Y-69204761D01*
X57454819Y-69204761D02*
X57407200Y-69347618D01*
X57407200Y-69347618D02*
X57311961Y-69442856D01*
X57311961Y-69442856D02*
X57216723Y-69490475D01*
X57216723Y-69490475D02*
X57026247Y-69538094D01*
X57026247Y-69538094D02*
X56883390Y-69538094D01*
X56883390Y-69538094D02*
X56692914Y-69490475D01*
X56692914Y-69490475D02*
X56597676Y-69442856D01*
X56597676Y-69442856D02*
X56502438Y-69347618D01*
X56502438Y-69347618D02*
X56454819Y-69204761D01*
X56454819Y-69204761D02*
X56454819Y-69109523D01*
X56454819Y-69109523D02*
X56502438Y-68966666D01*
X56502438Y-68966666D02*
X56550057Y-68919047D01*
X57454819Y-68014285D02*
X57454819Y-68490475D01*
X57454819Y-68490475D02*
X56454819Y-68490475D01*
X55568990Y-100440476D02*
X55521371Y-100583333D01*
X55521371Y-100583333D02*
X55473752Y-100630952D01*
X55473752Y-100630952D02*
X55378514Y-100678571D01*
X55378514Y-100678571D02*
X55235657Y-100678571D01*
X55235657Y-100678571D02*
X55140419Y-100630952D01*
X55140419Y-100630952D02*
X55092800Y-100583333D01*
X55092800Y-100583333D02*
X55045180Y-100488095D01*
X55045180Y-100488095D02*
X55045180Y-100107143D01*
X55045180Y-100107143D02*
X56045180Y-100107143D01*
X56045180Y-100107143D02*
X56045180Y-100440476D01*
X56045180Y-100440476D02*
X55997561Y-100535714D01*
X55997561Y-100535714D02*
X55949942Y-100583333D01*
X55949942Y-100583333D02*
X55854704Y-100630952D01*
X55854704Y-100630952D02*
X55759466Y-100630952D01*
X55759466Y-100630952D02*
X55664228Y-100583333D01*
X55664228Y-100583333D02*
X55616609Y-100535714D01*
X55616609Y-100535714D02*
X55568990Y-100440476D01*
X55568990Y-100440476D02*
X55568990Y-100107143D01*
X56045180Y-100964286D02*
X56045180Y-101535714D01*
X55045180Y-101250000D02*
X56045180Y-101250000D01*
X55045180Y-101869048D02*
X56045180Y-101869048D01*
X56045180Y-101869048D02*
X55045180Y-102440476D01*
X55045180Y-102440476D02*
X56045180Y-102440476D01*
X56045180Y-102821429D02*
X56045180Y-103440476D01*
X56045180Y-103440476D02*
X55664228Y-103107143D01*
X55664228Y-103107143D02*
X55664228Y-103250000D01*
X55664228Y-103250000D02*
X55616609Y-103345238D01*
X55616609Y-103345238D02*
X55568990Y-103392857D01*
X55568990Y-103392857D02*
X55473752Y-103440476D01*
X55473752Y-103440476D02*
X55235657Y-103440476D01*
X55235657Y-103440476D02*
X55140419Y-103392857D01*
X55140419Y-103392857D02*
X55092800Y-103345238D01*
X55092800Y-103345238D02*
X55045180Y-103250000D01*
X55045180Y-103250000D02*
X55045180Y-102964286D01*
X55045180Y-102964286D02*
X55092800Y-102869048D01*
X55092800Y-102869048D02*
X55140419Y-102821429D01*
X55568990Y-94190476D02*
X55521371Y-94333333D01*
X55521371Y-94333333D02*
X55473752Y-94380952D01*
X55473752Y-94380952D02*
X55378514Y-94428571D01*
X55378514Y-94428571D02*
X55235657Y-94428571D01*
X55235657Y-94428571D02*
X55140419Y-94380952D01*
X55140419Y-94380952D02*
X55092800Y-94333333D01*
X55092800Y-94333333D02*
X55045180Y-94238095D01*
X55045180Y-94238095D02*
X55045180Y-93857143D01*
X55045180Y-93857143D02*
X56045180Y-93857143D01*
X56045180Y-93857143D02*
X56045180Y-94190476D01*
X56045180Y-94190476D02*
X55997561Y-94285714D01*
X55997561Y-94285714D02*
X55949942Y-94333333D01*
X55949942Y-94333333D02*
X55854704Y-94380952D01*
X55854704Y-94380952D02*
X55759466Y-94380952D01*
X55759466Y-94380952D02*
X55664228Y-94333333D01*
X55664228Y-94333333D02*
X55616609Y-94285714D01*
X55616609Y-94285714D02*
X55568990Y-94190476D01*
X55568990Y-94190476D02*
X55568990Y-93857143D01*
X56045180Y-94714286D02*
X56045180Y-95285714D01*
X55045180Y-95000000D02*
X56045180Y-95000000D01*
X55045180Y-95619048D02*
X56045180Y-95619048D01*
X56045180Y-95619048D02*
X55045180Y-96190476D01*
X55045180Y-96190476D02*
X56045180Y-96190476D01*
X55949942Y-96619048D02*
X55997561Y-96666667D01*
X55997561Y-96666667D02*
X56045180Y-96761905D01*
X56045180Y-96761905D02*
X56045180Y-97000000D01*
X56045180Y-97000000D02*
X55997561Y-97095238D01*
X55997561Y-97095238D02*
X55949942Y-97142857D01*
X55949942Y-97142857D02*
X55854704Y-97190476D01*
X55854704Y-97190476D02*
X55759466Y-97190476D01*
X55759466Y-97190476D02*
X55616609Y-97142857D01*
X55616609Y-97142857D02*
X55045180Y-96571429D01*
X55045180Y-96571429D02*
X55045180Y-97190476D01*
X68194758Y-95671485D02*
X68194758Y-95861961D01*
X67956663Y-95338152D02*
X67909044Y-95385771D01*
X67909044Y-95385771D02*
X67861425Y-95481009D01*
X67861425Y-95481009D02*
X67861425Y-95861961D01*
X67861425Y-95861961D02*
X67909044Y-95957200D01*
X67909044Y-95957200D02*
X68004282Y-96004819D01*
X68004282Y-96004819D02*
X68051901Y-96004819D01*
X68051901Y-96004819D02*
X68147139Y-95957200D01*
X68147139Y-95957200D02*
X68194758Y-95861961D01*
X68194758Y-95861961D02*
X68242377Y-95957200D01*
X68242377Y-95957200D02*
X68337615Y-96004819D01*
X68337615Y-96004819D02*
X68385234Y-96004819D01*
X68385234Y-96004819D02*
X68480472Y-95957200D01*
X68480472Y-95957200D02*
X68528091Y-95861961D01*
X68528091Y-95861961D02*
X68528091Y-95481009D01*
X68528091Y-95481009D02*
X68480472Y-95385771D01*
X68480472Y-95385771D02*
X68432853Y-95338152D01*
X68909044Y-96115295D02*
X68909044Y-95315295D01*
X68909044Y-95315295D02*
X69213806Y-95315295D01*
X69213806Y-95315295D02*
X69289996Y-95353390D01*
X69289996Y-95353390D02*
X69328091Y-95391485D01*
X69328091Y-95391485D02*
X69366187Y-95467676D01*
X69366187Y-95467676D02*
X69366187Y-95581961D01*
X69366187Y-95581961D02*
X69328091Y-95658152D01*
X69328091Y-95658152D02*
X69289996Y-95696247D01*
X69289996Y-95696247D02*
X69213806Y-95734342D01*
X69213806Y-95734342D02*
X68909044Y-95734342D01*
D12*
G36*
X68410173Y-101895928D02*
G01*
X65247886Y-101895928D01*
X65247886Y-101737500D01*
X65386775Y-101737500D01*
X65596824Y-101737500D01*
X65869155Y-101737500D01*
X66079204Y-101737500D01*
X66079204Y-101157423D01*
X66076744Y-101018268D01*
X66068976Y-100862728D01*
X66076609Y-100862728D01*
X66110727Y-100972103D01*
X66151714Y-101091706D01*
X66387866Y-101737500D01*
X66522810Y-101737500D01*
X66758962Y-101091706D01*
X66799949Y-100972103D01*
X66834067Y-100862728D01*
X66841776Y-100862728D01*
X66831472Y-101158339D01*
X66831472Y-101737500D01*
X67041521Y-101737500D01*
X67041521Y-101266569D01*
X67308967Y-101266569D01*
X67311099Y-101336553D01*
X67317057Y-101396246D01*
X67328119Y-101452570D01*
X67344077Y-101502034D01*
X67371219Y-101558943D01*
X67405672Y-101609043D01*
X67448020Y-101652535D01*
X67499018Y-101689262D01*
X67556932Y-101717783D01*
X67625719Y-101739560D01*
X67700144Y-101752449D01*
X67787530Y-101757039D01*
X67875073Y-101752460D01*
X67950181Y-101739560D01*
X68019944Y-101717797D01*
X68079019Y-101689262D01*
X68131168Y-101652469D01*
X68174044Y-101609043D01*
X68208917Y-101558907D01*
X68236174Y-101502034D01*
X68252113Y-101452568D01*
X68263117Y-101396246D01*
X68269131Y-101336552D01*
X68271284Y-101266569D01*
X68271284Y-100594443D01*
X68061235Y-100594443D01*
X68061235Y-101248251D01*
X68057405Y-101329289D01*
X68047183Y-101391230D01*
X68032155Y-101437768D01*
X68006299Y-101484987D01*
X67974744Y-101521024D01*
X67937205Y-101547524D01*
X67870846Y-101572392D01*
X67790125Y-101581184D01*
X67709404Y-101572392D01*
X67643045Y-101547524D01*
X67605506Y-101521024D01*
X67573951Y-101484987D01*
X67548096Y-101437768D01*
X67533067Y-101391230D01*
X67522845Y-101329289D01*
X67519016Y-101248251D01*
X67519016Y-100594443D01*
X67308967Y-100594443D01*
X67308967Y-101266569D01*
X67041521Y-101266569D01*
X67041521Y-100594443D01*
X66747590Y-100594443D01*
X66550211Y-101141242D01*
X66498168Y-101293910D01*
X66457017Y-101430822D01*
X66451903Y-101430822D01*
X66406122Y-101277393D01*
X66358786Y-101138647D01*
X66161407Y-100594443D01*
X65869155Y-100594443D01*
X65869155Y-101737500D01*
X65596824Y-101737500D01*
X65596824Y-100594443D01*
X65386775Y-100594443D01*
X65386775Y-101737500D01*
X65247886Y-101737500D01*
X65247886Y-100455554D01*
X68410173Y-100455554D01*
X68410173Y-101895928D01*
G37*
D10*
X68774395Y-97471485D02*
X68774395Y-97661961D01*
X68536300Y-97138152D02*
X68488681Y-97185771D01*
X68488681Y-97185771D02*
X68441062Y-97281009D01*
X68441062Y-97281009D02*
X68441062Y-97661961D01*
X68441062Y-97661961D02*
X68488681Y-97757200D01*
X68488681Y-97757200D02*
X68583919Y-97804819D01*
X68583919Y-97804819D02*
X68631538Y-97804819D01*
X68631538Y-97804819D02*
X68726776Y-97757200D01*
X68726776Y-97757200D02*
X68774395Y-97661961D01*
X68774395Y-97661961D02*
X68822014Y-97757200D01*
X68822014Y-97757200D02*
X68917252Y-97804819D01*
X68917252Y-97804819D02*
X68964871Y-97804819D01*
X68964871Y-97804819D02*
X69060109Y-97757200D01*
X69060109Y-97757200D02*
X69107728Y-97661961D01*
X69107728Y-97661961D02*
X69107728Y-97281009D01*
X69107728Y-97281009D02*
X69060109Y-97185771D01*
X69060109Y-97185771D02*
X69012490Y-97138152D01*
X69641062Y-97534342D02*
X69641062Y-97915295D01*
X69374395Y-97115295D02*
X69641062Y-97534342D01*
X69641062Y-97534342D02*
X69907728Y-97115295D01*
D12*
G36*
X67729263Y-81019406D02*
G01*
X67773685Y-81123438D01*
X67465939Y-81123438D01*
X67509902Y-81018948D01*
X67616224Y-80717995D01*
X67621109Y-80717995D01*
X67729263Y-81019406D01*
G37*
G36*
X69370780Y-81745928D02*
G01*
X65597886Y-81745928D01*
X65597886Y-81587500D01*
X65736775Y-81587500D01*
X65946824Y-81587500D01*
X65946824Y-81007423D01*
X65944365Y-80868268D01*
X65936597Y-80712728D01*
X65944229Y-80712728D01*
X65978347Y-80822103D01*
X66019334Y-80941706D01*
X66255486Y-81587500D01*
X66390430Y-81587500D01*
X66626583Y-80941706D01*
X66667570Y-80822103D01*
X66701687Y-80712728D01*
X66709396Y-80712728D01*
X66699092Y-81008339D01*
X66699092Y-81587500D01*
X66909141Y-81587500D01*
X67070952Y-81587500D01*
X67293824Y-81587500D01*
X67400680Y-81299293D01*
X67839935Y-81299293D01*
X67948394Y-81587500D01*
X68169587Y-81587500D01*
X67953264Y-81042380D01*
X68259804Y-81042380D01*
X68264216Y-81125154D01*
X68277033Y-81201102D01*
X68297814Y-81271052D01*
X68327693Y-81337289D01*
X68365788Y-81396533D01*
X68412380Y-81449502D01*
X68466498Y-81494883D01*
X68529930Y-81533660D01*
X68603881Y-81565747D01*
X68681630Y-81587980D01*
X68770711Y-81602071D01*
X68872777Y-81607039D01*
X68976199Y-81601925D01*
X69077560Y-81588721D01*
X69166479Y-81570479D01*
X69231891Y-81550939D01*
X69231891Y-80976892D01*
X68765692Y-80976892D01*
X68765692Y-81152747D01*
X69021842Y-81152747D01*
X69021842Y-81417674D01*
X68954217Y-81427368D01*
X68879723Y-81431184D01*
X68782980Y-81424032D01*
X68702780Y-81404037D01*
X68636186Y-81372642D01*
X68580907Y-81330205D01*
X68536917Y-81276733D01*
X68504037Y-81210372D01*
X68482731Y-81128344D01*
X68474738Y-81027038D01*
X68478783Y-80958339D01*
X68490356Y-80897618D01*
X68508855Y-80843780D01*
X68549745Y-80770180D01*
X68602355Y-80710362D01*
X68666623Y-80663114D01*
X68742871Y-80628465D01*
X68826114Y-80607824D01*
X68917046Y-80600758D01*
X68986006Y-80603264D01*
X69054128Y-80610757D01*
X69188614Y-80639837D01*
X69188614Y-80466577D01*
X69135360Y-80451233D01*
X69061379Y-80437039D01*
X68982493Y-80428008D01*
X68897431Y-80424904D01*
X68801996Y-80430269D01*
X68715088Y-80445817D01*
X68632863Y-80471499D01*
X68558849Y-80505809D01*
X68491274Y-80549248D01*
X68432301Y-80600377D01*
X68381218Y-80658966D01*
X68338343Y-80724254D01*
X68304567Y-80795312D01*
X68279725Y-80873318D01*
X68264866Y-80955121D01*
X68259804Y-81042380D01*
X67953264Y-81042380D01*
X67715982Y-80444443D01*
X67524557Y-80444443D01*
X67255108Y-81123438D01*
X67070952Y-81587500D01*
X66909141Y-81587500D01*
X66909141Y-80444443D01*
X66615210Y-80444443D01*
X66417831Y-80991242D01*
X66365788Y-81143910D01*
X66324637Y-81280822D01*
X66319524Y-81280822D01*
X66273743Y-81127393D01*
X66226406Y-80988647D01*
X66029027Y-80444443D01*
X65736775Y-80444443D01*
X65736775Y-81587500D01*
X65597886Y-81587500D01*
X65597886Y-80286015D01*
X69370780Y-80286015D01*
X69370780Y-81745928D01*
G37*
D10*
X59907200Y-70514285D02*
X59954819Y-70371428D01*
X59954819Y-70371428D02*
X59954819Y-70133333D01*
X59954819Y-70133333D02*
X59907200Y-70038095D01*
X59907200Y-70038095D02*
X59859580Y-69990476D01*
X59859580Y-69990476D02*
X59764342Y-69942857D01*
X59764342Y-69942857D02*
X59669104Y-69942857D01*
X59669104Y-69942857D02*
X59573866Y-69990476D01*
X59573866Y-69990476D02*
X59526247Y-70038095D01*
X59526247Y-70038095D02*
X59478628Y-70133333D01*
X59478628Y-70133333D02*
X59431009Y-70323809D01*
X59431009Y-70323809D02*
X59383390Y-70419047D01*
X59383390Y-70419047D02*
X59335771Y-70466666D01*
X59335771Y-70466666D02*
X59240533Y-70514285D01*
X59240533Y-70514285D02*
X59145295Y-70514285D01*
X59145295Y-70514285D02*
X59050057Y-70466666D01*
X59050057Y-70466666D02*
X59002438Y-70419047D01*
X59002438Y-70419047D02*
X58954819Y-70323809D01*
X58954819Y-70323809D02*
X58954819Y-70085714D01*
X58954819Y-70085714D02*
X59002438Y-69942857D01*
X59954819Y-69514285D02*
X58954819Y-69514285D01*
X58954819Y-69514285D02*
X58954819Y-69276190D01*
X58954819Y-69276190D02*
X59002438Y-69133333D01*
X59002438Y-69133333D02*
X59097676Y-69038095D01*
X59097676Y-69038095D02*
X59192914Y-68990476D01*
X59192914Y-68990476D02*
X59383390Y-68942857D01*
X59383390Y-68942857D02*
X59526247Y-68942857D01*
X59526247Y-68942857D02*
X59716723Y-68990476D01*
X59716723Y-68990476D02*
X59811961Y-69038095D01*
X59811961Y-69038095D02*
X59907200Y-69133333D01*
X59907200Y-69133333D02*
X59954819Y-69276190D01*
X59954819Y-69276190D02*
X59954819Y-69514285D01*
X59669104Y-68561904D02*
X59669104Y-68085714D01*
X59954819Y-68657142D02*
X58954819Y-68323809D01*
X58954819Y-68323809D02*
X59954819Y-67990476D01*
X55568990Y-87940476D02*
X55521371Y-88083333D01*
X55521371Y-88083333D02*
X55473752Y-88130952D01*
X55473752Y-88130952D02*
X55378514Y-88178571D01*
X55378514Y-88178571D02*
X55235657Y-88178571D01*
X55235657Y-88178571D02*
X55140419Y-88130952D01*
X55140419Y-88130952D02*
X55092800Y-88083333D01*
X55092800Y-88083333D02*
X55045180Y-87988095D01*
X55045180Y-87988095D02*
X55045180Y-87607143D01*
X55045180Y-87607143D02*
X56045180Y-87607143D01*
X56045180Y-87607143D02*
X56045180Y-87940476D01*
X56045180Y-87940476D02*
X55997561Y-88035714D01*
X55997561Y-88035714D02*
X55949942Y-88083333D01*
X55949942Y-88083333D02*
X55854704Y-88130952D01*
X55854704Y-88130952D02*
X55759466Y-88130952D01*
X55759466Y-88130952D02*
X55664228Y-88083333D01*
X55664228Y-88083333D02*
X55616609Y-88035714D01*
X55616609Y-88035714D02*
X55568990Y-87940476D01*
X55568990Y-87940476D02*
X55568990Y-87607143D01*
X56045180Y-88464286D02*
X56045180Y-89035714D01*
X55045180Y-88750000D02*
X56045180Y-88750000D01*
X55045180Y-89369048D02*
X56045180Y-89369048D01*
X56045180Y-89369048D02*
X55045180Y-89940476D01*
X55045180Y-89940476D02*
X56045180Y-89940476D01*
X55045180Y-90940476D02*
X55045180Y-90369048D01*
X55045180Y-90654762D02*
X56045180Y-90654762D01*
X56045180Y-90654762D02*
X55902323Y-90559524D01*
X55902323Y-90559524D02*
X55807085Y-90464286D01*
X55807085Y-90464286D02*
X55759466Y-90369048D01*
X66516667Y-93019819D02*
X67183333Y-94019819D01*
X67183333Y-93019819D02*
X66516667Y-94019819D01*
X66483919Y-98189819D02*
X67150585Y-98189819D01*
X67150585Y-98189819D02*
X66483919Y-99189819D01*
X66483919Y-99189819D02*
X67150585Y-99189819D01*
X63822744Y-96821695D02*
X63822744Y-97297886D01*
X63489411Y-96297886D02*
X63822744Y-96821695D01*
X63822744Y-96821695D02*
X64156077Y-96297886D01*
D12*
G36*
X52729701Y-60489938D02*
G01*
X52724969Y-60597252D01*
X52710009Y-60670754D01*
X52684069Y-60720829D01*
X52652459Y-60750514D01*
X52613001Y-60767465D01*
X52564990Y-60773412D01*
X52525066Y-60769521D01*
X52489046Y-60758147D01*
X52457314Y-60738351D01*
X52429893Y-60708077D01*
X52408940Y-60669659D01*
X52391730Y-60616410D01*
X52381763Y-60556116D01*
X52377991Y-60475512D01*
X52379289Y-60418191D01*
X52383105Y-60372854D01*
X52729701Y-60372854D01*
X52729701Y-60489938D01*
G37*
G36*
X53063984Y-62128630D02*
G01*
X51604071Y-62128630D01*
X51604071Y-61510109D01*
X51742960Y-61510109D01*
X51748485Y-61614435D01*
X51764255Y-61706496D01*
X51791945Y-61791147D01*
X51829361Y-61858766D01*
X51879192Y-61914441D01*
X51940491Y-61955624D01*
X51986547Y-61974103D01*
X52039242Y-61985678D01*
X52099784Y-61989741D01*
X52184319Y-61981681D01*
X52246711Y-61960051D01*
X52298971Y-61924860D01*
X52339905Y-61879450D01*
X52371410Y-61825608D01*
X52395699Y-61762901D01*
X52431114Y-61625056D01*
X52451493Y-61538579D01*
X52464691Y-61499542D01*
X52480879Y-61466527D01*
X52501871Y-61438192D01*
X52527285Y-61416915D01*
X52558087Y-61403540D01*
X52598879Y-61398674D01*
X52646022Y-61405255D01*
X52682743Y-61423798D01*
X52711612Y-61454620D01*
X52731303Y-61493794D01*
X52744379Y-61545713D01*
X52749241Y-61613836D01*
X52745602Y-61686600D01*
X52734128Y-61767099D01*
X52714926Y-61849026D01*
X52685737Y-61937458D01*
X52862127Y-61937458D01*
X52886517Y-61867246D01*
X52907464Y-61778624D01*
X52920716Y-61686334D01*
X52925095Y-61595060D01*
X52919408Y-61506358D01*
X52903343Y-61430425D01*
X52875777Y-61361173D01*
X52837779Y-61302427D01*
X52788576Y-61253621D01*
X52727106Y-61215644D01*
X52656342Y-61192119D01*
X52569951Y-61183740D01*
X52492445Y-61191078D01*
X52433709Y-61210988D01*
X52383714Y-61243131D01*
X52343797Y-61284185D01*
X52312609Y-61333212D01*
X52288461Y-61390659D01*
X52253962Y-61517589D01*
X52233049Y-61613378D01*
X52205419Y-61695581D01*
X52185485Y-61728975D01*
X52161531Y-61753513D01*
X52131654Y-61769152D01*
X52091311Y-61774808D01*
X52044711Y-61768760D01*
X52008040Y-61751757D01*
X51977984Y-61725138D01*
X51954688Y-61690696D01*
X51938156Y-61650963D01*
X51926905Y-61604906D01*
X51918815Y-61507591D01*
X51922920Y-61423045D01*
X51935072Y-61341887D01*
X51955857Y-61261776D01*
X51987203Y-61177100D01*
X51812264Y-61177100D01*
X51783996Y-61241527D01*
X51761126Y-61326927D01*
X51747514Y-61417665D01*
X51742960Y-61510109D01*
X51604071Y-61510109D01*
X51604071Y-60372854D01*
X51762500Y-60372854D01*
X52206411Y-60372854D01*
X52202976Y-60423763D01*
X52202189Y-60475512D01*
X52202137Y-60478947D01*
X52208731Y-60597394D01*
X52227019Y-60695407D01*
X52258152Y-60784418D01*
X52298231Y-60855004D01*
X52350092Y-60912988D01*
X52411041Y-60954381D01*
X52480699Y-60979626D01*
X52560716Y-60988346D01*
X52639748Y-60980833D01*
X52705789Y-60959579D01*
X52761453Y-60925377D01*
X52808062Y-60878976D01*
X52846424Y-60819891D01*
X52876400Y-60745782D01*
X52888848Y-60695488D01*
X52898229Y-60635567D01*
X52905556Y-60491311D01*
X52905556Y-60162805D01*
X51762500Y-60162805D01*
X51762500Y-60372854D01*
X51604071Y-60372854D01*
X51604071Y-59546015D01*
X51742960Y-59546015D01*
X51748074Y-59649437D01*
X51761278Y-59750798D01*
X51779520Y-59839717D01*
X51799060Y-59905129D01*
X52373107Y-59905129D01*
X52373107Y-59438930D01*
X52197252Y-59438930D01*
X52197252Y-59695080D01*
X51932325Y-59695080D01*
X51922631Y-59627455D01*
X51918815Y-59552961D01*
X51925967Y-59456218D01*
X51945962Y-59376018D01*
X51977357Y-59309424D01*
X52019794Y-59254145D01*
X52073266Y-59210155D01*
X52139627Y-59177274D01*
X52221655Y-59155969D01*
X52322961Y-59147976D01*
X52391660Y-59152021D01*
X52452381Y-59163594D01*
X52506219Y-59182093D01*
X52579819Y-59222983D01*
X52639637Y-59275593D01*
X52686885Y-59339861D01*
X52721534Y-59416109D01*
X52742175Y-59499352D01*
X52749241Y-59590284D01*
X52746735Y-59659244D01*
X52739242Y-59727366D01*
X52710162Y-59861852D01*
X52883422Y-59861852D01*
X52898766Y-59808598D01*
X52912960Y-59734617D01*
X52921991Y-59655731D01*
X52925095Y-59570669D01*
X52919730Y-59475234D01*
X52904182Y-59388326D01*
X52878500Y-59306100D01*
X52844190Y-59232087D01*
X52800751Y-59164512D01*
X52749622Y-59105539D01*
X52691033Y-59054456D01*
X52625745Y-59011581D01*
X52554687Y-58977805D01*
X52476681Y-58952963D01*
X52394878Y-58938104D01*
X52307619Y-58933042D01*
X52224845Y-58937454D01*
X52148897Y-58950271D01*
X52078947Y-58971052D01*
X52012710Y-59000931D01*
X51953466Y-59039026D01*
X51900497Y-59085618D01*
X51855116Y-59139736D01*
X51816339Y-59203168D01*
X51784252Y-59277119D01*
X51762019Y-59354868D01*
X51747928Y-59443949D01*
X51742960Y-59546015D01*
X51604071Y-59546015D01*
X51604071Y-58794153D01*
X53063984Y-58794153D01*
X53063984Y-62128630D01*
G37*
D10*
X79711847Y-83619047D02*
X79045180Y-83619047D01*
X80092800Y-83380952D02*
X79378514Y-83142857D01*
X79378514Y-83142857D02*
X79378514Y-83761904D01*
X80045180Y-84809524D02*
X80045180Y-85428571D01*
X80045180Y-85428571D02*
X79664228Y-85095238D01*
X79664228Y-85095238D02*
X79664228Y-85238095D01*
X79664228Y-85238095D02*
X79616609Y-85333333D01*
X79616609Y-85333333D02*
X79568990Y-85380952D01*
X79568990Y-85380952D02*
X79473752Y-85428571D01*
X79473752Y-85428571D02*
X79235657Y-85428571D01*
X79235657Y-85428571D02*
X79140419Y-85380952D01*
X79140419Y-85380952D02*
X79092800Y-85333333D01*
X79092800Y-85333333D02*
X79045180Y-85238095D01*
X79045180Y-85238095D02*
X79045180Y-84952381D01*
X79045180Y-84952381D02*
X79092800Y-84857143D01*
X79092800Y-84857143D02*
X79140419Y-84809524D01*
X79045180Y-87142857D02*
X79045180Y-86571429D01*
X79045180Y-86857143D02*
X80045180Y-86857143D01*
X80045180Y-86857143D02*
X79902323Y-86761905D01*
X79902323Y-86761905D02*
X79807085Y-86666667D01*
X79807085Y-86666667D02*
X79759466Y-86571429D01*
X79949942Y-88285715D02*
X79997561Y-88333334D01*
X79997561Y-88333334D02*
X80045180Y-88428572D01*
X80045180Y-88428572D02*
X80045180Y-88666667D01*
X80045180Y-88666667D02*
X79997561Y-88761905D01*
X79997561Y-88761905D02*
X79949942Y-88809524D01*
X79949942Y-88809524D02*
X79854704Y-88857143D01*
X79854704Y-88857143D02*
X79759466Y-88857143D01*
X79759466Y-88857143D02*
X79616609Y-88809524D01*
X79616609Y-88809524D02*
X79045180Y-88238096D01*
X79045180Y-88238096D02*
X79045180Y-88857143D01*
X64194758Y-95471485D02*
X64194758Y-95661961D01*
X63956663Y-95138152D02*
X63909044Y-95185771D01*
X63909044Y-95185771D02*
X63861425Y-95281009D01*
X63861425Y-95281009D02*
X63861425Y-95661961D01*
X63861425Y-95661961D02*
X63909044Y-95757200D01*
X63909044Y-95757200D02*
X64004282Y-95804819D01*
X64004282Y-95804819D02*
X64051901Y-95804819D01*
X64051901Y-95804819D02*
X64147139Y-95757200D01*
X64147139Y-95757200D02*
X64194758Y-95661961D01*
X64194758Y-95661961D02*
X64242377Y-95757200D01*
X64242377Y-95757200D02*
X64337615Y-95804819D01*
X64337615Y-95804819D02*
X64385234Y-95804819D01*
X64385234Y-95804819D02*
X64480472Y-95757200D01*
X64480472Y-95757200D02*
X64528091Y-95661961D01*
X64528091Y-95661961D02*
X64528091Y-95281009D01*
X64528091Y-95281009D02*
X64480472Y-95185771D01*
X64480472Y-95185771D02*
X64432853Y-95138152D01*
X65366187Y-95915295D02*
X65099520Y-95534342D01*
X64909044Y-95915295D02*
X64909044Y-95115295D01*
X64909044Y-95115295D02*
X65213806Y-95115295D01*
X65213806Y-95115295D02*
X65289996Y-95153390D01*
X65289996Y-95153390D02*
X65328091Y-95191485D01*
X65328091Y-95191485D02*
X65366187Y-95267676D01*
X65366187Y-95267676D02*
X65366187Y-95381961D01*
X65366187Y-95381961D02*
X65328091Y-95458152D01*
X65328091Y-95458152D02*
X65289996Y-95496247D01*
X65289996Y-95496247D02*
X65213806Y-95534342D01*
X65213806Y-95534342D02*
X64909044Y-95534342D01*
D12*
G36*
X87466591Y-57176786D02*
G01*
X87509567Y-57185450D01*
X87541619Y-57196859D01*
X87581841Y-57222023D01*
X87606801Y-57253111D01*
X87621005Y-57290673D01*
X87625959Y-57335009D01*
X87619716Y-57386622D01*
X87601687Y-57430645D01*
X87569617Y-57466394D01*
X87514294Y-57496286D01*
X87478092Y-57507108D01*
X87430412Y-57515596D01*
X87308978Y-57522008D01*
X87205861Y-57522008D01*
X87205861Y-57170298D01*
X87355002Y-57170298D01*
X87466591Y-57176786D01*
G37*
G36*
X89188173Y-58276389D02*
G01*
X79387901Y-58276389D01*
X79387901Y-57170298D01*
X79526790Y-57170298D01*
X79895673Y-57170298D01*
X79895673Y-58137500D01*
X80105722Y-58137500D01*
X80634508Y-58137500D01*
X81406391Y-58137500D01*
X81627355Y-58137500D01*
X82371914Y-58137500D01*
X82567690Y-58137500D01*
X83339573Y-58137500D01*
X83560537Y-58137500D01*
X83770586Y-58137500D01*
X83770586Y-57557423D01*
X83768126Y-57418268D01*
X83760358Y-57262728D01*
X83767991Y-57262728D01*
X83802108Y-57372103D01*
X83843095Y-57491706D01*
X84079248Y-58137500D01*
X84214192Y-58137500D01*
X84450344Y-57491706D01*
X84491331Y-57372103D01*
X84525449Y-57262728D01*
X84533158Y-57262728D01*
X84522854Y-57558339D01*
X84522854Y-58137500D01*
X84732903Y-58137500D01*
X85005233Y-58137500D01*
X85777117Y-58137500D01*
X85777117Y-57961645D01*
X85215282Y-57961645D01*
X85215282Y-57639244D01*
X85671253Y-57639244D01*
X85671253Y-57463389D01*
X85215282Y-57463389D01*
X85215282Y-57170298D01*
X85746434Y-57170298D01*
X85888095Y-57170298D01*
X86256978Y-57170298D01*
X86256978Y-58137500D01*
X86467027Y-58137500D01*
X86467027Y-57170298D01*
X86834994Y-57170298D01*
X86995812Y-57170298D01*
X86995812Y-57522008D01*
X86995812Y-58137500D01*
X87205861Y-58137500D01*
X87205861Y-57697862D01*
X87349354Y-57697862D01*
X87660153Y-58137500D01*
X87909281Y-58137500D01*
X87570165Y-57670385D01*
X87570165Y-57666950D01*
X87658602Y-57633225D01*
X87725457Y-57591717D01*
X87774718Y-57542997D01*
X87811015Y-57484192D01*
X87833181Y-57417010D01*
X87840893Y-57339283D01*
X87834342Y-57264372D01*
X87815837Y-57201536D01*
X87786243Y-57148469D01*
X87745655Y-57102860D01*
X87694445Y-57064714D01*
X87630920Y-57033903D01*
X87574987Y-57017170D01*
X87503685Y-57004289D01*
X87427916Y-56996996D01*
X87343248Y-56994443D01*
X87973394Y-56994443D01*
X88406315Y-57677025D01*
X88406315Y-58137500D01*
X88616364Y-58137500D01*
X88616364Y-57677025D01*
X89049284Y-56994443D01*
X88817025Y-56994443D01*
X88512637Y-57486516D01*
X88510042Y-57486516D01*
X88205654Y-56994443D01*
X87973394Y-56994443D01*
X87343248Y-56994443D01*
X86995812Y-56994443D01*
X86995812Y-57170298D01*
X86834994Y-57170298D01*
X86834994Y-56994443D01*
X85888095Y-56994443D01*
X85888095Y-57170298D01*
X85746434Y-57170298D01*
X85746434Y-56994443D01*
X85005233Y-56994443D01*
X85005233Y-58137500D01*
X84732903Y-58137500D01*
X84732903Y-56994443D01*
X84438971Y-56994443D01*
X84241593Y-57541242D01*
X84189550Y-57693910D01*
X84148399Y-57830822D01*
X84143285Y-57830822D01*
X84097504Y-57677393D01*
X84050167Y-57538647D01*
X83852789Y-56994443D01*
X83560537Y-56994443D01*
X83560537Y-58137500D01*
X83339573Y-58137500D01*
X83339573Y-57961645D01*
X82777739Y-57961645D01*
X82777739Y-57639244D01*
X83233709Y-57639244D01*
X83233709Y-57463389D01*
X82777739Y-57463389D01*
X82777739Y-57170298D01*
X83308890Y-57170298D01*
X83308890Y-56994443D01*
X82567690Y-56994443D01*
X82567690Y-58137500D01*
X82371914Y-58137500D01*
X82371914Y-57961645D01*
X81837404Y-57961645D01*
X81837404Y-56994443D01*
X81627355Y-56994443D01*
X81627355Y-58137500D01*
X81406391Y-58137500D01*
X81406391Y-57961645D01*
X80844556Y-57961645D01*
X80844556Y-57639244D01*
X81300527Y-57639244D01*
X81300527Y-57463389D01*
X80844556Y-57463389D01*
X80844556Y-57170298D01*
X81375708Y-57170298D01*
X81375708Y-56994443D01*
X80634508Y-56994443D01*
X80634508Y-58137500D01*
X80105722Y-58137500D01*
X80105722Y-57170298D01*
X80473689Y-57170298D01*
X80473689Y-56994443D01*
X79526790Y-56994443D01*
X79526790Y-57170298D01*
X79387901Y-57170298D01*
X79387901Y-56855554D01*
X89188173Y-56855554D01*
X89188173Y-58276389D01*
G37*
D10*
X59883332Y-81645180D02*
X59216666Y-81645180D01*
X59216666Y-81645180D02*
X59883332Y-80645180D01*
X59883332Y-80645180D02*
X59216666Y-80645180D01*
X62022744Y-79828628D02*
X62022744Y-80304819D01*
X61689411Y-79304819D02*
X62022744Y-79828628D01*
X62022744Y-79828628D02*
X62356077Y-79304819D01*
X84285714Y-119954819D02*
X84285714Y-118954819D01*
X84285714Y-118954819D02*
X84666666Y-118954819D01*
X84666666Y-118954819D02*
X84761904Y-119002438D01*
X84761904Y-119002438D02*
X84809523Y-119050057D01*
X84809523Y-119050057D02*
X84857142Y-119145295D01*
X84857142Y-119145295D02*
X84857142Y-119288152D01*
X84857142Y-119288152D02*
X84809523Y-119383390D01*
X84809523Y-119383390D02*
X84761904Y-119431009D01*
X84761904Y-119431009D02*
X84666666Y-119478628D01*
X84666666Y-119478628D02*
X84285714Y-119478628D01*
X85476190Y-119478628D02*
X85476190Y-119954819D01*
X85142857Y-118954819D02*
X85476190Y-119478628D01*
X85476190Y-119478628D02*
X85809523Y-118954819D01*
X86714285Y-119954819D02*
X86380952Y-119478628D01*
X86142857Y-119954819D02*
X86142857Y-118954819D01*
X86142857Y-118954819D02*
X86523809Y-118954819D01*
X86523809Y-118954819D02*
X86619047Y-119002438D01*
X86619047Y-119002438D02*
X86666666Y-119050057D01*
X86666666Y-119050057D02*
X86714285Y-119145295D01*
X86714285Y-119145295D02*
X86714285Y-119288152D01*
X86714285Y-119288152D02*
X86666666Y-119383390D01*
X86666666Y-119383390D02*
X86619047Y-119431009D01*
X86619047Y-119431009D02*
X86523809Y-119478628D01*
X86523809Y-119478628D02*
X86142857Y-119478628D01*
X87333333Y-118954819D02*
X87523809Y-118954819D01*
X87523809Y-118954819D02*
X87619047Y-119002438D01*
X87619047Y-119002438D02*
X87714285Y-119097676D01*
X87714285Y-119097676D02*
X87761904Y-119288152D01*
X87761904Y-119288152D02*
X87761904Y-119621485D01*
X87761904Y-119621485D02*
X87714285Y-119811961D01*
X87714285Y-119811961D02*
X87619047Y-119907200D01*
X87619047Y-119907200D02*
X87523809Y-119954819D01*
X87523809Y-119954819D02*
X87333333Y-119954819D01*
X87333333Y-119954819D02*
X87238095Y-119907200D01*
X87238095Y-119907200D02*
X87142857Y-119811961D01*
X87142857Y-119811961D02*
X87095238Y-119621485D01*
X87095238Y-119621485D02*
X87095238Y-119288152D01*
X87095238Y-119288152D02*
X87142857Y-119097676D01*
X87142857Y-119097676D02*
X87238095Y-119002438D01*
X87238095Y-119002438D02*
X87333333Y-118954819D01*
X88952381Y-119288152D02*
X89714286Y-119573866D01*
X89714286Y-119573866D02*
X88952381Y-119859580D01*
X69129347Y-116428571D02*
X69129347Y-117571429D01*
X68557918Y-117000000D02*
X69700775Y-117000000D01*
D12*
G36*
X55721223Y-74795928D02*
G01*
X53597886Y-74795928D01*
X53597886Y-74637500D01*
X53736775Y-74637500D01*
X53946824Y-74637500D01*
X53946824Y-74056629D01*
X54129395Y-74056629D01*
X54129395Y-74133565D01*
X54590098Y-74133565D01*
X54590098Y-74086427D01*
X54723515Y-74086427D01*
X54727805Y-74170370D01*
X54740266Y-74247473D01*
X54760457Y-74318534D01*
X54789506Y-74386040D01*
X54826271Y-74445970D01*
X54870900Y-74499121D01*
X54923078Y-74544860D01*
X54983954Y-74583735D01*
X55054617Y-74615747D01*
X55129148Y-74638050D01*
X55213760Y-74652106D01*
X55309927Y-74657039D01*
X55383456Y-74654559D01*
X55453343Y-74647269D01*
X55582334Y-74620631D01*
X55582334Y-74442105D01*
X55522035Y-74458797D01*
X55455938Y-74471262D01*
X55388713Y-74478734D01*
X55323589Y-74481184D01*
X55236080Y-74474405D01*
X55161778Y-74455233D01*
X55095456Y-74422626D01*
X55040954Y-74378068D01*
X54997769Y-74321576D01*
X54964934Y-74250604D01*
X54945447Y-74170686D01*
X54938449Y-74073680D01*
X54946050Y-73975682D01*
X54967453Y-73893322D01*
X55002779Y-73819777D01*
X55048205Y-73760744D01*
X55104708Y-73713610D01*
X55172006Y-73678923D01*
X55246508Y-73657970D01*
X55329543Y-73650758D01*
X55444795Y-73658391D01*
X55504580Y-73668501D01*
X55572030Y-73684952D01*
X55572030Y-73511616D01*
X55518113Y-73496382D01*
X55455022Y-73484521D01*
X55389104Y-73477370D01*
X55317559Y-73474904D01*
X55223991Y-73480869D01*
X55139727Y-73496984D01*
X55063547Y-73522607D01*
X54991747Y-73558406D01*
X54929863Y-73601248D01*
X54876854Y-73651216D01*
X54831569Y-73708431D01*
X54793632Y-73772618D01*
X54762976Y-73844550D01*
X54741310Y-73919873D01*
X54728047Y-74000263D01*
X54723515Y-74086427D01*
X54590098Y-74086427D01*
X54590098Y-74026099D01*
X54448437Y-74026099D01*
X54336925Y-74030449D01*
X54336925Y-74028236D01*
X54420731Y-73967099D01*
X54486906Y-73905885D01*
X54512002Y-73873470D01*
X54530564Y-73840550D01*
X54542421Y-73805365D01*
X54546440Y-73766972D01*
X54542437Y-73725896D01*
X54531098Y-73691562D01*
X54512667Y-73661438D01*
X54488280Y-73636684D01*
X54458634Y-73617356D01*
X54422410Y-73602872D01*
X54382725Y-73594333D01*
X54337536Y-73591346D01*
X54277162Y-73596002D01*
X54222208Y-73608062D01*
X54174428Y-73624395D01*
X54134891Y-73642714D01*
X54134891Y-73752547D01*
X54185679Y-73731050D01*
X54233122Y-73716063D01*
X54279880Y-73706614D01*
X54320057Y-73703698D01*
X54357381Y-73707591D01*
X54387453Y-73719879D01*
X54407450Y-73741556D01*
X54414549Y-73773842D01*
X54409140Y-73804979D01*
X54391575Y-73838566D01*
X54365724Y-73870686D01*
X54329598Y-73906191D01*
X54238618Y-73979082D01*
X54129395Y-74056629D01*
X53946824Y-74056629D01*
X53946824Y-73494443D01*
X53736775Y-73494443D01*
X53736775Y-74637500D01*
X53597886Y-74637500D01*
X53597886Y-73336015D01*
X55721223Y-73336015D01*
X55721223Y-74795928D01*
G37*
D10*
X48238095Y-121454819D02*
X48238095Y-120454819D01*
X48238095Y-120931009D02*
X48809523Y-120931009D01*
X48809523Y-121454819D02*
X48809523Y-120454819D01*
X49714285Y-120788152D02*
X49714285Y-121454819D01*
X49476190Y-120407200D02*
X49238095Y-121121485D01*
X49238095Y-121121485D02*
X49857142Y-121121485D01*
X63052380Y-68954819D02*
X62719047Y-68478628D01*
X62480952Y-68954819D02*
X62480952Y-67954819D01*
X62480952Y-67954819D02*
X62861904Y-67954819D01*
X62861904Y-67954819D02*
X62957142Y-68002438D01*
X62957142Y-68002438D02*
X63004761Y-68050057D01*
X63004761Y-68050057D02*
X63052380Y-68145295D01*
X63052380Y-68145295D02*
X63052380Y-68288152D01*
X63052380Y-68288152D02*
X63004761Y-68383390D01*
X63004761Y-68383390D02*
X62957142Y-68431009D01*
X62957142Y-68431009D02*
X62861904Y-68478628D01*
X62861904Y-68478628D02*
X62480952Y-68478628D01*
X63433333Y-68907200D02*
X63576190Y-68954819D01*
X63576190Y-68954819D02*
X63814285Y-68954819D01*
X63814285Y-68954819D02*
X63909523Y-68907200D01*
X63909523Y-68907200D02*
X63957142Y-68859580D01*
X63957142Y-68859580D02*
X64004761Y-68764342D01*
X64004761Y-68764342D02*
X64004761Y-68669104D01*
X64004761Y-68669104D02*
X63957142Y-68573866D01*
X63957142Y-68573866D02*
X63909523Y-68526247D01*
X63909523Y-68526247D02*
X63814285Y-68478628D01*
X63814285Y-68478628D02*
X63623809Y-68431009D01*
X63623809Y-68431009D02*
X63528571Y-68383390D01*
X63528571Y-68383390D02*
X63480952Y-68335771D01*
X63480952Y-68335771D02*
X63433333Y-68240533D01*
X63433333Y-68240533D02*
X63433333Y-68145295D01*
X63433333Y-68145295D02*
X63480952Y-68050057D01*
X63480952Y-68050057D02*
X63528571Y-68002438D01*
X63528571Y-68002438D02*
X63623809Y-67954819D01*
X63623809Y-67954819D02*
X63861904Y-67954819D01*
X63861904Y-67954819D02*
X64004761Y-68002438D01*
X64290476Y-67954819D02*
X64861904Y-67954819D01*
X64576190Y-68954819D02*
X64576190Y-67954819D01*
X62342857Y-67677200D02*
X64857143Y-67677200D01*
X61495180Y-92719048D02*
X62495180Y-92719048D01*
X61495180Y-93195238D02*
X62495180Y-93195238D01*
X62495180Y-93195238D02*
X61495180Y-93766666D01*
X61495180Y-93766666D02*
X62495180Y-93766666D01*
X62495180Y-94100000D02*
X62495180Y-94671428D01*
X61495180Y-94385714D02*
X62495180Y-94385714D01*
X62399942Y-94957143D02*
X62447561Y-95004762D01*
X62447561Y-95004762D02*
X62495180Y-95100000D01*
X62495180Y-95100000D02*
X62495180Y-95338095D01*
X62495180Y-95338095D02*
X62447561Y-95433333D01*
X62447561Y-95433333D02*
X62399942Y-95480952D01*
X62399942Y-95480952D02*
X62304704Y-95528571D01*
X62304704Y-95528571D02*
X62209466Y-95528571D01*
X62209466Y-95528571D02*
X62066609Y-95480952D01*
X62066609Y-95480952D02*
X61495180Y-94909524D01*
X61495180Y-94909524D02*
X61495180Y-95528571D01*
X58997561Y-106638095D02*
X59045180Y-106542857D01*
X59045180Y-106542857D02*
X59045180Y-106400000D01*
X59045180Y-106400000D02*
X58997561Y-106257143D01*
X58997561Y-106257143D02*
X58902323Y-106161905D01*
X58902323Y-106161905D02*
X58807085Y-106114286D01*
X58807085Y-106114286D02*
X58616609Y-106066667D01*
X58616609Y-106066667D02*
X58473752Y-106066667D01*
X58473752Y-106066667D02*
X58283276Y-106114286D01*
X58283276Y-106114286D02*
X58188038Y-106161905D01*
X58188038Y-106161905D02*
X58092800Y-106257143D01*
X58092800Y-106257143D02*
X58045180Y-106400000D01*
X58045180Y-106400000D02*
X58045180Y-106495238D01*
X58045180Y-106495238D02*
X58092800Y-106638095D01*
X58092800Y-106638095D02*
X58140419Y-106685714D01*
X58140419Y-106685714D02*
X58473752Y-106685714D01*
X58473752Y-106685714D02*
X58473752Y-106495238D01*
X58045180Y-107114286D02*
X59045180Y-107114286D01*
X59045180Y-107114286D02*
X58045180Y-107685714D01*
X58045180Y-107685714D02*
X59045180Y-107685714D01*
X58045180Y-108161905D02*
X59045180Y-108161905D01*
X59045180Y-108161905D02*
X59045180Y-108400000D01*
X59045180Y-108400000D02*
X58997561Y-108542857D01*
X58997561Y-108542857D02*
X58902323Y-108638095D01*
X58902323Y-108638095D02*
X58807085Y-108685714D01*
X58807085Y-108685714D02*
X58616609Y-108733333D01*
X58616609Y-108733333D02*
X58473752Y-108733333D01*
X58473752Y-108733333D02*
X58283276Y-108685714D01*
X58283276Y-108685714D02*
X58188038Y-108638095D01*
X58188038Y-108638095D02*
X58092800Y-108542857D01*
X58092800Y-108542857D02*
X58045180Y-108400000D01*
X58045180Y-108400000D02*
X58045180Y-108161905D01*
X79795180Y-76528572D02*
X80795180Y-76528572D01*
X80795180Y-76528572D02*
X80080895Y-76861905D01*
X80080895Y-76861905D02*
X80795180Y-77195238D01*
X80795180Y-77195238D02*
X79795180Y-77195238D01*
X79795180Y-77671429D02*
X80795180Y-77671429D01*
X79842800Y-78100000D02*
X79795180Y-78242857D01*
X79795180Y-78242857D02*
X79795180Y-78480952D01*
X79795180Y-78480952D02*
X79842800Y-78576190D01*
X79842800Y-78576190D02*
X79890419Y-78623809D01*
X79890419Y-78623809D02*
X79985657Y-78671428D01*
X79985657Y-78671428D02*
X80080895Y-78671428D01*
X80080895Y-78671428D02*
X80176133Y-78623809D01*
X80176133Y-78623809D02*
X80223752Y-78576190D01*
X80223752Y-78576190D02*
X80271371Y-78480952D01*
X80271371Y-78480952D02*
X80318990Y-78290476D01*
X80318990Y-78290476D02*
X80366609Y-78195238D01*
X80366609Y-78195238D02*
X80414228Y-78147619D01*
X80414228Y-78147619D02*
X80509466Y-78100000D01*
X80509466Y-78100000D02*
X80604704Y-78100000D01*
X80604704Y-78100000D02*
X80699942Y-78147619D01*
X80699942Y-78147619D02*
X80747561Y-78195238D01*
X80747561Y-78195238D02*
X80795180Y-78290476D01*
X80795180Y-78290476D02*
X80795180Y-78528571D01*
X80795180Y-78528571D02*
X80747561Y-78671428D01*
X80795180Y-79290476D02*
X80795180Y-79480952D01*
X80795180Y-79480952D02*
X80747561Y-79576190D01*
X80747561Y-79576190D02*
X80652323Y-79671428D01*
X80652323Y-79671428D02*
X80461847Y-79719047D01*
X80461847Y-79719047D02*
X80128514Y-79719047D01*
X80128514Y-79719047D02*
X79938038Y-79671428D01*
X79938038Y-79671428D02*
X79842800Y-79576190D01*
X79842800Y-79576190D02*
X79795180Y-79480952D01*
X79795180Y-79480952D02*
X79795180Y-79290476D01*
X79795180Y-79290476D02*
X79842800Y-79195238D01*
X79842800Y-79195238D02*
X79938038Y-79100000D01*
X79938038Y-79100000D02*
X80128514Y-79052381D01*
X80128514Y-79052381D02*
X80461847Y-79052381D01*
X80461847Y-79052381D02*
X80652323Y-79100000D01*
X80652323Y-79100000D02*
X80747561Y-79195238D01*
X80747561Y-79195238D02*
X80795180Y-79290476D01*
X88645180Y-61950000D02*
X89645180Y-61950000D01*
X89645180Y-62616666D02*
X89645180Y-62807142D01*
X89645180Y-62807142D02*
X89597561Y-62902380D01*
X89597561Y-62902380D02*
X89502323Y-62997618D01*
X89502323Y-62997618D02*
X89311847Y-63045237D01*
X89311847Y-63045237D02*
X88978514Y-63045237D01*
X88978514Y-63045237D02*
X88788038Y-62997618D01*
X88788038Y-62997618D02*
X88692800Y-62902380D01*
X88692800Y-62902380D02*
X88645180Y-62807142D01*
X88645180Y-62807142D02*
X88645180Y-62616666D01*
X88645180Y-62616666D02*
X88692800Y-62521428D01*
X88692800Y-62521428D02*
X88788038Y-62426190D01*
X88788038Y-62426190D02*
X88978514Y-62378571D01*
X88978514Y-62378571D02*
X89311847Y-62378571D01*
X89311847Y-62378571D02*
X89502323Y-62426190D01*
X89502323Y-62426190D02*
X89597561Y-62521428D01*
X89597561Y-62521428D02*
X89645180Y-62616666D01*
X89645180Y-63378571D02*
X89645180Y-63997618D01*
X89645180Y-63997618D02*
X89264228Y-63664285D01*
X89264228Y-63664285D02*
X89264228Y-63807142D01*
X89264228Y-63807142D02*
X89216609Y-63902380D01*
X89216609Y-63902380D02*
X89168990Y-63949999D01*
X89168990Y-63949999D02*
X89073752Y-63997618D01*
X89073752Y-63997618D02*
X88835657Y-63997618D01*
X88835657Y-63997618D02*
X88740419Y-63949999D01*
X88740419Y-63949999D02*
X88692800Y-63902380D01*
X88692800Y-63902380D02*
X88645180Y-63807142D01*
X88645180Y-63807142D02*
X88645180Y-63521428D01*
X88645180Y-63521428D02*
X88692800Y-63426190D01*
X88692800Y-63426190D02*
X88740419Y-63378571D01*
X51738095Y-49754819D02*
X51738095Y-48754819D01*
X51738095Y-49231009D02*
X52309523Y-49231009D01*
X52309523Y-49754819D02*
X52309523Y-48754819D01*
X53309523Y-49754819D02*
X52738095Y-49754819D01*
X53023809Y-49754819D02*
X53023809Y-48754819D01*
X53023809Y-48754819D02*
X52928571Y-48897676D01*
X52928571Y-48897676D02*
X52833333Y-48992914D01*
X52833333Y-48992914D02*
X52738095Y-49040533D01*
X65566667Y-68331009D02*
X65900000Y-68331009D01*
X66042857Y-68854819D02*
X65566667Y-68854819D01*
X65566667Y-68854819D02*
X65566667Y-67854819D01*
X65566667Y-67854819D02*
X66042857Y-67854819D01*
X66376191Y-67854819D02*
X67042857Y-68854819D01*
X67042857Y-67854819D02*
X66376191Y-68854819D01*
X67423810Y-68854819D02*
X67423810Y-67854819D01*
X67900000Y-68854819D02*
X67900000Y-67854819D01*
X67900000Y-67854819D02*
X68471428Y-68854819D01*
X68471428Y-68854819D02*
X68471428Y-67854819D01*
X68804762Y-67854819D02*
X69376190Y-67854819D01*
X69090476Y-68854819D02*
X69090476Y-67854819D01*
X64819048Y-104154819D02*
X64819048Y-103154819D01*
X65295238Y-104154819D02*
X65295238Y-103154819D01*
X65295238Y-103154819D02*
X65866666Y-104154819D01*
X65866666Y-104154819D02*
X65866666Y-103154819D01*
X66200000Y-103154819D02*
X66771428Y-103154819D01*
X66485714Y-104154819D02*
X66485714Y-103154819D01*
X67628571Y-104154819D02*
X67057143Y-104154819D01*
X67342857Y-104154819D02*
X67342857Y-103154819D01*
X67342857Y-103154819D02*
X67247619Y-103297676D01*
X67247619Y-103297676D02*
X67152381Y-103392914D01*
X67152381Y-103392914D02*
X67057143Y-103440533D01*
X64833333Y-79609580D02*
X64785714Y-79657200D01*
X64785714Y-79657200D02*
X64642857Y-79704819D01*
X64642857Y-79704819D02*
X64547619Y-79704819D01*
X64547619Y-79704819D02*
X64404762Y-79657200D01*
X64404762Y-79657200D02*
X64309524Y-79561961D01*
X64309524Y-79561961D02*
X64261905Y-79466723D01*
X64261905Y-79466723D02*
X64214286Y-79276247D01*
X64214286Y-79276247D02*
X64214286Y-79133390D01*
X64214286Y-79133390D02*
X64261905Y-78942914D01*
X64261905Y-78942914D02*
X64309524Y-78847676D01*
X64309524Y-78847676D02*
X64404762Y-78752438D01*
X64404762Y-78752438D02*
X64547619Y-78704819D01*
X64547619Y-78704819D02*
X64642857Y-78704819D01*
X64642857Y-78704819D02*
X64785714Y-78752438D01*
X64785714Y-78752438D02*
X64833333Y-78800057D01*
X65214286Y-79657200D02*
X65357143Y-79704819D01*
X65357143Y-79704819D02*
X65595238Y-79704819D01*
X65595238Y-79704819D02*
X65690476Y-79657200D01*
X65690476Y-79657200D02*
X65738095Y-79609580D01*
X65738095Y-79609580D02*
X65785714Y-79514342D01*
X65785714Y-79514342D02*
X65785714Y-79419104D01*
X65785714Y-79419104D02*
X65738095Y-79323866D01*
X65738095Y-79323866D02*
X65690476Y-79276247D01*
X65690476Y-79276247D02*
X65595238Y-79228628D01*
X65595238Y-79228628D02*
X65404762Y-79181009D01*
X65404762Y-79181009D02*
X65309524Y-79133390D01*
X65309524Y-79133390D02*
X65261905Y-79085771D01*
X65261905Y-79085771D02*
X65214286Y-78990533D01*
X65214286Y-78990533D02*
X65214286Y-78895295D01*
X65214286Y-78895295D02*
X65261905Y-78800057D01*
X65261905Y-78800057D02*
X65309524Y-78752438D01*
X65309524Y-78752438D02*
X65404762Y-78704819D01*
X65404762Y-78704819D02*
X65642857Y-78704819D01*
X65642857Y-78704819D02*
X65785714Y-78752438D01*
X64123810Y-78427200D02*
X65876191Y-78427200D01*
X68245180Y-75000000D02*
X69245180Y-75000000D01*
X69245180Y-75000000D02*
X69245180Y-75238095D01*
X69245180Y-75238095D02*
X69197561Y-75380952D01*
X69197561Y-75380952D02*
X69102323Y-75476190D01*
X69102323Y-75476190D02*
X69007085Y-75523809D01*
X69007085Y-75523809D02*
X68816609Y-75571428D01*
X68816609Y-75571428D02*
X68673752Y-75571428D01*
X68673752Y-75571428D02*
X68483276Y-75523809D01*
X68483276Y-75523809D02*
X68388038Y-75476190D01*
X68388038Y-75476190D02*
X68292800Y-75380952D01*
X68292800Y-75380952D02*
X68245180Y-75238095D01*
X68245180Y-75238095D02*
X68245180Y-75000000D01*
X68530895Y-75952381D02*
X68530895Y-76428571D01*
X68245180Y-75857143D02*
X69245180Y-76190476D01*
X69245180Y-76190476D02*
X68245180Y-76523809D01*
X69245180Y-76714286D02*
X69245180Y-77285714D01*
X68245180Y-77000000D02*
X69245180Y-77000000D01*
X68530895Y-77571429D02*
X68530895Y-78047619D01*
X68245180Y-77476191D02*
X69245180Y-77809524D01*
X69245180Y-77809524D02*
X68245180Y-78142857D01*
X81245180Y-76528572D02*
X82245180Y-76528572D01*
X82245180Y-76528572D02*
X81530895Y-76861905D01*
X81530895Y-76861905D02*
X82245180Y-77195238D01*
X82245180Y-77195238D02*
X81245180Y-77195238D01*
X82245180Y-77861905D02*
X82245180Y-78052381D01*
X82245180Y-78052381D02*
X82197561Y-78147619D01*
X82197561Y-78147619D02*
X82102323Y-78242857D01*
X82102323Y-78242857D02*
X81911847Y-78290476D01*
X81911847Y-78290476D02*
X81578514Y-78290476D01*
X81578514Y-78290476D02*
X81388038Y-78242857D01*
X81388038Y-78242857D02*
X81292800Y-78147619D01*
X81292800Y-78147619D02*
X81245180Y-78052381D01*
X81245180Y-78052381D02*
X81245180Y-77861905D01*
X81245180Y-77861905D02*
X81292800Y-77766667D01*
X81292800Y-77766667D02*
X81388038Y-77671429D01*
X81388038Y-77671429D02*
X81578514Y-77623810D01*
X81578514Y-77623810D02*
X81911847Y-77623810D01*
X81911847Y-77623810D02*
X82102323Y-77671429D01*
X82102323Y-77671429D02*
X82197561Y-77766667D01*
X82197561Y-77766667D02*
X82245180Y-77861905D01*
X81292800Y-78671429D02*
X81245180Y-78814286D01*
X81245180Y-78814286D02*
X81245180Y-79052381D01*
X81245180Y-79052381D02*
X81292800Y-79147619D01*
X81292800Y-79147619D02*
X81340419Y-79195238D01*
X81340419Y-79195238D02*
X81435657Y-79242857D01*
X81435657Y-79242857D02*
X81530895Y-79242857D01*
X81530895Y-79242857D02*
X81626133Y-79195238D01*
X81626133Y-79195238D02*
X81673752Y-79147619D01*
X81673752Y-79147619D02*
X81721371Y-79052381D01*
X81721371Y-79052381D02*
X81768990Y-78861905D01*
X81768990Y-78861905D02*
X81816609Y-78766667D01*
X81816609Y-78766667D02*
X81864228Y-78719048D01*
X81864228Y-78719048D02*
X81959466Y-78671429D01*
X81959466Y-78671429D02*
X82054704Y-78671429D01*
X82054704Y-78671429D02*
X82149942Y-78719048D01*
X82149942Y-78719048D02*
X82197561Y-78766667D01*
X82197561Y-78766667D02*
X82245180Y-78861905D01*
X82245180Y-78861905D02*
X82245180Y-79100000D01*
X82245180Y-79100000D02*
X82197561Y-79242857D01*
X81245180Y-79671429D02*
X82245180Y-79671429D01*
X82840419Y-77033333D02*
X82792800Y-76985714D01*
X82792800Y-76985714D02*
X82745180Y-76842857D01*
X82745180Y-76842857D02*
X82745180Y-76747619D01*
X82745180Y-76747619D02*
X82792800Y-76604762D01*
X82792800Y-76604762D02*
X82888038Y-76509524D01*
X82888038Y-76509524D02*
X82983276Y-76461905D01*
X82983276Y-76461905D02*
X83173752Y-76414286D01*
X83173752Y-76414286D02*
X83316609Y-76414286D01*
X83316609Y-76414286D02*
X83507085Y-76461905D01*
X83507085Y-76461905D02*
X83602323Y-76509524D01*
X83602323Y-76509524D02*
X83697561Y-76604762D01*
X83697561Y-76604762D02*
X83745180Y-76747619D01*
X83745180Y-76747619D02*
X83745180Y-76842857D01*
X83745180Y-76842857D02*
X83697561Y-76985714D01*
X83697561Y-76985714D02*
X83649942Y-77033333D01*
X82792800Y-77414286D02*
X82745180Y-77557143D01*
X82745180Y-77557143D02*
X82745180Y-77795238D01*
X82745180Y-77795238D02*
X82792800Y-77890476D01*
X82792800Y-77890476D02*
X82840419Y-77938095D01*
X82840419Y-77938095D02*
X82935657Y-77985714D01*
X82935657Y-77985714D02*
X83030895Y-77985714D01*
X83030895Y-77985714D02*
X83126133Y-77938095D01*
X83126133Y-77938095D02*
X83173752Y-77890476D01*
X83173752Y-77890476D02*
X83221371Y-77795238D01*
X83221371Y-77795238D02*
X83268990Y-77604762D01*
X83268990Y-77604762D02*
X83316609Y-77509524D01*
X83316609Y-77509524D02*
X83364228Y-77461905D01*
X83364228Y-77461905D02*
X83459466Y-77414286D01*
X83459466Y-77414286D02*
X83554704Y-77414286D01*
X83554704Y-77414286D02*
X83649942Y-77461905D01*
X83649942Y-77461905D02*
X83697561Y-77509524D01*
X83697561Y-77509524D02*
X83745180Y-77604762D01*
X83745180Y-77604762D02*
X83745180Y-77842857D01*
X83745180Y-77842857D02*
X83697561Y-77985714D01*
X84022800Y-76323810D02*
X84022800Y-78076191D01*
X54385714Y-51357200D02*
X54528571Y-51404819D01*
X54528571Y-51404819D02*
X54766666Y-51404819D01*
X54766666Y-51404819D02*
X54861904Y-51357200D01*
X54861904Y-51357200D02*
X54909523Y-51309580D01*
X54909523Y-51309580D02*
X54957142Y-51214342D01*
X54957142Y-51214342D02*
X54957142Y-51119104D01*
X54957142Y-51119104D02*
X54909523Y-51023866D01*
X54909523Y-51023866D02*
X54861904Y-50976247D01*
X54861904Y-50976247D02*
X54766666Y-50928628D01*
X54766666Y-50928628D02*
X54576190Y-50881009D01*
X54576190Y-50881009D02*
X54480952Y-50833390D01*
X54480952Y-50833390D02*
X54433333Y-50785771D01*
X54433333Y-50785771D02*
X54385714Y-50690533D01*
X54385714Y-50690533D02*
X54385714Y-50595295D01*
X54385714Y-50595295D02*
X54433333Y-50500057D01*
X54433333Y-50500057D02*
X54480952Y-50452438D01*
X54480952Y-50452438D02*
X54576190Y-50404819D01*
X54576190Y-50404819D02*
X54814285Y-50404819D01*
X54814285Y-50404819D02*
X54957142Y-50452438D01*
X55385714Y-51404819D02*
X55385714Y-50404819D01*
X55385714Y-50404819D02*
X55623809Y-50404819D01*
X55623809Y-50404819D02*
X55766666Y-50452438D01*
X55766666Y-50452438D02*
X55861904Y-50547676D01*
X55861904Y-50547676D02*
X55909523Y-50642914D01*
X55909523Y-50642914D02*
X55957142Y-50833390D01*
X55957142Y-50833390D02*
X55957142Y-50976247D01*
X55957142Y-50976247D02*
X55909523Y-51166723D01*
X55909523Y-51166723D02*
X55861904Y-51261961D01*
X55861904Y-51261961D02*
X55766666Y-51357200D01*
X55766666Y-51357200D02*
X55623809Y-51404819D01*
X55623809Y-51404819D02*
X55385714Y-51404819D01*
X56338095Y-51119104D02*
X56814285Y-51119104D01*
X56242857Y-51404819D02*
X56576190Y-50404819D01*
X56576190Y-50404819D02*
X56909523Y-51404819D01*
X54042800Y-54259524D02*
X53995180Y-54402381D01*
X53995180Y-54402381D02*
X53995180Y-54640476D01*
X53995180Y-54640476D02*
X54042800Y-54735714D01*
X54042800Y-54735714D02*
X54090419Y-54783333D01*
X54090419Y-54783333D02*
X54185657Y-54830952D01*
X54185657Y-54830952D02*
X54280895Y-54830952D01*
X54280895Y-54830952D02*
X54376133Y-54783333D01*
X54376133Y-54783333D02*
X54423752Y-54735714D01*
X54423752Y-54735714D02*
X54471371Y-54640476D01*
X54471371Y-54640476D02*
X54518990Y-54450000D01*
X54518990Y-54450000D02*
X54566609Y-54354762D01*
X54566609Y-54354762D02*
X54614228Y-54307143D01*
X54614228Y-54307143D02*
X54709466Y-54259524D01*
X54709466Y-54259524D02*
X54804704Y-54259524D01*
X54804704Y-54259524D02*
X54899942Y-54307143D01*
X54899942Y-54307143D02*
X54947561Y-54354762D01*
X54947561Y-54354762D02*
X54995180Y-54450000D01*
X54995180Y-54450000D02*
X54995180Y-54688095D01*
X54995180Y-54688095D02*
X54947561Y-54830952D01*
X54090419Y-55830952D02*
X54042800Y-55783333D01*
X54042800Y-55783333D02*
X53995180Y-55640476D01*
X53995180Y-55640476D02*
X53995180Y-55545238D01*
X53995180Y-55545238D02*
X54042800Y-55402381D01*
X54042800Y-55402381D02*
X54138038Y-55307143D01*
X54138038Y-55307143D02*
X54233276Y-55259524D01*
X54233276Y-55259524D02*
X54423752Y-55211905D01*
X54423752Y-55211905D02*
X54566609Y-55211905D01*
X54566609Y-55211905D02*
X54757085Y-55259524D01*
X54757085Y-55259524D02*
X54852323Y-55307143D01*
X54852323Y-55307143D02*
X54947561Y-55402381D01*
X54947561Y-55402381D02*
X54995180Y-55545238D01*
X54995180Y-55545238D02*
X54995180Y-55640476D01*
X54995180Y-55640476D02*
X54947561Y-55783333D01*
X54947561Y-55783333D02*
X54899942Y-55830952D01*
X53995180Y-56735714D02*
X53995180Y-56259524D01*
X53995180Y-56259524D02*
X54995180Y-56259524D01*
X86738095Y-49754819D02*
X86738095Y-48754819D01*
X86738095Y-49231009D02*
X87309523Y-49231009D01*
X87309523Y-49754819D02*
X87309523Y-48754819D01*
X87738095Y-48850057D02*
X87785714Y-48802438D01*
X87785714Y-48802438D02*
X87880952Y-48754819D01*
X87880952Y-48754819D02*
X88119047Y-48754819D01*
X88119047Y-48754819D02*
X88214285Y-48802438D01*
X88214285Y-48802438D02*
X88261904Y-48850057D01*
X88261904Y-48850057D02*
X88309523Y-48945295D01*
X88309523Y-48945295D02*
X88309523Y-49040533D01*
X88309523Y-49040533D02*
X88261904Y-49183390D01*
X88261904Y-49183390D02*
X87690476Y-49754819D01*
X87690476Y-49754819D02*
X88309523Y-49754819D01*
X55345180Y-57338095D02*
X55345180Y-57909523D01*
X54345180Y-57623809D02*
X55345180Y-57623809D01*
X55345180Y-58147619D02*
X54345180Y-58814285D01*
X55345180Y-58814285D02*
X54345180Y-58147619D01*
X68345180Y-69795238D02*
X69345180Y-69795238D01*
X68345180Y-70271428D02*
X69345180Y-70271428D01*
X69345180Y-70271428D02*
X68345180Y-70842856D01*
X68345180Y-70842856D02*
X69345180Y-70842856D01*
X69345180Y-71176190D02*
X69345180Y-71747618D01*
X68345180Y-71461904D02*
X69345180Y-71461904D01*
X58240419Y-94233333D02*
X58192800Y-94185714D01*
X58192800Y-94185714D02*
X58145180Y-94042857D01*
X58145180Y-94042857D02*
X58145180Y-93947619D01*
X58145180Y-93947619D02*
X58192800Y-93804762D01*
X58192800Y-93804762D02*
X58288038Y-93709524D01*
X58288038Y-93709524D02*
X58383276Y-93661905D01*
X58383276Y-93661905D02*
X58573752Y-93614286D01*
X58573752Y-93614286D02*
X58716609Y-93614286D01*
X58716609Y-93614286D02*
X58907085Y-93661905D01*
X58907085Y-93661905D02*
X59002323Y-93709524D01*
X59002323Y-93709524D02*
X59097561Y-93804762D01*
X59097561Y-93804762D02*
X59145180Y-93947619D01*
X59145180Y-93947619D02*
X59145180Y-94042857D01*
X59145180Y-94042857D02*
X59097561Y-94185714D01*
X59097561Y-94185714D02*
X59049942Y-94233333D01*
X58192800Y-94614286D02*
X58145180Y-94757143D01*
X58145180Y-94757143D02*
X58145180Y-94995238D01*
X58145180Y-94995238D02*
X58192800Y-95090476D01*
X58192800Y-95090476D02*
X58240419Y-95138095D01*
X58240419Y-95138095D02*
X58335657Y-95185714D01*
X58335657Y-95185714D02*
X58430895Y-95185714D01*
X58430895Y-95185714D02*
X58526133Y-95138095D01*
X58526133Y-95138095D02*
X58573752Y-95090476D01*
X58573752Y-95090476D02*
X58621371Y-94995238D01*
X58621371Y-94995238D02*
X58668990Y-94804762D01*
X58668990Y-94804762D02*
X58716609Y-94709524D01*
X58716609Y-94709524D02*
X58764228Y-94661905D01*
X58764228Y-94661905D02*
X58859466Y-94614286D01*
X58859466Y-94614286D02*
X58954704Y-94614286D01*
X58954704Y-94614286D02*
X59049942Y-94661905D01*
X59049942Y-94661905D02*
X59097561Y-94709524D01*
X59097561Y-94709524D02*
X59145180Y-94804762D01*
X59145180Y-94804762D02*
X59145180Y-95042857D01*
X59145180Y-95042857D02*
X59097561Y-95185714D01*
X59422800Y-93523810D02*
X59422800Y-95276191D01*
X84392800Y-76314286D02*
X84345180Y-76457143D01*
X84345180Y-76457143D02*
X84345180Y-76695238D01*
X84345180Y-76695238D02*
X84392800Y-76790476D01*
X84392800Y-76790476D02*
X84440419Y-76838095D01*
X84440419Y-76838095D02*
X84535657Y-76885714D01*
X84535657Y-76885714D02*
X84630895Y-76885714D01*
X84630895Y-76885714D02*
X84726133Y-76838095D01*
X84726133Y-76838095D02*
X84773752Y-76790476D01*
X84773752Y-76790476D02*
X84821371Y-76695238D01*
X84821371Y-76695238D02*
X84868990Y-76504762D01*
X84868990Y-76504762D02*
X84916609Y-76409524D01*
X84916609Y-76409524D02*
X84964228Y-76361905D01*
X84964228Y-76361905D02*
X85059466Y-76314286D01*
X85059466Y-76314286D02*
X85154704Y-76314286D01*
X85154704Y-76314286D02*
X85249942Y-76361905D01*
X85249942Y-76361905D02*
X85297561Y-76409524D01*
X85297561Y-76409524D02*
X85345180Y-76504762D01*
X85345180Y-76504762D02*
X85345180Y-76742857D01*
X85345180Y-76742857D02*
X85297561Y-76885714D01*
X84440419Y-77885714D02*
X84392800Y-77838095D01*
X84392800Y-77838095D02*
X84345180Y-77695238D01*
X84345180Y-77695238D02*
X84345180Y-77600000D01*
X84345180Y-77600000D02*
X84392800Y-77457143D01*
X84392800Y-77457143D02*
X84488038Y-77361905D01*
X84488038Y-77361905D02*
X84583276Y-77314286D01*
X84583276Y-77314286D02*
X84773752Y-77266667D01*
X84773752Y-77266667D02*
X84916609Y-77266667D01*
X84916609Y-77266667D02*
X85107085Y-77314286D01*
X85107085Y-77314286D02*
X85202323Y-77361905D01*
X85202323Y-77361905D02*
X85297561Y-77457143D01*
X85297561Y-77457143D02*
X85345180Y-77600000D01*
X85345180Y-77600000D02*
X85345180Y-77695238D01*
X85345180Y-77695238D02*
X85297561Y-77838095D01*
X85297561Y-77838095D02*
X85249942Y-77885714D01*
X84345180Y-78314286D02*
X85345180Y-78314286D01*
X84345180Y-78885714D02*
X84916609Y-78457143D01*
X85345180Y-78885714D02*
X84773752Y-78314286D01*
X75995180Y-76461905D02*
X75995180Y-77033333D01*
X74995180Y-76747619D02*
X75995180Y-76747619D01*
X75995180Y-77271429D02*
X74995180Y-77938095D01*
X75995180Y-77938095D02*
X74995180Y-77271429D01*
X75518990Y-78319048D02*
X75518990Y-78652381D01*
X74995180Y-78795238D02*
X74995180Y-78319048D01*
X74995180Y-78319048D02*
X75995180Y-78319048D01*
X75995180Y-78319048D02*
X75995180Y-78795238D01*
X74995180Y-79223810D02*
X75995180Y-79223810D01*
X75995180Y-79223810D02*
X74995180Y-79795238D01*
X74995180Y-79795238D02*
X75995180Y-79795238D01*
X54245180Y-61333333D02*
X54721371Y-61000000D01*
X54245180Y-60761905D02*
X55245180Y-60761905D01*
X55245180Y-60761905D02*
X55245180Y-61142857D01*
X55245180Y-61142857D02*
X55197561Y-61238095D01*
X55197561Y-61238095D02*
X55149942Y-61285714D01*
X55149942Y-61285714D02*
X55054704Y-61333333D01*
X55054704Y-61333333D02*
X54911847Y-61333333D01*
X54911847Y-61333333D02*
X54816609Y-61285714D01*
X54816609Y-61285714D02*
X54768990Y-61238095D01*
X54768990Y-61238095D02*
X54721371Y-61142857D01*
X54721371Y-61142857D02*
X54721371Y-60761905D01*
X55245180Y-61666667D02*
X54245180Y-62333333D01*
X55245180Y-62333333D02*
X54245180Y-61666667D01*
X55814286Y-66504819D02*
X56385714Y-66504819D01*
X56100000Y-67504819D02*
X56100000Y-66504819D01*
X56719048Y-67504819D02*
X56719048Y-66504819D01*
X56719048Y-66504819D02*
X57100000Y-66504819D01*
X57100000Y-66504819D02*
X57195238Y-66552438D01*
X57195238Y-66552438D02*
X57242857Y-66600057D01*
X57242857Y-66600057D02*
X57290476Y-66695295D01*
X57290476Y-66695295D02*
X57290476Y-66838152D01*
X57290476Y-66838152D02*
X57242857Y-66933390D01*
X57242857Y-66933390D02*
X57195238Y-66981009D01*
X57195238Y-66981009D02*
X57100000Y-67028628D01*
X57100000Y-67028628D02*
X56719048Y-67028628D01*
X88645180Y-68000000D02*
X89645180Y-68000000D01*
X89645180Y-68666666D02*
X89645180Y-68857142D01*
X89645180Y-68857142D02*
X89597561Y-68952380D01*
X89597561Y-68952380D02*
X89502323Y-69047618D01*
X89502323Y-69047618D02*
X89311847Y-69095237D01*
X89311847Y-69095237D02*
X88978514Y-69095237D01*
X88978514Y-69095237D02*
X88788038Y-69047618D01*
X88788038Y-69047618D02*
X88692800Y-68952380D01*
X88692800Y-68952380D02*
X88645180Y-68857142D01*
X88645180Y-68857142D02*
X88645180Y-68666666D01*
X88645180Y-68666666D02*
X88692800Y-68571428D01*
X88692800Y-68571428D02*
X88788038Y-68476190D01*
X88788038Y-68476190D02*
X88978514Y-68428571D01*
X88978514Y-68428571D02*
X89311847Y-68428571D01*
X89311847Y-68428571D02*
X89502323Y-68476190D01*
X89502323Y-68476190D02*
X89597561Y-68571428D01*
X89597561Y-68571428D02*
X89645180Y-68666666D01*
X88645180Y-70047618D02*
X88645180Y-69476190D01*
X88645180Y-69761904D02*
X89645180Y-69761904D01*
X89645180Y-69761904D02*
X89502323Y-69666666D01*
X89502323Y-69666666D02*
X89407085Y-69571428D01*
X89407085Y-69571428D02*
X89359466Y-69476190D01*
X76695180Y-77057142D02*
X77171371Y-76723809D01*
X76695180Y-76485714D02*
X77695180Y-76485714D01*
X77695180Y-76485714D02*
X77695180Y-76866666D01*
X77695180Y-76866666D02*
X77647561Y-76961904D01*
X77647561Y-76961904D02*
X77599942Y-77009523D01*
X77599942Y-77009523D02*
X77504704Y-77057142D01*
X77504704Y-77057142D02*
X77361847Y-77057142D01*
X77361847Y-77057142D02*
X77266609Y-77009523D01*
X77266609Y-77009523D02*
X77218990Y-76961904D01*
X77218990Y-76961904D02*
X77171371Y-76866666D01*
X77171371Y-76866666D02*
X77171371Y-76485714D01*
X77695180Y-77390476D02*
X76695180Y-78057142D01*
X77695180Y-78057142D02*
X76695180Y-77390476D01*
X77218990Y-78438095D02*
X77218990Y-78771428D01*
X76695180Y-78914285D02*
X76695180Y-78438095D01*
X76695180Y-78438095D02*
X77695180Y-78438095D01*
X77695180Y-78438095D02*
X77695180Y-78914285D01*
X76695180Y-79342857D02*
X77695180Y-79342857D01*
X77695180Y-79342857D02*
X76695180Y-79914285D01*
X76695180Y-79914285D02*
X77695180Y-79914285D01*
X78818990Y-76842857D02*
X78771371Y-76985714D01*
X78771371Y-76985714D02*
X78723752Y-77033333D01*
X78723752Y-77033333D02*
X78628514Y-77080952D01*
X78628514Y-77080952D02*
X78485657Y-77080952D01*
X78485657Y-77080952D02*
X78390419Y-77033333D01*
X78390419Y-77033333D02*
X78342800Y-76985714D01*
X78342800Y-76985714D02*
X78295180Y-76890476D01*
X78295180Y-76890476D02*
X78295180Y-76509524D01*
X78295180Y-76509524D02*
X79295180Y-76509524D01*
X79295180Y-76509524D02*
X79295180Y-76842857D01*
X79295180Y-76842857D02*
X79247561Y-76938095D01*
X79247561Y-76938095D02*
X79199942Y-76985714D01*
X79199942Y-76985714D02*
X79104704Y-77033333D01*
X79104704Y-77033333D02*
X79009466Y-77033333D01*
X79009466Y-77033333D02*
X78914228Y-76985714D01*
X78914228Y-76985714D02*
X78866609Y-76938095D01*
X78866609Y-76938095D02*
X78818990Y-76842857D01*
X78818990Y-76842857D02*
X78818990Y-76509524D01*
X79295180Y-77509524D02*
X78485657Y-77509524D01*
X78485657Y-77509524D02*
X78390419Y-77557143D01*
X78390419Y-77557143D02*
X78342800Y-77604762D01*
X78342800Y-77604762D02*
X78295180Y-77700000D01*
X78295180Y-77700000D02*
X78295180Y-77890476D01*
X78295180Y-77890476D02*
X78342800Y-77985714D01*
X78342800Y-77985714D02*
X78390419Y-78033333D01*
X78390419Y-78033333D02*
X78485657Y-78080952D01*
X78485657Y-78080952D02*
X79295180Y-78080952D01*
X78342800Y-78509524D02*
X78295180Y-78652381D01*
X78295180Y-78652381D02*
X78295180Y-78890476D01*
X78295180Y-78890476D02*
X78342800Y-78985714D01*
X78342800Y-78985714D02*
X78390419Y-79033333D01*
X78390419Y-79033333D02*
X78485657Y-79080952D01*
X78485657Y-79080952D02*
X78580895Y-79080952D01*
X78580895Y-79080952D02*
X78676133Y-79033333D01*
X78676133Y-79033333D02*
X78723752Y-78985714D01*
X78723752Y-78985714D02*
X78771371Y-78890476D01*
X78771371Y-78890476D02*
X78818990Y-78700000D01*
X78818990Y-78700000D02*
X78866609Y-78604762D01*
X78866609Y-78604762D02*
X78914228Y-78557143D01*
X78914228Y-78557143D02*
X79009466Y-78509524D01*
X79009466Y-78509524D02*
X79104704Y-78509524D01*
X79104704Y-78509524D02*
X79199942Y-78557143D01*
X79199942Y-78557143D02*
X79247561Y-78604762D01*
X79247561Y-78604762D02*
X79295180Y-78700000D01*
X79295180Y-78700000D02*
X79295180Y-78938095D01*
X79295180Y-78938095D02*
X79247561Y-79080952D01*
X78771371Y-79700000D02*
X78295180Y-79700000D01*
X79295180Y-79366667D02*
X78771371Y-79700000D01*
X78771371Y-79700000D02*
X79295180Y-80033333D01*
X86738095Y-126154819D02*
X86738095Y-125154819D01*
X86738095Y-125631009D02*
X87309523Y-125631009D01*
X87309523Y-126154819D02*
X87309523Y-125154819D01*
X87690476Y-125154819D02*
X88309523Y-125154819D01*
X88309523Y-125154819D02*
X87976190Y-125535771D01*
X87976190Y-125535771D02*
X88119047Y-125535771D01*
X88119047Y-125535771D02*
X88214285Y-125583390D01*
X88214285Y-125583390D02*
X88261904Y-125631009D01*
X88261904Y-125631009D02*
X88309523Y-125726247D01*
X88309523Y-125726247D02*
X88309523Y-125964342D01*
X88309523Y-125964342D02*
X88261904Y-126059580D01*
X88261904Y-126059580D02*
X88214285Y-126107200D01*
X88214285Y-126107200D02*
X88119047Y-126154819D01*
X88119047Y-126154819D02*
X87833333Y-126154819D01*
X87833333Y-126154819D02*
X87738095Y-126107200D01*
X87738095Y-126107200D02*
X87690476Y-126059580D01*
X79252380Y-59804819D02*
X78919047Y-59328628D01*
X78680952Y-59804819D02*
X78680952Y-58804819D01*
X78680952Y-58804819D02*
X79061904Y-58804819D01*
X79061904Y-58804819D02*
X79157142Y-58852438D01*
X79157142Y-58852438D02*
X79204761Y-58900057D01*
X79204761Y-58900057D02*
X79252380Y-58995295D01*
X79252380Y-58995295D02*
X79252380Y-59138152D01*
X79252380Y-59138152D02*
X79204761Y-59233390D01*
X79204761Y-59233390D02*
X79157142Y-59281009D01*
X79157142Y-59281009D02*
X79061904Y-59328628D01*
X79061904Y-59328628D02*
X78680952Y-59328628D01*
X79633333Y-59757200D02*
X79776190Y-59804819D01*
X79776190Y-59804819D02*
X80014285Y-59804819D01*
X80014285Y-59804819D02*
X80109523Y-59757200D01*
X80109523Y-59757200D02*
X80157142Y-59709580D01*
X80157142Y-59709580D02*
X80204761Y-59614342D01*
X80204761Y-59614342D02*
X80204761Y-59519104D01*
X80204761Y-59519104D02*
X80157142Y-59423866D01*
X80157142Y-59423866D02*
X80109523Y-59376247D01*
X80109523Y-59376247D02*
X80014285Y-59328628D01*
X80014285Y-59328628D02*
X79823809Y-59281009D01*
X79823809Y-59281009D02*
X79728571Y-59233390D01*
X79728571Y-59233390D02*
X79680952Y-59185771D01*
X79680952Y-59185771D02*
X79633333Y-59090533D01*
X79633333Y-59090533D02*
X79633333Y-58995295D01*
X79633333Y-58995295D02*
X79680952Y-58900057D01*
X79680952Y-58900057D02*
X79728571Y-58852438D01*
X79728571Y-58852438D02*
X79823809Y-58804819D01*
X79823809Y-58804819D02*
X80061904Y-58804819D01*
X80061904Y-58804819D02*
X80204761Y-58852438D01*
X80490476Y-58804819D02*
X81061904Y-58804819D01*
X80776190Y-59804819D02*
X80776190Y-58804819D01*
X78542857Y-58527200D02*
X81057143Y-58527200D01*
X60645180Y-106161905D02*
X60645180Y-106780952D01*
X60645180Y-106780952D02*
X60264228Y-106447619D01*
X60264228Y-106447619D02*
X60264228Y-106590476D01*
X60264228Y-106590476D02*
X60216609Y-106685714D01*
X60216609Y-106685714D02*
X60168990Y-106733333D01*
X60168990Y-106733333D02*
X60073752Y-106780952D01*
X60073752Y-106780952D02*
X59835657Y-106780952D01*
X59835657Y-106780952D02*
X59740419Y-106733333D01*
X59740419Y-106733333D02*
X59692800Y-106685714D01*
X59692800Y-106685714D02*
X59645180Y-106590476D01*
X59645180Y-106590476D02*
X59645180Y-106304762D01*
X59645180Y-106304762D02*
X59692800Y-106209524D01*
X59692800Y-106209524D02*
X59740419Y-106161905D01*
X60645180Y-107066667D02*
X59645180Y-107400000D01*
X59645180Y-107400000D02*
X60645180Y-107733333D01*
X60645180Y-107971429D02*
X60645180Y-108590476D01*
X60645180Y-108590476D02*
X60264228Y-108257143D01*
X60264228Y-108257143D02*
X60264228Y-108400000D01*
X60264228Y-108400000D02*
X60216609Y-108495238D01*
X60216609Y-108495238D02*
X60168990Y-108542857D01*
X60168990Y-108542857D02*
X60073752Y-108590476D01*
X60073752Y-108590476D02*
X59835657Y-108590476D01*
X59835657Y-108590476D02*
X59740419Y-108542857D01*
X59740419Y-108542857D02*
X59692800Y-108495238D01*
X59692800Y-108495238D02*
X59645180Y-108400000D01*
X59645180Y-108400000D02*
X59645180Y-108114286D01*
X59645180Y-108114286D02*
X59692800Y-108019048D01*
X59692800Y-108019048D02*
X59740419Y-107971429D01*
X88645180Y-64950000D02*
X89645180Y-64950000D01*
X89645180Y-65616666D02*
X89645180Y-65807142D01*
X89645180Y-65807142D02*
X89597561Y-65902380D01*
X89597561Y-65902380D02*
X89502323Y-65997618D01*
X89502323Y-65997618D02*
X89311847Y-66045237D01*
X89311847Y-66045237D02*
X88978514Y-66045237D01*
X88978514Y-66045237D02*
X88788038Y-65997618D01*
X88788038Y-65997618D02*
X88692800Y-65902380D01*
X88692800Y-65902380D02*
X88645180Y-65807142D01*
X88645180Y-65807142D02*
X88645180Y-65616666D01*
X88645180Y-65616666D02*
X88692800Y-65521428D01*
X88692800Y-65521428D02*
X88788038Y-65426190D01*
X88788038Y-65426190D02*
X88978514Y-65378571D01*
X88978514Y-65378571D02*
X89311847Y-65378571D01*
X89311847Y-65378571D02*
X89502323Y-65426190D01*
X89502323Y-65426190D02*
X89597561Y-65521428D01*
X89597561Y-65521428D02*
X89645180Y-65616666D01*
X89549942Y-66426190D02*
X89597561Y-66473809D01*
X89597561Y-66473809D02*
X89645180Y-66569047D01*
X89645180Y-66569047D02*
X89645180Y-66807142D01*
X89645180Y-66807142D02*
X89597561Y-66902380D01*
X89597561Y-66902380D02*
X89549942Y-66949999D01*
X89549942Y-66949999D02*
X89454704Y-66997618D01*
X89454704Y-66997618D02*
X89359466Y-66997618D01*
X89359466Y-66997618D02*
X89216609Y-66949999D01*
X89216609Y-66949999D02*
X88645180Y-66378571D01*
X88645180Y-66378571D02*
X88645180Y-66997618D01*
X61140419Y-75604761D02*
X61092800Y-75557142D01*
X61092800Y-75557142D02*
X61045180Y-75414285D01*
X61045180Y-75414285D02*
X61045180Y-75319047D01*
X61045180Y-75319047D02*
X61092800Y-75176190D01*
X61092800Y-75176190D02*
X61188038Y-75080952D01*
X61188038Y-75080952D02*
X61283276Y-75033333D01*
X61283276Y-75033333D02*
X61473752Y-74985714D01*
X61473752Y-74985714D02*
X61616609Y-74985714D01*
X61616609Y-74985714D02*
X61807085Y-75033333D01*
X61807085Y-75033333D02*
X61902323Y-75080952D01*
X61902323Y-75080952D02*
X61997561Y-75176190D01*
X61997561Y-75176190D02*
X62045180Y-75319047D01*
X62045180Y-75319047D02*
X62045180Y-75414285D01*
X62045180Y-75414285D02*
X61997561Y-75557142D01*
X61997561Y-75557142D02*
X61949942Y-75604761D01*
X61045180Y-76509523D02*
X61045180Y-76033333D01*
X61045180Y-76033333D02*
X62045180Y-76033333D01*
X61045180Y-76842857D02*
X62045180Y-76842857D01*
X61045180Y-77414285D02*
X61616609Y-76985714D01*
X62045180Y-77414285D02*
X61473752Y-76842857D01*
D13*
%TO.C,J10*%
X83050000Y-106000000D02*
X89950000Y-106000000D01*
X83050000Y-113000000D02*
X83050000Y-106000000D01*
X89950000Y-106000000D02*
X89950000Y-113000000D01*
X89950000Y-113000000D02*
X83050000Y-113000000D01*
D12*
X86600001Y-113500000D02*
G75*
G02*
X86399999Y-113500000I-100001J0D01*
G01*
X86399999Y-113500000D02*
G75*
G02*
X86600001Y-113500000I100001J0D01*
G01*
D14*
%TO.C,R45*%
X72237258Y-87477500D02*
X71762742Y-87477500D01*
X72237258Y-88522500D02*
X71762742Y-88522500D01*
%TO.C,R18*%
X67727064Y-110765000D02*
X67272936Y-110765000D01*
X67727064Y-112235000D02*
X67272936Y-112235000D01*
%TO.C,U13*%
D11*
X74025000Y-90000000D02*
G75*
G02*
X73775000Y-90000000I-125000J0D01*
G01*
X73775000Y-90000000D02*
G75*
G02*
X74025000Y-90000000I125000J0D01*
G01*
D12*
%TO.C,J14*%
X78100000Y-54650000D02*
G75*
G02*
X77900000Y-54650000I-100000J0D01*
G01*
X77900000Y-54650000D02*
G75*
G02*
X78100000Y-54650000I100000J0D01*
G01*
D15*
X82000000Y-55250000D02*
X74000000Y-55250000D01*
X74000000Y-40250001D01*
X82000000Y-40250001D01*
X82000000Y-55250000D01*
D14*
%TO.C,J5*%
X76740001Y-108540000D02*
X76740001Y-117260000D01*
X78040001Y-106840000D02*
X76740001Y-108540000D01*
X80860001Y-106840000D02*
X78040001Y-106840000D01*
X80860001Y-106840000D02*
X82160001Y-108540000D01*
X82160001Y-108540000D02*
X82160001Y-117260000D01*
X82160001Y-117260000D02*
X76740001Y-117260000D01*
%TO.C,C26*%
X78609419Y-60040000D02*
X78890581Y-60040000D01*
X78609419Y-61060000D02*
X78890581Y-61060000D01*
%TO.C,R31*%
X71762742Y-93577500D02*
X72237258Y-93577500D01*
X71762742Y-94622500D02*
X72237258Y-94622500D01*
%TO.C,R37*%
X72237258Y-95327500D02*
X71762742Y-95327500D01*
X72237258Y-96372500D02*
X71762742Y-96372500D01*
%TO.C,C34*%
X61490000Y-106640581D02*
X61490000Y-106359419D01*
X62510000Y-106640581D02*
X62510000Y-106359419D01*
D13*
%TO.C,J2*%
X70000000Y-118050000D02*
X77000000Y-118050000D01*
X70000000Y-124950000D02*
X70000000Y-118050000D01*
X77000000Y-118050000D02*
X77000000Y-124950000D01*
X77000000Y-124950000D02*
X70000000Y-124950000D01*
D12*
X69600001Y-121500000D02*
G75*
G02*
X69399999Y-121500000I-100001J0D01*
G01*
X69399999Y-121500000D02*
G75*
G02*
X69600001Y-121500000I100001J0D01*
G01*
D14*
%TO.C,C5*%
X73490000Y-64540581D02*
X73490000Y-64259419D01*
X74510000Y-64540581D02*
X74510000Y-64259419D01*
D16*
%TO.C,U2*%
X63793500Y-72293500D02*
X63793500Y-72475771D01*
X63793500Y-74524229D02*
X63793500Y-74706500D01*
X66206500Y-72475771D02*
X66206500Y-72293500D01*
X66206500Y-74706500D02*
X66206500Y-74524229D01*
D11*
X64325000Y-75000000D02*
G75*
G02*
X64075000Y-75000000I-125000J0D01*
G01*
X64075000Y-75000000D02*
G75*
G02*
X64325000Y-75000000I125000J0D01*
G01*
D17*
G36*
X64440499Y-72268100D02*
G01*
X64059499Y-72268100D01*
X64059499Y-72014100D01*
X64440499Y-72014100D01*
X64440499Y-72268100D01*
G37*
D14*
%TO.C,R34*%
X75287258Y-96977500D02*
X74812742Y-96977500D01*
X75287258Y-98022500D02*
X74812742Y-98022500D01*
%TO.C,R44*%
X75237258Y-87477499D02*
X74762742Y-87477499D01*
X75237258Y-88522499D02*
X74762742Y-88522499D01*
%TO.C,R55*%
X54027500Y-79612742D02*
X54027500Y-80087258D01*
X55072500Y-79612742D02*
X55072500Y-80087258D01*
%TO.C,C33*%
X61640580Y-66490000D02*
X61359418Y-66490000D01*
X61640580Y-67510000D02*
X61359418Y-67510000D01*
%TO.C,LED_2*%
X50350000Y-81800000D02*
X50350000Y-78100000D01*
X50850000Y-82300000D02*
X50350000Y-81800000D01*
X53550000Y-78100000D02*
X50350000Y-78100000D01*
X53550000Y-82300000D02*
X50850000Y-82300000D01*
X53550000Y-82300000D02*
X53550000Y-78100000D01*
%TO.C,R43*%
X72311258Y-104877500D02*
X71836742Y-104877500D01*
X72311258Y-105922500D02*
X71836742Y-105922500D01*
%TO.C,R35*%
X72312258Y-96977500D02*
X71837742Y-96977500D01*
X72312258Y-98022500D02*
X71837742Y-98022500D01*
%TO.C,C35*%
X65290000Y-106359419D02*
X65290000Y-106640581D01*
X66310000Y-106359419D02*
X66310000Y-106640581D01*
D16*
%TO.C,SW1*%
X69521200Y-67375900D02*
X69521200Y-72024100D01*
X70963341Y-72024100D02*
X71736659Y-72024100D01*
X71736659Y-67375900D02*
X70963341Y-67375900D01*
X73178800Y-72024100D02*
X73178800Y-67375900D01*
D11*
X72575000Y-66500000D02*
G75*
G02*
X72325000Y-66500000I-125000J0D01*
G01*
X72325000Y-66500000D02*
G75*
G02*
X72575000Y-66500000I125000J0D01*
G01*
D14*
%TO.C,R29*%
X53477500Y-64262743D02*
X53477500Y-64737259D01*
X54522500Y-64262743D02*
X54522500Y-64737259D01*
%TO.C,R41*%
X72237258Y-88977500D02*
X71762742Y-88977500D01*
X72237258Y-90022500D02*
X71762742Y-90022500D01*
%TO.C,C25*%
X84134419Y-59990000D02*
X84415581Y-59990000D01*
X84134419Y-61010000D02*
X84415581Y-61010000D01*
%TO.C,R56*%
X52062742Y-76477500D02*
X52537258Y-76477500D01*
X52062742Y-77522500D02*
X52537258Y-77522500D01*
%TO.C,J13*%
X50500000Y-73330000D02*
X50500000Y-72000000D01*
X51830000Y-73330000D02*
X50500000Y-73330000D01*
X53100001Y-70670000D02*
X60780000Y-70670000D01*
X53100001Y-73330000D02*
X53100001Y-70670000D01*
X53100001Y-73330000D02*
X60780000Y-73330000D01*
X60780000Y-73330000D02*
X60780000Y-70670000D01*
%TO.C,R53*%
X87737258Y-82277500D02*
X87262742Y-82277500D01*
X87737258Y-83322500D02*
X87262742Y-83322500D01*
D13*
%TO.C,J9*%
X83050000Y-92000000D02*
X89950000Y-92000000D01*
X83050000Y-99000000D02*
X83050000Y-92000000D01*
X89950000Y-92000000D02*
X89950000Y-99000000D01*
X89950000Y-99000000D02*
X83050000Y-99000000D01*
D12*
X86600001Y-99500000D02*
G75*
G02*
X86399999Y-99500000I-100001J0D01*
G01*
X86399999Y-99500000D02*
G75*
G02*
X86600001Y-99500000I100001J0D01*
G01*
D16*
%TO.C,SW4*%
X50871200Y-93125900D02*
X50871200Y-97774100D01*
X52313341Y-97774100D02*
X53086659Y-97774100D01*
X53086659Y-93125900D02*
X52313341Y-93125900D01*
X54528800Y-97774100D02*
X54528800Y-93125900D01*
D11*
X53925000Y-92250000D02*
G75*
G02*
X53675000Y-92250000I-125000J0D01*
G01*
X53675000Y-92250000D02*
G75*
G02*
X53925000Y-92250000I125000J0D01*
G01*
D14*
%TO.C,R15*%
X67727500Y-120012742D02*
X67727500Y-120487258D01*
X68772500Y-120012742D02*
X68772500Y-120487258D01*
%TO.C,R5*%
X59827500Y-96662742D02*
X59827500Y-97137258D01*
X60872500Y-96662742D02*
X60872500Y-97137258D01*
%TO.C,C27*%
X78659419Y-55090000D02*
X78940581Y-55090000D01*
X78659419Y-56110000D02*
X78940581Y-56110000D01*
%TO.C,R40*%
X72112258Y-101677500D02*
X71637742Y-101677500D01*
X72112258Y-102722500D02*
X71637742Y-102722500D01*
%TO.C,R10*%
X64237258Y-111977500D02*
X63762742Y-111977500D01*
X64237258Y-113022500D02*
X63762742Y-113022500D01*
%TO.C,C22*%
X66990000Y-73640581D02*
X66990000Y-73359419D01*
X68010000Y-73640581D02*
X68010000Y-73359419D01*
%TO.C,R36*%
X75237258Y-95327501D02*
X74762742Y-95327501D01*
X75237258Y-96372501D02*
X74762742Y-96372501D01*
%TO.C,R46*%
X56977500Y-115237258D02*
X56977500Y-114762742D01*
X58022500Y-115237258D02*
X58022500Y-114762742D01*
%TO.C,U8*%
D10*
X64875000Y-107100000D02*
G75*
G02*
X64725000Y-107100000I-75000J0D01*
G01*
X64725000Y-107100000D02*
G75*
G02*
X64875000Y-107100000I75000J0D01*
G01*
D14*
%TO.C,R32*%
X72287258Y-98527500D02*
X71812742Y-98527500D01*
X72287258Y-99572500D02*
X71812742Y-99572500D01*
%TO.C,U4*%
X59790000Y-98789999D02*
X59965000Y-98790000D01*
X59790000Y-99464999D02*
X59790000Y-98789999D01*
X59790000Y-101334999D02*
X59790000Y-101709999D01*
X62510000Y-98789999D02*
X62335000Y-98790000D01*
X62510000Y-99464999D02*
X62510000Y-98789999D01*
X62510000Y-101334999D02*
X62510000Y-102009999D01*
X62510000Y-102009999D02*
X62335000Y-102009998D01*
X59790000Y-102009999D02*
X59600000Y-102149998D01*
X59600000Y-101869998D01*
X59790000Y-102009999D01*
G36*
X59790000Y-102009999D02*
G01*
X59600000Y-102149998D01*
X59600000Y-101869998D01*
X59790000Y-102009999D01*
G37*
%TO.C,R16*%
X80962742Y-104927500D02*
X81437258Y-104927500D01*
X80962742Y-105972500D02*
X81437258Y-105972500D01*
%TO.C,R9*%
X77477500Y-57862742D02*
X77477500Y-58337258D01*
X78522500Y-57862742D02*
X78522500Y-58337258D01*
%TO.C,U12*%
D11*
X74025999Y-99470000D02*
G75*
G02*
X73775999Y-99470000I-125000J0D01*
G01*
X73775999Y-99470000D02*
G75*
G02*
X74025999Y-99470000I125000J0D01*
G01*
D14*
%TO.C,R3*%
X64912742Y-75477500D02*
X65387258Y-75477500D01*
X64912742Y-76522500D02*
X65387258Y-76522500D01*
%TO.C,R17*%
X77937742Y-104927500D02*
X78412258Y-104927500D01*
X77937742Y-105972500D02*
X78412258Y-105972500D01*
%TO.C,C24*%
X64159419Y-98140000D02*
X64440581Y-98140000D01*
X64159419Y-99160000D02*
X64440581Y-99160000D01*
D13*
%TO.C,J8*%
X83050000Y-99000000D02*
X89950000Y-99000000D01*
X83050000Y-106000000D02*
X83050000Y-99000000D01*
X89950000Y-99000000D02*
X89950000Y-106000000D01*
X89950000Y-106000000D02*
X83050000Y-106000000D01*
D12*
X86600001Y-106500000D02*
G75*
G02*
X86399999Y-106500000I-100001J0D01*
G01*
X86399999Y-106500000D02*
G75*
G02*
X86600001Y-106500000I100001J0D01*
G01*
D13*
%TO.C,J3*%
X77000000Y-118050000D02*
X84000000Y-118050000D01*
X77000000Y-124950000D02*
X77000000Y-118050000D01*
X84000000Y-118050000D02*
X84000000Y-124950000D01*
X84000000Y-124950000D02*
X77000000Y-124950000D01*
D12*
X76600001Y-121500000D02*
G75*
G02*
X76399999Y-121500000I-100001J0D01*
G01*
X76399999Y-121500000D02*
G75*
G02*
X76600001Y-121500000I100001J0D01*
G01*
D14*
%TO.C,LED_1*%
X86000000Y-77700000D02*
X86000000Y-81900000D01*
X86000000Y-77700000D02*
X88700000Y-77700000D01*
X86000000Y-81900000D02*
X89200000Y-81900000D01*
X88700000Y-77700000D02*
X89200000Y-78200000D01*
X89200000Y-78200000D02*
X89200000Y-81900000D01*
%TO.C,R28*%
X55477500Y-64262742D02*
X55477500Y-64737258D01*
X56522500Y-64262742D02*
X56522500Y-64737258D01*
%TO.C,U7*%
X64650000Y-108840001D02*
X63600000Y-108840000D01*
X64650000Y-111159999D02*
X63350000Y-111159999D01*
X63240000Y-108840000D02*
X62960000Y-108840000D01*
X63240000Y-108560000D01*
X63240000Y-108840000D01*
G36*
X63240000Y-108840000D02*
G01*
X62960000Y-108840000D01*
X63240000Y-108560000D01*
X63240000Y-108840000D01*
G37*
%TO.C,R19*%
X87265000Y-116227064D02*
X87265000Y-115772936D01*
X88735000Y-116227064D02*
X88735000Y-115772936D01*
D17*
%TO.C,G\u002A\u002A\u002A*%
G36*
X59068615Y-89094105D02*
G01*
X59101655Y-89129657D01*
X59105609Y-89136761D01*
X59121374Y-89180141D01*
X59117189Y-89216746D01*
X59092153Y-89253856D01*
X59090936Y-89255201D01*
X59049149Y-89286972D01*
X59003301Y-89297627D01*
X58957843Y-89286198D01*
X58955120Y-89284730D01*
X58918087Y-89252601D01*
X58899184Y-89211365D01*
X58899095Y-89167030D01*
X58918507Y-89125603D01*
X58935018Y-89108461D01*
X58980488Y-89082709D01*
X59026623Y-89078189D01*
X59068615Y-89094105D01*
G37*
G36*
X65257495Y-89276874D02*
G01*
X65290938Y-89301792D01*
X65317975Y-89342056D01*
X65325290Y-89384281D01*
X65315941Y-89424369D01*
X65292988Y-89458226D01*
X65259491Y-89481755D01*
X65218510Y-89490860D01*
X65173103Y-89481445D01*
X65161135Y-89475560D01*
X65129157Y-89447731D01*
X65107008Y-89409825D01*
X65101071Y-89382007D01*
X65110004Y-89343775D01*
X65133545Y-89306692D01*
X65164730Y-89281653D01*
X65165419Y-89281334D01*
X65214573Y-89267984D01*
X65257495Y-89276874D01*
G37*
G36*
X66982572Y-89491487D02*
G01*
X66981372Y-89511184D01*
X66973982Y-89521989D01*
X66954713Y-89527115D01*
X66917875Y-89529778D01*
X66914515Y-89529954D01*
X66846458Y-89533503D01*
X66843191Y-89714002D01*
X66839923Y-89894501D01*
X66805032Y-89894501D01*
X66770141Y-89894501D01*
X66766873Y-89714002D01*
X66763606Y-89533503D01*
X66701467Y-89529926D01*
X66665321Y-89527055D01*
X66646882Y-89521397D01*
X66640202Y-89509271D01*
X66639328Y-89491459D01*
X66639328Y-89456570D01*
X66810950Y-89456570D01*
X66982572Y-89456570D01*
X66982572Y-89491487D01*
G37*
G36*
X59607295Y-89505716D02*
G01*
X59777451Y-89671326D01*
X59738128Y-89711897D01*
X59712588Y-89735841D01*
X59692550Y-89750410D01*
X59686779Y-89752469D01*
X59672496Y-89744738D01*
X59647700Y-89724684D01*
X59623846Y-89702507D01*
X59572939Y-89652545D01*
X59433845Y-89791277D01*
X59387217Y-89837428D01*
X59346476Y-89877077D01*
X59314521Y-89907459D01*
X59294252Y-89925805D01*
X59288516Y-89930009D01*
X59277625Y-89922218D01*
X59255446Y-89901917D01*
X59230320Y-89877064D01*
X59178359Y-89824120D01*
X59319048Y-89681677D01*
X59459736Y-89539234D01*
X59403977Y-89482624D01*
X59348218Y-89426013D01*
X59392678Y-89383060D01*
X59437138Y-89340106D01*
X59607295Y-89505716D01*
G37*
G36*
X65868945Y-84860107D02*
G01*
X65886439Y-84895928D01*
X65896368Y-84923470D01*
X65896714Y-84936329D01*
X65883955Y-84944467D01*
X65854182Y-84961873D01*
X65811153Y-84986455D01*
X65758622Y-85016120D01*
X65700345Y-85048778D01*
X65640077Y-85082336D01*
X65581574Y-85114703D01*
X65528591Y-85143786D01*
X65484885Y-85167494D01*
X65454210Y-85183734D01*
X65440935Y-85190204D01*
X65425529Y-85184669D01*
X65404564Y-85157697D01*
X65386945Y-85126995D01*
X65349809Y-85057320D01*
X65512253Y-84968017D01*
X65575983Y-84932987D01*
X65639637Y-84898007D01*
X65697033Y-84866475D01*
X65741991Y-84841785D01*
X65753451Y-84835495D01*
X65832205Y-84792275D01*
X65868945Y-84860107D01*
G37*
G36*
X64284240Y-89930345D02*
G01*
X64302798Y-89957892D01*
X64330581Y-89999349D01*
X64365646Y-90051817D01*
X64406052Y-90112395D01*
X64424196Y-90139633D01*
X64567731Y-90355174D01*
X64517579Y-90389133D01*
X64485791Y-90410402D01*
X64460865Y-90426633D01*
X64453075Y-90431448D01*
X64441059Y-90424790D01*
X64417268Y-90397840D01*
X64381832Y-90350769D01*
X64334881Y-90283747D01*
X64296249Y-90226571D01*
X64254403Y-90163464D01*
X64217417Y-90106766D01*
X64187204Y-90059487D01*
X64165677Y-90024636D01*
X64154749Y-90005224D01*
X64153774Y-90002497D01*
X64162570Y-89991674D01*
X64184658Y-89973877D01*
X64213590Y-89953446D01*
X64242918Y-89934725D01*
X64266193Y-89922057D01*
X64276848Y-89919609D01*
X64284240Y-89930345D01*
G37*
G36*
X63665164Y-82959372D02*
G01*
X63699649Y-82971174D01*
X63732436Y-82985271D01*
X63756008Y-82998823D01*
X63763187Y-83007616D01*
X63759115Y-83021391D01*
X63747912Y-83053227D01*
X63731094Y-83099148D01*
X63710179Y-83155181D01*
X63686685Y-83217350D01*
X63662127Y-83281680D01*
X63638023Y-83344197D01*
X63615891Y-83400926D01*
X63597248Y-83447892D01*
X63583611Y-83481120D01*
X63576570Y-83496517D01*
X63565316Y-83502268D01*
X63541365Y-83498612D01*
X63500808Y-83484874D01*
X63493871Y-83482219D01*
X63457406Y-83466821D01*
X63432544Y-83453775D01*
X63424585Y-83445869D01*
X63424623Y-83445800D01*
X63430094Y-83432888D01*
X63442697Y-83401201D01*
X63461125Y-83354081D01*
X63484074Y-83294872D01*
X63510240Y-83226915D01*
X63520079Y-83201257D01*
X63547380Y-83130738D01*
X63572370Y-83067594D01*
X63593659Y-83015226D01*
X63609857Y-82977034D01*
X63619573Y-82956418D01*
X63621170Y-82954000D01*
X63636498Y-82952701D01*
X63665164Y-82959372D01*
G37*
G36*
X67234812Y-89586765D02*
G01*
X67258702Y-89636808D01*
X67279246Y-89677880D01*
X67294310Y-89705852D01*
X67301761Y-89716593D01*
X67301875Y-89716606D01*
X67309013Y-89706410D01*
X67323934Y-89678882D01*
X67344483Y-89638173D01*
X67368504Y-89588435D01*
X67369463Y-89586410D01*
X67430865Y-89456570D01*
X67490782Y-89456570D01*
X67550698Y-89456570D01*
X67550698Y-89675535D01*
X67550698Y-89894501D01*
X67509273Y-89894501D01*
X67467847Y-89894501D01*
X67467233Y-89737674D01*
X67466619Y-89580847D01*
X67396121Y-89719920D01*
X67364795Y-89780027D01*
X67341065Y-89821164D01*
X67323080Y-89846069D01*
X67308991Y-89857478D01*
X67302143Y-89858993D01*
X67289424Y-89853920D01*
X67273840Y-89836878D01*
X67253541Y-89805129D01*
X67226679Y-89755938D01*
X67208165Y-89719920D01*
X67137667Y-89580847D01*
X67137053Y-89737674D01*
X67136439Y-89894501D01*
X67095013Y-89894501D01*
X67053588Y-89894501D01*
X67053588Y-89675535D01*
X67053588Y-89456570D01*
X67113761Y-89456570D01*
X67173935Y-89456570D01*
X67234812Y-89586765D01*
G37*
G36*
X58675352Y-87999189D02*
G01*
X58689845Y-88026192D01*
X58707076Y-88064162D01*
X58724703Y-88107343D01*
X58740384Y-88149978D01*
X58751778Y-88186311D01*
X58756545Y-88210586D01*
X58756570Y-88211749D01*
X58746045Y-88217898D01*
X58717074Y-88230405D01*
X58673561Y-88247829D01*
X58619410Y-88268732D01*
X58558525Y-88291671D01*
X58494811Y-88315208D01*
X58432172Y-88337901D01*
X58374513Y-88358312D01*
X58325737Y-88375000D01*
X58289749Y-88386524D01*
X58270453Y-88391445D01*
X58269186Y-88391524D01*
X58261145Y-88381256D01*
X58248351Y-88354766D01*
X58236085Y-88324315D01*
X58222615Y-88284486D01*
X58218919Y-88261057D01*
X58224346Y-88249177D01*
X58225860Y-88248120D01*
X58241718Y-88241212D01*
X58275745Y-88228164D01*
X58323725Y-88210535D01*
X58381442Y-88189886D01*
X58416688Y-88177500D01*
X58484273Y-88153855D01*
X58532342Y-88135995D01*
X58563610Y-88121570D01*
X58580792Y-88108230D01*
X58586604Y-88093626D01*
X58583759Y-88075408D01*
X58574974Y-88051227D01*
X58571872Y-88043206D01*
X58573881Y-88026979D01*
X58595488Y-88011738D01*
X58606949Y-88006598D01*
X58638762Y-87995016D01*
X58663000Y-87989104D01*
X58665936Y-87988909D01*
X58675352Y-87999189D01*
G37*
G36*
X62737973Y-90661546D02*
G01*
X62747059Y-90722029D01*
X62755549Y-90780835D01*
X62762287Y-90829847D01*
X62765263Y-90853293D01*
X62772052Y-90889034D01*
X62781536Y-90913845D01*
X62787593Y-90920286D01*
X62805386Y-90921082D01*
X62840358Y-90918352D01*
X62886374Y-90912656D01*
X62910426Y-90909058D01*
X62957959Y-90902353D01*
X62995811Y-90898524D01*
X63018561Y-90898043D01*
X63022614Y-90899260D01*
X63026844Y-90914328D01*
X63032552Y-90944402D01*
X63035466Y-90962697D01*
X63039183Y-90997952D01*
X63036157Y-91015131D01*
X63027741Y-91019107D01*
X63010904Y-91020882D01*
X62975142Y-91025652D01*
X62924924Y-91032788D01*
X62864717Y-91041663D01*
X62830633Y-91046804D01*
X62768175Y-91055831D01*
X62714484Y-91062703D01*
X62673662Y-91066966D01*
X62649809Y-91068166D01*
X62645392Y-91067328D01*
X62642012Y-91053366D01*
X62636099Y-91020476D01*
X62628261Y-90972780D01*
X62619106Y-90914401D01*
X62609240Y-90849461D01*
X62599273Y-90782082D01*
X62589811Y-90716385D01*
X62581463Y-90656494D01*
X62574835Y-90606531D01*
X62570536Y-90570617D01*
X62569174Y-90552875D01*
X62569380Y-90551743D01*
X62582569Y-90548181D01*
X62612403Y-90543381D01*
X62645874Y-90539156D01*
X62717932Y-90531003D01*
X62737973Y-90661546D01*
G37*
G36*
X58834049Y-85152524D02*
G01*
X58860661Y-85163396D01*
X58881092Y-85172052D01*
X58914587Y-85188540D01*
X58929146Y-85202469D01*
X58929074Y-85216437D01*
X58921886Y-85234083D01*
X58907024Y-85269096D01*
X58886336Y-85317171D01*
X58861669Y-85374002D01*
X58847955Y-85405423D01*
X58813915Y-85480518D01*
X58787140Y-85533528D01*
X58767702Y-85564324D01*
X58756570Y-85572941D01*
X58740851Y-85567984D01*
X58707087Y-85554628D01*
X58658748Y-85534336D01*
X58599307Y-85508576D01*
X58532237Y-85478813D01*
X58511898Y-85469661D01*
X58443883Y-85438758D01*
X58383244Y-85410816D01*
X58333289Y-85387393D01*
X58297325Y-85370044D01*
X58278662Y-85360325D01*
X58276922Y-85359122D01*
X58277180Y-85344950D01*
X58285893Y-85317459D01*
X58299810Y-85283902D01*
X58315678Y-85251535D01*
X58330244Y-85227610D01*
X58339625Y-85219291D01*
X58353730Y-85223909D01*
X58385088Y-85236565D01*
X58429421Y-85255464D01*
X58482449Y-85278810D01*
X58497107Y-85285375D01*
X58554696Y-85311183D01*
X58607555Y-85334731D01*
X58650368Y-85353660D01*
X58677819Y-85365611D01*
X58680567Y-85366776D01*
X58717005Y-85382092D01*
X58767866Y-85265183D01*
X58788824Y-85217696D01*
X58806256Y-85179487D01*
X58818099Y-85155000D01*
X58822175Y-85148275D01*
X58834049Y-85152524D01*
G37*
G36*
X63423469Y-90384023D02*
G01*
X63497776Y-90409574D01*
X63504220Y-90412848D01*
X63563980Y-90456457D01*
X63607765Y-90513825D01*
X63634702Y-90580478D01*
X63643914Y-90651942D01*
X63634526Y-90723745D01*
X63605662Y-90791413D01*
X63584220Y-90821614D01*
X63536847Y-90863948D01*
X63474734Y-90898123D01*
X63404921Y-90921953D01*
X63334446Y-90933250D01*
X63270348Y-90929829D01*
X63251447Y-90924986D01*
X63180575Y-90890187D01*
X63123160Y-90837404D01*
X63082043Y-90769811D01*
X63064711Y-90716418D01*
X63058801Y-90641908D01*
X63060203Y-90635242D01*
X63214975Y-90635242D01*
X63218810Y-90685932D01*
X63239307Y-90733016D01*
X63274908Y-90771874D01*
X63324052Y-90797889D01*
X63352267Y-90804498D01*
X63368465Y-90801226D01*
X63396061Y-90791406D01*
X63400582Y-90789551D01*
X63447590Y-90758945D01*
X63477211Y-90716794D01*
X63489195Y-90667886D01*
X63483291Y-90617008D01*
X63459249Y-90568949D01*
X63416818Y-90528495D01*
X63414341Y-90526843D01*
X63375681Y-90513647D01*
X63329016Y-90514216D01*
X63284830Y-90527530D01*
X63263524Y-90541517D01*
X63229360Y-90585564D01*
X63214975Y-90635242D01*
X63060203Y-90635242D01*
X63073358Y-90572695D01*
X63105399Y-90510839D01*
X63151941Y-90458400D01*
X63210002Y-90417439D01*
X63276599Y-90390016D01*
X63348749Y-90378190D01*
X63423469Y-90384023D01*
G37*
G36*
X60348604Y-90087972D02*
G01*
X60415764Y-90105803D01*
X60481160Y-90138400D01*
X60538930Y-90181596D01*
X60583215Y-90231223D01*
X60603775Y-90269419D01*
X60613582Y-90304167D01*
X60608549Y-90324295D01*
X60586912Y-90334916D01*
X60580691Y-90336298D01*
X60543876Y-90344203D01*
X60517103Y-90350518D01*
X60493956Y-90351991D01*
X60482620Y-90336796D01*
X60480320Y-90328737D01*
X60460272Y-90290782D01*
X60424542Y-90257070D01*
X60381060Y-90233522D01*
X60342590Y-90225908D01*
X60294621Y-90236761D01*
X60250183Y-90265762D01*
X60215786Y-90307576D01*
X60201094Y-90341882D01*
X60197843Y-90393421D01*
X60214689Y-90440422D01*
X60248065Y-90478885D01*
X60294401Y-90504811D01*
X60350129Y-90514201D01*
X60354771Y-90514121D01*
X60412495Y-90512354D01*
X60432010Y-90571109D01*
X60441918Y-90605276D01*
X60446222Y-90629360D01*
X60445337Y-90636053D01*
X60428183Y-90641730D01*
X60395104Y-90645388D01*
X60353770Y-90646869D01*
X60311856Y-90646014D01*
X60277033Y-90642666D01*
X60263982Y-90639797D01*
X60199821Y-90609867D01*
X60139825Y-90563819D01*
X60092210Y-90508461D01*
X60079254Y-90486749D01*
X60053295Y-90414710D01*
X60048034Y-90342511D01*
X60061298Y-90273368D01*
X60090916Y-90210495D01*
X60134716Y-90157110D01*
X60190525Y-90116428D01*
X60256172Y-90091664D01*
X60329484Y-90086034D01*
X60348604Y-90087972D01*
G37*
G36*
X60860429Y-82926826D02*
G01*
X60935738Y-82945554D01*
X61000592Y-82982843D01*
X61052752Y-83035053D01*
X61089980Y-83098543D01*
X61110036Y-83169674D01*
X61110682Y-83244806D01*
X61094774Y-83307859D01*
X61066456Y-83357249D01*
X61022203Y-83406645D01*
X60968893Y-83449732D01*
X60913402Y-83480199D01*
X60902622Y-83484232D01*
X60839152Y-83498252D01*
X60770495Y-83501220D01*
X60707646Y-83492979D01*
X60688661Y-83487275D01*
X60624159Y-83452020D01*
X60572005Y-83400136D01*
X60534117Y-83336245D01*
X60512411Y-83264967D01*
X60508805Y-83190923D01*
X60509001Y-83190062D01*
X60664433Y-83190062D01*
X60666302Y-83234228D01*
X60678481Y-83270666D01*
X60709993Y-83318425D01*
X60754699Y-83349331D01*
X60807537Y-83361599D01*
X60863446Y-83353447D01*
X60886037Y-83343810D01*
X60915842Y-83318336D01*
X60941336Y-83279851D01*
X60956226Y-83238934D01*
X60957801Y-83223141D01*
X60949462Y-83184050D01*
X60928920Y-83141199D01*
X60901672Y-83104046D01*
X60876727Y-83083683D01*
X60822344Y-83066998D01*
X60768801Y-83070666D01*
X60721506Y-83093046D01*
X60685866Y-83132497D01*
X60680107Y-83143346D01*
X60664433Y-83190062D01*
X60509001Y-83190062D01*
X60525217Y-83118734D01*
X60530528Y-83106111D01*
X60570821Y-83044372D01*
X60628423Y-82992650D01*
X60698082Y-82953798D01*
X60774545Y-82930673D01*
X60852557Y-82926129D01*
X60860429Y-82926826D01*
G37*
G36*
X58298652Y-85548531D02*
G01*
X58316028Y-85572554D01*
X58333941Y-85603461D01*
X58348080Y-85633779D01*
X58354134Y-85656035D01*
X58354147Y-85656741D01*
X58344402Y-85668571D01*
X58331062Y-85674789D01*
X58303921Y-85694035D01*
X58280194Y-85729152D01*
X58264070Y-85772353D01*
X58259459Y-85807932D01*
X58269414Y-85859561D01*
X58296142Y-85900937D01*
X58334937Y-85930836D01*
X58381094Y-85948037D01*
X58429906Y-85951317D01*
X58476668Y-85939453D01*
X58516673Y-85911224D01*
X58538477Y-85880417D01*
X58550794Y-85836193D01*
X58550926Y-85780789D01*
X58538871Y-85723325D01*
X58538540Y-85722320D01*
X58537787Y-85705904D01*
X58550148Y-85689803D01*
X58579510Y-85669395D01*
X58586755Y-85664995D01*
X58619218Y-85646276D01*
X58638029Y-85639105D01*
X58649556Y-85642397D01*
X58658517Y-85652793D01*
X58683373Y-85705216D01*
X58693409Y-85769624D01*
X58689446Y-85840236D01*
X58672310Y-85911274D01*
X58642823Y-85976956D01*
X58605027Y-86028180D01*
X58544326Y-86075662D01*
X58472749Y-86104267D01*
X58395323Y-86112651D01*
X58327084Y-86102442D01*
X58255235Y-86071531D01*
X58197752Y-86024785D01*
X58155429Y-85965767D01*
X58129058Y-85898037D01*
X58119434Y-85825154D01*
X58127349Y-85750680D01*
X58153597Y-85678175D01*
X58198970Y-85611200D01*
X58214047Y-85595083D01*
X58244865Y-85566453D01*
X58270937Y-85546204D01*
X58286127Y-85538862D01*
X58298652Y-85548531D01*
G37*
G36*
X64072753Y-90115471D02*
G01*
X64103951Y-90123985D01*
X64107032Y-90125674D01*
X64109073Y-90139352D01*
X64102831Y-90167254D01*
X64095611Y-90187905D01*
X64073717Y-90243662D01*
X64014435Y-90244855D01*
X63951549Y-90254860D01*
X63901497Y-90279896D01*
X63866434Y-90316629D01*
X63848515Y-90361727D01*
X63849894Y-90411858D01*
X63872728Y-90463689D01*
X63872826Y-90463836D01*
X63913025Y-90507501D01*
X63960780Y-90532265D01*
X64011619Y-90536104D01*
X64025990Y-90533101D01*
X64062564Y-90519215D01*
X64093291Y-90501525D01*
X64095025Y-90500166D01*
X64121022Y-90479115D01*
X64090054Y-90418003D01*
X64073351Y-90384217D01*
X64062108Y-90359894D01*
X64059086Y-90351704D01*
X64068407Y-90343048D01*
X64091479Y-90327895D01*
X64120961Y-90310503D01*
X64149515Y-90295126D01*
X64169801Y-90286020D01*
X64173957Y-90285088D01*
X64183258Y-90294999D01*
X64199857Y-90321579D01*
X64220925Y-90360102D01*
X64232719Y-90383308D01*
X64281431Y-90481529D01*
X64247842Y-90526577D01*
X64190023Y-90588106D01*
X64121926Y-90634326D01*
X64047795Y-90663955D01*
X63971871Y-90675714D01*
X63898394Y-90668324D01*
X63844941Y-90648142D01*
X63784023Y-90603732D01*
X63736834Y-90544580D01*
X63706164Y-90475949D01*
X63694806Y-90403103D01*
X63696917Y-90369020D01*
X63717970Y-90298748D01*
X63759005Y-90234366D01*
X63816431Y-90179556D01*
X63886661Y-90138000D01*
X63940604Y-90119006D01*
X63981807Y-90112609D01*
X64028948Y-90111555D01*
X64072753Y-90115471D01*
G37*
G36*
X65981851Y-85067129D02*
G01*
X65988381Y-85080020D01*
X66001725Y-85110454D01*
X66020281Y-85154465D01*
X66042450Y-85208089D01*
X66066631Y-85267361D01*
X66091225Y-85328319D01*
X66114632Y-85386997D01*
X66135252Y-85439430D01*
X66151485Y-85481656D01*
X66161731Y-85509709D01*
X66164474Y-85519613D01*
X66144531Y-85530230D01*
X66114361Y-85541392D01*
X66082409Y-85550604D01*
X66057117Y-85555366D01*
X66047327Y-85554265D01*
X66038562Y-85538402D01*
X66025565Y-85508338D01*
X66017446Y-85487401D01*
X66002878Y-85453746D01*
X65989064Y-85430638D01*
X65982872Y-85424951D01*
X65967349Y-85427335D01*
X65934937Y-85437591D01*
X65890417Y-85454062D01*
X65839931Y-85474515D01*
X65782330Y-85498665D01*
X65726634Y-85521827D01*
X65679925Y-85541067D01*
X65653560Y-85551753D01*
X65596916Y-85574358D01*
X65575381Y-85524061D01*
X65560002Y-85488906D01*
X65550224Y-85462844D01*
X65548395Y-85443091D01*
X65556865Y-85426862D01*
X65577983Y-85411374D01*
X65614100Y-85393841D01*
X65667564Y-85371481D01*
X65723383Y-85348665D01*
X65784846Y-85322779D01*
X65838264Y-85299133D01*
X65879922Y-85279465D01*
X65906102Y-85265512D01*
X65913348Y-85259834D01*
X65911810Y-85242429D01*
X65902476Y-85211889D01*
X65894132Y-85190796D01*
X65880256Y-85155651D01*
X65871527Y-85128206D01*
X65869990Y-85119312D01*
X65879706Y-85108389D01*
X65903523Y-85093870D01*
X65933443Y-85079486D01*
X65961470Y-85068969D01*
X65979606Y-85066048D01*
X65981851Y-85067129D01*
G37*
G36*
X66198242Y-85600168D02*
G01*
X66206804Y-85630048D01*
X66216900Y-85669058D01*
X66235962Y-85745992D01*
X66151263Y-85831456D01*
X66116474Y-85867448D01*
X66089696Y-85896868D01*
X66074203Y-85916010D01*
X66071842Y-85921323D01*
X66084892Y-85926347D01*
X66115146Y-85935946D01*
X66156998Y-85948371D01*
X66174606Y-85953421D01*
X66220557Y-85966944D01*
X66258160Y-85978877D01*
X66281241Y-85987228D01*
X66284724Y-85988923D01*
X66292963Y-86002468D01*
X66303876Y-86030489D01*
X66315185Y-86065451D01*
X66324610Y-86099822D01*
X66329872Y-86126067D01*
X66329335Y-86136389D01*
X66317375Y-86134229D01*
X66286513Y-86126248D01*
X66240505Y-86113485D01*
X66183108Y-86096977D01*
X66131479Y-86081760D01*
X65937283Y-86023945D01*
X65848774Y-86048781D01*
X65802291Y-86060970D01*
X65773419Y-86065911D01*
X65757381Y-86064044D01*
X65750525Y-86057857D01*
X65741606Y-86036712D01*
X65732093Y-86004565D01*
X65723861Y-85969523D01*
X65718781Y-85939694D01*
X65718727Y-85923186D01*
X65719227Y-85922399D01*
X65732646Y-85916684D01*
X65762895Y-85906814D01*
X65803935Y-85894737D01*
X65812290Y-85892400D01*
X65844536Y-85883066D01*
X65870643Y-85873544D01*
X65894398Y-85861096D01*
X65919591Y-85842983D01*
X65950010Y-85816467D01*
X65989444Y-85778812D01*
X66041679Y-85727277D01*
X66044166Y-85724812D01*
X66091587Y-85678334D01*
X66133006Y-85638765D01*
X66165629Y-85608693D01*
X66186660Y-85590705D01*
X66193295Y-85586788D01*
X66198242Y-85600168D01*
G37*
G36*
X62242165Y-90560712D02*
G01*
X62321025Y-90579501D01*
X62386627Y-90616892D01*
X62437010Y-90670686D01*
X62470219Y-90738685D01*
X62484294Y-90818691D01*
X62484642Y-90832973D01*
X62474559Y-90912500D01*
X62444862Y-90980268D01*
X62397340Y-91034627D01*
X62333784Y-91073928D01*
X62255983Y-91096519D01*
X62193313Y-91101510D01*
X62140836Y-91099713D01*
X62100618Y-91092279D01*
X62061457Y-91076721D01*
X62045565Y-91068708D01*
X61988140Y-91029673D01*
X61946567Y-90984836D01*
X61929043Y-90958010D01*
X61918421Y-90933953D01*
X61912995Y-90905331D01*
X61911056Y-90864812D01*
X61910857Y-90831482D01*
X61910885Y-90829543D01*
X62058807Y-90829543D01*
X62060882Y-90869279D01*
X62070047Y-90896651D01*
X62090712Y-90922815D01*
X62099049Y-90931332D01*
X62129047Y-90957280D01*
X62157516Y-90968979D01*
X62193550Y-90971574D01*
X62236203Y-90967301D01*
X62269004Y-90951427D01*
X62284234Y-90939025D01*
X62314739Y-90900519D01*
X62327375Y-90856397D01*
X62326176Y-90795034D01*
X62306381Y-90744923D01*
X62270265Y-90708906D01*
X62220103Y-90689823D01*
X62192140Y-90687511D01*
X62154722Y-90690690D01*
X62126402Y-90703651D01*
X62099049Y-90727753D01*
X62074424Y-90755552D01*
X62062519Y-90781473D01*
X62058925Y-90816674D01*
X62058807Y-90829543D01*
X61910885Y-90829543D01*
X61911607Y-90779621D01*
X61914897Y-90744204D01*
X61922283Y-90718023D01*
X61935325Y-90693870D01*
X61943115Y-90682232D01*
X61998130Y-90621717D01*
X62065743Y-90581238D01*
X62145964Y-90560791D01*
X62238797Y-90560375D01*
X62242165Y-90560712D01*
G37*
G36*
X65143893Y-83906020D02*
G01*
X65185806Y-83950258D01*
X65223245Y-83991183D01*
X65252211Y-84024328D01*
X65268703Y-84045231D01*
X65269006Y-84045686D01*
X65289756Y-84094339D01*
X65298397Y-84152244D01*
X65293433Y-84207498D01*
X65290578Y-84217483D01*
X65263966Y-84266494D01*
X65222234Y-84307885D01*
X65171464Y-84337951D01*
X65117738Y-84352989D01*
X65071982Y-84350635D01*
X65055512Y-84348324D01*
X65045107Y-84355014D01*
X65037352Y-84375602D01*
X65029531Y-84411472D01*
X65020521Y-84455260D01*
X65012028Y-84494547D01*
X65007895Y-84512461D01*
X64999883Y-84545379D01*
X64941945Y-84486556D01*
X64884007Y-84427734D01*
X64899456Y-84337421D01*
X64906891Y-84291511D01*
X64909505Y-84262611D01*
X64906760Y-84244451D01*
X64898115Y-84230757D01*
X64889502Y-84221706D01*
X64864100Y-84196304D01*
X64810411Y-84248996D01*
X64756722Y-84301688D01*
X64706762Y-84243240D01*
X64681148Y-84212350D01*
X64663129Y-84188853D01*
X64656803Y-84178300D01*
X64664893Y-84168514D01*
X64687567Y-84144659D01*
X64722429Y-84109160D01*
X64724940Y-84106646D01*
X64953754Y-84106646D01*
X65000015Y-84154022D01*
X65042560Y-84188879D01*
X65080506Y-84201008D01*
X65114963Y-84190652D01*
X65126351Y-84181809D01*
X65146188Y-84149887D01*
X65144421Y-84111155D01*
X65121395Y-84067667D01*
X65103611Y-84046473D01*
X65059226Y-83998989D01*
X65006490Y-84052818D01*
X64953754Y-84106646D01*
X64724940Y-84106646D01*
X64767085Y-84064445D01*
X64819140Y-84012940D01*
X64847994Y-83984615D01*
X65039185Y-83797423D01*
X65143893Y-83906020D01*
G37*
G36*
X65619188Y-88614548D02*
G01*
X65688782Y-88642938D01*
X65754867Y-88689422D01*
X65770200Y-88703601D01*
X65822036Y-88767214D01*
X65850567Y-88834545D01*
X65855840Y-88905961D01*
X65837907Y-88981828D01*
X65814368Y-89032712D01*
X65789539Y-89071521D01*
X65760383Y-89107260D01*
X65731922Y-89134597D01*
X65709179Y-89148203D01*
X65704951Y-89148834D01*
X65693527Y-89139796D01*
X65674930Y-89116792D01*
X65663777Y-89100752D01*
X65631957Y-89052669D01*
X65661273Y-89029608D01*
X65694800Y-88991872D01*
X65714377Y-88946186D01*
X65719156Y-88898931D01*
X65708290Y-88856487D01*
X65687766Y-88830286D01*
X65674191Y-88821989D01*
X65669283Y-88831522D01*
X65668779Y-88846915D01*
X65659535Y-88889744D01*
X65635405Y-88936008D01*
X65601795Y-88976944D01*
X65575871Y-88997524D01*
X65518220Y-89020824D01*
X65460221Y-89021405D01*
X65404917Y-88999977D01*
X65355351Y-88957249D01*
X65344407Y-88943582D01*
X65323788Y-88897395D01*
X65320241Y-88841759D01*
X65323588Y-88825172D01*
X65446586Y-88825172D01*
X65463483Y-88854962D01*
X65494140Y-88874269D01*
X65527062Y-88872293D01*
X65555556Y-88849661D01*
X65558026Y-88846100D01*
X65571159Y-88810538D01*
X65566368Y-88778738D01*
X65548018Y-88755201D01*
X65520476Y-88744423D01*
X65488109Y-88750906D01*
X65474241Y-88759767D01*
X65449119Y-88790989D01*
X65446586Y-88825172D01*
X65323588Y-88825172D01*
X65332310Y-88781956D01*
X65358539Y-88723267D01*
X65397470Y-88670975D01*
X65426904Y-88644421D01*
X65484494Y-88614642D01*
X65549840Y-88604900D01*
X65619188Y-88614548D01*
G37*
G36*
X59805327Y-83423469D02*
G01*
X59805998Y-83436181D01*
X59804640Y-83467368D01*
X59801537Y-83511947D01*
X59798234Y-83551105D01*
X59793480Y-83606835D01*
X59789652Y-83657337D01*
X59787252Y-83695665D01*
X59786698Y-83710591D01*
X59786300Y-83746485D01*
X59969757Y-83791732D01*
X60031798Y-83807269D01*
X60084869Y-83821009D01*
X60125113Y-83831916D01*
X60148673Y-83838958D01*
X60153215Y-83840956D01*
X60144542Y-83849520D01*
X60121577Y-83868594D01*
X60088902Y-83894401D01*
X60081438Y-83900165D01*
X60009661Y-83955396D01*
X59893020Y-83926148D01*
X59776378Y-83896900D01*
X59769664Y-83921912D01*
X59764250Y-83948317D01*
X59766726Y-83969481D01*
X59779696Y-83993243D01*
X59803939Y-84025151D01*
X59826565Y-84054649D01*
X59841619Y-84076254D01*
X59845365Y-84083564D01*
X59836891Y-84093058D01*
X59815505Y-84111566D01*
X59787441Y-84134181D01*
X59758933Y-84155996D01*
X59736214Y-84172105D01*
X59725830Y-84177667D01*
X59717491Y-84168780D01*
X59696638Y-84143895D01*
X59665391Y-84105618D01*
X59625870Y-84056557D01*
X59580193Y-83999321D01*
X59553146Y-83965213D01*
X59385091Y-83752818D01*
X59445413Y-83702313D01*
X59505736Y-83651808D01*
X59548371Y-83703986D01*
X59577450Y-83739382D01*
X59604737Y-83772288D01*
X59616557Y-83786382D01*
X59642109Y-83816601D01*
X59648648Y-83775239D01*
X59652541Y-83744100D01*
X59657107Y-83697911D01*
X59661519Y-83645246D01*
X59662645Y-83630081D01*
X59670103Y-83526285D01*
X59735694Y-83472855D01*
X59768268Y-83447263D01*
X59793002Y-83429598D01*
X59805006Y-83423327D01*
X59805327Y-83423469D01*
G37*
G36*
X62310925Y-82689246D02*
G01*
X62341315Y-82692553D01*
X62352229Y-82696156D01*
X62358264Y-82704941D01*
X62361539Y-82723857D01*
X62362129Y-82756332D01*
X62360110Y-82805795D01*
X62356059Y-82868622D01*
X62351416Y-82953748D01*
X62351698Y-83018209D01*
X62357856Y-83064678D01*
X62370846Y-83095828D01*
X62391620Y-83114331D01*
X62421133Y-83122858D01*
X62447304Y-83124324D01*
X62485141Y-83116442D01*
X62514253Y-83091866D01*
X62535221Y-83049195D01*
X62548628Y-82987034D01*
X62555057Y-82903982D01*
X62555810Y-82863932D01*
X62557435Y-82817157D01*
X62561147Y-82772097D01*
X62563514Y-82754449D01*
X62570851Y-82710065D01*
X62631441Y-82710246D01*
X62666238Y-82710640D01*
X62690977Y-82713829D01*
X62707051Y-82723185D01*
X62715851Y-82742079D01*
X62718767Y-82773882D01*
X62717192Y-82821966D01*
X62712517Y-82889703D01*
X62711461Y-82904143D01*
X62703587Y-82992790D01*
X62693690Y-83061582D01*
X62680507Y-83114327D01*
X62662778Y-83154830D01*
X62639238Y-83186897D01*
X62608627Y-83214335D01*
X62608572Y-83214377D01*
X62583741Y-83231508D01*
X62559495Y-83242136D01*
X62528651Y-83248112D01*
X62484025Y-83251290D01*
X62462175Y-83252142D01*
X62407825Y-83252967D01*
X62369220Y-83250157D01*
X62338566Y-83242570D01*
X62309354Y-83229714D01*
X62266845Y-83200310D01*
X62230695Y-83162053D01*
X62226795Y-83156465D01*
X62209898Y-83124161D01*
X62198399Y-83084489D01*
X62191996Y-83034015D01*
X62190387Y-82969304D01*
X62193270Y-82886921D01*
X62197393Y-82822506D01*
X62206756Y-82692311D01*
X62271854Y-82689242D01*
X62310925Y-82689246D01*
G37*
G36*
X62938708Y-82750604D02*
G01*
X62966508Y-82756130D01*
X62988341Y-82761270D01*
X63047110Y-82775815D01*
X63131345Y-82940336D01*
X63215580Y-83104857D01*
X63246275Y-82976974D01*
X63259142Y-82925010D01*
X63270522Y-82882047D01*
X63279059Y-82853022D01*
X63283066Y-82842997D01*
X63296933Y-82842082D01*
X63326964Y-82845781D01*
X63361303Y-82852211D01*
X63400818Y-82861518D01*
X63421717Y-82869967D01*
X63428761Y-82880441D01*
X63427585Y-82892357D01*
X63397441Y-83019843D01*
X63372232Y-83125822D01*
X63351573Y-83211851D01*
X63335080Y-83279489D01*
X63322366Y-83330295D01*
X63313047Y-83365827D01*
X63306737Y-83387644D01*
X63303052Y-83397303D01*
X63302630Y-83397878D01*
X63288150Y-83399270D01*
X63258895Y-83394811D01*
X63238443Y-83389972D01*
X63204903Y-83380545D01*
X63182544Y-83373232D01*
X63177648Y-83370891D01*
X63171384Y-83359483D01*
X63156495Y-83330658D01*
X63134905Y-83288188D01*
X63108539Y-83235848D01*
X63094175Y-83207175D01*
X63014274Y-83047390D01*
X62984982Y-83171667D01*
X62972146Y-83223463D01*
X62960248Y-83266725D01*
X62950805Y-83296204D01*
X62946137Y-83306232D01*
X62931427Y-83308439D01*
X62901930Y-83306021D01*
X62865768Y-83300306D01*
X62831067Y-83292619D01*
X62805949Y-83284286D01*
X62803201Y-83282893D01*
X62804302Y-83271181D01*
X62810115Y-83240412D01*
X62819730Y-83194520D01*
X62832237Y-83137444D01*
X62846725Y-83073119D01*
X62862282Y-83005481D01*
X62877998Y-82938467D01*
X62892961Y-82876012D01*
X62906262Y-82822054D01*
X62916989Y-82780529D01*
X62924232Y-82755373D01*
X62926575Y-82749720D01*
X62938708Y-82750604D01*
G37*
G36*
X64630727Y-89663129D02*
G01*
X64663132Y-89676718D01*
X64708931Y-89697299D01*
X64764460Y-89723096D01*
X64826058Y-89752332D01*
X64890062Y-89783233D01*
X64952809Y-89814023D01*
X65010638Y-89842925D01*
X65059886Y-89868165D01*
X65096890Y-89887966D01*
X65117989Y-89900554D01*
X65121465Y-89903677D01*
X65114811Y-89915577D01*
X65094985Y-89936073D01*
X65068062Y-89959982D01*
X65040118Y-89982120D01*
X65017229Y-89997306D01*
X65007345Y-90001024D01*
X64990157Y-89995436D01*
X64962756Y-89981625D01*
X64956332Y-89977926D01*
X64917183Y-89954828D01*
X64832268Y-90026305D01*
X64747353Y-90097782D01*
X64764398Y-90146094D01*
X64774164Y-90177450D01*
X64773909Y-90196932D01*
X64762349Y-90214664D01*
X64754631Y-90223150D01*
X64719032Y-90257472D01*
X64688342Y-90279962D01*
X64666187Y-90288401D01*
X64656808Y-90282970D01*
X64651894Y-90267519D01*
X64641313Y-90232799D01*
X64626099Y-90182245D01*
X64607281Y-90119290D01*
X64585893Y-90047370D01*
X64574006Y-90007264D01*
X64521718Y-89830627D01*
X64662721Y-89830627D01*
X64666539Y-89852105D01*
X64676111Y-89883650D01*
X64688615Y-89917783D01*
X64701229Y-89947027D01*
X64711131Y-89963902D01*
X64713623Y-89965517D01*
X64728611Y-89958301D01*
X64753188Y-89940159D01*
X64763811Y-89931171D01*
X64802928Y-89896826D01*
X64732824Y-89859461D01*
X64697794Y-89841940D01*
X64672660Y-89831560D01*
X64662728Y-89830505D01*
X64662721Y-89830627D01*
X64521718Y-89830627D01*
X64497020Y-89747194D01*
X64547322Y-89702992D01*
X64578054Y-89678514D01*
X64603970Y-89662252D01*
X64615377Y-89658306D01*
X64630727Y-89663129D01*
G37*
G36*
X61361268Y-90479016D02*
G01*
X61380474Y-90482042D01*
X61437143Y-90492395D01*
X61525772Y-90644950D01*
X61614400Y-90797505D01*
X61637036Y-90665574D01*
X61647267Y-90608187D01*
X61655427Y-90570273D01*
X61662940Y-90547893D01*
X61671232Y-90537107D01*
X61681728Y-90533976D01*
X61684659Y-90533926D01*
X61710154Y-90536501D01*
X61743921Y-90542513D01*
X61776859Y-90550008D01*
X61799867Y-90557034D01*
X61804730Y-90559684D01*
X61804103Y-90572122D01*
X61799865Y-90604446D01*
X61792538Y-90653235D01*
X61782643Y-90715069D01*
X61770704Y-90786526D01*
X61765307Y-90817993D01*
X61750563Y-90903320D01*
X61738788Y-90967988D01*
X61728640Y-91014613D01*
X61718775Y-91045812D01*
X61707850Y-91064200D01*
X61694520Y-91072395D01*
X61677443Y-91073012D01*
X61655276Y-91068668D01*
X61638629Y-91064688D01*
X61619372Y-91059267D01*
X61603433Y-91050991D01*
X61587984Y-91036430D01*
X61570195Y-91012154D01*
X61547236Y-90974732D01*
X61516279Y-90920736D01*
X61508434Y-90906859D01*
X61478481Y-90855186D01*
X61452331Y-90812631D01*
X61432212Y-90782626D01*
X61420352Y-90768603D01*
X61418435Y-90768218D01*
X61413628Y-90782672D01*
X61406441Y-90815107D01*
X61398004Y-90860091D01*
X61392464Y-90892994D01*
X61384111Y-90942641D01*
X61376713Y-90982725D01*
X61371269Y-91008035D01*
X61369243Y-91014105D01*
X61356217Y-91014527D01*
X61326748Y-91011210D01*
X61293417Y-91005922D01*
X61221990Y-90993340D01*
X61265715Y-90739698D01*
X61278847Y-90665036D01*
X61291066Y-90598412D01*
X61301691Y-90543305D01*
X61310044Y-90503197D01*
X61315444Y-90481567D01*
X61316622Y-90478872D01*
X61331493Y-90476639D01*
X61361268Y-90479016D01*
G37*
G36*
X65705238Y-88080567D02*
G01*
X65721807Y-88094902D01*
X65738214Y-88113195D01*
X65763491Y-88143944D01*
X65773405Y-88163795D01*
X65769449Y-88178468D01*
X65758171Y-88189603D01*
X65743631Y-88208974D01*
X65727296Y-88240903D01*
X65721525Y-88254921D01*
X65710176Y-88288261D01*
X65708429Y-88311412D01*
X65716320Y-88335838D01*
X65721816Y-88347761D01*
X65742343Y-88383231D01*
X65758972Y-88396722D01*
X65770375Y-88388147D01*
X65770731Y-88385893D01*
X65874719Y-88385893D01*
X65878368Y-88417778D01*
X65896184Y-88442727D01*
X65908811Y-88449635D01*
X65932623Y-88455289D01*
X65953566Y-88448864D01*
X65979473Y-88429123D01*
X65997820Y-88400645D01*
X65997693Y-88368848D01*
X65981957Y-88340663D01*
X65953475Y-88323022D01*
X65934515Y-88320316D01*
X65904217Y-88329992D01*
X65883810Y-88354241D01*
X65874719Y-88385893D01*
X65770731Y-88385893D01*
X65775222Y-88357419D01*
X65775302Y-88351285D01*
X65786023Y-88291416D01*
X65815409Y-88239655D01*
X65859294Y-88200204D01*
X65913513Y-88177265D01*
X65951867Y-88173191D01*
X66013074Y-88184100D01*
X66061740Y-88212735D01*
X66096396Y-88255902D01*
X66115571Y-88310404D01*
X66117798Y-88373047D01*
X66101606Y-88440633D01*
X66088564Y-88470522D01*
X66046108Y-88532148D01*
X65990972Y-88574458D01*
X65925407Y-88596505D01*
X65851667Y-88597339D01*
X65808481Y-88588423D01*
X65729281Y-88556248D01*
X65664988Y-88509754D01*
X65617486Y-88451690D01*
X65588655Y-88384805D01*
X65580378Y-88311851D01*
X65586544Y-88264095D01*
X65605207Y-88206548D01*
X65633302Y-88150126D01*
X65665804Y-88104305D01*
X65677807Y-88092055D01*
X65692813Y-88080403D01*
X65705238Y-88080567D01*
G37*
G36*
X58714650Y-84557503D02*
G01*
X58751305Y-84562312D01*
X58802338Y-84569848D01*
X58863920Y-84579468D01*
X58932226Y-84590528D01*
X59003429Y-84602383D01*
X59073700Y-84614388D01*
X59139214Y-84625899D01*
X59196143Y-84636272D01*
X59240660Y-84644863D01*
X59268938Y-84651028D01*
X59277353Y-84653913D01*
X59271379Y-84668161D01*
X59255888Y-84695554D01*
X59238886Y-84722862D01*
X59200419Y-84782448D01*
X59141239Y-84775771D01*
X59082059Y-84769094D01*
X59025838Y-84855887D01*
X59000510Y-84896205D01*
X58981107Y-84929409D01*
X58970633Y-84950258D01*
X58969617Y-84953960D01*
X58975789Y-84970004D01*
X58991266Y-84996748D01*
X58998378Y-85007565D01*
X59027138Y-85049890D01*
X58982286Y-85117431D01*
X58937434Y-85184971D01*
X58781564Y-84947740D01*
X58737581Y-84880528D01*
X58697887Y-84819357D01*
X58664367Y-84767173D01*
X58638906Y-84726922D01*
X58631020Y-84714028D01*
X58796284Y-84714028D01*
X58800374Y-84724808D01*
X58814810Y-84747907D01*
X58835143Y-84777169D01*
X58856922Y-84806436D01*
X58875696Y-84829552D01*
X58887013Y-84840359D01*
X58887739Y-84840540D01*
X58898504Y-84831299D01*
X58915120Y-84808186D01*
X58921104Y-84798437D01*
X58936695Y-84769992D01*
X58945333Y-84750304D01*
X58945945Y-84747265D01*
X58935519Y-84741471D01*
X58909260Y-84733538D01*
X58874699Y-84725136D01*
X58839366Y-84717940D01*
X58810792Y-84713620D01*
X58796507Y-84713849D01*
X58796284Y-84714028D01*
X58631020Y-84714028D01*
X58623387Y-84701548D01*
X58619520Y-84694418D01*
X58622403Y-84678091D01*
X58634546Y-84649701D01*
X58652043Y-84616295D01*
X58670988Y-84584921D01*
X58687474Y-84562626D01*
X58696200Y-84556067D01*
X58714650Y-84557503D01*
G37*
G36*
X63929850Y-83060414D02*
G01*
X63969428Y-83079193D01*
X63970316Y-83079631D01*
X64013667Y-83102987D01*
X64037986Y-83121642D01*
X64046700Y-83138371D01*
X64046873Y-83141659D01*
X64045570Y-83162012D01*
X64042272Y-83200728D01*
X64037445Y-83252626D01*
X64031558Y-83312525D01*
X64030242Y-83325535D01*
X64024515Y-83384132D01*
X64020130Y-83433555D01*
X64017441Y-83469412D01*
X64016805Y-83487315D01*
X64017033Y-83488502D01*
X64026806Y-83482650D01*
X64051657Y-83464408D01*
X64088274Y-83436295D01*
X64133346Y-83400829D01*
X64154983Y-83383561D01*
X64203869Y-83344761D01*
X64246872Y-83311340D01*
X64280315Y-83286105D01*
X64300520Y-83271858D01*
X64304066Y-83269868D01*
X64320330Y-83272397D01*
X64348558Y-83283672D01*
X64381534Y-83299942D01*
X64412044Y-83317453D01*
X64432871Y-83332451D01*
X64437825Y-83339437D01*
X64428973Y-83348806D01*
X64404471Y-83370178D01*
X64367412Y-83401097D01*
X64320887Y-83439107D01*
X64267990Y-83481751D01*
X64211813Y-83526575D01*
X64155449Y-83571120D01*
X64101989Y-83612932D01*
X64054527Y-83649554D01*
X64016155Y-83678529D01*
X63989966Y-83697402D01*
X63979155Y-83703735D01*
X63964520Y-83698394D01*
X63936087Y-83685202D01*
X63911136Y-83672702D01*
X63878148Y-83655474D01*
X63854997Y-83642940D01*
X63848037Y-83638757D01*
X63847938Y-83626507D01*
X63849780Y-83594000D01*
X63853318Y-83544550D01*
X63858304Y-83481472D01*
X63864493Y-83408079D01*
X63868804Y-83359096D01*
X63875817Y-83279756D01*
X63882051Y-83207547D01*
X63887208Y-83146062D01*
X63890990Y-83098893D01*
X63893098Y-83069631D01*
X63893437Y-83062295D01*
X63896058Y-83052913D01*
X63906795Y-83051970D01*
X63929850Y-83060414D01*
G37*
G36*
X64575668Y-83433116D02*
G01*
X64605132Y-83453868D01*
X64646488Y-83484038D01*
X64696296Y-83521123D01*
X64737146Y-83551984D01*
X64897443Y-83673811D01*
X64861939Y-83718639D01*
X64839476Y-83744836D01*
X64822328Y-83760981D01*
X64817399Y-83763466D01*
X64804813Y-83756740D01*
X64777714Y-83738527D01*
X64740349Y-83711771D01*
X64705450Y-83685841D01*
X64602537Y-83608215D01*
X64579761Y-83635538D01*
X64563406Y-83657305D01*
X64556591Y-83670484D01*
X64565207Y-83680510D01*
X64588668Y-83701162D01*
X64622848Y-83728906D01*
X64644967Y-83746099D01*
X64683445Y-83776906D01*
X64713442Y-83803465D01*
X64730785Y-83821947D01*
X64733418Y-83827246D01*
X64726108Y-83843876D01*
X64708221Y-83869492D01*
X64700869Y-83878524D01*
X64668639Y-83916648D01*
X64573968Y-83845299D01*
X64479296Y-83773950D01*
X64452708Y-83807175D01*
X64435224Y-83830605D01*
X64426626Y-83845241D01*
X64426434Y-83846318D01*
X64435524Y-83855227D01*
X64460014Y-83875039D01*
X64496120Y-83902785D01*
X64538146Y-83934087D01*
X64649544Y-84015937D01*
X64612700Y-84067241D01*
X64592081Y-84095677D01*
X64578288Y-84114175D01*
X64574904Y-84118245D01*
X64565632Y-84111406D01*
X64540495Y-84092616D01*
X64502540Y-84064159D01*
X64454816Y-84028319D01*
X64408247Y-83993309D01*
X64353698Y-83952147D01*
X64305537Y-83915553D01*
X64267045Y-83886043D01*
X64241506Y-83866130D01*
X64232509Y-83858705D01*
X64235934Y-83846446D01*
X64251894Y-83819092D01*
X64277942Y-83779874D01*
X64311629Y-83732024D01*
X64350508Y-83678774D01*
X64392131Y-83623355D01*
X64434051Y-83568998D01*
X64473819Y-83518937D01*
X64508989Y-83476402D01*
X64537113Y-83444625D01*
X64555743Y-83426837D01*
X64561537Y-83424281D01*
X64575668Y-83433116D01*
G37*
G36*
X65478513Y-84349346D02*
G01*
X65526074Y-84366757D01*
X65577266Y-84403527D01*
X65625292Y-84457012D01*
X65665378Y-84520311D01*
X65692748Y-84586521D01*
X65700137Y-84618341D01*
X65702875Y-84642426D01*
X65697420Y-84655946D01*
X65678466Y-84664468D01*
X65649442Y-84671562D01*
X65608821Y-84679313D01*
X65585914Y-84678246D01*
X65575950Y-84666939D01*
X65574091Y-84649108D01*
X65567758Y-84621954D01*
X65551713Y-84585090D01*
X65530388Y-84546536D01*
X65508213Y-84514310D01*
X65489762Y-84496506D01*
X65462233Y-84490640D01*
X65440167Y-84500087D01*
X65432103Y-84519276D01*
X65436297Y-84539019D01*
X65447376Y-84573878D01*
X65463152Y-84617106D01*
X65467203Y-84627492D01*
X65491945Y-84701536D01*
X65501235Y-84760584D01*
X65495343Y-84807339D01*
X65487063Y-84826458D01*
X65452240Y-84866562D01*
X65404131Y-84891143D01*
X65348149Y-84899191D01*
X65289707Y-84889697D01*
X65248309Y-84870937D01*
X65199605Y-84831269D01*
X65153100Y-84774758D01*
X65113087Y-84708140D01*
X65083854Y-84638152D01*
X65072949Y-84595605D01*
X65070169Y-84573444D01*
X65074942Y-84559522D01*
X65091813Y-84550413D01*
X65125329Y-84542688D01*
X65148762Y-84538448D01*
X65190955Y-84530993D01*
X65210806Y-84602395D01*
X65228387Y-84649501D01*
X65252618Y-84693816D01*
X65279696Y-84729994D01*
X65305821Y-84752687D01*
X65321215Y-84757688D01*
X65337578Y-84751894D01*
X65344140Y-84732999D01*
X65340788Y-84698736D01*
X65327408Y-84646836D01*
X65313542Y-84603349D01*
X65296162Y-84550178D01*
X65285851Y-84513657D01*
X65281835Y-84488099D01*
X65283342Y-84467819D01*
X65289598Y-84447131D01*
X65291585Y-84441831D01*
X65321542Y-84393156D01*
X65365642Y-84360570D01*
X65419445Y-84345493D01*
X65478513Y-84349346D01*
G37*
G36*
X63465614Y-87082187D02*
G01*
X63566762Y-87114427D01*
X63658856Y-87163787D01*
X63740133Y-87228185D01*
X63808829Y-87305536D01*
X63863181Y-87393759D01*
X63901426Y-87490768D01*
X63921801Y-87594482D01*
X63922541Y-87702816D01*
X63901884Y-87813687D01*
X63892251Y-87844248D01*
X63845805Y-87944907D01*
X63781556Y-88033381D01*
X63702519Y-88108044D01*
X63611708Y-88167268D01*
X63512134Y-88209426D01*
X63406813Y-88232890D01*
X63298757Y-88236032D01*
X63198027Y-88219176D01*
X63090555Y-88178722D01*
X62993143Y-88119230D01*
X62908820Y-88043443D01*
X62840618Y-87954102D01*
X62791566Y-87853948D01*
X62790216Y-87850231D01*
X62762882Y-87741145D01*
X62758975Y-87661630D01*
X62952001Y-87661630D01*
X62965909Y-87752236D01*
X62968637Y-87761630D01*
X63007356Y-87850303D01*
X63064376Y-87925042D01*
X63137485Y-87983689D01*
X63224473Y-88024084D01*
X63243367Y-88029790D01*
X63332561Y-88042392D01*
X63423657Y-88031539D01*
X63511049Y-87999713D01*
X63589239Y-87950008D01*
X63650699Y-87886372D01*
X63694852Y-87812185D01*
X63721119Y-87730823D01*
X63728921Y-87645663D01*
X63717679Y-87560085D01*
X63686815Y-87477464D01*
X63635750Y-87401178D01*
X63617103Y-87380746D01*
X63549141Y-87323982D01*
X63474183Y-87287437D01*
X63388159Y-87269475D01*
X63333689Y-87266924D01*
X63242466Y-87277820D01*
X63159993Y-87308601D01*
X63088357Y-87356432D01*
X63029651Y-87418484D01*
X62985962Y-87491922D01*
X62959383Y-87573915D01*
X62952001Y-87661630D01*
X62758975Y-87661630D01*
X62757516Y-87631935D01*
X62772575Y-87525232D01*
X62806516Y-87423669D01*
X62857796Y-87329879D01*
X62924873Y-87246493D01*
X63006202Y-87176144D01*
X63100242Y-87121465D01*
X63205449Y-87085087D01*
X63243208Y-87077403D01*
X63357175Y-87069151D01*
X63465614Y-87082187D01*
G37*
G36*
X59358664Y-83984278D02*
G01*
X59407604Y-84020117D01*
X59443579Y-84071084D01*
X59462839Y-84135131D01*
X59464227Y-84147726D01*
X59469450Y-84210707D01*
X59556780Y-84218891D01*
X59599796Y-84224035D01*
X59632742Y-84230061D01*
X59649278Y-84235773D01*
X59649912Y-84236462D01*
X59645729Y-84249490D01*
X59629076Y-84274182D01*
X59606303Y-84301985D01*
X59556891Y-84358120D01*
X59468860Y-84350143D01*
X59422745Y-84346620D01*
X59393313Y-84347080D01*
X59373749Y-84352646D01*
X59357239Y-84364440D01*
X59351791Y-84369428D01*
X59322754Y-84396691D01*
X59377004Y-84444035D01*
X59431254Y-84491379D01*
X59382973Y-84547599D01*
X59355624Y-84576947D01*
X59332764Y-84597065D01*
X59320817Y-84603217D01*
X59308414Y-84595310D01*
X59281486Y-84573518D01*
X59242739Y-84540190D01*
X59194879Y-84497670D01*
X59140613Y-84448306D01*
X59117567Y-84427028D01*
X59062148Y-84375104D01*
X59013129Y-84328141D01*
X58973024Y-84288635D01*
X58944349Y-84259079D01*
X58929617Y-84241970D01*
X58928191Y-84239140D01*
X58936308Y-84223205D01*
X58948697Y-84207315D01*
X59124807Y-84207315D01*
X59173954Y-84257618D01*
X59201325Y-84284457D01*
X59222131Y-84302707D01*
X59230492Y-84307921D01*
X59241508Y-84299475D01*
X59261525Y-84277895D01*
X59275372Y-84261271D01*
X59305183Y-84214005D01*
X59312572Y-84174143D01*
X59297529Y-84141469D01*
X59268476Y-84119901D01*
X59236506Y-84113180D01*
X59202285Y-84126934D01*
X59163614Y-84162150D01*
X59156695Y-84170042D01*
X59124807Y-84207315D01*
X58948697Y-84207315D01*
X58958151Y-84195189D01*
X58989966Y-84158969D01*
X59027995Y-84118422D01*
X59068483Y-84077426D01*
X59107671Y-84039856D01*
X59141804Y-84009591D01*
X59167125Y-83990506D01*
X59171543Y-83987985D01*
X59236884Y-83966165D01*
X59300507Y-83965612D01*
X59358664Y-83984278D01*
G37*
G36*
X60301141Y-83175066D02*
G01*
X60306586Y-83185570D01*
X60307082Y-83198434D01*
X60309514Y-83233008D01*
X60313966Y-83262308D01*
X60316635Y-83281447D01*
X60311751Y-83293172D01*
X60294433Y-83301221D01*
X60259800Y-83309329D01*
X60249838Y-83311395D01*
X60200557Y-83326425D01*
X60158261Y-83348134D01*
X60127364Y-83373235D01*
X60112283Y-83398444D01*
X60112998Y-83413189D01*
X60123653Y-83426243D01*
X60144717Y-83430891D01*
X60179660Y-83427015D01*
X60231952Y-83414496D01*
X60253821Y-83408387D01*
X60311278Y-83393299D01*
X60353181Y-83386454D01*
X60386084Y-83387640D01*
X60416542Y-83396642D01*
X60430091Y-83402660D01*
X60470521Y-83434005D01*
X60497361Y-83479630D01*
X60508868Y-83533320D01*
X60503297Y-83588858D01*
X60491145Y-83620265D01*
X60459924Y-83662649D01*
X60412241Y-83705625D01*
X60354546Y-83743832D01*
X60323331Y-83759760D01*
X60280126Y-83776196D01*
X60233475Y-83788746D01*
X60189879Y-83796265D01*
X60155840Y-83797611D01*
X60138420Y-83792277D01*
X60133138Y-83775885D01*
X60129959Y-83744819D01*
X60129543Y-83727594D01*
X60129543Y-83671996D01*
X60185195Y-83664368D01*
X60238294Y-83652611D01*
X60286702Y-83633923D01*
X60326397Y-83610927D01*
X60353356Y-83586248D01*
X60363559Y-83562510D01*
X60360193Y-83550174D01*
X60347402Y-83541376D01*
X60322147Y-83539629D01*
X60281412Y-83545181D01*
X60222179Y-83558282D01*
X60202683Y-83563130D01*
X60150817Y-83575239D01*
X60114594Y-83580582D01*
X60087139Y-83579698D01*
X60064185Y-83574005D01*
X60017111Y-83546957D01*
X59983499Y-83504335D01*
X59965501Y-83451359D01*
X59965267Y-83393251D01*
X59974867Y-83357250D01*
X60001842Y-83313784D01*
X60046785Y-83270771D01*
X60104201Y-83231795D01*
X60168595Y-83200436D01*
X60234471Y-83180278D01*
X60250862Y-83177358D01*
X60284608Y-83173094D01*
X60301141Y-83175066D01*
G37*
G36*
X62263815Y-86057625D02*
G01*
X62372247Y-86083816D01*
X62475425Y-86132123D01*
X62571187Y-86202219D01*
X62584704Y-86214524D01*
X62661327Y-86301366D01*
X62718850Y-86401224D01*
X62751656Y-86490952D01*
X62764565Y-86562735D01*
X62767371Y-86646347D01*
X62760539Y-86732438D01*
X62744534Y-86811657D01*
X62734119Y-86843480D01*
X62686985Y-86936600D01*
X62620945Y-87023215D01*
X62540692Y-87098628D01*
X62450922Y-87158141D01*
X62392874Y-87184868D01*
X62326943Y-87203097D01*
X62248815Y-87213908D01*
X62166949Y-87217000D01*
X62089805Y-87212073D01*
X62025844Y-87198826D01*
X62023299Y-87197992D01*
X61909817Y-87148698D01*
X61811449Y-87082245D01*
X61729648Y-86999728D01*
X61692568Y-86948398D01*
X61641487Y-86848149D01*
X61611869Y-86742874D01*
X61602883Y-86635507D01*
X61606246Y-86602390D01*
X61800788Y-86602390D01*
X61802708Y-86691128D01*
X61824290Y-86777287D01*
X61865707Y-86856755D01*
X61889010Y-86887087D01*
X61959074Y-86951923D01*
X62039520Y-86997006D01*
X62126924Y-87021566D01*
X62217864Y-87024835D01*
X62308916Y-87006045D01*
X62348739Y-86990314D01*
X62427977Y-86942202D01*
X62490638Y-86880084D01*
X62536273Y-86807284D01*
X62564436Y-86727121D01*
X62574678Y-86642917D01*
X62566550Y-86557994D01*
X62539607Y-86475673D01*
X62493399Y-86399276D01*
X62436482Y-86339615D01*
X62361043Y-86289832D01*
X62277188Y-86259957D01*
X62189031Y-86249816D01*
X62100685Y-86259236D01*
X62016266Y-86288041D01*
X61939888Y-86336058D01*
X61911251Y-86361857D01*
X61855234Y-86433640D01*
X61818354Y-86515190D01*
X61800788Y-86602390D01*
X61606246Y-86602390D01*
X61613700Y-86528980D01*
X61643487Y-86426226D01*
X61691415Y-86330178D01*
X61756653Y-86243770D01*
X61838370Y-86169933D01*
X61928611Y-86115029D01*
X62039836Y-86072903D01*
X62152291Y-86053878D01*
X62263815Y-86057625D01*
G37*
G36*
X59835163Y-89723751D02*
G01*
X59863584Y-89742549D01*
X59904079Y-89771001D01*
X59953275Y-89806751D01*
X59993459Y-89836638D01*
X60152856Y-89956315D01*
X60120486Y-90002089D01*
X60099459Y-90029133D01*
X60082917Y-90045698D01*
X60078114Y-90048116D01*
X60065141Y-90041395D01*
X60037948Y-90023036D01*
X60000887Y-89996078D01*
X59969634Y-89972354D01*
X59925340Y-89938667D01*
X59895611Y-89917964D01*
X59876589Y-89908364D01*
X59864415Y-89907988D01*
X59855229Y-89914958D01*
X59854200Y-89916133D01*
X59838531Y-89936708D01*
X59833629Y-89953682D01*
X59841576Y-89971230D01*
X59864452Y-89993530D01*
X59904337Y-90024757D01*
X59910705Y-90029558D01*
X59949220Y-90059450D01*
X59979282Y-90084502D01*
X59996689Y-90101122D01*
X59999347Y-90105318D01*
X59992377Y-90119184D01*
X59974843Y-90143388D01*
X59966009Y-90154295D01*
X59932670Y-90194229D01*
X59840566Y-90124906D01*
X59748462Y-90055583D01*
X59726218Y-90084524D01*
X59710409Y-90107569D01*
X59703711Y-90122209D01*
X59712518Y-90132388D01*
X59736608Y-90153330D01*
X59772145Y-90181839D01*
X59809199Y-90210163D01*
X59914950Y-90289374D01*
X59883174Y-90334322D01*
X59861914Y-90361106D01*
X59844612Y-90377258D01*
X59839561Y-90379393D01*
X59826429Y-90372629D01*
X59798141Y-90353915D01*
X59758290Y-90325758D01*
X59710468Y-90290662D01*
X59685694Y-90272055D01*
X59634204Y-90232815D01*
X59588204Y-90197232D01*
X59551617Y-90168382D01*
X59528370Y-90149340D01*
X59523467Y-90144948D01*
X59517608Y-90137425D01*
X59516145Y-90127836D01*
X59520605Y-90113618D01*
X59532516Y-90092207D01*
X59553404Y-90061040D01*
X59584796Y-90017554D01*
X59628219Y-89959187D01*
X59656791Y-89921132D01*
X59702456Y-89861101D01*
X59743818Y-89808053D01*
X59778648Y-89764738D01*
X59804718Y-89733910D01*
X59819797Y-89718318D01*
X59822186Y-89716961D01*
X59835163Y-89723751D01*
G37*
G36*
X58760840Y-88369416D02*
G01*
X58785058Y-88377340D01*
X58810036Y-88395416D01*
X58839953Y-88423990D01*
X58879579Y-88469644D01*
X58904974Y-88516084D01*
X58916326Y-88549266D01*
X58929411Y-88615031D01*
X58925375Y-88668163D01*
X58903446Y-88713145D01*
X58884393Y-88735127D01*
X58858049Y-88758167D01*
X58833382Y-88767968D01*
X58798871Y-88768623D01*
X58791447Y-88768137D01*
X58757158Y-88766814D01*
X58738538Y-88771769D01*
X58727712Y-88786857D01*
X58721718Y-88802274D01*
X58694338Y-88846518D01*
X58652702Y-88876031D01*
X58602177Y-88889323D01*
X58548131Y-88884899D01*
X58499959Y-88863930D01*
X58460333Y-88828340D01*
X58422976Y-88776834D01*
X58392663Y-88717036D01*
X58376223Y-88666355D01*
X58375247Y-88656054D01*
X58495741Y-88656054D01*
X58506119Y-88691592D01*
X58525230Y-88717359D01*
X58552260Y-88740171D01*
X58573334Y-88743981D01*
X58595892Y-88729304D01*
X58602702Y-88722739D01*
X58620998Y-88701047D01*
X58625039Y-88680811D01*
X58616596Y-88651254D01*
X58615105Y-88647296D01*
X58592559Y-88613785D01*
X58560375Y-88597980D01*
X58524518Y-88602796D01*
X58524271Y-88602908D01*
X58501773Y-88624298D01*
X58495741Y-88656054D01*
X58375247Y-88656054D01*
X58369595Y-88596410D01*
X58374886Y-88574492D01*
X58702627Y-88574492D01*
X58714115Y-88598553D01*
X58737723Y-88623023D01*
X58766429Y-88626459D01*
X58785192Y-88620867D01*
X58800598Y-88604139D01*
X58803619Y-88576780D01*
X58794928Y-88547904D01*
X58778412Y-88528680D01*
X58751302Y-88517339D01*
X58730399Y-88522865D01*
X58705152Y-88545491D01*
X58702627Y-88574492D01*
X58374886Y-88574492D01*
X58384068Y-88536453D01*
X58419445Y-88487192D01*
X58427967Y-88479559D01*
X58452064Y-88461489D01*
X58474412Y-88453096D01*
X58504346Y-88452208D01*
X58534277Y-88454833D01*
X58574090Y-88457794D01*
X58595293Y-88455663D01*
X58602524Y-88447805D01*
X58602702Y-88445465D01*
X58611129Y-88427835D01*
X58632071Y-88404545D01*
X58639118Y-88398302D01*
X58674462Y-88376089D01*
X58715928Y-88367982D01*
X58729579Y-88367660D01*
X58760840Y-88369416D01*
G37*
G36*
X61687767Y-82714336D02*
G01*
X61687828Y-82714386D01*
X61690391Y-82725958D01*
X61696474Y-82757340D01*
X61705423Y-82805039D01*
X61716585Y-82865565D01*
X61729307Y-82935426D01*
X61732431Y-82952702D01*
X61745825Y-83026679D01*
X61758161Y-83094443D01*
X61768685Y-83151886D01*
X61776645Y-83194900D01*
X61781287Y-83219377D01*
X61781669Y-83221286D01*
X61783642Y-83242356D01*
X61774285Y-83253288D01*
X61747849Y-83259949D01*
X61742984Y-83260786D01*
X61708358Y-83267121D01*
X61681739Y-83272805D01*
X61678877Y-83273539D01*
X61662312Y-83268014D01*
X61630850Y-83248100D01*
X61586939Y-83215517D01*
X61533025Y-83171987D01*
X61525193Y-83165432D01*
X61477988Y-83126726D01*
X61437467Y-83095315D01*
X61406841Y-83073547D01*
X61389319Y-83063765D01*
X61386485Y-83064076D01*
X61386740Y-83080490D01*
X61390857Y-83113912D01*
X61398021Y-83158143D01*
X61401097Y-83175030D01*
X61412273Y-83235440D01*
X61418120Y-83276635D01*
X61417246Y-83302744D01*
X61408261Y-83317895D01*
X61389772Y-83326217D01*
X61360389Y-83331836D01*
X61347564Y-83333881D01*
X61302959Y-83339425D01*
X61278268Y-83338155D01*
X61271100Y-83332555D01*
X61267572Y-83316936D01*
X61260858Y-83282810D01*
X61251684Y-83234216D01*
X61240776Y-83175195D01*
X61228860Y-83109787D01*
X61216662Y-83042031D01*
X61204907Y-82975968D01*
X61194321Y-82915637D01*
X61185632Y-82865078D01*
X61179563Y-82828331D01*
X61176841Y-82809437D01*
X61176809Y-82807795D01*
X61188530Y-82804190D01*
X61216534Y-82797975D01*
X61241558Y-82793024D01*
X61304284Y-82781128D01*
X61444826Y-82900216D01*
X61492833Y-82940670D01*
X61533787Y-82974749D01*
X61564638Y-82999951D01*
X61582333Y-83013770D01*
X61585368Y-83015570D01*
X61583290Y-83003144D01*
X61577670Y-82972422D01*
X61569422Y-82928359D01*
X61561696Y-82887604D01*
X61551953Y-82835298D01*
X61544157Y-82791207D01*
X61539247Y-82760783D01*
X61538024Y-82750188D01*
X61548444Y-82743525D01*
X61574698Y-82734743D01*
X61609270Y-82725638D01*
X61644648Y-82718004D01*
X61673318Y-82713638D01*
X61687767Y-82714336D01*
G37*
G36*
X60739324Y-90277225D02*
G01*
X60766545Y-90285139D01*
X60799811Y-90297484D01*
X60831514Y-90311280D01*
X60854040Y-90323546D01*
X60860187Y-90329364D01*
X60859146Y-90347283D01*
X60850973Y-90380344D01*
X60837384Y-90421737D01*
X60835771Y-90426135D01*
X60805528Y-90507724D01*
X60888390Y-90538437D01*
X60929756Y-90553306D01*
X60962492Y-90564214D01*
X60980284Y-90569073D01*
X60981209Y-90569151D01*
X60989605Y-90558831D01*
X61003090Y-90531411D01*
X61019135Y-90492206D01*
X61023754Y-90479804D01*
X61043572Y-90431009D01*
X61059767Y-90402746D01*
X61071067Y-90396108D01*
X61091018Y-90402854D01*
X61123266Y-90412950D01*
X61135601Y-90416682D01*
X61167150Y-90428600D01*
X61187441Y-90440876D01*
X61190487Y-90444838D01*
X61188178Y-90459671D01*
X61178659Y-90493871D01*
X61162878Y-90544583D01*
X61141778Y-90608950D01*
X61116305Y-90684116D01*
X61087406Y-90767226D01*
X61056026Y-90855424D01*
X61038616Y-90903517D01*
X61028944Y-90924334D01*
X61015720Y-90933088D01*
X60992954Y-90930738D01*
X60954654Y-90918241D01*
X60952143Y-90917338D01*
X60919436Y-90905543D01*
X60895507Y-90896896D01*
X60891383Y-90895401D01*
X60887595Y-90882246D01*
X60894336Y-90849004D01*
X60911708Y-90795172D01*
X60911919Y-90794575D01*
X60945873Y-90698627D01*
X60913500Y-90685947D01*
X60850655Y-90662259D01*
X60804329Y-90646799D01*
X60776818Y-90640321D01*
X60774080Y-90640167D01*
X60763133Y-90650596D01*
X60748699Y-90678055D01*
X60733756Y-90716799D01*
X60732678Y-90720060D01*
X60718503Y-90761084D01*
X60705999Y-90793150D01*
X60697777Y-90809587D01*
X60697545Y-90809857D01*
X60681855Y-90812336D01*
X60652803Y-90807283D01*
X60618051Y-90797194D01*
X60585261Y-90784568D01*
X60562096Y-90771901D01*
X60555638Y-90763607D01*
X60559378Y-90749772D01*
X60569665Y-90717823D01*
X60585095Y-90671770D01*
X60604269Y-90615626D01*
X60625783Y-90553401D01*
X60648237Y-90489108D01*
X60670228Y-90426759D01*
X60690355Y-90370365D01*
X60707215Y-90323937D01*
X60719408Y-90291488D01*
X60725532Y-90277030D01*
X60725761Y-90276723D01*
X60739324Y-90277225D01*
G37*
G36*
X61117194Y-85045078D02*
G01*
X61161737Y-85052458D01*
X61204522Y-85063975D01*
X61309724Y-85107881D01*
X61402963Y-85170812D01*
X61482073Y-85250246D01*
X61544889Y-85343657D01*
X61589245Y-85448524D01*
X61609520Y-85535903D01*
X61615325Y-85648276D01*
X61599244Y-85757685D01*
X61563066Y-85861337D01*
X61508576Y-85956440D01*
X61437561Y-86040203D01*
X61351809Y-86109832D01*
X61253105Y-86162536D01*
X61195591Y-86182817D01*
X61117178Y-86197679D01*
X61028104Y-86201531D01*
X60938535Y-86194612D01*
X60858639Y-86177161D01*
X60851264Y-86174740D01*
X60743150Y-86126235D01*
X60649465Y-86060468D01*
X60571806Y-85979633D01*
X60511767Y-85885924D01*
X60470945Y-85781535D01*
X60450934Y-85668660D01*
X60449114Y-85621714D01*
X60449170Y-85621149D01*
X60644982Y-85621149D01*
X60656026Y-85718046D01*
X60687825Y-85804384D01*
X60739273Y-85878690D01*
X60809268Y-85939490D01*
X60896704Y-85985314D01*
X60925939Y-85995844D01*
X60984979Y-86006849D01*
X61054656Y-86007416D01*
X61124692Y-85998187D01*
X61184806Y-85979807D01*
X61185214Y-85979626D01*
X61249392Y-85941590D01*
X61311096Y-85887999D01*
X61362398Y-85826334D01*
X61382199Y-85793811D01*
X61397446Y-85761999D01*
X61406835Y-85732298D01*
X61411730Y-85697242D01*
X61413495Y-85649361D01*
X61413632Y-85621714D01*
X61412840Y-85565760D01*
X61409554Y-85526023D01*
X61402412Y-85495071D01*
X61390049Y-85465477D01*
X61382137Y-85450092D01*
X61334691Y-85380462D01*
X61273090Y-85318812D01*
X61204622Y-85272147D01*
X61188862Y-85264358D01*
X61125889Y-85244771D01*
X61052258Y-85236084D01*
X60976754Y-85238289D01*
X60908159Y-85251378D01*
X60873598Y-85264637D01*
X60791482Y-85316071D01*
X60727286Y-85381669D01*
X60683527Y-85452983D01*
X60662209Y-85499916D01*
X60650467Y-85538774D01*
X60645649Y-85581127D01*
X60644982Y-85621149D01*
X60449170Y-85621149D01*
X60460516Y-85507131D01*
X60493622Y-85398992D01*
X60546785Y-85299870D01*
X60618354Y-85212338D01*
X60706682Y-85138971D01*
X60788422Y-85092146D01*
X60834038Y-85071425D01*
X60871083Y-85058086D01*
X60908020Y-85050204D01*
X60953315Y-85045854D01*
X61001890Y-85043601D01*
X61066861Y-85042422D01*
X61117194Y-85045078D01*
G37*
G36*
X62352524Y-82262844D02*
G01*
X62461474Y-82266499D01*
X62555033Y-82272032D01*
X62564150Y-82272759D01*
X62891405Y-82311393D01*
X63213079Y-82372706D01*
X63528138Y-82456146D01*
X63835545Y-82561160D01*
X64134266Y-82687198D01*
X64423265Y-82833705D01*
X64701509Y-83000130D01*
X64967960Y-83185922D01*
X65221586Y-83390527D01*
X65461349Y-83613393D01*
X65686216Y-83853969D01*
X65813170Y-84006104D01*
X66008771Y-84269249D01*
X66183453Y-84542377D01*
X66337200Y-84824365D01*
X66469999Y-85114089D01*
X66581836Y-85410428D01*
X66672695Y-85712258D01*
X66742564Y-86018457D01*
X66791426Y-86327901D01*
X66819270Y-86639469D01*
X66826079Y-86952038D01*
X66811839Y-87264483D01*
X66776537Y-87575684D01*
X66720158Y-87884518D01*
X66642688Y-88189860D01*
X66544113Y-88490590D01*
X66424417Y-88785583D01*
X66283588Y-89073718D01*
X66121610Y-89353871D01*
X65938469Y-89624920D01*
X65885599Y-89696122D01*
X65714823Y-89907089D01*
X65526103Y-90113820D01*
X65324794Y-90310959D01*
X65116252Y-90493148D01*
X64985581Y-90596319D01*
X64716896Y-90785025D01*
X64436625Y-90953649D01*
X64146069Y-91101793D01*
X63846531Y-91229058D01*
X63539311Y-91335047D01*
X63225711Y-91419362D01*
X62907032Y-91481603D01*
X62584575Y-91521374D01*
X62259642Y-91538275D01*
X61933534Y-91531909D01*
X61928611Y-91531633D01*
X61600847Y-91501380D01*
X61278334Y-91448422D01*
X60962106Y-91373345D01*
X60653195Y-91276737D01*
X60352631Y-91159183D01*
X60061448Y-91021273D01*
X59780677Y-90863592D01*
X59511350Y-90686727D01*
X59254500Y-90491266D01*
X59011158Y-90277796D01*
X58782357Y-90046904D01*
X58569128Y-89799176D01*
X58372504Y-89535200D01*
X58343047Y-89492078D01*
X58165336Y-89208323D01*
X58009974Y-88916769D01*
X57876952Y-88617387D01*
X57766259Y-88310149D01*
X57677887Y-87995028D01*
X57611825Y-87671997D01*
X57568064Y-87341026D01*
X57559992Y-87249297D01*
X57554131Y-87145596D01*
X57551166Y-87025428D01*
X57550950Y-86894662D01*
X57553026Y-86776731D01*
X57741444Y-86776731D01*
X57744108Y-87091754D01*
X57769205Y-87405363D01*
X57816573Y-87716380D01*
X57886051Y-88023626D01*
X57977476Y-88325925D01*
X58090686Y-88622100D01*
X58225518Y-88910972D01*
X58381810Y-89191364D01*
X58486363Y-89355857D01*
X58563902Y-89469634D01*
X58637382Y-89571451D01*
X58710687Y-89665985D01*
X58787701Y-89757913D01*
X58872305Y-89851915D01*
X58968385Y-89952666D01*
X59051731Y-90036892D01*
X59202702Y-90183021D01*
X59346751Y-90312404D01*
X59488675Y-90428862D01*
X59633271Y-90536218D01*
X59785337Y-90638293D01*
X59882635Y-90698884D01*
X60162699Y-90855117D01*
X60453262Y-90990634D01*
X60752692Y-91104935D01*
X61059359Y-91197520D01*
X61371633Y-91267886D01*
X61687882Y-91315534D01*
X61964119Y-91338074D01*
X62039440Y-91341398D01*
X62107456Y-91343329D01*
X62173662Y-91343809D01*
X62243555Y-91342778D01*
X62322629Y-91340176D01*
X62416380Y-91335945D01*
X62484902Y-91332445D01*
X62774008Y-91305895D01*
X63065385Y-91257060D01*
X63356574Y-91186851D01*
X63645117Y-91096178D01*
X63928556Y-90985950D01*
X64204432Y-90857078D01*
X64470286Y-90710472D01*
X64723660Y-90547041D01*
X64846178Y-90458339D01*
X65053069Y-90291758D01*
X65256429Y-90106985D01*
X65450852Y-89909429D01*
X65630930Y-89704495D01*
X65747342Y-89557175D01*
X65929753Y-89295291D01*
X66092000Y-89021651D01*
X66233701Y-88737501D01*
X66354474Y-88444089D01*
X66453937Y-88142661D01*
X66531708Y-87834463D01*
X66587404Y-87520742D01*
X66620642Y-87202744D01*
X66631042Y-86881717D01*
X66626281Y-86690752D01*
X66599823Y-86365544D01*
X66550906Y-86047698D01*
X66479499Y-85737138D01*
X66385575Y-85433788D01*
X66269104Y-85137572D01*
X66130058Y-84848413D01*
X65968407Y-84566235D01*
X65784123Y-84290961D01*
X65655555Y-84119986D01*
X65606996Y-84061530D01*
X65544084Y-83990979D01*
X65470289Y-83911815D01*
X65389086Y-83827520D01*
X65303946Y-83741573D01*
X65218341Y-83657457D01*
X65135743Y-83578653D01*
X65059626Y-83508642D01*
X64993461Y-83450904D01*
X64964538Y-83427202D01*
X64704292Y-83234956D01*
X64433426Y-83063244D01*
X64153104Y-82912280D01*
X63864487Y-82782276D01*
X63568738Y-82673444D01*
X63267018Y-82585996D01*
X62960492Y-82520145D01*
X62650320Y-82476102D01*
X62337665Y-82454081D01*
X62023689Y-82454293D01*
X61709555Y-82476951D01*
X61396425Y-82522266D01*
X61085462Y-82590452D01*
X60815041Y-82669375D01*
X60511423Y-82780852D01*
X60218916Y-82912817D01*
X59938360Y-83064430D01*
X59670596Y-83234849D01*
X59416463Y-83423236D01*
X59176802Y-83628751D01*
X58952452Y-83850552D01*
X58744253Y-84087800D01*
X58553047Y-84339656D01*
X58379672Y-84605278D01*
X58224969Y-84883827D01*
X58089778Y-85174463D01*
X57974939Y-85476345D01*
X57958378Y-85526038D01*
X57869682Y-85834946D01*
X57804069Y-86147149D01*
X57761378Y-86461470D01*
X57741444Y-86776731D01*
X57553026Y-86776731D01*
X57553335Y-86759167D01*
X57558173Y-86624812D01*
X57565317Y-86497465D01*
X57574619Y-86382995D01*
X57583830Y-86302283D01*
X57615568Y-86094724D01*
X57653494Y-85901213D01*
X57699718Y-85712481D01*
X57756349Y-85519258D01*
X57775865Y-85458473D01*
X57889289Y-85148196D01*
X58022636Y-84850452D01*
X58176160Y-84564833D01*
X58350115Y-84290925D01*
X58544754Y-84028318D01*
X58760332Y-83776601D01*
X58909719Y-83620716D01*
X59155303Y-83391417D01*
X59413046Y-83182322D01*
X59682363Y-82993703D01*
X59962667Y-82825833D01*
X60253372Y-82678985D01*
X60553893Y-82553431D01*
X60863645Y-82449445D01*
X61182040Y-82367299D01*
X61508493Y-82307266D01*
X61804333Y-82272742D01*
X61892770Y-82267006D01*
X61998305Y-82263147D01*
X62114441Y-82261168D01*
X62234681Y-82261067D01*
X62352524Y-82262844D01*
G37*
G36*
X62295526Y-83495071D02*
G01*
X62581147Y-83515855D01*
X62860947Y-83559500D01*
X63134532Y-83625915D01*
X63401509Y-83715008D01*
X63588809Y-83792872D01*
X63835961Y-83917243D01*
X64072073Y-84061876D01*
X64295845Y-84225457D01*
X64505978Y-84406670D01*
X64701171Y-84604204D01*
X64880125Y-84816743D01*
X65041539Y-85042974D01*
X65184114Y-85281582D01*
X65304873Y-85527446D01*
X65407352Y-85788759D01*
X65487296Y-86055598D01*
X65544793Y-86326538D01*
X65579933Y-86600154D01*
X65592805Y-86875024D01*
X65583499Y-87149722D01*
X65552104Y-87422826D01*
X65498709Y-87692910D01*
X65423403Y-87958550D01*
X65326276Y-88218324D01*
X65207417Y-88470806D01*
X65109318Y-88645805D01*
X64954968Y-88880459D01*
X64783085Y-89100169D01*
X64594909Y-89304129D01*
X64391678Y-89491532D01*
X64174631Y-89661573D01*
X63945008Y-89813444D01*
X63704047Y-89946339D01*
X63452988Y-90059451D01*
X63193070Y-90151974D01*
X62925531Y-90223100D01*
X62651611Y-90272024D01*
X62601291Y-90278462D01*
X62481073Y-90290103D01*
X62348940Y-90298079D01*
X62213243Y-90302165D01*
X62082333Y-90302134D01*
X61964562Y-90297761D01*
X61942599Y-90296293D01*
X61663117Y-90264213D01*
X61389160Y-90209537D01*
X61121929Y-90132943D01*
X61030765Y-90098547D01*
X62480506Y-90098547D01*
X62556679Y-90090326D01*
X62596692Y-90084919D01*
X62653100Y-90075851D01*
X62719123Y-90064276D01*
X62787979Y-90051349D01*
X62805012Y-90048008D01*
X63071719Y-89983413D01*
X63329039Y-89897629D01*
X63576001Y-89791593D01*
X63811629Y-89666241D01*
X64034950Y-89522512D01*
X64244991Y-89361342D01*
X64440777Y-89183669D01*
X64621336Y-88990431D01*
X64785694Y-88782563D01*
X64932876Y-88561004D01*
X65061910Y-88326691D01*
X65171821Y-88080561D01*
X65261636Y-87823551D01*
X65312946Y-87633830D01*
X65339025Y-87517271D01*
X65358928Y-87409947D01*
X65373537Y-87304755D01*
X65383733Y-87194590D01*
X65390399Y-87072347D01*
X65393141Y-86987530D01*
X65390939Y-86723928D01*
X65369858Y-86471927D01*
X65329196Y-86227960D01*
X65268248Y-85988461D01*
X65186312Y-85749864D01*
X65115563Y-85580288D01*
X65046904Y-85438806D01*
X64966089Y-85292997D01*
X64876259Y-85147508D01*
X64780555Y-85006986D01*
X64682120Y-84876079D01*
X64584095Y-84759436D01*
X64503809Y-84675331D01*
X64449673Y-84622564D01*
X64449673Y-86493466D01*
X64449673Y-88364368D01*
X63630486Y-89085049D01*
X63506955Y-89193735D01*
X63385399Y-89300704D01*
X63267412Y-89404549D01*
X63154591Y-89503866D01*
X63048532Y-89597249D01*
X62950830Y-89683293D01*
X62863080Y-89760593D01*
X62786880Y-89827743D01*
X62723824Y-89883338D01*
X62675508Y-89925972D01*
X62645902Y-89952139D01*
X62480506Y-90098547D01*
X61030765Y-90098547D01*
X60862627Y-90035109D01*
X60612453Y-89916713D01*
X60372610Y-89778432D01*
X60144298Y-89620944D01*
X59928718Y-89444927D01*
X59727073Y-89251059D01*
X59540561Y-89040018D01*
X59407789Y-88865920D01*
X59255928Y-88633092D01*
X59124598Y-88389516D01*
X59014071Y-88136685D01*
X58924619Y-87876092D01*
X58856510Y-87609230D01*
X58810017Y-87337591D01*
X58785409Y-87062668D01*
X58785107Y-87028551D01*
X58976312Y-87028551D01*
X58998995Y-87297092D01*
X59044648Y-87564266D01*
X59113324Y-87828869D01*
X59202647Y-88083597D01*
X59314172Y-88332890D01*
X59445143Y-88569522D01*
X59594495Y-88792650D01*
X59761165Y-89001432D01*
X59944088Y-89195025D01*
X60142200Y-89372587D01*
X60354437Y-89533276D01*
X60579735Y-89676251D01*
X60817029Y-89800668D01*
X61065256Y-89905686D01*
X61323351Y-89990462D01*
X61590249Y-90054154D01*
X61721481Y-90077037D01*
X61789080Y-90086966D01*
X61835873Y-90092613D01*
X61864304Y-90094133D01*
X61876819Y-90091679D01*
X61876937Y-90086835D01*
X61867451Y-90077992D01*
X61841318Y-90054554D01*
X61799687Y-90017534D01*
X61743709Y-89967948D01*
X61674532Y-89906807D01*
X61593307Y-89835128D01*
X61501183Y-89753922D01*
X61399309Y-89664204D01*
X61288836Y-89566989D01*
X61170913Y-89463289D01*
X61046689Y-89354119D01*
X60917315Y-89240492D01*
X60900545Y-89225768D01*
X59929879Y-88373578D01*
X59929105Y-86499549D01*
X59928948Y-86276260D01*
X59928909Y-86246725D01*
X60117707Y-86246725D01*
X60118237Y-87262807D01*
X60118768Y-88278890D01*
X61150926Y-89186877D01*
X61284815Y-89304645D01*
X61413686Y-89417973D01*
X61536432Y-89525889D01*
X61651945Y-89627420D01*
X61759119Y-89721594D01*
X61856847Y-89807439D01*
X61944022Y-89883983D01*
X62019536Y-89950255D01*
X62082283Y-90005281D01*
X62131157Y-90048090D01*
X62165049Y-90077710D01*
X62182853Y-90093169D01*
X62185386Y-90095288D01*
X62194423Y-90087753D01*
X62219728Y-90065870D01*
X62259812Y-90030942D01*
X62313185Y-89984274D01*
X62378358Y-89927173D01*
X62453841Y-89860943D01*
X62538147Y-89786889D01*
X62629785Y-89706316D01*
X62727266Y-89620530D01*
X62759430Y-89592208D01*
X62858543Y-89504826D01*
X62952272Y-89421997D01*
X63039126Y-89345053D01*
X63117612Y-89275325D01*
X63186238Y-89214144D01*
X63243511Y-89162842D01*
X63287940Y-89122750D01*
X63318031Y-89095199D01*
X63332292Y-89081521D01*
X63333267Y-89080303D01*
X63324721Y-89071997D01*
X63299482Y-89049018D01*
X63258635Y-89012320D01*
X63203264Y-88962862D01*
X63134454Y-88901600D01*
X63053290Y-88829490D01*
X62960856Y-88747489D01*
X62858237Y-88656553D01*
X62746518Y-88557640D01*
X62626782Y-88451706D01*
X62500115Y-88339708D01*
X62367601Y-88222602D01*
X62230325Y-88101345D01*
X62089372Y-87976894D01*
X61945825Y-87850205D01*
X61800771Y-87722235D01*
X61655292Y-87593941D01*
X61510474Y-87466279D01*
X61367402Y-87340205D01*
X61227160Y-87216678D01*
X61090832Y-87096653D01*
X60959504Y-86981086D01*
X60834260Y-86870936D01*
X60716184Y-86767157D01*
X60606361Y-86670708D01*
X60505875Y-86582543D01*
X60415812Y-86503622D01*
X60337256Y-86434899D01*
X60271292Y-86377331D01*
X60219003Y-86331876D01*
X60181475Y-86299490D01*
X60159792Y-86281129D01*
X60158930Y-86280422D01*
X60117707Y-86246725D01*
X59928909Y-86246725D01*
X59928669Y-86062492D01*
X59928514Y-85982946D01*
X60117707Y-85982946D01*
X61801374Y-87465133D01*
X61972976Y-87616185D01*
X62139800Y-87763001D01*
X62300978Y-87904819D01*
X62455646Y-88040879D01*
X62602936Y-88170420D01*
X62741983Y-88292681D01*
X62871921Y-88406901D01*
X62991883Y-88512319D01*
X63101004Y-88608174D01*
X63198417Y-88693705D01*
X63283256Y-88768151D01*
X63354655Y-88830751D01*
X63411749Y-88880744D01*
X63453670Y-88917369D01*
X63479553Y-88939865D01*
X63488529Y-88947472D01*
X63497851Y-88939937D01*
X63523091Y-88918329D01*
X63562424Y-88884243D01*
X63614020Y-88839273D01*
X63676055Y-88785014D01*
X63746700Y-88723060D01*
X63824129Y-88655005D01*
X63876286Y-88609085D01*
X64260555Y-88270546D01*
X64257468Y-87782293D01*
X64254380Y-87294041D01*
X62645392Y-85877915D01*
X61043129Y-84467707D01*
X61338126Y-84467707D01*
X62796253Y-85750864D01*
X64254380Y-87034021D01*
X64257392Y-85751903D01*
X64257760Y-85579754D01*
X64258041Y-85414324D01*
X64258239Y-85257140D01*
X64258353Y-85109733D01*
X64258384Y-84973630D01*
X64258335Y-84850362D01*
X64258206Y-84741456D01*
X64257998Y-84648442D01*
X64257713Y-84572849D01*
X64257352Y-84516205D01*
X64256917Y-84480040D01*
X64256407Y-84465882D01*
X64256359Y-84465740D01*
X64244244Y-84465254D01*
X64209890Y-84464833D01*
X64154732Y-84464477D01*
X64080202Y-84464187D01*
X63987735Y-84463965D01*
X63878762Y-84463812D01*
X63754719Y-84463728D01*
X63617038Y-84463715D01*
X63467152Y-84463774D01*
X63306496Y-84463905D01*
X63136503Y-84464110D01*
X62958605Y-84464389D01*
X62795220Y-84464701D01*
X61338126Y-84467707D01*
X61043129Y-84467707D01*
X61036405Y-84461789D01*
X60577056Y-84461789D01*
X60117707Y-84461789D01*
X60117707Y-85222367D01*
X60117707Y-85982946D01*
X59928514Y-85982946D01*
X59928274Y-85859315D01*
X59927770Y-85667801D01*
X59927164Y-85489022D01*
X59926461Y-85324049D01*
X59925924Y-85222367D01*
X59925668Y-85173954D01*
X59924792Y-85039808D01*
X59923839Y-84922683D01*
X59922815Y-84823650D01*
X59921728Y-84743781D01*
X59920582Y-84684147D01*
X59919386Y-84645820D01*
X59918144Y-84629872D01*
X59917882Y-84629465D01*
X59902635Y-84641327D01*
X59875485Y-84668430D01*
X59839282Y-84707500D01*
X59796876Y-84755266D01*
X59751116Y-84808454D01*
X59704851Y-84863792D01*
X59660931Y-84918008D01*
X59622205Y-84967829D01*
X59615576Y-84976654D01*
X59547243Y-85070315D01*
X59489494Y-85154816D01*
X59437809Y-85237473D01*
X59387672Y-85325603D01*
X59334562Y-85426523D01*
X59319583Y-85456010D01*
X59205572Y-85707475D01*
X59114208Y-85964794D01*
X59045547Y-86226766D01*
X58999642Y-86492185D01*
X58976545Y-86759848D01*
X58976312Y-87028551D01*
X58785107Y-87028551D01*
X58782959Y-86785955D01*
X58802935Y-86508943D01*
X58845610Y-86233127D01*
X58892912Y-86027045D01*
X58972902Y-85767759D01*
X59074700Y-85514100D01*
X59196936Y-85268279D01*
X59338238Y-85032506D01*
X59497235Y-84808993D01*
X59672556Y-84599951D01*
X59862830Y-84407591D01*
X59940167Y-84338114D01*
X60051952Y-84248557D01*
X60373548Y-84248557D01*
X60382497Y-84250378D01*
X60413249Y-84252042D01*
X60465964Y-84253548D01*
X60540798Y-84254898D01*
X60637909Y-84256093D01*
X60757455Y-84257133D01*
X60899593Y-84258021D01*
X61064482Y-84258757D01*
X61252278Y-84259341D01*
X61463141Y-84259776D01*
X61697226Y-84260061D01*
X61954693Y-84260199D01*
X62189594Y-84260201D01*
X62433967Y-84260134D01*
X62655730Y-84260034D01*
X62855945Y-84259888D01*
X63035671Y-84259686D01*
X63195973Y-84259416D01*
X63337910Y-84259069D01*
X63462545Y-84258631D01*
X63570938Y-84258094D01*
X63664152Y-84257445D01*
X63743249Y-84256674D01*
X63809289Y-84255770D01*
X63863335Y-84254721D01*
X63906447Y-84253517D01*
X63939688Y-84252147D01*
X63964118Y-84250599D01*
X63980801Y-84248864D01*
X63990796Y-84246928D01*
X63995166Y-84244783D01*
X63994973Y-84242416D01*
X63993988Y-84241506D01*
X63966476Y-84222537D01*
X63922856Y-84195134D01*
X63867877Y-84162059D01*
X63806288Y-84126073D01*
X63742837Y-84089937D01*
X63682275Y-84056414D01*
X63629350Y-84028265D01*
X63612621Y-84019748D01*
X63368126Y-83910405D01*
X63115438Y-83822613D01*
X62856355Y-83756463D01*
X62592679Y-83712048D01*
X62326208Y-83689459D01*
X62058745Y-83688788D01*
X61792087Y-83710127D01*
X61528037Y-83753568D01*
X61268393Y-83819202D01*
X61060491Y-83889476D01*
X60988631Y-83918447D01*
X60908056Y-83953945D01*
X60822257Y-83994145D01*
X60734727Y-84037220D01*
X60648959Y-84081345D01*
X60568444Y-84124695D01*
X60496675Y-84165445D01*
X60437145Y-84201768D01*
X60393345Y-84231840D01*
X60373548Y-84248557D01*
X60051952Y-84248557D01*
X60165387Y-84157678D01*
X60401008Y-83998218D01*
X60646198Y-83860033D01*
X60900124Y-83743421D01*
X61161954Y-83648679D01*
X61430856Y-83576106D01*
X61705997Y-83526000D01*
X61986543Y-83498658D01*
X62271664Y-83494380D01*
X62295526Y-83495071D01*
G37*
D13*
%TO.C,J12*%
X56830000Y-119475000D02*
X56830000Y-120825000D01*
X56830000Y-123325000D02*
X56830000Y-124925000D01*
X65770000Y-119475000D02*
X65770000Y-120825000D01*
X65770000Y-123325000D02*
X65770000Y-124925000D01*
D12*
X58200000Y-116275000D02*
G75*
G02*
X58000000Y-116275000I-100000J0D01*
G01*
X58000000Y-116275000D02*
G75*
G02*
X58200000Y-116275000I100000J0D01*
G01*
D14*
%TO.C,U15*%
X65939999Y-114500000D02*
X65940000Y-113700000D01*
X65939999Y-114500000D02*
X65940000Y-115300000D01*
X69060001Y-114500000D02*
X69060000Y-113700000D01*
X69060001Y-114500000D02*
X69060000Y-115300000D01*
X69340000Y-113440000D02*
X69010000Y-113200000D01*
X69340000Y-112960000D01*
X69340000Y-113440000D01*
G36*
X69340000Y-113440000D02*
G01*
X69010000Y-113200000D01*
X69340000Y-112960000D01*
X69340000Y-113440000D01*
G37*
%TO.C,R7*%
X87477500Y-72237258D02*
X87477500Y-71762742D01*
X88522500Y-72237258D02*
X88522500Y-71762742D01*
%TO.C,C23*%
X63140000Y-101090581D02*
X63140000Y-100809419D01*
X64160000Y-101090581D02*
X64160000Y-100809419D01*
%TO.C,R42*%
X75387258Y-104877499D02*
X74912742Y-104877499D01*
X75387258Y-105922499D02*
X74912742Y-105922499D01*
%TO.C,U11*%
X57140000Y-65860000D02*
X57140000Y-50140000D01*
X72860000Y-50140000D02*
X57140000Y-50140000D01*
X72860000Y-61450000D02*
X72860000Y-50140000D01*
X72860000Y-65860000D02*
X57140000Y-65860000D01*
X72860000Y-65860000D02*
X72860000Y-62150000D01*
X73190000Y-62040000D02*
X72860000Y-61800000D01*
X73190000Y-61560001D01*
X73190000Y-62040000D01*
G36*
X73190000Y-62040000D02*
G01*
X72860000Y-61800000D01*
X73190000Y-61560001D01*
X73190000Y-62040000D01*
G37*
%TO.C,R8*%
X87262742Y-59977500D02*
X87737258Y-59977500D01*
X87262742Y-61022500D02*
X87737258Y-61022500D01*
D16*
%TO.C,SW5*%
X50871200Y-99425900D02*
X50871200Y-104074100D01*
X52313341Y-104074100D02*
X53086659Y-104074100D01*
X53086659Y-99425900D02*
X52313341Y-99425900D01*
X54528800Y-104074100D02*
X54528800Y-99425900D01*
D11*
X53925000Y-98550000D02*
G75*
G02*
X53675000Y-98550000I-125000J0D01*
G01*
X53675000Y-98550000D02*
G75*
G02*
X53925000Y-98550000I125000J0D01*
G01*
D14*
%TO.C,C20*%
X65140581Y-70640000D02*
X64859419Y-70640000D01*
X65140581Y-71660000D02*
X64859419Y-71660000D01*
D16*
%TO.C,SW3*%
X50871200Y-86825900D02*
X50871200Y-91474100D01*
X52313341Y-91474100D02*
X53086659Y-91474100D01*
X53086659Y-86825900D02*
X52313341Y-86825900D01*
X54528800Y-91474100D02*
X54528800Y-86825900D01*
D11*
X53925000Y-85950000D02*
G75*
G02*
X53675000Y-85950000I-125000J0D01*
G01*
X53675000Y-85950000D02*
G75*
G02*
X53925000Y-85950000I125000J0D01*
G01*
D14*
%TO.C,R47*%
X62677500Y-115062258D02*
X62677500Y-114587742D01*
X63722500Y-115062258D02*
X63722500Y-114587742D01*
%TO.C,R14*%
X67727501Y-123012742D02*
X67727501Y-123487258D01*
X68772501Y-123012742D02*
X68772501Y-123487258D01*
%TO.C,R54*%
X51962742Y-82777500D02*
X52437258Y-82777500D01*
X51962742Y-83822500D02*
X52437258Y-83822500D01*
%TO.C,R51*%
X83898303Y-79862769D02*
X83562770Y-80198302D01*
X84637230Y-80601696D02*
X84301697Y-80937229D01*
%TO.C,R11*%
X67262742Y-108977500D02*
X67737258Y-108977500D01*
X67262742Y-110022500D02*
X67737258Y-110022500D01*
%TO.C,U14*%
X59089999Y-113950000D02*
X59090000Y-113150000D01*
X59089999Y-113950000D02*
X59090000Y-114750000D01*
X62210001Y-113950000D02*
X62210000Y-113150000D01*
X62210001Y-113950000D02*
X62210000Y-114750000D01*
X59140000Y-115250000D02*
X58810000Y-115490000D01*
X58810000Y-115010000D01*
X59140000Y-115250000D01*
G36*
X59140000Y-115250000D02*
G01*
X58810000Y-115490000D01*
X58810000Y-115010000D01*
X59140000Y-115250000D01*
G37*
D13*
%TO.C,J11*%
X83050000Y-85000000D02*
X89950000Y-85000000D01*
X83050000Y-92000000D02*
X83050000Y-85000000D01*
X89950000Y-85000000D02*
X89950000Y-92000000D01*
X89950000Y-92000000D02*
X83050000Y-92000000D01*
D12*
X86600001Y-92500000D02*
G75*
G02*
X86399999Y-92500000I-100001J0D01*
G01*
X86399999Y-92500000D02*
G75*
G02*
X86600001Y-92500000I100001J0D01*
G01*
D14*
%TO.C,R30*%
X71787742Y-100027500D02*
X72262258Y-100027500D01*
X71787742Y-101072500D02*
X72262258Y-101072500D01*
%TO.C,R39*%
X71762742Y-90477500D02*
X72237258Y-90477500D01*
X71762742Y-91522500D02*
X72237258Y-91522500D01*
%TO.C,R38*%
X71762742Y-103227500D02*
X72237258Y-103227500D01*
X71762742Y-104272500D02*
X72237258Y-104272500D01*
%TO.C,C21*%
X65140581Y-69140000D02*
X64859419Y-69140000D01*
X65140581Y-70160000D02*
X64859419Y-70160000D01*
%TO.C,R33*%
X72237258Y-92077500D02*
X71762742Y-92077500D01*
X72237258Y-93122500D02*
X71762742Y-93122500D01*
%TO.C,U16*%
X85000000Y-114439999D02*
X84200000Y-114440000D01*
X85000000Y-114439999D02*
X85800000Y-114440000D01*
X85000000Y-117560001D02*
X84200000Y-117560000D01*
X85000000Y-117560001D02*
X85800000Y-117560000D01*
X86540000Y-117840000D02*
X86060000Y-117840000D01*
X86300000Y-117510000D01*
X86540000Y-117840000D01*
G36*
X86540000Y-117840000D02*
G01*
X86060000Y-117840000D01*
X86300000Y-117510000D01*
X86540000Y-117840000D01*
G37*
%TO.C,R52*%
X83998303Y-82062770D02*
X83662770Y-82398303D01*
X84737230Y-82801697D02*
X84401697Y-83137230D01*
%TO.C,J4*%
X70290000Y-108540000D02*
X70290000Y-117260000D01*
X71590000Y-106840000D02*
X70290000Y-108540000D01*
X74410000Y-106840000D02*
X71590000Y-106840000D01*
X74410000Y-106840000D02*
X75710000Y-108540000D01*
X75710000Y-108540000D02*
X75710000Y-117260000D01*
X75710000Y-117260000D02*
X70290000Y-117260000D01*
%TD*%
M02*
