%TF.GenerationSoftware,KiCad,Pcbnew,9.0.0*%
%TF.CreationDate,2026-03-17T13:32:31-04:00*%
%TF.ProjectId,CUR_flight_computer_25-26,4355525f-666c-4696-9768-745f636f6d70,rev?*%
%TF.SameCoordinates,Original*%
%TF.FileFunction,Legend,Top*%
%TF.FilePolarity,Positive*%
%FSLAX46Y46*%
G04 Gerber Fmt 4.6, Leading zero omitted, Abs format (unit mm)*
G04 Created by KiCad (PCBNEW 9.0.0) date 2026-03-17 13:32:31*
%MOMM*%
%LPD*%
G01*
G04 APERTURE LIST*
%ADD10C,0.150000*%
%ADD11C,0.250000*%
%ADD12C,0.200000*%
%ADD13C,0.127000*%
%ADD14C,0.120000*%
%ADD15C,0.100000*%
%ADD16C,0.152400*%
%ADD17C,0.000000*%
G04 APERTURE END LIST*
D10*
X85619048Y-118038152D02*
X84857143Y-118323866D01*
X84857143Y-118323866D02*
X85619048Y-118609580D01*
X86809524Y-118657200D02*
X86952381Y-118704819D01*
X86952381Y-118704819D02*
X87190476Y-118704819D01*
X87190476Y-118704819D02*
X87285714Y-118657200D01*
X87285714Y-118657200D02*
X87333333Y-118609580D01*
X87333333Y-118609580D02*
X87380952Y-118514342D01*
X87380952Y-118514342D02*
X87380952Y-118419104D01*
X87380952Y-118419104D02*
X87333333Y-118323866D01*
X87333333Y-118323866D02*
X87285714Y-118276247D01*
X87285714Y-118276247D02*
X87190476Y-118228628D01*
X87190476Y-118228628D02*
X87000000Y-118181009D01*
X87000000Y-118181009D02*
X86904762Y-118133390D01*
X86904762Y-118133390D02*
X86857143Y-118085771D01*
X86857143Y-118085771D02*
X86809524Y-117990533D01*
X86809524Y-117990533D02*
X86809524Y-117895295D01*
X86809524Y-117895295D02*
X86857143Y-117800057D01*
X86857143Y-117800057D02*
X86904762Y-117752438D01*
X86904762Y-117752438D02*
X87000000Y-117704819D01*
X87000000Y-117704819D02*
X87238095Y-117704819D01*
X87238095Y-117704819D02*
X87380952Y-117752438D01*
X88000000Y-118228628D02*
X88000000Y-118704819D01*
X87666667Y-117704819D02*
X88000000Y-118228628D01*
X88000000Y-118228628D02*
X88333333Y-117704819D01*
X88619048Y-118657200D02*
X88761905Y-118704819D01*
X88761905Y-118704819D02*
X89000000Y-118704819D01*
X89000000Y-118704819D02*
X89095238Y-118657200D01*
X89095238Y-118657200D02*
X89142857Y-118609580D01*
X89142857Y-118609580D02*
X89190476Y-118514342D01*
X89190476Y-118514342D02*
X89190476Y-118419104D01*
X89190476Y-118419104D02*
X89142857Y-118323866D01*
X89142857Y-118323866D02*
X89095238Y-118276247D01*
X89095238Y-118276247D02*
X89000000Y-118228628D01*
X89000000Y-118228628D02*
X88809524Y-118181009D01*
X88809524Y-118181009D02*
X88714286Y-118133390D01*
X88714286Y-118133390D02*
X88666667Y-118085771D01*
X88666667Y-118085771D02*
X88619048Y-117990533D01*
X88619048Y-117990533D02*
X88619048Y-117895295D01*
X88619048Y-117895295D02*
X88666667Y-117800057D01*
X88666667Y-117800057D02*
X88714286Y-117752438D01*
X88714286Y-117752438D02*
X88809524Y-117704819D01*
X88809524Y-117704819D02*
X89047619Y-117704819D01*
X89047619Y-117704819D02*
X89190476Y-117752438D01*
X84285714Y-119954819D02*
X84285714Y-118954819D01*
X84285714Y-118954819D02*
X84666666Y-118954819D01*
X84666666Y-118954819D02*
X84761904Y-119002438D01*
X84761904Y-119002438D02*
X84809523Y-119050057D01*
X84809523Y-119050057D02*
X84857142Y-119145295D01*
X84857142Y-119145295D02*
X84857142Y-119288152D01*
X84857142Y-119288152D02*
X84809523Y-119383390D01*
X84809523Y-119383390D02*
X84761904Y-119431009D01*
X84761904Y-119431009D02*
X84666666Y-119478628D01*
X84666666Y-119478628D02*
X84285714Y-119478628D01*
X85476190Y-119478628D02*
X85476190Y-119954819D01*
X85142857Y-118954819D02*
X85476190Y-119478628D01*
X85476190Y-119478628D02*
X85809523Y-118954819D01*
X86714285Y-119954819D02*
X86380952Y-119478628D01*
X86142857Y-119954819D02*
X86142857Y-118954819D01*
X86142857Y-118954819D02*
X86523809Y-118954819D01*
X86523809Y-118954819D02*
X86619047Y-119002438D01*
X86619047Y-119002438D02*
X86666666Y-119050057D01*
X86666666Y-119050057D02*
X86714285Y-119145295D01*
X86714285Y-119145295D02*
X86714285Y-119288152D01*
X86714285Y-119288152D02*
X86666666Y-119383390D01*
X86666666Y-119383390D02*
X86619047Y-119431009D01*
X86619047Y-119431009D02*
X86523809Y-119478628D01*
X86523809Y-119478628D02*
X86142857Y-119478628D01*
X87333333Y-118954819D02*
X87523809Y-118954819D01*
X87523809Y-118954819D02*
X87619047Y-119002438D01*
X87619047Y-119002438D02*
X87714285Y-119097676D01*
X87714285Y-119097676D02*
X87761904Y-119288152D01*
X87761904Y-119288152D02*
X87761904Y-119621485D01*
X87761904Y-119621485D02*
X87714285Y-119811961D01*
X87714285Y-119811961D02*
X87619047Y-119907200D01*
X87619047Y-119907200D02*
X87523809Y-119954819D01*
X87523809Y-119954819D02*
X87333333Y-119954819D01*
X87333333Y-119954819D02*
X87238095Y-119907200D01*
X87238095Y-119907200D02*
X87142857Y-119811961D01*
X87142857Y-119811961D02*
X87095238Y-119621485D01*
X87095238Y-119621485D02*
X87095238Y-119288152D01*
X87095238Y-119288152D02*
X87142857Y-119097676D01*
X87142857Y-119097676D02*
X87238095Y-119002438D01*
X87238095Y-119002438D02*
X87333333Y-118954819D01*
X88952381Y-119288152D02*
X89714286Y-119573866D01*
X89714286Y-119573866D02*
X88952381Y-119859580D01*
X86380952Y-76954819D02*
X85904762Y-76954819D01*
X85904762Y-76954819D02*
X85904762Y-75954819D01*
X86714286Y-76431009D02*
X87047619Y-76431009D01*
X87190476Y-76954819D02*
X86714286Y-76954819D01*
X86714286Y-76954819D02*
X86714286Y-75954819D01*
X86714286Y-75954819D02*
X87190476Y-75954819D01*
X87619048Y-76954819D02*
X87619048Y-75954819D01*
X87619048Y-75954819D02*
X87857143Y-75954819D01*
X87857143Y-75954819D02*
X88000000Y-76002438D01*
X88000000Y-76002438D02*
X88095238Y-76097676D01*
X88095238Y-76097676D02*
X88142857Y-76192914D01*
X88142857Y-76192914D02*
X88190476Y-76383390D01*
X88190476Y-76383390D02*
X88190476Y-76526247D01*
X88190476Y-76526247D02*
X88142857Y-76716723D01*
X88142857Y-76716723D02*
X88095238Y-76811961D01*
X88095238Y-76811961D02*
X88000000Y-76907200D01*
X88000000Y-76907200D02*
X87857143Y-76954819D01*
X87857143Y-76954819D02*
X87619048Y-76954819D01*
X88571429Y-76050057D02*
X88619048Y-76002438D01*
X88619048Y-76002438D02*
X88714286Y-75954819D01*
X88714286Y-75954819D02*
X88952381Y-75954819D01*
X88952381Y-75954819D02*
X89047619Y-76002438D01*
X89047619Y-76002438D02*
X89095238Y-76050057D01*
X89095238Y-76050057D02*
X89142857Y-76145295D01*
X89142857Y-76145295D02*
X89142857Y-76240533D01*
X89142857Y-76240533D02*
X89095238Y-76383390D01*
X89095238Y-76383390D02*
X88523810Y-76954819D01*
X88523810Y-76954819D02*
X89142857Y-76954819D01*
X55545180Y-78880952D02*
X55545180Y-78404762D01*
X55545180Y-78404762D02*
X56545180Y-78404762D01*
X56068990Y-79214286D02*
X56068990Y-79547619D01*
X55545180Y-79690476D02*
X55545180Y-79214286D01*
X55545180Y-79214286D02*
X56545180Y-79214286D01*
X56545180Y-79214286D02*
X56545180Y-79690476D01*
X55545180Y-80119048D02*
X56545180Y-80119048D01*
X56545180Y-80119048D02*
X56545180Y-80357143D01*
X56545180Y-80357143D02*
X56497561Y-80500000D01*
X56497561Y-80500000D02*
X56402323Y-80595238D01*
X56402323Y-80595238D02*
X56307085Y-80642857D01*
X56307085Y-80642857D02*
X56116609Y-80690476D01*
X56116609Y-80690476D02*
X55973752Y-80690476D01*
X55973752Y-80690476D02*
X55783276Y-80642857D01*
X55783276Y-80642857D02*
X55688038Y-80595238D01*
X55688038Y-80595238D02*
X55592800Y-80500000D01*
X55592800Y-80500000D02*
X55545180Y-80357143D01*
X55545180Y-80357143D02*
X55545180Y-80119048D01*
X55545180Y-81642857D02*
X55545180Y-81071429D01*
X55545180Y-81357143D02*
X56545180Y-81357143D01*
X56545180Y-81357143D02*
X56402323Y-81261905D01*
X56402323Y-81261905D02*
X56307085Y-81166667D01*
X56307085Y-81166667D02*
X56259466Y-81071429D01*
X55568990Y-100440476D02*
X55521371Y-100583333D01*
X55521371Y-100583333D02*
X55473752Y-100630952D01*
X55473752Y-100630952D02*
X55378514Y-100678571D01*
X55378514Y-100678571D02*
X55235657Y-100678571D01*
X55235657Y-100678571D02*
X55140419Y-100630952D01*
X55140419Y-100630952D02*
X55092800Y-100583333D01*
X55092800Y-100583333D02*
X55045180Y-100488095D01*
X55045180Y-100488095D02*
X55045180Y-100107143D01*
X55045180Y-100107143D02*
X56045180Y-100107143D01*
X56045180Y-100107143D02*
X56045180Y-100440476D01*
X56045180Y-100440476D02*
X55997561Y-100535714D01*
X55997561Y-100535714D02*
X55949942Y-100583333D01*
X55949942Y-100583333D02*
X55854704Y-100630952D01*
X55854704Y-100630952D02*
X55759466Y-100630952D01*
X55759466Y-100630952D02*
X55664228Y-100583333D01*
X55664228Y-100583333D02*
X55616609Y-100535714D01*
X55616609Y-100535714D02*
X55568990Y-100440476D01*
X55568990Y-100440476D02*
X55568990Y-100107143D01*
X56045180Y-100964286D02*
X56045180Y-101535714D01*
X55045180Y-101250000D02*
X56045180Y-101250000D01*
X55045180Y-101869048D02*
X56045180Y-101869048D01*
X56045180Y-101869048D02*
X55045180Y-102440476D01*
X55045180Y-102440476D02*
X56045180Y-102440476D01*
X56045180Y-102821429D02*
X56045180Y-103440476D01*
X56045180Y-103440476D02*
X55664228Y-103107143D01*
X55664228Y-103107143D02*
X55664228Y-103250000D01*
X55664228Y-103250000D02*
X55616609Y-103345238D01*
X55616609Y-103345238D02*
X55568990Y-103392857D01*
X55568990Y-103392857D02*
X55473752Y-103440476D01*
X55473752Y-103440476D02*
X55235657Y-103440476D01*
X55235657Y-103440476D02*
X55140419Y-103392857D01*
X55140419Y-103392857D02*
X55092800Y-103345238D01*
X55092800Y-103345238D02*
X55045180Y-103250000D01*
X55045180Y-103250000D02*
X55045180Y-102964286D01*
X55045180Y-102964286D02*
X55092800Y-102869048D01*
X55092800Y-102869048D02*
X55140419Y-102821429D01*
X55568990Y-87940476D02*
X55521371Y-88083333D01*
X55521371Y-88083333D02*
X55473752Y-88130952D01*
X55473752Y-88130952D02*
X55378514Y-88178571D01*
X55378514Y-88178571D02*
X55235657Y-88178571D01*
X55235657Y-88178571D02*
X55140419Y-88130952D01*
X55140419Y-88130952D02*
X55092800Y-88083333D01*
X55092800Y-88083333D02*
X55045180Y-87988095D01*
X55045180Y-87988095D02*
X55045180Y-87607143D01*
X55045180Y-87607143D02*
X56045180Y-87607143D01*
X56045180Y-87607143D02*
X56045180Y-87940476D01*
X56045180Y-87940476D02*
X55997561Y-88035714D01*
X55997561Y-88035714D02*
X55949942Y-88083333D01*
X55949942Y-88083333D02*
X55854704Y-88130952D01*
X55854704Y-88130952D02*
X55759466Y-88130952D01*
X55759466Y-88130952D02*
X55664228Y-88083333D01*
X55664228Y-88083333D02*
X55616609Y-88035714D01*
X55616609Y-88035714D02*
X55568990Y-87940476D01*
X55568990Y-87940476D02*
X55568990Y-87607143D01*
X56045180Y-88464286D02*
X56045180Y-89035714D01*
X55045180Y-88750000D02*
X56045180Y-88750000D01*
X55045180Y-89369048D02*
X56045180Y-89369048D01*
X56045180Y-89369048D02*
X55045180Y-89940476D01*
X55045180Y-89940476D02*
X56045180Y-89940476D01*
X55045180Y-90940476D02*
X55045180Y-90369048D01*
X55045180Y-90654762D02*
X56045180Y-90654762D01*
X56045180Y-90654762D02*
X55902323Y-90559524D01*
X55902323Y-90559524D02*
X55807085Y-90464286D01*
X55807085Y-90464286D02*
X55759466Y-90369048D01*
X55568990Y-94190476D02*
X55521371Y-94333333D01*
X55521371Y-94333333D02*
X55473752Y-94380952D01*
X55473752Y-94380952D02*
X55378514Y-94428571D01*
X55378514Y-94428571D02*
X55235657Y-94428571D01*
X55235657Y-94428571D02*
X55140419Y-94380952D01*
X55140419Y-94380952D02*
X55092800Y-94333333D01*
X55092800Y-94333333D02*
X55045180Y-94238095D01*
X55045180Y-94238095D02*
X55045180Y-93857143D01*
X55045180Y-93857143D02*
X56045180Y-93857143D01*
X56045180Y-93857143D02*
X56045180Y-94190476D01*
X56045180Y-94190476D02*
X55997561Y-94285714D01*
X55997561Y-94285714D02*
X55949942Y-94333333D01*
X55949942Y-94333333D02*
X55854704Y-94380952D01*
X55854704Y-94380952D02*
X55759466Y-94380952D01*
X55759466Y-94380952D02*
X55664228Y-94333333D01*
X55664228Y-94333333D02*
X55616609Y-94285714D01*
X55616609Y-94285714D02*
X55568990Y-94190476D01*
X55568990Y-94190476D02*
X55568990Y-93857143D01*
X56045180Y-94714286D02*
X56045180Y-95285714D01*
X55045180Y-95000000D02*
X56045180Y-95000000D01*
X55045180Y-95619048D02*
X56045180Y-95619048D01*
X56045180Y-95619048D02*
X55045180Y-96190476D01*
X55045180Y-96190476D02*
X56045180Y-96190476D01*
X55949942Y-96619048D02*
X55997561Y-96666667D01*
X55997561Y-96666667D02*
X56045180Y-96761905D01*
X56045180Y-96761905D02*
X56045180Y-97000000D01*
X56045180Y-97000000D02*
X55997561Y-97095238D01*
X55997561Y-97095238D02*
X55949942Y-97142857D01*
X55949942Y-97142857D02*
X55854704Y-97190476D01*
X55854704Y-97190476D02*
X55759466Y-97190476D01*
X55759466Y-97190476D02*
X55616609Y-97142857D01*
X55616609Y-97142857D02*
X55045180Y-96571429D01*
X55045180Y-96571429D02*
X55045180Y-97190476D01*
X59550000Y-77799999D02*
X60050000Y-78300001D01*
X66319670Y-95812737D02*
G75*
G02*
X67380330Y-95812737I530330J-530330D01*
G01*
X66850000Y-94343067D02*
X66350000Y-94843067D01*
D11*
X66975000Y-96843067D02*
G75*
G02*
X66725000Y-96843067I-125000J0D01*
G01*
X66725000Y-96843067D02*
G75*
G02*
X66975000Y-96843067I125000J0D01*
G01*
D10*
X60049999Y-79800000D02*
G75*
G02*
X59050001Y-79800000I-499999J0D01*
G01*
X59050001Y-79800000D02*
G75*
G02*
X60049999Y-79800000I499999J0D01*
G01*
X67850000Y-96843067D02*
G75*
G02*
X66850000Y-97843100I-1000000J-33D01*
G01*
X65786922Y-96319670D02*
X65786922Y-96673223D01*
X66850000Y-96843067D02*
X64350000Y-96843067D01*
X67380330Y-95812737D02*
X67026777Y-95812737D01*
X65786922Y-97380330D02*
G75*
G02*
X65786922Y-96319670I530378J530330D01*
G01*
X67350000Y-96843067D02*
G75*
G02*
X66350000Y-96843067I-500000J0D01*
G01*
X66350000Y-96843067D02*
G75*
G02*
X67350000Y-96843067I500000J0D01*
G01*
X67850000Y-96843067D02*
X67600000Y-97093067D01*
X66850000Y-94343067D02*
X67350000Y-94843067D01*
X67380330Y-95812737D02*
X67380330Y-95459184D01*
X67850000Y-96843067D02*
X68100000Y-97093067D01*
X61550001Y-79800000D02*
X61050000Y-79300000D01*
D11*
X59675000Y-79800000D02*
G75*
G02*
X59425000Y-79800000I-125000J0D01*
G01*
X59425000Y-79800000D02*
G75*
G02*
X59675000Y-79800000I125000J0D01*
G01*
D10*
X64350000Y-96843067D02*
X64850000Y-97343067D01*
X59550000Y-79800000D02*
X59550000Y-77799999D01*
X64350000Y-96843067D02*
X64850000Y-96343067D01*
X61550001Y-79800000D02*
X61050000Y-80300000D01*
X59550000Y-77799999D02*
X59050000Y-78300001D01*
X59550000Y-79800000D02*
X61550001Y-79800000D01*
X66850000Y-96843067D02*
X66850000Y-94343067D01*
X65786922Y-96319670D02*
X65433369Y-96319669D01*
X68836779Y-107838866D02*
X69598684Y-107838866D01*
D12*
G36*
X81384321Y-87261782D02*
G01*
X81466065Y-87280676D01*
X81538976Y-87312098D01*
X81596048Y-87351812D01*
X81641588Y-87401649D01*
X81673671Y-87459737D01*
X81692694Y-87524496D01*
X81699241Y-87596894D01*
X81692692Y-87669282D01*
X81673671Y-87733975D01*
X81641583Y-87792127D01*
X81596048Y-87841977D01*
X81538976Y-87881690D01*
X81466065Y-87913112D01*
X81384321Y-87932006D01*
X81284028Y-87938834D01*
X81183735Y-87932006D01*
X81101991Y-87913112D01*
X81029144Y-87881671D01*
X80972389Y-87841977D01*
X80927119Y-87792177D01*
X80894766Y-87733975D01*
X80875458Y-87669263D01*
X80868815Y-87596894D01*
X80875456Y-87524514D01*
X80894766Y-87459737D01*
X80927114Y-87401599D01*
X80972389Y-87351812D01*
X81029144Y-87312118D01*
X81101991Y-87280676D01*
X81183735Y-87261782D01*
X81284028Y-87254954D01*
X81384321Y-87261782D01*
G37*
G36*
X81679701Y-86355072D02*
G01*
X81673213Y-86466660D01*
X81664549Y-86509637D01*
X81653140Y-86541689D01*
X81627976Y-86581910D01*
X81596888Y-86606871D01*
X81559326Y-86621075D01*
X81514990Y-86626029D01*
X81463377Y-86619786D01*
X81419354Y-86601757D01*
X81383605Y-86569687D01*
X81353713Y-86514364D01*
X81342891Y-86478162D01*
X81334403Y-86430482D01*
X81327991Y-86309047D01*
X81327991Y-86205931D01*
X81679701Y-86205931D01*
X81679701Y-86355072D01*
G37*
G36*
X81679701Y-84163908D02*
G01*
X81674969Y-84271222D01*
X81660009Y-84344724D01*
X81634069Y-84394800D01*
X81602459Y-84424485D01*
X81563001Y-84441435D01*
X81514990Y-84447383D01*
X81475066Y-84443492D01*
X81439046Y-84432117D01*
X81407314Y-84412322D01*
X81379893Y-84382048D01*
X81358940Y-84343630D01*
X81341730Y-84290380D01*
X81331763Y-84230087D01*
X81327991Y-84149483D01*
X81329289Y-84092162D01*
X81333105Y-84046824D01*
X81679701Y-84046824D01*
X81679701Y-84163908D01*
G37*
G36*
X82013984Y-88292657D02*
G01*
X80554071Y-88292657D01*
X80554071Y-87596894D01*
X80692960Y-87596894D01*
X80698064Y-87684284D01*
X80712758Y-87762597D01*
X80736390Y-87833046D01*
X80769644Y-87899353D01*
X80810161Y-87957446D01*
X80858129Y-88008138D01*
X80913065Y-88051411D01*
X80975122Y-88087554D01*
X81045128Y-88116597D01*
X81118412Y-88136918D01*
X81197783Y-88149455D01*
X81284028Y-88153768D01*
X81370272Y-88149455D01*
X81449643Y-88136918D01*
X81522928Y-88116597D01*
X81592931Y-88087551D01*
X81654961Y-88051408D01*
X81709850Y-88008138D01*
X81757864Y-87957441D01*
X81798406Y-87899348D01*
X81831666Y-87833046D01*
X81855298Y-87762597D01*
X81869991Y-87684284D01*
X81875095Y-87596894D01*
X81869991Y-87509504D01*
X81855298Y-87431191D01*
X81831666Y-87360742D01*
X81798406Y-87294440D01*
X81757864Y-87236347D01*
X81709850Y-87185650D01*
X81654961Y-87142381D01*
X81592931Y-87106238D01*
X81522928Y-87077191D01*
X81449643Y-87056870D01*
X81370272Y-87044333D01*
X81284028Y-87040020D01*
X81197783Y-87044333D01*
X81118412Y-87056870D01*
X81045128Y-87077191D01*
X80975122Y-87106235D01*
X80913065Y-87142377D01*
X80858129Y-87185650D01*
X80810161Y-87236342D01*
X80769644Y-87294435D01*
X80736390Y-87360742D01*
X80712758Y-87431191D01*
X80698064Y-87509504D01*
X80692960Y-87596894D01*
X80554071Y-87596894D01*
X80554071Y-86205931D01*
X80712500Y-86205931D01*
X81152137Y-86205931D01*
X81152137Y-86309047D01*
X81152137Y-86349424D01*
X80712500Y-86660223D01*
X80712500Y-86909351D01*
X81179614Y-86570235D01*
X81183049Y-86570235D01*
X81216774Y-86658672D01*
X81258282Y-86725526D01*
X81307002Y-86774788D01*
X81365807Y-86811085D01*
X81432989Y-86833251D01*
X81510716Y-86840963D01*
X81585627Y-86834411D01*
X81648463Y-86815907D01*
X81701530Y-86786313D01*
X81747139Y-86745725D01*
X81785285Y-86694515D01*
X81816096Y-86630990D01*
X81832829Y-86575057D01*
X81845710Y-86503755D01*
X81853003Y-86427985D01*
X81855556Y-86343318D01*
X81855556Y-85995882D01*
X80712500Y-85995882D01*
X80712500Y-86205931D01*
X80554071Y-86205931D01*
X80554071Y-85199651D01*
X80712500Y-85199651D01*
X80712500Y-85409699D01*
X81172974Y-85409699D01*
X81855556Y-85842620D01*
X81855556Y-85610360D01*
X81363483Y-85305973D01*
X81363483Y-85303377D01*
X81855556Y-84998990D01*
X81855556Y-84766730D01*
X81172974Y-85199651D01*
X80712500Y-85199651D01*
X80554071Y-85199651D01*
X80554071Y-84046824D01*
X80712500Y-84046824D01*
X81156411Y-84046824D01*
X81152976Y-84097734D01*
X81152189Y-84149483D01*
X81152137Y-84152917D01*
X81158731Y-84271364D01*
X81177019Y-84369378D01*
X81208152Y-84458388D01*
X81248231Y-84528975D01*
X81300092Y-84586959D01*
X81361041Y-84628351D01*
X81430699Y-84653596D01*
X81510716Y-84662316D01*
X81589748Y-84654804D01*
X81655789Y-84633550D01*
X81711453Y-84599347D01*
X81758062Y-84552946D01*
X81796424Y-84493862D01*
X81826400Y-84419753D01*
X81838848Y-84369458D01*
X81848229Y-84309538D01*
X81855556Y-84165282D01*
X81855556Y-83836775D01*
X80712500Y-83836775D01*
X80712500Y-84046824D01*
X80554071Y-84046824D01*
X80554071Y-83697886D01*
X82013984Y-83697886D01*
X82013984Y-88292657D01*
G37*
D10*
X55942857Y-69062295D02*
X56438095Y-69062295D01*
X56438095Y-69062295D02*
X56171429Y-69367057D01*
X56171429Y-69367057D02*
X56285714Y-69367057D01*
X56285714Y-69367057D02*
X56361905Y-69405152D01*
X56361905Y-69405152D02*
X56400000Y-69443247D01*
X56400000Y-69443247D02*
X56438095Y-69519438D01*
X56438095Y-69519438D02*
X56438095Y-69709914D01*
X56438095Y-69709914D02*
X56400000Y-69786104D01*
X56400000Y-69786104D02*
X56361905Y-69824200D01*
X56361905Y-69824200D02*
X56285714Y-69862295D01*
X56285714Y-69862295D02*
X56057143Y-69862295D01*
X56057143Y-69862295D02*
X55980952Y-69824200D01*
X55980952Y-69824200D02*
X55942857Y-69786104D01*
X56666667Y-69062295D02*
X56933334Y-69862295D01*
X56933334Y-69862295D02*
X57200000Y-69062295D01*
X57390476Y-69062295D02*
X57885714Y-69062295D01*
X57885714Y-69062295D02*
X57619048Y-69367057D01*
X57619048Y-69367057D02*
X57733333Y-69367057D01*
X57733333Y-69367057D02*
X57809524Y-69405152D01*
X57809524Y-69405152D02*
X57847619Y-69443247D01*
X57847619Y-69443247D02*
X57885714Y-69519438D01*
X57885714Y-69519438D02*
X57885714Y-69709914D01*
X57885714Y-69709914D02*
X57847619Y-69786104D01*
X57847619Y-69786104D02*
X57809524Y-69824200D01*
X57809524Y-69824200D02*
X57733333Y-69862295D01*
X57733333Y-69862295D02*
X57504762Y-69862295D01*
X57504762Y-69862295D02*
X57428571Y-69824200D01*
X57428571Y-69824200D02*
X57390476Y-69786104D01*
D12*
G36*
X70307554Y-73276786D02*
G01*
X70350530Y-73285450D01*
X70382582Y-73296859D01*
X70422804Y-73322023D01*
X70447764Y-73353111D01*
X70461968Y-73390673D01*
X70466922Y-73435009D01*
X70460679Y-73486622D01*
X70442650Y-73530645D01*
X70410580Y-73566394D01*
X70355257Y-73596286D01*
X70319055Y-73607108D01*
X70271375Y-73615596D01*
X70149941Y-73622008D01*
X70046824Y-73622008D01*
X70046824Y-73270298D01*
X70195965Y-73270298D01*
X70307554Y-73276786D01*
G37*
G36*
X72920394Y-74395928D02*
G01*
X69697886Y-74395928D01*
X69697886Y-73270298D01*
X69836775Y-73270298D01*
X69836775Y-73622008D01*
X69836775Y-74237500D01*
X70046824Y-74237500D01*
X70046824Y-73797862D01*
X70190317Y-73797862D01*
X70501116Y-74237500D01*
X70750244Y-74237500D01*
X70587113Y-74012796D01*
X70898698Y-74012796D01*
X70898698Y-74187735D01*
X70963125Y-74216003D01*
X71048525Y-74238873D01*
X71139263Y-74252485D01*
X71231707Y-74257039D01*
X71336033Y-74251514D01*
X71428094Y-74235744D01*
X71512745Y-74208054D01*
X71580364Y-74170638D01*
X71636039Y-74120807D01*
X71677222Y-74059508D01*
X71695701Y-74013452D01*
X71707276Y-73960757D01*
X71711339Y-73900215D01*
X71703279Y-73815680D01*
X71681649Y-73753288D01*
X71646458Y-73701028D01*
X71601048Y-73660094D01*
X71547206Y-73628589D01*
X71484499Y-73604300D01*
X71346654Y-73568885D01*
X71260177Y-73548506D01*
X71221140Y-73535308D01*
X71188125Y-73519120D01*
X71159790Y-73498128D01*
X71138514Y-73472714D01*
X71125138Y-73441912D01*
X71120272Y-73401120D01*
X71126853Y-73353977D01*
X71145396Y-73317256D01*
X71176219Y-73288387D01*
X71215392Y-73268696D01*
X71267311Y-73255620D01*
X71335434Y-73250758D01*
X71408198Y-73254397D01*
X71488697Y-73265871D01*
X71570624Y-73285073D01*
X71659056Y-73314262D01*
X71659056Y-73270298D01*
X71834606Y-73270298D01*
X72203489Y-73270298D01*
X72203489Y-74237500D01*
X72413538Y-74237500D01*
X72413538Y-73270298D01*
X72781505Y-73270298D01*
X72781505Y-73094443D01*
X71834606Y-73094443D01*
X71834606Y-73270298D01*
X71659056Y-73270298D01*
X71659056Y-73137872D01*
X71588844Y-73113482D01*
X71500222Y-73092535D01*
X71407932Y-73079283D01*
X71316658Y-73074904D01*
X71227956Y-73080591D01*
X71152023Y-73096656D01*
X71082771Y-73124222D01*
X71024025Y-73162220D01*
X70975219Y-73211423D01*
X70937242Y-73272893D01*
X70913717Y-73343657D01*
X70905338Y-73430048D01*
X70912676Y-73507554D01*
X70932586Y-73566290D01*
X70964729Y-73616285D01*
X71005783Y-73656202D01*
X71054810Y-73687390D01*
X71112257Y-73711538D01*
X71239187Y-73746037D01*
X71334976Y-73766950D01*
X71417179Y-73794580D01*
X71450573Y-73814514D01*
X71475111Y-73838468D01*
X71490750Y-73868345D01*
X71496406Y-73908688D01*
X71490358Y-73955288D01*
X71473355Y-73991959D01*
X71446736Y-74022015D01*
X71412295Y-74045311D01*
X71372561Y-74061843D01*
X71326504Y-74073094D01*
X71229189Y-74081184D01*
X71144643Y-74077079D01*
X71063485Y-74064927D01*
X70983374Y-74044142D01*
X70898698Y-74012796D01*
X70587113Y-74012796D01*
X70411128Y-73770385D01*
X70411128Y-73766950D01*
X70499565Y-73733225D01*
X70566420Y-73691717D01*
X70615681Y-73642997D01*
X70651978Y-73584192D01*
X70674144Y-73517010D01*
X70681856Y-73439283D01*
X70675305Y-73364372D01*
X70656800Y-73301536D01*
X70627206Y-73248469D01*
X70586618Y-73202860D01*
X70535408Y-73164714D01*
X70471883Y-73133903D01*
X70415950Y-73117170D01*
X70344648Y-73104289D01*
X70268879Y-73096996D01*
X70184211Y-73094443D01*
X69836775Y-73094443D01*
X69836775Y-73270298D01*
X69697886Y-73270298D01*
X69697886Y-72936015D01*
X72920394Y-72936015D01*
X72920394Y-74395928D01*
G37*
D10*
X58907143Y-69100390D02*
X58830953Y-69062295D01*
X58830953Y-69062295D02*
X58716667Y-69062295D01*
X58716667Y-69062295D02*
X58602381Y-69100390D01*
X58602381Y-69100390D02*
X58526191Y-69176580D01*
X58526191Y-69176580D02*
X58488096Y-69252771D01*
X58488096Y-69252771D02*
X58450000Y-69405152D01*
X58450000Y-69405152D02*
X58450000Y-69519438D01*
X58450000Y-69519438D02*
X58488096Y-69671819D01*
X58488096Y-69671819D02*
X58526191Y-69748009D01*
X58526191Y-69748009D02*
X58602381Y-69824200D01*
X58602381Y-69824200D02*
X58716667Y-69862295D01*
X58716667Y-69862295D02*
X58792858Y-69862295D01*
X58792858Y-69862295D02*
X58907143Y-69824200D01*
X58907143Y-69824200D02*
X58945239Y-69786104D01*
X58945239Y-69786104D02*
X58945239Y-69519438D01*
X58945239Y-69519438D02*
X58792858Y-69519438D01*
X59288096Y-69862295D02*
X59288096Y-69062295D01*
X59288096Y-69062295D02*
X59745239Y-69862295D01*
X59745239Y-69862295D02*
X59745239Y-69062295D01*
X60126191Y-69862295D02*
X60126191Y-69062295D01*
X60126191Y-69062295D02*
X60316667Y-69062295D01*
X60316667Y-69062295D02*
X60430953Y-69100390D01*
X60430953Y-69100390D02*
X60507143Y-69176580D01*
X60507143Y-69176580D02*
X60545238Y-69252771D01*
X60545238Y-69252771D02*
X60583334Y-69405152D01*
X60583334Y-69405152D02*
X60583334Y-69519438D01*
X60583334Y-69519438D02*
X60545238Y-69671819D01*
X60545238Y-69671819D02*
X60507143Y-69748009D01*
X60507143Y-69748009D02*
X60430953Y-69824200D01*
X60430953Y-69824200D02*
X60316667Y-69862295D01*
X60316667Y-69862295D02*
X60126191Y-69862295D01*
D12*
G36*
X67221222Y-106125030D02*
G01*
X67294724Y-106139990D01*
X67344800Y-106165930D01*
X67374485Y-106197540D01*
X67391435Y-106236998D01*
X67397383Y-106285009D01*
X67393492Y-106324933D01*
X67382117Y-106360953D01*
X67362322Y-106392685D01*
X67332048Y-106420106D01*
X67293630Y-106441059D01*
X67240380Y-106458269D01*
X67180087Y-106468236D01*
X67099483Y-106472008D01*
X67042162Y-106470710D01*
X66996824Y-106466894D01*
X66996824Y-106120298D01*
X67113908Y-106120298D01*
X67221222Y-106125030D01*
G37*
G36*
X69900261Y-106126786D02*
G01*
X69943238Y-106135450D01*
X69975290Y-106146859D01*
X70015511Y-106172023D01*
X70040472Y-106203111D01*
X70054676Y-106240673D01*
X70059630Y-106285009D01*
X70053387Y-106336622D01*
X70035358Y-106380645D01*
X70003287Y-106416394D01*
X69947965Y-106446286D01*
X69911763Y-106457108D01*
X69864083Y-106465596D01*
X69742648Y-106472008D01*
X69639532Y-106472008D01*
X69639532Y-106120298D01*
X69788673Y-106120298D01*
X69900261Y-106126786D01*
G37*
G36*
X70481840Y-107226389D02*
G01*
X66647886Y-107226389D01*
X66647886Y-106120298D01*
X66786775Y-106120298D01*
X66786775Y-106466894D01*
X66786775Y-107087500D01*
X66996824Y-107087500D01*
X66996824Y-106643588D01*
X67047734Y-106647023D01*
X67102917Y-106647862D01*
X67221364Y-106641268D01*
X67319378Y-106622980D01*
X67408388Y-106591847D01*
X67478975Y-106551768D01*
X67536959Y-106499907D01*
X67578351Y-106438958D01*
X67603596Y-106369300D01*
X67612316Y-106289283D01*
X67604804Y-106210251D01*
X67583550Y-106144210D01*
X67549347Y-106088546D01*
X67502946Y-106041937D01*
X67443862Y-106003575D01*
X67369753Y-105973599D01*
X67319458Y-105961151D01*
X67259538Y-105951770D01*
X67115282Y-105944443D01*
X67717341Y-105944443D01*
X68080194Y-107087500D01*
X68288564Y-107087500D01*
X68416639Y-106574895D01*
X68493499Y-106245167D01*
X68498613Y-106245167D01*
X68575473Y-106574895D01*
X68703548Y-107087500D01*
X68911917Y-107087500D01*
X69219012Y-106120298D01*
X69429483Y-106120298D01*
X69429483Y-106472008D01*
X69429483Y-107087500D01*
X69639532Y-107087500D01*
X69639532Y-106647862D01*
X69783025Y-106647862D01*
X70093824Y-107087500D01*
X70342951Y-107087500D01*
X70003835Y-106620385D01*
X70003835Y-106616950D01*
X70092273Y-106583225D01*
X70159127Y-106541717D01*
X70208389Y-106492997D01*
X70244686Y-106434192D01*
X70266852Y-106367010D01*
X70274563Y-106289283D01*
X70268012Y-106214372D01*
X70249507Y-106151536D01*
X70219914Y-106098469D01*
X70179326Y-106052860D01*
X70128116Y-106014714D01*
X70064591Y-105983903D01*
X70008658Y-105967170D01*
X69937356Y-105954289D01*
X69861586Y-105946996D01*
X69776919Y-105944443D01*
X69429483Y-105944443D01*
X69429483Y-106120298D01*
X69219012Y-106120298D01*
X69274847Y-105944443D01*
X69051975Y-105944443D01*
X68914512Y-106399803D01*
X68863077Y-106585628D01*
X68813762Y-106787615D01*
X68808572Y-106787615D01*
X68768268Y-106599265D01*
X68721484Y-106405757D01*
X68603637Y-105944443D01*
X68388474Y-105944443D01*
X68270627Y-106405757D01*
X68223741Y-106600553D01*
X68183539Y-106787615D01*
X68178425Y-106787615D01*
X68135488Y-106609533D01*
X68077675Y-106399803D01*
X67940212Y-105944443D01*
X67717341Y-105944443D01*
X67115282Y-105944443D01*
X66786775Y-105944443D01*
X66786775Y-106120298D01*
X66647886Y-106120298D01*
X66647886Y-105805554D01*
X70481840Y-105805554D01*
X70481840Y-107226389D01*
G37*
D10*
X59883332Y-77560180D02*
X59216666Y-76560180D01*
X59216666Y-77560180D02*
X59883332Y-76560180D01*
X53321428Y-69824200D02*
X53435714Y-69862295D01*
X53435714Y-69862295D02*
X53626190Y-69862295D01*
X53626190Y-69862295D02*
X53702381Y-69824200D01*
X53702381Y-69824200D02*
X53740476Y-69786104D01*
X53740476Y-69786104D02*
X53778571Y-69709914D01*
X53778571Y-69709914D02*
X53778571Y-69633723D01*
X53778571Y-69633723D02*
X53740476Y-69557533D01*
X53740476Y-69557533D02*
X53702381Y-69519438D01*
X53702381Y-69519438D02*
X53626190Y-69481342D01*
X53626190Y-69481342D02*
X53473809Y-69443247D01*
X53473809Y-69443247D02*
X53397619Y-69405152D01*
X53397619Y-69405152D02*
X53359524Y-69367057D01*
X53359524Y-69367057D02*
X53321428Y-69290866D01*
X53321428Y-69290866D02*
X53321428Y-69214676D01*
X53321428Y-69214676D02*
X53359524Y-69138485D01*
X53359524Y-69138485D02*
X53397619Y-69100390D01*
X53397619Y-69100390D02*
X53473809Y-69062295D01*
X53473809Y-69062295D02*
X53664286Y-69062295D01*
X53664286Y-69062295D02*
X53778571Y-69100390D01*
X54578572Y-69786104D02*
X54540476Y-69824200D01*
X54540476Y-69824200D02*
X54426191Y-69862295D01*
X54426191Y-69862295D02*
X54350000Y-69862295D01*
X54350000Y-69862295D02*
X54235714Y-69824200D01*
X54235714Y-69824200D02*
X54159524Y-69748009D01*
X54159524Y-69748009D02*
X54121429Y-69671819D01*
X54121429Y-69671819D02*
X54083333Y-69519438D01*
X54083333Y-69519438D02*
X54083333Y-69405152D01*
X54083333Y-69405152D02*
X54121429Y-69252771D01*
X54121429Y-69252771D02*
X54159524Y-69176580D01*
X54159524Y-69176580D02*
X54235714Y-69100390D01*
X54235714Y-69100390D02*
X54350000Y-69062295D01*
X54350000Y-69062295D02*
X54426191Y-69062295D01*
X54426191Y-69062295D02*
X54540476Y-69100390D01*
X54540476Y-69100390D02*
X54578572Y-69138485D01*
X54921429Y-69862295D02*
X54921429Y-69062295D01*
X55378572Y-69862295D02*
X55035714Y-69405152D01*
X55378572Y-69062295D02*
X54921429Y-69519438D01*
X68194758Y-95671485D02*
X68194758Y-95861961D01*
X67956663Y-95338152D02*
X67909044Y-95385771D01*
X67909044Y-95385771D02*
X67861425Y-95481009D01*
X67861425Y-95481009D02*
X67861425Y-95861961D01*
X67861425Y-95861961D02*
X67909044Y-95957200D01*
X67909044Y-95957200D02*
X68004282Y-96004819D01*
X68004282Y-96004819D02*
X68051901Y-96004819D01*
X68051901Y-96004819D02*
X68147139Y-95957200D01*
X68147139Y-95957200D02*
X68194758Y-95861961D01*
X68194758Y-95861961D02*
X68242377Y-95957200D01*
X68242377Y-95957200D02*
X68337615Y-96004819D01*
X68337615Y-96004819D02*
X68385234Y-96004819D01*
X68385234Y-96004819D02*
X68480472Y-95957200D01*
X68480472Y-95957200D02*
X68528091Y-95861961D01*
X68528091Y-95861961D02*
X68528091Y-95481009D01*
X68528091Y-95481009D02*
X68480472Y-95385771D01*
X68480472Y-95385771D02*
X68432853Y-95338152D01*
X68909044Y-96115295D02*
X68909044Y-95315295D01*
X68909044Y-95315295D02*
X69213806Y-95315295D01*
X69213806Y-95315295D02*
X69289996Y-95353390D01*
X69289996Y-95353390D02*
X69328091Y-95391485D01*
X69328091Y-95391485D02*
X69366187Y-95467676D01*
X69366187Y-95467676D02*
X69366187Y-95581961D01*
X69366187Y-95581961D02*
X69328091Y-95658152D01*
X69328091Y-95658152D02*
X69289996Y-95696247D01*
X69289996Y-95696247D02*
X69213806Y-95734342D01*
X69213806Y-95734342D02*
X68909044Y-95734342D01*
D12*
G36*
X68410173Y-101895928D02*
G01*
X65247886Y-101895928D01*
X65247886Y-101737500D01*
X65386775Y-101737500D01*
X65596824Y-101737500D01*
X65869155Y-101737500D01*
X66079204Y-101737500D01*
X66079204Y-101157423D01*
X66076744Y-101018268D01*
X66068976Y-100862728D01*
X66076609Y-100862728D01*
X66110727Y-100972103D01*
X66151714Y-101091706D01*
X66387866Y-101737500D01*
X66522810Y-101737500D01*
X66758962Y-101091706D01*
X66799949Y-100972103D01*
X66834067Y-100862728D01*
X66841776Y-100862728D01*
X66831472Y-101158339D01*
X66831472Y-101737500D01*
X67041521Y-101737500D01*
X67041521Y-101266569D01*
X67308967Y-101266569D01*
X67311099Y-101336553D01*
X67317057Y-101396246D01*
X67328119Y-101452570D01*
X67344077Y-101502034D01*
X67371219Y-101558943D01*
X67405672Y-101609043D01*
X67448020Y-101652535D01*
X67499018Y-101689262D01*
X67556932Y-101717783D01*
X67625719Y-101739560D01*
X67700144Y-101752449D01*
X67787530Y-101757039D01*
X67875073Y-101752460D01*
X67950181Y-101739560D01*
X68019944Y-101717797D01*
X68079019Y-101689262D01*
X68131168Y-101652469D01*
X68174044Y-101609043D01*
X68208917Y-101558907D01*
X68236174Y-101502034D01*
X68252113Y-101452568D01*
X68263117Y-101396246D01*
X68269131Y-101336552D01*
X68271284Y-101266569D01*
X68271284Y-100594443D01*
X68061235Y-100594443D01*
X68061235Y-101248251D01*
X68057405Y-101329289D01*
X68047183Y-101391230D01*
X68032155Y-101437768D01*
X68006299Y-101484987D01*
X67974744Y-101521024D01*
X67937205Y-101547524D01*
X67870846Y-101572392D01*
X67790125Y-101581184D01*
X67709404Y-101572392D01*
X67643045Y-101547524D01*
X67605506Y-101521024D01*
X67573951Y-101484987D01*
X67548096Y-101437768D01*
X67533067Y-101391230D01*
X67522845Y-101329289D01*
X67519016Y-101248251D01*
X67519016Y-100594443D01*
X67308967Y-100594443D01*
X67308967Y-101266569D01*
X67041521Y-101266569D01*
X67041521Y-100594443D01*
X66747590Y-100594443D01*
X66550211Y-101141242D01*
X66498168Y-101293910D01*
X66457017Y-101430822D01*
X66451903Y-101430822D01*
X66406122Y-101277393D01*
X66358786Y-101138647D01*
X66161407Y-100594443D01*
X65869155Y-100594443D01*
X65869155Y-101737500D01*
X65596824Y-101737500D01*
X65596824Y-100594443D01*
X65386775Y-100594443D01*
X65386775Y-101737500D01*
X65247886Y-101737500D01*
X65247886Y-100455554D01*
X68410173Y-100455554D01*
X68410173Y-101895928D01*
G37*
D10*
X68774395Y-97471485D02*
X68774395Y-97661961D01*
X68536300Y-97138152D02*
X68488681Y-97185771D01*
X68488681Y-97185771D02*
X68441062Y-97281009D01*
X68441062Y-97281009D02*
X68441062Y-97661961D01*
X68441062Y-97661961D02*
X68488681Y-97757200D01*
X68488681Y-97757200D02*
X68583919Y-97804819D01*
X68583919Y-97804819D02*
X68631538Y-97804819D01*
X68631538Y-97804819D02*
X68726776Y-97757200D01*
X68726776Y-97757200D02*
X68774395Y-97661961D01*
X68774395Y-97661961D02*
X68822014Y-97757200D01*
X68822014Y-97757200D02*
X68917252Y-97804819D01*
X68917252Y-97804819D02*
X68964871Y-97804819D01*
X68964871Y-97804819D02*
X69060109Y-97757200D01*
X69060109Y-97757200D02*
X69107728Y-97661961D01*
X69107728Y-97661961D02*
X69107728Y-97281009D01*
X69107728Y-97281009D02*
X69060109Y-97185771D01*
X69060109Y-97185771D02*
X69012490Y-97138152D01*
X69641062Y-97534342D02*
X69641062Y-97915295D01*
X69374395Y-97115295D02*
X69641062Y-97534342D01*
X69641062Y-97534342D02*
X69907728Y-97115295D01*
D12*
G36*
X67729263Y-81019406D02*
G01*
X67773685Y-81123438D01*
X67465939Y-81123438D01*
X67509902Y-81018948D01*
X67616224Y-80717995D01*
X67621109Y-80717995D01*
X67729263Y-81019406D01*
G37*
G36*
X69370780Y-81745928D02*
G01*
X65597886Y-81745928D01*
X65597886Y-81587500D01*
X65736775Y-81587500D01*
X65946824Y-81587500D01*
X65946824Y-81007423D01*
X65944365Y-80868268D01*
X65936597Y-80712728D01*
X65944229Y-80712728D01*
X65978347Y-80822103D01*
X66019334Y-80941706D01*
X66255486Y-81587500D01*
X66390430Y-81587500D01*
X66626583Y-80941706D01*
X66667570Y-80822103D01*
X66701687Y-80712728D01*
X66709396Y-80712728D01*
X66699092Y-81008339D01*
X66699092Y-81587500D01*
X66909141Y-81587500D01*
X67070952Y-81587500D01*
X67293824Y-81587500D01*
X67400680Y-81299293D01*
X67839935Y-81299293D01*
X67948394Y-81587500D01*
X68169587Y-81587500D01*
X67953264Y-81042380D01*
X68259804Y-81042380D01*
X68264216Y-81125154D01*
X68277033Y-81201102D01*
X68297814Y-81271052D01*
X68327693Y-81337289D01*
X68365788Y-81396533D01*
X68412380Y-81449502D01*
X68466498Y-81494883D01*
X68529930Y-81533660D01*
X68603881Y-81565747D01*
X68681630Y-81587980D01*
X68770711Y-81602071D01*
X68872777Y-81607039D01*
X68976199Y-81601925D01*
X69077560Y-81588721D01*
X69166479Y-81570479D01*
X69231891Y-81550939D01*
X69231891Y-80976892D01*
X68765692Y-80976892D01*
X68765692Y-81152747D01*
X69021842Y-81152747D01*
X69021842Y-81417674D01*
X68954217Y-81427368D01*
X68879723Y-81431184D01*
X68782980Y-81424032D01*
X68702780Y-81404037D01*
X68636186Y-81372642D01*
X68580907Y-81330205D01*
X68536917Y-81276733D01*
X68504037Y-81210372D01*
X68482731Y-81128344D01*
X68474738Y-81027038D01*
X68478783Y-80958339D01*
X68490356Y-80897618D01*
X68508855Y-80843780D01*
X68549745Y-80770180D01*
X68602355Y-80710362D01*
X68666623Y-80663114D01*
X68742871Y-80628465D01*
X68826114Y-80607824D01*
X68917046Y-80600758D01*
X68986006Y-80603264D01*
X69054128Y-80610757D01*
X69188614Y-80639837D01*
X69188614Y-80466577D01*
X69135360Y-80451233D01*
X69061379Y-80437039D01*
X68982493Y-80428008D01*
X68897431Y-80424904D01*
X68801996Y-80430269D01*
X68715088Y-80445817D01*
X68632863Y-80471499D01*
X68558849Y-80505809D01*
X68491274Y-80549248D01*
X68432301Y-80600377D01*
X68381218Y-80658966D01*
X68338343Y-80724254D01*
X68304567Y-80795312D01*
X68279725Y-80873318D01*
X68264866Y-80955121D01*
X68259804Y-81042380D01*
X67953264Y-81042380D01*
X67715982Y-80444443D01*
X67524557Y-80444443D01*
X67255108Y-81123438D01*
X67070952Y-81587500D01*
X66909141Y-81587500D01*
X66909141Y-80444443D01*
X66615210Y-80444443D01*
X66417831Y-80991242D01*
X66365788Y-81143910D01*
X66324637Y-81280822D01*
X66319524Y-81280822D01*
X66273743Y-81127393D01*
X66226406Y-80988647D01*
X66029027Y-80444443D01*
X65736775Y-80444443D01*
X65736775Y-81587500D01*
X65597886Y-81587500D01*
X65597886Y-80286015D01*
X69370780Y-80286015D01*
X69370780Y-81745928D01*
G37*
D10*
X50795238Y-69824200D02*
X50909524Y-69862295D01*
X50909524Y-69862295D02*
X51100000Y-69862295D01*
X51100000Y-69862295D02*
X51176191Y-69824200D01*
X51176191Y-69824200D02*
X51214286Y-69786104D01*
X51214286Y-69786104D02*
X51252381Y-69709914D01*
X51252381Y-69709914D02*
X51252381Y-69633723D01*
X51252381Y-69633723D02*
X51214286Y-69557533D01*
X51214286Y-69557533D02*
X51176191Y-69519438D01*
X51176191Y-69519438D02*
X51100000Y-69481342D01*
X51100000Y-69481342D02*
X50947619Y-69443247D01*
X50947619Y-69443247D02*
X50871429Y-69405152D01*
X50871429Y-69405152D02*
X50833334Y-69367057D01*
X50833334Y-69367057D02*
X50795238Y-69290866D01*
X50795238Y-69290866D02*
X50795238Y-69214676D01*
X50795238Y-69214676D02*
X50833334Y-69138485D01*
X50833334Y-69138485D02*
X50871429Y-69100390D01*
X50871429Y-69100390D02*
X50947619Y-69062295D01*
X50947619Y-69062295D02*
X51138096Y-69062295D01*
X51138096Y-69062295D02*
X51252381Y-69100390D01*
X51595239Y-69862295D02*
X51595239Y-69062295D01*
X51595239Y-69062295D02*
X51785715Y-69062295D01*
X51785715Y-69062295D02*
X51900001Y-69100390D01*
X51900001Y-69100390D02*
X51976191Y-69176580D01*
X51976191Y-69176580D02*
X52014286Y-69252771D01*
X52014286Y-69252771D02*
X52052382Y-69405152D01*
X52052382Y-69405152D02*
X52052382Y-69519438D01*
X52052382Y-69519438D02*
X52014286Y-69671819D01*
X52014286Y-69671819D02*
X51976191Y-69748009D01*
X51976191Y-69748009D02*
X51900001Y-69824200D01*
X51900001Y-69824200D02*
X51785715Y-69862295D01*
X51785715Y-69862295D02*
X51595239Y-69862295D01*
X52357143Y-69633723D02*
X52738096Y-69633723D01*
X52280953Y-69862295D02*
X52547620Y-69062295D01*
X52547620Y-69062295D02*
X52814286Y-69862295D01*
X66516667Y-93019819D02*
X67183333Y-94019819D01*
X67183333Y-93019819D02*
X66516667Y-94019819D01*
X66483919Y-98189819D02*
X67150585Y-98189819D01*
X67150585Y-98189819D02*
X66483919Y-99189819D01*
X66483919Y-99189819D02*
X67150585Y-99189819D01*
X63822744Y-96821695D02*
X63822744Y-97297886D01*
X63489411Y-96297886D02*
X63822744Y-96821695D01*
X63822744Y-96821695D02*
X64156077Y-96297886D01*
D12*
G36*
X52729701Y-60489938D02*
G01*
X52724969Y-60597252D01*
X52710009Y-60670754D01*
X52684069Y-60720829D01*
X52652459Y-60750514D01*
X52613001Y-60767465D01*
X52564990Y-60773412D01*
X52525066Y-60769521D01*
X52489046Y-60758147D01*
X52457314Y-60738351D01*
X52429893Y-60708077D01*
X52408940Y-60669659D01*
X52391730Y-60616410D01*
X52381763Y-60556116D01*
X52377991Y-60475512D01*
X52379289Y-60418191D01*
X52383105Y-60372854D01*
X52729701Y-60372854D01*
X52729701Y-60489938D01*
G37*
G36*
X53063984Y-62128630D02*
G01*
X51604071Y-62128630D01*
X51604071Y-61510109D01*
X51742960Y-61510109D01*
X51748485Y-61614435D01*
X51764255Y-61706496D01*
X51791945Y-61791147D01*
X51829361Y-61858766D01*
X51879192Y-61914441D01*
X51940491Y-61955624D01*
X51986547Y-61974103D01*
X52039242Y-61985678D01*
X52099784Y-61989741D01*
X52184319Y-61981681D01*
X52246711Y-61960051D01*
X52298971Y-61924860D01*
X52339905Y-61879450D01*
X52371410Y-61825608D01*
X52395699Y-61762901D01*
X52431114Y-61625056D01*
X52451493Y-61538579D01*
X52464691Y-61499542D01*
X52480879Y-61466527D01*
X52501871Y-61438192D01*
X52527285Y-61416915D01*
X52558087Y-61403540D01*
X52598879Y-61398674D01*
X52646022Y-61405255D01*
X52682743Y-61423798D01*
X52711612Y-61454620D01*
X52731303Y-61493794D01*
X52744379Y-61545713D01*
X52749241Y-61613836D01*
X52745602Y-61686600D01*
X52734128Y-61767099D01*
X52714926Y-61849026D01*
X52685737Y-61937458D01*
X52862127Y-61937458D01*
X52886517Y-61867246D01*
X52907464Y-61778624D01*
X52920716Y-61686334D01*
X52925095Y-61595060D01*
X52919408Y-61506358D01*
X52903343Y-61430425D01*
X52875777Y-61361173D01*
X52837779Y-61302427D01*
X52788576Y-61253621D01*
X52727106Y-61215644D01*
X52656342Y-61192119D01*
X52569951Y-61183740D01*
X52492445Y-61191078D01*
X52433709Y-61210988D01*
X52383714Y-61243131D01*
X52343797Y-61284185D01*
X52312609Y-61333212D01*
X52288461Y-61390659D01*
X52253962Y-61517589D01*
X52233049Y-61613378D01*
X52205419Y-61695581D01*
X52185485Y-61728975D01*
X52161531Y-61753513D01*
X52131654Y-61769152D01*
X52091311Y-61774808D01*
X52044711Y-61768760D01*
X52008040Y-61751757D01*
X51977984Y-61725138D01*
X51954688Y-61690696D01*
X51938156Y-61650963D01*
X51926905Y-61604906D01*
X51918815Y-61507591D01*
X51922920Y-61423045D01*
X51935072Y-61341887D01*
X51955857Y-61261776D01*
X51987203Y-61177100D01*
X51812264Y-61177100D01*
X51783996Y-61241527D01*
X51761126Y-61326927D01*
X51747514Y-61417665D01*
X51742960Y-61510109D01*
X51604071Y-61510109D01*
X51604071Y-60372854D01*
X51762500Y-60372854D01*
X52206411Y-60372854D01*
X52202976Y-60423763D01*
X52202189Y-60475512D01*
X52202137Y-60478947D01*
X52208731Y-60597394D01*
X52227019Y-60695407D01*
X52258152Y-60784418D01*
X52298231Y-60855004D01*
X52350092Y-60912988D01*
X52411041Y-60954381D01*
X52480699Y-60979626D01*
X52560716Y-60988346D01*
X52639748Y-60980833D01*
X52705789Y-60959579D01*
X52761453Y-60925377D01*
X52808062Y-60878976D01*
X52846424Y-60819891D01*
X52876400Y-60745782D01*
X52888848Y-60695488D01*
X52898229Y-60635567D01*
X52905556Y-60491311D01*
X52905556Y-60162805D01*
X51762500Y-60162805D01*
X51762500Y-60372854D01*
X51604071Y-60372854D01*
X51604071Y-59546015D01*
X51742960Y-59546015D01*
X51748074Y-59649437D01*
X51761278Y-59750798D01*
X51779520Y-59839717D01*
X51799060Y-59905129D01*
X52373107Y-59905129D01*
X52373107Y-59438930D01*
X52197252Y-59438930D01*
X52197252Y-59695080D01*
X51932325Y-59695080D01*
X51922631Y-59627455D01*
X51918815Y-59552961D01*
X51925967Y-59456218D01*
X51945962Y-59376018D01*
X51977357Y-59309424D01*
X52019794Y-59254145D01*
X52073266Y-59210155D01*
X52139627Y-59177274D01*
X52221655Y-59155969D01*
X52322961Y-59147976D01*
X52391660Y-59152021D01*
X52452381Y-59163594D01*
X52506219Y-59182093D01*
X52579819Y-59222983D01*
X52639637Y-59275593D01*
X52686885Y-59339861D01*
X52721534Y-59416109D01*
X52742175Y-59499352D01*
X52749241Y-59590284D01*
X52746735Y-59659244D01*
X52739242Y-59727366D01*
X52710162Y-59861852D01*
X52883422Y-59861852D01*
X52898766Y-59808598D01*
X52912960Y-59734617D01*
X52921991Y-59655731D01*
X52925095Y-59570669D01*
X52919730Y-59475234D01*
X52904182Y-59388326D01*
X52878500Y-59306100D01*
X52844190Y-59232087D01*
X52800751Y-59164512D01*
X52749622Y-59105539D01*
X52691033Y-59054456D01*
X52625745Y-59011581D01*
X52554687Y-58977805D01*
X52476681Y-58952963D01*
X52394878Y-58938104D01*
X52307619Y-58933042D01*
X52224845Y-58937454D01*
X52148897Y-58950271D01*
X52078947Y-58971052D01*
X52012710Y-59000931D01*
X51953466Y-59039026D01*
X51900497Y-59085618D01*
X51855116Y-59139736D01*
X51816339Y-59203168D01*
X51784252Y-59277119D01*
X51762019Y-59354868D01*
X51747928Y-59443949D01*
X51742960Y-59546015D01*
X51604071Y-59546015D01*
X51604071Y-58794153D01*
X53063984Y-58794153D01*
X53063984Y-62128630D01*
G37*
D10*
X79711847Y-83619047D02*
X79045180Y-83619047D01*
X80092800Y-83380952D02*
X79378514Y-83142857D01*
X79378514Y-83142857D02*
X79378514Y-83761904D01*
X80045180Y-84809524D02*
X80045180Y-85428571D01*
X80045180Y-85428571D02*
X79664228Y-85095238D01*
X79664228Y-85095238D02*
X79664228Y-85238095D01*
X79664228Y-85238095D02*
X79616609Y-85333333D01*
X79616609Y-85333333D02*
X79568990Y-85380952D01*
X79568990Y-85380952D02*
X79473752Y-85428571D01*
X79473752Y-85428571D02*
X79235657Y-85428571D01*
X79235657Y-85428571D02*
X79140419Y-85380952D01*
X79140419Y-85380952D02*
X79092800Y-85333333D01*
X79092800Y-85333333D02*
X79045180Y-85238095D01*
X79045180Y-85238095D02*
X79045180Y-84952381D01*
X79045180Y-84952381D02*
X79092800Y-84857143D01*
X79092800Y-84857143D02*
X79140419Y-84809524D01*
X79045180Y-87142857D02*
X79045180Y-86571429D01*
X79045180Y-86857143D02*
X80045180Y-86857143D01*
X80045180Y-86857143D02*
X79902323Y-86761905D01*
X79902323Y-86761905D02*
X79807085Y-86666667D01*
X79807085Y-86666667D02*
X79759466Y-86571429D01*
X79949942Y-88285715D02*
X79997561Y-88333334D01*
X79997561Y-88333334D02*
X80045180Y-88428572D01*
X80045180Y-88428572D02*
X80045180Y-88666667D01*
X80045180Y-88666667D02*
X79997561Y-88761905D01*
X79997561Y-88761905D02*
X79949942Y-88809524D01*
X79949942Y-88809524D02*
X79854704Y-88857143D01*
X79854704Y-88857143D02*
X79759466Y-88857143D01*
X79759466Y-88857143D02*
X79616609Y-88809524D01*
X79616609Y-88809524D02*
X79045180Y-88238096D01*
X79045180Y-88238096D02*
X79045180Y-88857143D01*
X64194758Y-95471485D02*
X64194758Y-95661961D01*
X63956663Y-95138152D02*
X63909044Y-95185771D01*
X63909044Y-95185771D02*
X63861425Y-95281009D01*
X63861425Y-95281009D02*
X63861425Y-95661961D01*
X63861425Y-95661961D02*
X63909044Y-95757200D01*
X63909044Y-95757200D02*
X64004282Y-95804819D01*
X64004282Y-95804819D02*
X64051901Y-95804819D01*
X64051901Y-95804819D02*
X64147139Y-95757200D01*
X64147139Y-95757200D02*
X64194758Y-95661961D01*
X64194758Y-95661961D02*
X64242377Y-95757200D01*
X64242377Y-95757200D02*
X64337615Y-95804819D01*
X64337615Y-95804819D02*
X64385234Y-95804819D01*
X64385234Y-95804819D02*
X64480472Y-95757200D01*
X64480472Y-95757200D02*
X64528091Y-95661961D01*
X64528091Y-95661961D02*
X64528091Y-95281009D01*
X64528091Y-95281009D02*
X64480472Y-95185771D01*
X64480472Y-95185771D02*
X64432853Y-95138152D01*
X65366187Y-95915295D02*
X65099520Y-95534342D01*
X64909044Y-95915295D02*
X64909044Y-95115295D01*
X64909044Y-95115295D02*
X65213806Y-95115295D01*
X65213806Y-95115295D02*
X65289996Y-95153390D01*
X65289996Y-95153390D02*
X65328091Y-95191485D01*
X65328091Y-95191485D02*
X65366187Y-95267676D01*
X65366187Y-95267676D02*
X65366187Y-95381961D01*
X65366187Y-95381961D02*
X65328091Y-95458152D01*
X65328091Y-95458152D02*
X65289996Y-95496247D01*
X65289996Y-95496247D02*
X65213806Y-95534342D01*
X65213806Y-95534342D02*
X64909044Y-95534342D01*
D12*
G36*
X87816591Y-57426786D02*
G01*
X87859567Y-57435450D01*
X87891619Y-57446859D01*
X87931841Y-57472023D01*
X87956801Y-57503111D01*
X87971005Y-57540673D01*
X87975959Y-57585009D01*
X87969716Y-57636622D01*
X87951687Y-57680645D01*
X87919617Y-57716394D01*
X87864294Y-57746286D01*
X87828092Y-57757108D01*
X87780412Y-57765596D01*
X87658978Y-57772008D01*
X87555861Y-57772008D01*
X87555861Y-57420298D01*
X87705002Y-57420298D01*
X87816591Y-57426786D01*
G37*
G36*
X89538173Y-58526389D02*
G01*
X79737901Y-58526389D01*
X79737901Y-57420298D01*
X79876790Y-57420298D01*
X80245673Y-57420298D01*
X80245673Y-58387500D01*
X80455722Y-58387500D01*
X80984508Y-58387500D01*
X81756391Y-58387500D01*
X81977355Y-58387500D01*
X82721914Y-58387500D01*
X82917690Y-58387500D01*
X83689573Y-58387500D01*
X83910537Y-58387500D01*
X84120586Y-58387500D01*
X84120586Y-57807423D01*
X84118126Y-57668268D01*
X84110358Y-57512728D01*
X84117991Y-57512728D01*
X84152108Y-57622103D01*
X84193095Y-57741706D01*
X84429248Y-58387500D01*
X84564192Y-58387500D01*
X84800344Y-57741706D01*
X84841331Y-57622103D01*
X84875449Y-57512728D01*
X84883158Y-57512728D01*
X84872854Y-57808339D01*
X84872854Y-58387500D01*
X85082903Y-58387500D01*
X85355233Y-58387500D01*
X86127117Y-58387500D01*
X86127117Y-58211645D01*
X85565282Y-58211645D01*
X85565282Y-57889244D01*
X86021253Y-57889244D01*
X86021253Y-57713389D01*
X85565282Y-57713389D01*
X85565282Y-57420298D01*
X86096434Y-57420298D01*
X86238095Y-57420298D01*
X86606978Y-57420298D01*
X86606978Y-58387500D01*
X86817027Y-58387500D01*
X86817027Y-57420298D01*
X87184994Y-57420298D01*
X87345812Y-57420298D01*
X87345812Y-57772008D01*
X87345812Y-58387500D01*
X87555861Y-58387500D01*
X87555861Y-57947862D01*
X87699354Y-57947862D01*
X88010153Y-58387500D01*
X88259281Y-58387500D01*
X87920165Y-57920385D01*
X87920165Y-57916950D01*
X88008602Y-57883225D01*
X88075457Y-57841717D01*
X88124718Y-57792997D01*
X88161015Y-57734192D01*
X88183181Y-57667010D01*
X88190893Y-57589283D01*
X88184342Y-57514372D01*
X88165837Y-57451536D01*
X88136243Y-57398469D01*
X88095655Y-57352860D01*
X88044445Y-57314714D01*
X87980920Y-57283903D01*
X87924987Y-57267170D01*
X87853685Y-57254289D01*
X87777916Y-57246996D01*
X87693248Y-57244443D01*
X88323394Y-57244443D01*
X88756315Y-57927025D01*
X88756315Y-58387500D01*
X88966364Y-58387500D01*
X88966364Y-57927025D01*
X89399284Y-57244443D01*
X89167025Y-57244443D01*
X88862637Y-57736516D01*
X88860042Y-57736516D01*
X88555654Y-57244443D01*
X88323394Y-57244443D01*
X87693248Y-57244443D01*
X87345812Y-57244443D01*
X87345812Y-57420298D01*
X87184994Y-57420298D01*
X87184994Y-57244443D01*
X86238095Y-57244443D01*
X86238095Y-57420298D01*
X86096434Y-57420298D01*
X86096434Y-57244443D01*
X85355233Y-57244443D01*
X85355233Y-58387500D01*
X85082903Y-58387500D01*
X85082903Y-57244443D01*
X84788971Y-57244443D01*
X84591593Y-57791242D01*
X84539550Y-57943910D01*
X84498399Y-58080822D01*
X84493285Y-58080822D01*
X84447504Y-57927393D01*
X84400167Y-57788647D01*
X84202789Y-57244443D01*
X83910537Y-57244443D01*
X83910537Y-58387500D01*
X83689573Y-58387500D01*
X83689573Y-58211645D01*
X83127739Y-58211645D01*
X83127739Y-57889244D01*
X83583709Y-57889244D01*
X83583709Y-57713389D01*
X83127739Y-57713389D01*
X83127739Y-57420298D01*
X83658890Y-57420298D01*
X83658890Y-57244443D01*
X82917690Y-57244443D01*
X82917690Y-58387500D01*
X82721914Y-58387500D01*
X82721914Y-58211645D01*
X82187404Y-58211645D01*
X82187404Y-57244443D01*
X81977355Y-57244443D01*
X81977355Y-58387500D01*
X81756391Y-58387500D01*
X81756391Y-58211645D01*
X81194556Y-58211645D01*
X81194556Y-57889244D01*
X81650527Y-57889244D01*
X81650527Y-57713389D01*
X81194556Y-57713389D01*
X81194556Y-57420298D01*
X81725708Y-57420298D01*
X81725708Y-57244443D01*
X80984508Y-57244443D01*
X80984508Y-58387500D01*
X80455722Y-58387500D01*
X80455722Y-57420298D01*
X80823689Y-57420298D01*
X80823689Y-57244443D01*
X79876790Y-57244443D01*
X79876790Y-57420298D01*
X79737901Y-57420298D01*
X79737901Y-57105554D01*
X89538173Y-57105554D01*
X89538173Y-58526389D01*
G37*
D10*
X59883332Y-81645180D02*
X59216666Y-81645180D01*
X59216666Y-81645180D02*
X59883332Y-80645180D01*
X59883332Y-80645180D02*
X59216666Y-80645180D01*
X62022744Y-79828628D02*
X62022744Y-80304819D01*
X61689411Y-79304819D02*
X62022744Y-79828628D01*
X62022744Y-79828628D02*
X62356077Y-79304819D01*
X69129347Y-116428571D02*
X69129347Y-117571429D01*
X68557918Y-117000000D02*
X69700775Y-117000000D01*
D12*
G36*
X56005154Y-73672553D02*
G01*
X56066547Y-73678846D01*
X56124389Y-73690147D01*
X56174701Y-73706095D01*
X56224413Y-73729563D01*
X56267971Y-73758149D01*
X56306117Y-73792723D01*
X56338191Y-73833635D01*
X56363436Y-73879988D01*
X56382460Y-73933851D01*
X56393786Y-73992058D01*
X56397801Y-74060018D01*
X56391995Y-74148357D01*
X56375895Y-74220781D01*
X56350937Y-74280065D01*
X56314933Y-74332782D01*
X56269334Y-74376299D01*
X56213016Y-74411346D01*
X56142338Y-74437454D01*
X56048845Y-74455069D01*
X55926947Y-74461645D01*
X55840928Y-74461645D01*
X55840928Y-73670298D01*
X55932900Y-73670298D01*
X56005154Y-73672553D01*
G37*
G36*
X56751624Y-74795928D02*
G01*
X53597886Y-74795928D01*
X53597886Y-74637500D01*
X53736775Y-74637500D01*
X54481335Y-74637500D01*
X54481335Y-74461645D01*
X53946824Y-74461645D01*
X53946824Y-74086427D01*
X54554989Y-74086427D01*
X54559278Y-74170370D01*
X54571740Y-74247473D01*
X54591931Y-74318534D01*
X54620980Y-74386040D01*
X54657745Y-74445970D01*
X54702374Y-74499121D01*
X54754552Y-74544860D01*
X54815428Y-74583735D01*
X54886091Y-74615747D01*
X54960622Y-74638050D01*
X55045234Y-74652106D01*
X55141401Y-74657039D01*
X55214930Y-74654559D01*
X55284817Y-74647269D01*
X55413808Y-74620631D01*
X55413808Y-74442105D01*
X55353509Y-74458797D01*
X55287412Y-74471262D01*
X55220187Y-74478734D01*
X55155063Y-74481184D01*
X55067554Y-74474405D01*
X54993252Y-74455233D01*
X54926930Y-74422626D01*
X54872428Y-74378068D01*
X54829243Y-74321576D01*
X54796408Y-74250604D01*
X54776921Y-74170686D01*
X54769923Y-74073680D01*
X54777524Y-73975682D01*
X54798927Y-73893322D01*
X54834253Y-73819777D01*
X54879679Y-73760744D01*
X54936182Y-73713610D01*
X55003480Y-73678923D01*
X55077982Y-73657970D01*
X55161017Y-73650758D01*
X55276269Y-73658391D01*
X55336054Y-73668501D01*
X55403504Y-73684952D01*
X55403504Y-73670298D01*
X55630879Y-73670298D01*
X55630879Y-74461645D01*
X55630879Y-74637500D01*
X55902141Y-74637500D01*
X56014464Y-74633889D01*
X56109442Y-74623837D01*
X56198625Y-74606268D01*
X56274077Y-74582850D01*
X56356449Y-74545068D01*
X56424592Y-74499502D01*
X56482950Y-74444478D01*
X56529998Y-74382037D01*
X56566269Y-74312395D01*
X56592280Y-74234728D01*
X56607491Y-74152185D01*
X56612735Y-74061697D01*
X56606473Y-73966545D01*
X56588387Y-73881034D01*
X56558111Y-73801186D01*
X56516717Y-73730214D01*
X56464009Y-73667506D01*
X56399404Y-73613206D01*
X56325265Y-73569322D01*
X56238280Y-73534590D01*
X56170808Y-73517112D01*
X56094940Y-73504671D01*
X56014340Y-73497038D01*
X55932824Y-73494443D01*
X55630879Y-73494443D01*
X55630879Y-73670298D01*
X55403504Y-73670298D01*
X55403504Y-73511616D01*
X55349587Y-73496382D01*
X55286496Y-73484521D01*
X55220578Y-73477370D01*
X55149033Y-73474904D01*
X55055465Y-73480869D01*
X54971201Y-73496984D01*
X54895021Y-73522607D01*
X54823221Y-73558406D01*
X54761337Y-73601248D01*
X54708328Y-73651216D01*
X54663043Y-73708431D01*
X54625106Y-73772618D01*
X54594450Y-73844550D01*
X54572784Y-73919873D01*
X54559521Y-74000263D01*
X54554989Y-74086427D01*
X53946824Y-74086427D01*
X53946824Y-73494443D01*
X53736775Y-73494443D01*
X53736775Y-74637500D01*
X53597886Y-74637500D01*
X53597886Y-73336015D01*
X56751624Y-73336015D01*
X56751624Y-74795928D01*
G37*
D10*
X48238095Y-121454819D02*
X48238095Y-120454819D01*
X48238095Y-120931009D02*
X48809523Y-120931009D01*
X48809523Y-121454819D02*
X48809523Y-120454819D01*
X49714285Y-120788152D02*
X49714285Y-121454819D01*
X49476190Y-120407200D02*
X49238095Y-121121485D01*
X49238095Y-121121485D02*
X49857142Y-121121485D01*
X63059523Y-67862295D02*
X63516666Y-67862295D01*
X63288094Y-68662295D02*
X63288094Y-67862295D01*
X63783333Y-68662295D02*
X63783333Y-67862295D01*
X63783333Y-67862295D02*
X64088095Y-67862295D01*
X64088095Y-67862295D02*
X64164285Y-67900390D01*
X64164285Y-67900390D02*
X64202380Y-67938485D01*
X64202380Y-67938485D02*
X64240476Y-68014676D01*
X64240476Y-68014676D02*
X64240476Y-68128961D01*
X64240476Y-68128961D02*
X64202380Y-68205152D01*
X64202380Y-68205152D02*
X64164285Y-68243247D01*
X64164285Y-68243247D02*
X64088095Y-68281342D01*
X64088095Y-68281342D02*
X63783333Y-68281342D01*
X64507142Y-67862295D02*
X65002380Y-67862295D01*
X65002380Y-67862295D02*
X64735714Y-68167057D01*
X64735714Y-68167057D02*
X64849999Y-68167057D01*
X64849999Y-68167057D02*
X64926190Y-68205152D01*
X64926190Y-68205152D02*
X64964285Y-68243247D01*
X64964285Y-68243247D02*
X65002380Y-68319438D01*
X65002380Y-68319438D02*
X65002380Y-68509914D01*
X65002380Y-68509914D02*
X64964285Y-68586104D01*
X64964285Y-68586104D02*
X64926190Y-68624200D01*
X64926190Y-68624200D02*
X64849999Y-68662295D01*
X64849999Y-68662295D02*
X64621428Y-68662295D01*
X64621428Y-68662295D02*
X64545237Y-68624200D01*
X64545237Y-68624200D02*
X64507142Y-68586104D01*
X65688095Y-68128961D02*
X65688095Y-68662295D01*
X65497619Y-67824200D02*
X65307142Y-68395628D01*
X65307142Y-68395628D02*
X65802381Y-68395628D01*
X62387704Y-92759524D02*
X62387704Y-93216667D01*
X61587704Y-92988095D02*
X62387704Y-92988095D01*
X61587704Y-93483334D02*
X62387704Y-93483334D01*
X62387704Y-93483334D02*
X62387704Y-93788096D01*
X62387704Y-93788096D02*
X62349609Y-93864286D01*
X62349609Y-93864286D02*
X62311514Y-93902381D01*
X62311514Y-93902381D02*
X62235323Y-93940477D01*
X62235323Y-93940477D02*
X62121038Y-93940477D01*
X62121038Y-93940477D02*
X62044847Y-93902381D01*
X62044847Y-93902381D02*
X62006752Y-93864286D01*
X62006752Y-93864286D02*
X61968657Y-93788096D01*
X61968657Y-93788096D02*
X61968657Y-93483334D01*
X61587704Y-94702381D02*
X61587704Y-94245238D01*
X61587704Y-94473810D02*
X62387704Y-94473810D01*
X62387704Y-94473810D02*
X62273419Y-94397619D01*
X62273419Y-94397619D02*
X62197228Y-94321429D01*
X62197228Y-94321429D02*
X62159133Y-94245238D01*
X61587704Y-95464286D02*
X61587704Y-95007143D01*
X61587704Y-95235715D02*
X62387704Y-95235715D01*
X62387704Y-95235715D02*
X62273419Y-95159524D01*
X62273419Y-95159524D02*
X62197228Y-95083334D01*
X62197228Y-95083334D02*
X62159133Y-95007143D01*
X58259523Y-104562295D02*
X58716666Y-104562295D01*
X58488094Y-105362295D02*
X58488094Y-104562295D01*
X58983333Y-105362295D02*
X58983333Y-104562295D01*
X58983333Y-104562295D02*
X59288095Y-104562295D01*
X59288095Y-104562295D02*
X59364285Y-104600390D01*
X59364285Y-104600390D02*
X59402380Y-104638485D01*
X59402380Y-104638485D02*
X59440476Y-104714676D01*
X59440476Y-104714676D02*
X59440476Y-104828961D01*
X59440476Y-104828961D02*
X59402380Y-104905152D01*
X59402380Y-104905152D02*
X59364285Y-104943247D01*
X59364285Y-104943247D02*
X59288095Y-104981342D01*
X59288095Y-104981342D02*
X58983333Y-104981342D01*
X60126190Y-104828961D02*
X60126190Y-105362295D01*
X59935714Y-104524200D02*
X59745237Y-105095628D01*
X59745237Y-105095628D02*
X60240476Y-105095628D01*
X60697619Y-104562295D02*
X60773809Y-104562295D01*
X60773809Y-104562295D02*
X60850000Y-104600390D01*
X60850000Y-104600390D02*
X60888095Y-104638485D01*
X60888095Y-104638485D02*
X60926190Y-104714676D01*
X60926190Y-104714676D02*
X60964285Y-104867057D01*
X60964285Y-104867057D02*
X60964285Y-105057533D01*
X60964285Y-105057533D02*
X60926190Y-105209914D01*
X60926190Y-105209914D02*
X60888095Y-105286104D01*
X60888095Y-105286104D02*
X60850000Y-105324200D01*
X60850000Y-105324200D02*
X60773809Y-105362295D01*
X60773809Y-105362295D02*
X60697619Y-105362295D01*
X60697619Y-105362295D02*
X60621428Y-105324200D01*
X60621428Y-105324200D02*
X60583333Y-105286104D01*
X60583333Y-105286104D02*
X60545238Y-105209914D01*
X60545238Y-105209914D02*
X60507142Y-105057533D01*
X60507142Y-105057533D02*
X60507142Y-104867057D01*
X60507142Y-104867057D02*
X60545238Y-104714676D01*
X60545238Y-104714676D02*
X60583333Y-104638485D01*
X60583333Y-104638485D02*
X60621428Y-104600390D01*
X60621428Y-104600390D02*
X60697619Y-104562295D01*
X80687704Y-76459523D02*
X80687704Y-76916666D01*
X79887704Y-76688094D02*
X80687704Y-76688094D01*
X79887704Y-77183333D02*
X80687704Y-77183333D01*
X80687704Y-77183333D02*
X80687704Y-77488095D01*
X80687704Y-77488095D02*
X80649609Y-77564285D01*
X80649609Y-77564285D02*
X80611514Y-77602380D01*
X80611514Y-77602380D02*
X80535323Y-77640476D01*
X80535323Y-77640476D02*
X80421038Y-77640476D01*
X80421038Y-77640476D02*
X80344847Y-77602380D01*
X80344847Y-77602380D02*
X80306752Y-77564285D01*
X80306752Y-77564285D02*
X80268657Y-77488095D01*
X80268657Y-77488095D02*
X80268657Y-77183333D01*
X80611514Y-77945237D02*
X80649609Y-77983333D01*
X80649609Y-77983333D02*
X80687704Y-78059523D01*
X80687704Y-78059523D02*
X80687704Y-78249999D01*
X80687704Y-78249999D02*
X80649609Y-78326190D01*
X80649609Y-78326190D02*
X80611514Y-78364285D01*
X80611514Y-78364285D02*
X80535323Y-78402380D01*
X80535323Y-78402380D02*
X80459133Y-78402380D01*
X80459133Y-78402380D02*
X80344847Y-78364285D01*
X80344847Y-78364285D02*
X79887704Y-77907142D01*
X79887704Y-77907142D02*
X79887704Y-78402380D01*
X80421038Y-79088095D02*
X79887704Y-79088095D01*
X80725800Y-78897619D02*
X80154371Y-78707142D01*
X80154371Y-78707142D02*
X80154371Y-79202381D01*
X89687704Y-61559523D02*
X89687704Y-62016666D01*
X88887704Y-61788094D02*
X89687704Y-61788094D01*
X88887704Y-62283333D02*
X89687704Y-62283333D01*
X89687704Y-62283333D02*
X89687704Y-62588095D01*
X89687704Y-62588095D02*
X89649609Y-62664285D01*
X89649609Y-62664285D02*
X89611514Y-62702380D01*
X89611514Y-62702380D02*
X89535323Y-62740476D01*
X89535323Y-62740476D02*
X89421038Y-62740476D01*
X89421038Y-62740476D02*
X89344847Y-62702380D01*
X89344847Y-62702380D02*
X89306752Y-62664285D01*
X89306752Y-62664285D02*
X89268657Y-62588095D01*
X89268657Y-62588095D02*
X89268657Y-62283333D01*
X89421038Y-63426190D02*
X88887704Y-63426190D01*
X89725800Y-63235714D02*
X89154371Y-63045237D01*
X89154371Y-63045237D02*
X89154371Y-63540476D01*
X88887704Y-64264285D02*
X88887704Y-63807142D01*
X88887704Y-64035714D02*
X89687704Y-64035714D01*
X89687704Y-64035714D02*
X89573419Y-63959523D01*
X89573419Y-63959523D02*
X89497228Y-63883333D01*
X89497228Y-63883333D02*
X89459133Y-63807142D01*
X51738095Y-49754819D02*
X51738095Y-48754819D01*
X51738095Y-49231009D02*
X52309523Y-49231009D01*
X52309523Y-49754819D02*
X52309523Y-48754819D01*
X53309523Y-49754819D02*
X52738095Y-49754819D01*
X53023809Y-49754819D02*
X53023809Y-48754819D01*
X53023809Y-48754819D02*
X52928571Y-48897676D01*
X52928571Y-48897676D02*
X52833333Y-48992914D01*
X52833333Y-48992914D02*
X52738095Y-49040533D01*
X66109523Y-67862295D02*
X66566666Y-67862295D01*
X66338094Y-68662295D02*
X66338094Y-67862295D01*
X66833333Y-68662295D02*
X66833333Y-67862295D01*
X66833333Y-67862295D02*
X67138095Y-67862295D01*
X67138095Y-67862295D02*
X67214285Y-67900390D01*
X67214285Y-67900390D02*
X67252380Y-67938485D01*
X67252380Y-67938485D02*
X67290476Y-68014676D01*
X67290476Y-68014676D02*
X67290476Y-68128961D01*
X67290476Y-68128961D02*
X67252380Y-68205152D01*
X67252380Y-68205152D02*
X67214285Y-68243247D01*
X67214285Y-68243247D02*
X67138095Y-68281342D01*
X67138095Y-68281342D02*
X66833333Y-68281342D01*
X67557142Y-67862295D02*
X68052380Y-67862295D01*
X68052380Y-67862295D02*
X67785714Y-68167057D01*
X67785714Y-68167057D02*
X67899999Y-68167057D01*
X67899999Y-68167057D02*
X67976190Y-68205152D01*
X67976190Y-68205152D02*
X68014285Y-68243247D01*
X68014285Y-68243247D02*
X68052380Y-68319438D01*
X68052380Y-68319438D02*
X68052380Y-68509914D01*
X68052380Y-68509914D02*
X68014285Y-68586104D01*
X68014285Y-68586104D02*
X67976190Y-68624200D01*
X67976190Y-68624200D02*
X67899999Y-68662295D01*
X67899999Y-68662295D02*
X67671428Y-68662295D01*
X67671428Y-68662295D02*
X67595237Y-68624200D01*
X67595237Y-68624200D02*
X67557142Y-68586104D01*
X68357142Y-67938485D02*
X68395238Y-67900390D01*
X68395238Y-67900390D02*
X68471428Y-67862295D01*
X68471428Y-67862295D02*
X68661904Y-67862295D01*
X68661904Y-67862295D02*
X68738095Y-67900390D01*
X68738095Y-67900390D02*
X68776190Y-67938485D01*
X68776190Y-67938485D02*
X68814285Y-68014676D01*
X68814285Y-68014676D02*
X68814285Y-68090866D01*
X68814285Y-68090866D02*
X68776190Y-68205152D01*
X68776190Y-68205152D02*
X68319047Y-68662295D01*
X68319047Y-68662295D02*
X68814285Y-68662295D01*
X64609523Y-104562295D02*
X65066666Y-104562295D01*
X64838094Y-105362295D02*
X64838094Y-104562295D01*
X65333333Y-105362295D02*
X65333333Y-104562295D01*
X65333333Y-104562295D02*
X65638095Y-104562295D01*
X65638095Y-104562295D02*
X65714285Y-104600390D01*
X65714285Y-104600390D02*
X65752380Y-104638485D01*
X65752380Y-104638485D02*
X65790476Y-104714676D01*
X65790476Y-104714676D02*
X65790476Y-104828961D01*
X65790476Y-104828961D02*
X65752380Y-104905152D01*
X65752380Y-104905152D02*
X65714285Y-104943247D01*
X65714285Y-104943247D02*
X65638095Y-104981342D01*
X65638095Y-104981342D02*
X65333333Y-104981342D01*
X66552380Y-105362295D02*
X66095237Y-105362295D01*
X66323809Y-105362295D02*
X66323809Y-104562295D01*
X66323809Y-104562295D02*
X66247618Y-104676580D01*
X66247618Y-104676580D02*
X66171428Y-104752771D01*
X66171428Y-104752771D02*
X66095237Y-104790866D01*
X67047619Y-104562295D02*
X67123809Y-104562295D01*
X67123809Y-104562295D02*
X67200000Y-104600390D01*
X67200000Y-104600390D02*
X67238095Y-104638485D01*
X67238095Y-104638485D02*
X67276190Y-104714676D01*
X67276190Y-104714676D02*
X67314285Y-104867057D01*
X67314285Y-104867057D02*
X67314285Y-105057533D01*
X67314285Y-105057533D02*
X67276190Y-105209914D01*
X67276190Y-105209914D02*
X67238095Y-105286104D01*
X67238095Y-105286104D02*
X67200000Y-105324200D01*
X67200000Y-105324200D02*
X67123809Y-105362295D01*
X67123809Y-105362295D02*
X67047619Y-105362295D01*
X67047619Y-105362295D02*
X66971428Y-105324200D01*
X66971428Y-105324200D02*
X66933333Y-105286104D01*
X66933333Y-105286104D02*
X66895238Y-105209914D01*
X66895238Y-105209914D02*
X66857142Y-105057533D01*
X66857142Y-105057533D02*
X66857142Y-104867057D01*
X66857142Y-104867057D02*
X66895238Y-104714676D01*
X66895238Y-104714676D02*
X66933333Y-104638485D01*
X66933333Y-104638485D02*
X66971428Y-104600390D01*
X66971428Y-104600390D02*
X67047619Y-104562295D01*
X63609523Y-78712294D02*
X64066666Y-78712294D01*
X63838094Y-79512294D02*
X63838094Y-78712294D01*
X64333333Y-79512294D02*
X64333333Y-78712294D01*
X64333333Y-78712294D02*
X64638095Y-78712294D01*
X64638095Y-78712294D02*
X64714285Y-78750389D01*
X64714285Y-78750389D02*
X64752380Y-78788484D01*
X64752380Y-78788484D02*
X64790476Y-78864675D01*
X64790476Y-78864675D02*
X64790476Y-78978960D01*
X64790476Y-78978960D02*
X64752380Y-79055151D01*
X64752380Y-79055151D02*
X64714285Y-79093246D01*
X64714285Y-79093246D02*
X64638095Y-79131341D01*
X64638095Y-79131341D02*
X64333333Y-79131341D01*
X65552380Y-79512294D02*
X65095237Y-79512294D01*
X65323809Y-79512294D02*
X65323809Y-78712294D01*
X65323809Y-78712294D02*
X65247618Y-78826579D01*
X65247618Y-78826579D02*
X65171428Y-78902770D01*
X65171428Y-78902770D02*
X65095237Y-78940865D01*
X66238095Y-78978960D02*
X66238095Y-79512294D01*
X66047619Y-78674199D02*
X65857142Y-79245627D01*
X65857142Y-79245627D02*
X66352381Y-79245627D01*
X69287704Y-75109522D02*
X69287704Y-75566665D01*
X68487704Y-75338093D02*
X69287704Y-75338093D01*
X68487704Y-75833332D02*
X69287704Y-75833332D01*
X69287704Y-75833332D02*
X69287704Y-76138094D01*
X69287704Y-76138094D02*
X69249609Y-76214284D01*
X69249609Y-76214284D02*
X69211514Y-76252379D01*
X69211514Y-76252379D02*
X69135323Y-76290475D01*
X69135323Y-76290475D02*
X69021038Y-76290475D01*
X69021038Y-76290475D02*
X68944847Y-76252379D01*
X68944847Y-76252379D02*
X68906752Y-76214284D01*
X68906752Y-76214284D02*
X68868657Y-76138094D01*
X68868657Y-76138094D02*
X68868657Y-75833332D01*
X68487704Y-77052379D02*
X68487704Y-76595236D01*
X68487704Y-76823808D02*
X69287704Y-76823808D01*
X69287704Y-76823808D02*
X69173419Y-76747617D01*
X69173419Y-76747617D02*
X69097228Y-76671427D01*
X69097228Y-76671427D02*
X69059133Y-76595236D01*
X69287704Y-77319046D02*
X69287704Y-77814284D01*
X69287704Y-77814284D02*
X68982942Y-77547618D01*
X68982942Y-77547618D02*
X68982942Y-77661903D01*
X68982942Y-77661903D02*
X68944847Y-77738094D01*
X68944847Y-77738094D02*
X68906752Y-77776189D01*
X68906752Y-77776189D02*
X68830561Y-77814284D01*
X68830561Y-77814284D02*
X68640085Y-77814284D01*
X68640085Y-77814284D02*
X68563895Y-77776189D01*
X68563895Y-77776189D02*
X68525800Y-77738094D01*
X68525800Y-77738094D02*
X68487704Y-77661903D01*
X68487704Y-77661903D02*
X68487704Y-77433332D01*
X68487704Y-77433332D02*
X68525800Y-77357141D01*
X68525800Y-77357141D02*
X68563895Y-77319046D01*
X82187704Y-76459524D02*
X82187704Y-76916667D01*
X81387704Y-76688095D02*
X82187704Y-76688095D01*
X81387704Y-77183334D02*
X82187704Y-77183334D01*
X82187704Y-77183334D02*
X82187704Y-77488096D01*
X82187704Y-77488096D02*
X82149609Y-77564286D01*
X82149609Y-77564286D02*
X82111514Y-77602381D01*
X82111514Y-77602381D02*
X82035323Y-77640477D01*
X82035323Y-77640477D02*
X81921038Y-77640477D01*
X81921038Y-77640477D02*
X81844847Y-77602381D01*
X81844847Y-77602381D02*
X81806752Y-77564286D01*
X81806752Y-77564286D02*
X81768657Y-77488096D01*
X81768657Y-77488096D02*
X81768657Y-77183334D01*
X82111514Y-77945238D02*
X82149609Y-77983334D01*
X82149609Y-77983334D02*
X82187704Y-78059524D01*
X82187704Y-78059524D02*
X82187704Y-78250000D01*
X82187704Y-78250000D02*
X82149609Y-78326191D01*
X82149609Y-78326191D02*
X82111514Y-78364286D01*
X82111514Y-78364286D02*
X82035323Y-78402381D01*
X82035323Y-78402381D02*
X81959133Y-78402381D01*
X81959133Y-78402381D02*
X81844847Y-78364286D01*
X81844847Y-78364286D02*
X81387704Y-77907143D01*
X81387704Y-77907143D02*
X81387704Y-78402381D01*
X82187704Y-79126191D02*
X82187704Y-78745239D01*
X82187704Y-78745239D02*
X81806752Y-78707143D01*
X81806752Y-78707143D02*
X81844847Y-78745239D01*
X81844847Y-78745239D02*
X81882942Y-78821429D01*
X81882942Y-78821429D02*
X81882942Y-79011905D01*
X81882942Y-79011905D02*
X81844847Y-79088096D01*
X81844847Y-79088096D02*
X81806752Y-79126191D01*
X81806752Y-79126191D02*
X81730561Y-79164286D01*
X81730561Y-79164286D02*
X81540085Y-79164286D01*
X81540085Y-79164286D02*
X81463895Y-79126191D01*
X81463895Y-79126191D02*
X81425800Y-79088096D01*
X81425800Y-79088096D02*
X81387704Y-79011905D01*
X81387704Y-79011905D02*
X81387704Y-78821429D01*
X81387704Y-78821429D02*
X81425800Y-78745239D01*
X81425800Y-78745239D02*
X81463895Y-78707143D01*
X83687704Y-75809523D02*
X83687704Y-76266666D01*
X82887704Y-76038094D02*
X83687704Y-76038094D01*
X82887704Y-76533333D02*
X83687704Y-76533333D01*
X83687704Y-76533333D02*
X83687704Y-76838095D01*
X83687704Y-76838095D02*
X83649609Y-76914285D01*
X83649609Y-76914285D02*
X83611514Y-76952380D01*
X83611514Y-76952380D02*
X83535323Y-76990476D01*
X83535323Y-76990476D02*
X83421038Y-76990476D01*
X83421038Y-76990476D02*
X83344847Y-76952380D01*
X83344847Y-76952380D02*
X83306752Y-76914285D01*
X83306752Y-76914285D02*
X83268657Y-76838095D01*
X83268657Y-76838095D02*
X83268657Y-76533333D01*
X83611514Y-77295237D02*
X83649609Y-77333333D01*
X83649609Y-77333333D02*
X83687704Y-77409523D01*
X83687704Y-77409523D02*
X83687704Y-77599999D01*
X83687704Y-77599999D02*
X83649609Y-77676190D01*
X83649609Y-77676190D02*
X83611514Y-77714285D01*
X83611514Y-77714285D02*
X83535323Y-77752380D01*
X83535323Y-77752380D02*
X83459133Y-77752380D01*
X83459133Y-77752380D02*
X83344847Y-77714285D01*
X83344847Y-77714285D02*
X82887704Y-77257142D01*
X82887704Y-77257142D02*
X82887704Y-77752380D01*
X83687704Y-78019047D02*
X83687704Y-78552381D01*
X83687704Y-78552381D02*
X82887704Y-78209523D01*
X54359523Y-50662295D02*
X54816666Y-50662295D01*
X54588094Y-51462295D02*
X54588094Y-50662295D01*
X55083333Y-51462295D02*
X55083333Y-50662295D01*
X55083333Y-50662295D02*
X55388095Y-50662295D01*
X55388095Y-50662295D02*
X55464285Y-50700390D01*
X55464285Y-50700390D02*
X55502380Y-50738485D01*
X55502380Y-50738485D02*
X55540476Y-50814676D01*
X55540476Y-50814676D02*
X55540476Y-50928961D01*
X55540476Y-50928961D02*
X55502380Y-51005152D01*
X55502380Y-51005152D02*
X55464285Y-51043247D01*
X55464285Y-51043247D02*
X55388095Y-51081342D01*
X55388095Y-51081342D02*
X55083333Y-51081342D01*
X55807142Y-50662295D02*
X56302380Y-50662295D01*
X56302380Y-50662295D02*
X56035714Y-50967057D01*
X56035714Y-50967057D02*
X56149999Y-50967057D01*
X56149999Y-50967057D02*
X56226190Y-51005152D01*
X56226190Y-51005152D02*
X56264285Y-51043247D01*
X56264285Y-51043247D02*
X56302380Y-51119438D01*
X56302380Y-51119438D02*
X56302380Y-51309914D01*
X56302380Y-51309914D02*
X56264285Y-51386104D01*
X56264285Y-51386104D02*
X56226190Y-51424200D01*
X56226190Y-51424200D02*
X56149999Y-51462295D01*
X56149999Y-51462295D02*
X55921428Y-51462295D01*
X55921428Y-51462295D02*
X55845237Y-51424200D01*
X55845237Y-51424200D02*
X55807142Y-51386104D01*
X56759523Y-51005152D02*
X56683333Y-50967057D01*
X56683333Y-50967057D02*
X56645238Y-50928961D01*
X56645238Y-50928961D02*
X56607142Y-50852771D01*
X56607142Y-50852771D02*
X56607142Y-50814676D01*
X56607142Y-50814676D02*
X56645238Y-50738485D01*
X56645238Y-50738485D02*
X56683333Y-50700390D01*
X56683333Y-50700390D02*
X56759523Y-50662295D01*
X56759523Y-50662295D02*
X56911904Y-50662295D01*
X56911904Y-50662295D02*
X56988095Y-50700390D01*
X56988095Y-50700390D02*
X57026190Y-50738485D01*
X57026190Y-50738485D02*
X57064285Y-50814676D01*
X57064285Y-50814676D02*
X57064285Y-50852771D01*
X57064285Y-50852771D02*
X57026190Y-50928961D01*
X57026190Y-50928961D02*
X56988095Y-50967057D01*
X56988095Y-50967057D02*
X56911904Y-51005152D01*
X56911904Y-51005152D02*
X56759523Y-51005152D01*
X56759523Y-51005152D02*
X56683333Y-51043247D01*
X56683333Y-51043247D02*
X56645238Y-51081342D01*
X56645238Y-51081342D02*
X56607142Y-51157533D01*
X56607142Y-51157533D02*
X56607142Y-51309914D01*
X56607142Y-51309914D02*
X56645238Y-51386104D01*
X56645238Y-51386104D02*
X56683333Y-51424200D01*
X56683333Y-51424200D02*
X56759523Y-51462295D01*
X56759523Y-51462295D02*
X56911904Y-51462295D01*
X56911904Y-51462295D02*
X56988095Y-51424200D01*
X56988095Y-51424200D02*
X57026190Y-51386104D01*
X57026190Y-51386104D02*
X57064285Y-51309914D01*
X57064285Y-51309914D02*
X57064285Y-51157533D01*
X57064285Y-51157533D02*
X57026190Y-51081342D01*
X57026190Y-51081342D02*
X56988095Y-51043247D01*
X56988095Y-51043247D02*
X56911904Y-51005152D01*
X54937704Y-54359523D02*
X54937704Y-54816666D01*
X54137704Y-54588094D02*
X54937704Y-54588094D01*
X54137704Y-55083333D02*
X54937704Y-55083333D01*
X54937704Y-55083333D02*
X54937704Y-55388095D01*
X54937704Y-55388095D02*
X54899609Y-55464285D01*
X54899609Y-55464285D02*
X54861514Y-55502380D01*
X54861514Y-55502380D02*
X54785323Y-55540476D01*
X54785323Y-55540476D02*
X54671038Y-55540476D01*
X54671038Y-55540476D02*
X54594847Y-55502380D01*
X54594847Y-55502380D02*
X54556752Y-55464285D01*
X54556752Y-55464285D02*
X54518657Y-55388095D01*
X54518657Y-55388095D02*
X54518657Y-55083333D01*
X54937704Y-55807142D02*
X54937704Y-56302380D01*
X54937704Y-56302380D02*
X54632942Y-56035714D01*
X54632942Y-56035714D02*
X54632942Y-56149999D01*
X54632942Y-56149999D02*
X54594847Y-56226190D01*
X54594847Y-56226190D02*
X54556752Y-56264285D01*
X54556752Y-56264285D02*
X54480561Y-56302380D01*
X54480561Y-56302380D02*
X54290085Y-56302380D01*
X54290085Y-56302380D02*
X54213895Y-56264285D01*
X54213895Y-56264285D02*
X54175800Y-56226190D01*
X54175800Y-56226190D02*
X54137704Y-56149999D01*
X54137704Y-56149999D02*
X54137704Y-55921428D01*
X54137704Y-55921428D02*
X54175800Y-55845237D01*
X54175800Y-55845237D02*
X54213895Y-55807142D01*
X54137704Y-56683333D02*
X54137704Y-56835714D01*
X54137704Y-56835714D02*
X54175800Y-56911904D01*
X54175800Y-56911904D02*
X54213895Y-56950000D01*
X54213895Y-56950000D02*
X54328180Y-57026190D01*
X54328180Y-57026190D02*
X54480561Y-57064285D01*
X54480561Y-57064285D02*
X54785323Y-57064285D01*
X54785323Y-57064285D02*
X54861514Y-57026190D01*
X54861514Y-57026190D02*
X54899609Y-56988095D01*
X54899609Y-56988095D02*
X54937704Y-56911904D01*
X54937704Y-56911904D02*
X54937704Y-56759523D01*
X54937704Y-56759523D02*
X54899609Y-56683333D01*
X54899609Y-56683333D02*
X54861514Y-56645238D01*
X54861514Y-56645238D02*
X54785323Y-56607142D01*
X54785323Y-56607142D02*
X54594847Y-56607142D01*
X54594847Y-56607142D02*
X54518657Y-56645238D01*
X54518657Y-56645238D02*
X54480561Y-56683333D01*
X54480561Y-56683333D02*
X54442466Y-56759523D01*
X54442466Y-56759523D02*
X54442466Y-56911904D01*
X54442466Y-56911904D02*
X54480561Y-56988095D01*
X54480561Y-56988095D02*
X54518657Y-57026190D01*
X54518657Y-57026190D02*
X54594847Y-57064285D01*
X86738095Y-49754819D02*
X86738095Y-48754819D01*
X86738095Y-49231009D02*
X87309523Y-49231009D01*
X87309523Y-49754819D02*
X87309523Y-48754819D01*
X87738095Y-48850057D02*
X87785714Y-48802438D01*
X87785714Y-48802438D02*
X87880952Y-48754819D01*
X87880952Y-48754819D02*
X88119047Y-48754819D01*
X88119047Y-48754819D02*
X88214285Y-48802438D01*
X88214285Y-48802438D02*
X88261904Y-48850057D01*
X88261904Y-48850057D02*
X88309523Y-48945295D01*
X88309523Y-48945295D02*
X88309523Y-49040533D01*
X88309523Y-49040533D02*
X88261904Y-49183390D01*
X88261904Y-49183390D02*
X87690476Y-49754819D01*
X87690476Y-49754819D02*
X88309523Y-49754819D01*
X55087704Y-57109523D02*
X55087704Y-57566666D01*
X54287704Y-57338094D02*
X55087704Y-57338094D01*
X54287704Y-57833333D02*
X55087704Y-57833333D01*
X55087704Y-57833333D02*
X55087704Y-58138095D01*
X55087704Y-58138095D02*
X55049609Y-58214285D01*
X55049609Y-58214285D02*
X55011514Y-58252380D01*
X55011514Y-58252380D02*
X54935323Y-58290476D01*
X54935323Y-58290476D02*
X54821038Y-58290476D01*
X54821038Y-58290476D02*
X54744847Y-58252380D01*
X54744847Y-58252380D02*
X54706752Y-58214285D01*
X54706752Y-58214285D02*
X54668657Y-58138095D01*
X54668657Y-58138095D02*
X54668657Y-57833333D01*
X55087704Y-58557142D02*
X55087704Y-59052380D01*
X55087704Y-59052380D02*
X54782942Y-58785714D01*
X54782942Y-58785714D02*
X54782942Y-58899999D01*
X54782942Y-58899999D02*
X54744847Y-58976190D01*
X54744847Y-58976190D02*
X54706752Y-59014285D01*
X54706752Y-59014285D02*
X54630561Y-59052380D01*
X54630561Y-59052380D02*
X54440085Y-59052380D01*
X54440085Y-59052380D02*
X54363895Y-59014285D01*
X54363895Y-59014285D02*
X54325800Y-58976190D01*
X54325800Y-58976190D02*
X54287704Y-58899999D01*
X54287704Y-58899999D02*
X54287704Y-58671428D01*
X54287704Y-58671428D02*
X54325800Y-58595237D01*
X54325800Y-58595237D02*
X54363895Y-58557142D01*
X55087704Y-59738095D02*
X55087704Y-59585714D01*
X55087704Y-59585714D02*
X55049609Y-59509523D01*
X55049609Y-59509523D02*
X55011514Y-59471428D01*
X55011514Y-59471428D02*
X54897228Y-59395238D01*
X54897228Y-59395238D02*
X54744847Y-59357142D01*
X54744847Y-59357142D02*
X54440085Y-59357142D01*
X54440085Y-59357142D02*
X54363895Y-59395238D01*
X54363895Y-59395238D02*
X54325800Y-59433333D01*
X54325800Y-59433333D02*
X54287704Y-59509523D01*
X54287704Y-59509523D02*
X54287704Y-59661904D01*
X54287704Y-59661904D02*
X54325800Y-59738095D01*
X54325800Y-59738095D02*
X54363895Y-59776190D01*
X54363895Y-59776190D02*
X54440085Y-59814285D01*
X54440085Y-59814285D02*
X54630561Y-59814285D01*
X54630561Y-59814285D02*
X54706752Y-59776190D01*
X54706752Y-59776190D02*
X54744847Y-59738095D01*
X54744847Y-59738095D02*
X54782942Y-59661904D01*
X54782942Y-59661904D02*
X54782942Y-59509523D01*
X54782942Y-59509523D02*
X54744847Y-59433333D01*
X54744847Y-59433333D02*
X54706752Y-59395238D01*
X54706752Y-59395238D02*
X54630561Y-59357142D01*
X69287704Y-69109523D02*
X69287704Y-69566666D01*
X68487704Y-69338094D02*
X69287704Y-69338094D01*
X68487704Y-69833333D02*
X69287704Y-69833333D01*
X69287704Y-69833333D02*
X69287704Y-70138095D01*
X69287704Y-70138095D02*
X69249609Y-70214285D01*
X69249609Y-70214285D02*
X69211514Y-70252380D01*
X69211514Y-70252380D02*
X69135323Y-70290476D01*
X69135323Y-70290476D02*
X69021038Y-70290476D01*
X69021038Y-70290476D02*
X68944847Y-70252380D01*
X68944847Y-70252380D02*
X68906752Y-70214285D01*
X68906752Y-70214285D02*
X68868657Y-70138095D01*
X68868657Y-70138095D02*
X68868657Y-69833333D01*
X68487704Y-71052380D02*
X68487704Y-70595237D01*
X68487704Y-70823809D02*
X69287704Y-70823809D01*
X69287704Y-70823809D02*
X69173419Y-70747618D01*
X69173419Y-70747618D02*
X69097228Y-70671428D01*
X69097228Y-70671428D02*
X69059133Y-70595237D01*
X69287704Y-71776190D02*
X69287704Y-71395238D01*
X69287704Y-71395238D02*
X68906752Y-71357142D01*
X68906752Y-71357142D02*
X68944847Y-71395238D01*
X68944847Y-71395238D02*
X68982942Y-71471428D01*
X68982942Y-71471428D02*
X68982942Y-71661904D01*
X68982942Y-71661904D02*
X68944847Y-71738095D01*
X68944847Y-71738095D02*
X68906752Y-71776190D01*
X68906752Y-71776190D02*
X68830561Y-71814285D01*
X68830561Y-71814285D02*
X68640085Y-71814285D01*
X68640085Y-71814285D02*
X68563895Y-71776190D01*
X68563895Y-71776190D02*
X68525800Y-71738095D01*
X68525800Y-71738095D02*
X68487704Y-71661904D01*
X68487704Y-71661904D02*
X68487704Y-71471428D01*
X68487704Y-71471428D02*
X68525800Y-71395238D01*
X68525800Y-71395238D02*
X68563895Y-71357142D01*
X59187704Y-93990476D02*
X59187704Y-94447619D01*
X58387704Y-94219047D02*
X59187704Y-94219047D01*
X58387704Y-94714286D02*
X59187704Y-94714286D01*
X59187704Y-94714286D02*
X59187704Y-95019048D01*
X59187704Y-95019048D02*
X59149609Y-95095238D01*
X59149609Y-95095238D02*
X59111514Y-95133333D01*
X59111514Y-95133333D02*
X59035323Y-95171429D01*
X59035323Y-95171429D02*
X58921038Y-95171429D01*
X58921038Y-95171429D02*
X58844847Y-95133333D01*
X58844847Y-95133333D02*
X58806752Y-95095238D01*
X58806752Y-95095238D02*
X58768657Y-95019048D01*
X58768657Y-95019048D02*
X58768657Y-94714286D01*
X59187704Y-95857143D02*
X59187704Y-95704762D01*
X59187704Y-95704762D02*
X59149609Y-95628571D01*
X59149609Y-95628571D02*
X59111514Y-95590476D01*
X59111514Y-95590476D02*
X58997228Y-95514286D01*
X58997228Y-95514286D02*
X58844847Y-95476190D01*
X58844847Y-95476190D02*
X58540085Y-95476190D01*
X58540085Y-95476190D02*
X58463895Y-95514286D01*
X58463895Y-95514286D02*
X58425800Y-95552381D01*
X58425800Y-95552381D02*
X58387704Y-95628571D01*
X58387704Y-95628571D02*
X58387704Y-95780952D01*
X58387704Y-95780952D02*
X58425800Y-95857143D01*
X58425800Y-95857143D02*
X58463895Y-95895238D01*
X58463895Y-95895238D02*
X58540085Y-95933333D01*
X58540085Y-95933333D02*
X58730561Y-95933333D01*
X58730561Y-95933333D02*
X58806752Y-95895238D01*
X58806752Y-95895238D02*
X58844847Y-95857143D01*
X58844847Y-95857143D02*
X58882942Y-95780952D01*
X58882942Y-95780952D02*
X58882942Y-95628571D01*
X58882942Y-95628571D02*
X58844847Y-95552381D01*
X58844847Y-95552381D02*
X58806752Y-95514286D01*
X58806752Y-95514286D02*
X58730561Y-95476190D01*
X85137704Y-76209523D02*
X85137704Y-76666666D01*
X84337704Y-76438094D02*
X85137704Y-76438094D01*
X84337704Y-76933333D02*
X85137704Y-76933333D01*
X85137704Y-76933333D02*
X85137704Y-77238095D01*
X85137704Y-77238095D02*
X85099609Y-77314285D01*
X85099609Y-77314285D02*
X85061514Y-77352380D01*
X85061514Y-77352380D02*
X84985323Y-77390476D01*
X84985323Y-77390476D02*
X84871038Y-77390476D01*
X84871038Y-77390476D02*
X84794847Y-77352380D01*
X84794847Y-77352380D02*
X84756752Y-77314285D01*
X84756752Y-77314285D02*
X84718657Y-77238095D01*
X84718657Y-77238095D02*
X84718657Y-76933333D01*
X85061514Y-77695237D02*
X85099609Y-77733333D01*
X85099609Y-77733333D02*
X85137704Y-77809523D01*
X85137704Y-77809523D02*
X85137704Y-77999999D01*
X85137704Y-77999999D02*
X85099609Y-78076190D01*
X85099609Y-78076190D02*
X85061514Y-78114285D01*
X85061514Y-78114285D02*
X84985323Y-78152380D01*
X84985323Y-78152380D02*
X84909133Y-78152380D01*
X84909133Y-78152380D02*
X84794847Y-78114285D01*
X84794847Y-78114285D02*
X84337704Y-77657142D01*
X84337704Y-77657142D02*
X84337704Y-78152380D01*
X85137704Y-78838095D02*
X85137704Y-78685714D01*
X85137704Y-78685714D02*
X85099609Y-78609523D01*
X85099609Y-78609523D02*
X85061514Y-78571428D01*
X85061514Y-78571428D02*
X84947228Y-78495238D01*
X84947228Y-78495238D02*
X84794847Y-78457142D01*
X84794847Y-78457142D02*
X84490085Y-78457142D01*
X84490085Y-78457142D02*
X84413895Y-78495238D01*
X84413895Y-78495238D02*
X84375800Y-78533333D01*
X84375800Y-78533333D02*
X84337704Y-78609523D01*
X84337704Y-78609523D02*
X84337704Y-78761904D01*
X84337704Y-78761904D02*
X84375800Y-78838095D01*
X84375800Y-78838095D02*
X84413895Y-78876190D01*
X84413895Y-78876190D02*
X84490085Y-78914285D01*
X84490085Y-78914285D02*
X84680561Y-78914285D01*
X84680561Y-78914285D02*
X84756752Y-78876190D01*
X84756752Y-78876190D02*
X84794847Y-78838095D01*
X84794847Y-78838095D02*
X84832942Y-78761904D01*
X84832942Y-78761904D02*
X84832942Y-78609523D01*
X84832942Y-78609523D02*
X84794847Y-78533333D01*
X84794847Y-78533333D02*
X84756752Y-78495238D01*
X84756752Y-78495238D02*
X84680561Y-78457142D01*
X76187704Y-75809525D02*
X76187704Y-76266668D01*
X75387704Y-76038096D02*
X76187704Y-76038096D01*
X75387704Y-76533335D02*
X76187704Y-76533335D01*
X76187704Y-76533335D02*
X76187704Y-76838097D01*
X76187704Y-76838097D02*
X76149609Y-76914287D01*
X76149609Y-76914287D02*
X76111514Y-76952382D01*
X76111514Y-76952382D02*
X76035323Y-76990478D01*
X76035323Y-76990478D02*
X75921038Y-76990478D01*
X75921038Y-76990478D02*
X75844847Y-76952382D01*
X75844847Y-76952382D02*
X75806752Y-76914287D01*
X75806752Y-76914287D02*
X75768657Y-76838097D01*
X75768657Y-76838097D02*
X75768657Y-76533335D01*
X76111514Y-77295239D02*
X76149609Y-77333335D01*
X76149609Y-77333335D02*
X76187704Y-77409525D01*
X76187704Y-77409525D02*
X76187704Y-77600001D01*
X76187704Y-77600001D02*
X76149609Y-77676192D01*
X76149609Y-77676192D02*
X76111514Y-77714287D01*
X76111514Y-77714287D02*
X76035323Y-77752382D01*
X76035323Y-77752382D02*
X75959133Y-77752382D01*
X75959133Y-77752382D02*
X75844847Y-77714287D01*
X75844847Y-77714287D02*
X75387704Y-77257144D01*
X75387704Y-77257144D02*
X75387704Y-77752382D01*
X75387704Y-78133335D02*
X75387704Y-78285716D01*
X75387704Y-78285716D02*
X75425800Y-78361906D01*
X75425800Y-78361906D02*
X75463895Y-78400002D01*
X75463895Y-78400002D02*
X75578180Y-78476192D01*
X75578180Y-78476192D02*
X75730561Y-78514287D01*
X75730561Y-78514287D02*
X76035323Y-78514287D01*
X76035323Y-78514287D02*
X76111514Y-78476192D01*
X76111514Y-78476192D02*
X76149609Y-78438097D01*
X76149609Y-78438097D02*
X76187704Y-78361906D01*
X76187704Y-78361906D02*
X76187704Y-78209525D01*
X76187704Y-78209525D02*
X76149609Y-78133335D01*
X76149609Y-78133335D02*
X76111514Y-78095240D01*
X76111514Y-78095240D02*
X76035323Y-78057144D01*
X76035323Y-78057144D02*
X75844847Y-78057144D01*
X75844847Y-78057144D02*
X75768657Y-78095240D01*
X75768657Y-78095240D02*
X75730561Y-78133335D01*
X75730561Y-78133335D02*
X75692466Y-78209525D01*
X75692466Y-78209525D02*
X75692466Y-78361906D01*
X75692466Y-78361906D02*
X75730561Y-78438097D01*
X75730561Y-78438097D02*
X75768657Y-78476192D01*
X75768657Y-78476192D02*
X75844847Y-78514287D01*
X55087704Y-60109523D02*
X55087704Y-60566666D01*
X54287704Y-60338094D02*
X55087704Y-60338094D01*
X54287704Y-60833333D02*
X55087704Y-60833333D01*
X55087704Y-60833333D02*
X55087704Y-61138095D01*
X55087704Y-61138095D02*
X55049609Y-61214285D01*
X55049609Y-61214285D02*
X55011514Y-61252380D01*
X55011514Y-61252380D02*
X54935323Y-61290476D01*
X54935323Y-61290476D02*
X54821038Y-61290476D01*
X54821038Y-61290476D02*
X54744847Y-61252380D01*
X54744847Y-61252380D02*
X54706752Y-61214285D01*
X54706752Y-61214285D02*
X54668657Y-61138095D01*
X54668657Y-61138095D02*
X54668657Y-60833333D01*
X55087704Y-61557142D02*
X55087704Y-62052380D01*
X55087704Y-62052380D02*
X54782942Y-61785714D01*
X54782942Y-61785714D02*
X54782942Y-61899999D01*
X54782942Y-61899999D02*
X54744847Y-61976190D01*
X54744847Y-61976190D02*
X54706752Y-62014285D01*
X54706752Y-62014285D02*
X54630561Y-62052380D01*
X54630561Y-62052380D02*
X54440085Y-62052380D01*
X54440085Y-62052380D02*
X54363895Y-62014285D01*
X54363895Y-62014285D02*
X54325800Y-61976190D01*
X54325800Y-61976190D02*
X54287704Y-61899999D01*
X54287704Y-61899999D02*
X54287704Y-61671428D01*
X54287704Y-61671428D02*
X54325800Y-61595237D01*
X54325800Y-61595237D02*
X54363895Y-61557142D01*
X55087704Y-62776190D02*
X55087704Y-62395238D01*
X55087704Y-62395238D02*
X54706752Y-62357142D01*
X54706752Y-62357142D02*
X54744847Y-62395238D01*
X54744847Y-62395238D02*
X54782942Y-62471428D01*
X54782942Y-62471428D02*
X54782942Y-62661904D01*
X54782942Y-62661904D02*
X54744847Y-62738095D01*
X54744847Y-62738095D02*
X54706752Y-62776190D01*
X54706752Y-62776190D02*
X54630561Y-62814285D01*
X54630561Y-62814285D02*
X54440085Y-62814285D01*
X54440085Y-62814285D02*
X54363895Y-62776190D01*
X54363895Y-62776190D02*
X54325800Y-62738095D01*
X54325800Y-62738095D02*
X54287704Y-62661904D01*
X54287704Y-62661904D02*
X54287704Y-62471428D01*
X54287704Y-62471428D02*
X54325800Y-62395238D01*
X54325800Y-62395238D02*
X54363895Y-62357142D01*
X54959523Y-66612295D02*
X55416666Y-66612295D01*
X55188094Y-67412295D02*
X55188094Y-66612295D01*
X55683333Y-67412295D02*
X55683333Y-66612295D01*
X55683333Y-66612295D02*
X55988095Y-66612295D01*
X55988095Y-66612295D02*
X56064285Y-66650390D01*
X56064285Y-66650390D02*
X56102380Y-66688485D01*
X56102380Y-66688485D02*
X56140476Y-66764676D01*
X56140476Y-66764676D02*
X56140476Y-66878961D01*
X56140476Y-66878961D02*
X56102380Y-66955152D01*
X56102380Y-66955152D02*
X56064285Y-66993247D01*
X56064285Y-66993247D02*
X55988095Y-67031342D01*
X55988095Y-67031342D02*
X55683333Y-67031342D01*
X56407142Y-66612295D02*
X56902380Y-66612295D01*
X56902380Y-66612295D02*
X56635714Y-66917057D01*
X56635714Y-66917057D02*
X56749999Y-66917057D01*
X56749999Y-66917057D02*
X56826190Y-66955152D01*
X56826190Y-66955152D02*
X56864285Y-66993247D01*
X56864285Y-66993247D02*
X56902380Y-67069438D01*
X56902380Y-67069438D02*
X56902380Y-67259914D01*
X56902380Y-67259914D02*
X56864285Y-67336104D01*
X56864285Y-67336104D02*
X56826190Y-67374200D01*
X56826190Y-67374200D02*
X56749999Y-67412295D01*
X56749999Y-67412295D02*
X56521428Y-67412295D01*
X56521428Y-67412295D02*
X56445237Y-67374200D01*
X56445237Y-67374200D02*
X56407142Y-67336104D01*
X57169047Y-66612295D02*
X57664285Y-66612295D01*
X57664285Y-66612295D02*
X57397619Y-66917057D01*
X57397619Y-66917057D02*
X57511904Y-66917057D01*
X57511904Y-66917057D02*
X57588095Y-66955152D01*
X57588095Y-66955152D02*
X57626190Y-66993247D01*
X57626190Y-66993247D02*
X57664285Y-67069438D01*
X57664285Y-67069438D02*
X57664285Y-67259914D01*
X57664285Y-67259914D02*
X57626190Y-67336104D01*
X57626190Y-67336104D02*
X57588095Y-67374200D01*
X57588095Y-67374200D02*
X57511904Y-67412295D01*
X57511904Y-67412295D02*
X57283333Y-67412295D01*
X57283333Y-67412295D02*
X57207142Y-67374200D01*
X57207142Y-67374200D02*
X57169047Y-67336104D01*
X89687704Y-67609523D02*
X89687704Y-68066666D01*
X88887704Y-67838094D02*
X89687704Y-67838094D01*
X88887704Y-68333333D02*
X89687704Y-68333333D01*
X89687704Y-68333333D02*
X89687704Y-68638095D01*
X89687704Y-68638095D02*
X89649609Y-68714285D01*
X89649609Y-68714285D02*
X89611514Y-68752380D01*
X89611514Y-68752380D02*
X89535323Y-68790476D01*
X89535323Y-68790476D02*
X89421038Y-68790476D01*
X89421038Y-68790476D02*
X89344847Y-68752380D01*
X89344847Y-68752380D02*
X89306752Y-68714285D01*
X89306752Y-68714285D02*
X89268657Y-68638095D01*
X89268657Y-68638095D02*
X89268657Y-68333333D01*
X89687704Y-69057142D02*
X89687704Y-69552380D01*
X89687704Y-69552380D02*
X89382942Y-69285714D01*
X89382942Y-69285714D02*
X89382942Y-69399999D01*
X89382942Y-69399999D02*
X89344847Y-69476190D01*
X89344847Y-69476190D02*
X89306752Y-69514285D01*
X89306752Y-69514285D02*
X89230561Y-69552380D01*
X89230561Y-69552380D02*
X89040085Y-69552380D01*
X89040085Y-69552380D02*
X88963895Y-69514285D01*
X88963895Y-69514285D02*
X88925800Y-69476190D01*
X88925800Y-69476190D02*
X88887704Y-69399999D01*
X88887704Y-69399999D02*
X88887704Y-69171428D01*
X88887704Y-69171428D02*
X88925800Y-69095237D01*
X88925800Y-69095237D02*
X88963895Y-69057142D01*
X89687704Y-70047619D02*
X89687704Y-70123809D01*
X89687704Y-70123809D02*
X89649609Y-70200000D01*
X89649609Y-70200000D02*
X89611514Y-70238095D01*
X89611514Y-70238095D02*
X89535323Y-70276190D01*
X89535323Y-70276190D02*
X89382942Y-70314285D01*
X89382942Y-70314285D02*
X89192466Y-70314285D01*
X89192466Y-70314285D02*
X89040085Y-70276190D01*
X89040085Y-70276190D02*
X88963895Y-70238095D01*
X88963895Y-70238095D02*
X88925800Y-70200000D01*
X88925800Y-70200000D02*
X88887704Y-70123809D01*
X88887704Y-70123809D02*
X88887704Y-70047619D01*
X88887704Y-70047619D02*
X88925800Y-69971428D01*
X88925800Y-69971428D02*
X88963895Y-69933333D01*
X88963895Y-69933333D02*
X89040085Y-69895238D01*
X89040085Y-69895238D02*
X89192466Y-69857142D01*
X89192466Y-69857142D02*
X89382942Y-69857142D01*
X89382942Y-69857142D02*
X89535323Y-69895238D01*
X89535323Y-69895238D02*
X89611514Y-69933333D01*
X89611514Y-69933333D02*
X89649609Y-69971428D01*
X89649609Y-69971428D02*
X89687704Y-70047619D01*
X77687704Y-75809523D02*
X77687704Y-76266666D01*
X76887704Y-76038094D02*
X77687704Y-76038094D01*
X76887704Y-76533333D02*
X77687704Y-76533333D01*
X77687704Y-76533333D02*
X77687704Y-76838095D01*
X77687704Y-76838095D02*
X77649609Y-76914285D01*
X77649609Y-76914285D02*
X77611514Y-76952380D01*
X77611514Y-76952380D02*
X77535323Y-76990476D01*
X77535323Y-76990476D02*
X77421038Y-76990476D01*
X77421038Y-76990476D02*
X77344847Y-76952380D01*
X77344847Y-76952380D02*
X77306752Y-76914285D01*
X77306752Y-76914285D02*
X77268657Y-76838095D01*
X77268657Y-76838095D02*
X77268657Y-76533333D01*
X77611514Y-77295237D02*
X77649609Y-77333333D01*
X77649609Y-77333333D02*
X77687704Y-77409523D01*
X77687704Y-77409523D02*
X77687704Y-77599999D01*
X77687704Y-77599999D02*
X77649609Y-77676190D01*
X77649609Y-77676190D02*
X77611514Y-77714285D01*
X77611514Y-77714285D02*
X77535323Y-77752380D01*
X77535323Y-77752380D02*
X77459133Y-77752380D01*
X77459133Y-77752380D02*
X77344847Y-77714285D01*
X77344847Y-77714285D02*
X76887704Y-77257142D01*
X76887704Y-77257142D02*
X76887704Y-77752380D01*
X77344847Y-78209523D02*
X77382942Y-78133333D01*
X77382942Y-78133333D02*
X77421038Y-78095238D01*
X77421038Y-78095238D02*
X77497228Y-78057142D01*
X77497228Y-78057142D02*
X77535323Y-78057142D01*
X77535323Y-78057142D02*
X77611514Y-78095238D01*
X77611514Y-78095238D02*
X77649609Y-78133333D01*
X77649609Y-78133333D02*
X77687704Y-78209523D01*
X77687704Y-78209523D02*
X77687704Y-78361904D01*
X77687704Y-78361904D02*
X77649609Y-78438095D01*
X77649609Y-78438095D02*
X77611514Y-78476190D01*
X77611514Y-78476190D02*
X77535323Y-78514285D01*
X77535323Y-78514285D02*
X77497228Y-78514285D01*
X77497228Y-78514285D02*
X77421038Y-78476190D01*
X77421038Y-78476190D02*
X77382942Y-78438095D01*
X77382942Y-78438095D02*
X77344847Y-78361904D01*
X77344847Y-78361904D02*
X77344847Y-78209523D01*
X77344847Y-78209523D02*
X77306752Y-78133333D01*
X77306752Y-78133333D02*
X77268657Y-78095238D01*
X77268657Y-78095238D02*
X77192466Y-78057142D01*
X77192466Y-78057142D02*
X77040085Y-78057142D01*
X77040085Y-78057142D02*
X76963895Y-78095238D01*
X76963895Y-78095238D02*
X76925800Y-78133333D01*
X76925800Y-78133333D02*
X76887704Y-78209523D01*
X76887704Y-78209523D02*
X76887704Y-78361904D01*
X76887704Y-78361904D02*
X76925800Y-78438095D01*
X76925800Y-78438095D02*
X76963895Y-78476190D01*
X76963895Y-78476190D02*
X77040085Y-78514285D01*
X77040085Y-78514285D02*
X77192466Y-78514285D01*
X77192466Y-78514285D02*
X77268657Y-78476190D01*
X77268657Y-78476190D02*
X77306752Y-78438095D01*
X77306752Y-78438095D02*
X77344847Y-78361904D01*
X79187704Y-76559523D02*
X79187704Y-77016666D01*
X78387704Y-76788094D02*
X79187704Y-76788094D01*
X78387704Y-77283333D02*
X79187704Y-77283333D01*
X79187704Y-77283333D02*
X79187704Y-77588095D01*
X79187704Y-77588095D02*
X79149609Y-77664285D01*
X79149609Y-77664285D02*
X79111514Y-77702380D01*
X79111514Y-77702380D02*
X79035323Y-77740476D01*
X79035323Y-77740476D02*
X78921038Y-77740476D01*
X78921038Y-77740476D02*
X78844847Y-77702380D01*
X78844847Y-77702380D02*
X78806752Y-77664285D01*
X78806752Y-77664285D02*
X78768657Y-77588095D01*
X78768657Y-77588095D02*
X78768657Y-77283333D01*
X79111514Y-78045237D02*
X79149609Y-78083333D01*
X79149609Y-78083333D02*
X79187704Y-78159523D01*
X79187704Y-78159523D02*
X79187704Y-78349999D01*
X79187704Y-78349999D02*
X79149609Y-78426190D01*
X79149609Y-78426190D02*
X79111514Y-78464285D01*
X79111514Y-78464285D02*
X79035323Y-78502380D01*
X79035323Y-78502380D02*
X78959133Y-78502380D01*
X78959133Y-78502380D02*
X78844847Y-78464285D01*
X78844847Y-78464285D02*
X78387704Y-78007142D01*
X78387704Y-78007142D02*
X78387704Y-78502380D01*
X79111514Y-78807142D02*
X79149609Y-78845238D01*
X79149609Y-78845238D02*
X79187704Y-78921428D01*
X79187704Y-78921428D02*
X79187704Y-79111904D01*
X79187704Y-79111904D02*
X79149609Y-79188095D01*
X79149609Y-79188095D02*
X79111514Y-79226190D01*
X79111514Y-79226190D02*
X79035323Y-79264285D01*
X79035323Y-79264285D02*
X78959133Y-79264285D01*
X78959133Y-79264285D02*
X78844847Y-79226190D01*
X78844847Y-79226190D02*
X78387704Y-78769047D01*
X78387704Y-78769047D02*
X78387704Y-79264285D01*
X86738095Y-126154819D02*
X86738095Y-125154819D01*
X86738095Y-125631009D02*
X87309523Y-125631009D01*
X87309523Y-126154819D02*
X87309523Y-125154819D01*
X87690476Y-125154819D02*
X88309523Y-125154819D01*
X88309523Y-125154819D02*
X87976190Y-125535771D01*
X87976190Y-125535771D02*
X88119047Y-125535771D01*
X88119047Y-125535771D02*
X88214285Y-125583390D01*
X88214285Y-125583390D02*
X88261904Y-125631009D01*
X88261904Y-125631009D02*
X88309523Y-125726247D01*
X88309523Y-125726247D02*
X88309523Y-125964342D01*
X88309523Y-125964342D02*
X88261904Y-126059580D01*
X88261904Y-126059580D02*
X88214285Y-126107200D01*
X88214285Y-126107200D02*
X88119047Y-126154819D01*
X88119047Y-126154819D02*
X87833333Y-126154819D01*
X87833333Y-126154819D02*
X87738095Y-126107200D01*
X87738095Y-126107200D02*
X87690476Y-126059580D01*
X78109523Y-58812295D02*
X78566666Y-58812295D01*
X78338094Y-59612295D02*
X78338094Y-58812295D01*
X78833333Y-59612295D02*
X78833333Y-58812295D01*
X78833333Y-58812295D02*
X79138095Y-58812295D01*
X79138095Y-58812295D02*
X79214285Y-58850390D01*
X79214285Y-58850390D02*
X79252380Y-58888485D01*
X79252380Y-58888485D02*
X79290476Y-58964676D01*
X79290476Y-58964676D02*
X79290476Y-59078961D01*
X79290476Y-59078961D02*
X79252380Y-59155152D01*
X79252380Y-59155152D02*
X79214285Y-59193247D01*
X79214285Y-59193247D02*
X79138095Y-59231342D01*
X79138095Y-59231342D02*
X78833333Y-59231342D01*
X79595237Y-58888485D02*
X79633333Y-58850390D01*
X79633333Y-58850390D02*
X79709523Y-58812295D01*
X79709523Y-58812295D02*
X79899999Y-58812295D01*
X79899999Y-58812295D02*
X79976190Y-58850390D01*
X79976190Y-58850390D02*
X80014285Y-58888485D01*
X80014285Y-58888485D02*
X80052380Y-58964676D01*
X80052380Y-58964676D02*
X80052380Y-59040866D01*
X80052380Y-59040866D02*
X80014285Y-59155152D01*
X80014285Y-59155152D02*
X79557142Y-59612295D01*
X79557142Y-59612295D02*
X80052380Y-59612295D01*
X80319047Y-58812295D02*
X80814285Y-58812295D01*
X80814285Y-58812295D02*
X80547619Y-59117057D01*
X80547619Y-59117057D02*
X80661904Y-59117057D01*
X80661904Y-59117057D02*
X80738095Y-59155152D01*
X80738095Y-59155152D02*
X80776190Y-59193247D01*
X80776190Y-59193247D02*
X80814285Y-59269438D01*
X80814285Y-59269438D02*
X80814285Y-59459914D01*
X80814285Y-59459914D02*
X80776190Y-59536104D01*
X80776190Y-59536104D02*
X80738095Y-59574200D01*
X80738095Y-59574200D02*
X80661904Y-59612295D01*
X80661904Y-59612295D02*
X80433333Y-59612295D01*
X80433333Y-59612295D02*
X80357142Y-59574200D01*
X80357142Y-59574200D02*
X80319047Y-59536104D01*
X61709523Y-104512295D02*
X62166666Y-104512295D01*
X61938094Y-105312295D02*
X61938094Y-104512295D01*
X62433333Y-105312295D02*
X62433333Y-104512295D01*
X62433333Y-104512295D02*
X62738095Y-104512295D01*
X62738095Y-104512295D02*
X62814285Y-104550390D01*
X62814285Y-104550390D02*
X62852380Y-104588485D01*
X62852380Y-104588485D02*
X62890476Y-104664676D01*
X62890476Y-104664676D02*
X62890476Y-104778961D01*
X62890476Y-104778961D02*
X62852380Y-104855152D01*
X62852380Y-104855152D02*
X62814285Y-104893247D01*
X62814285Y-104893247D02*
X62738095Y-104931342D01*
X62738095Y-104931342D02*
X62433333Y-104931342D01*
X63157142Y-104512295D02*
X63652380Y-104512295D01*
X63652380Y-104512295D02*
X63385714Y-104817057D01*
X63385714Y-104817057D02*
X63499999Y-104817057D01*
X63499999Y-104817057D02*
X63576190Y-104855152D01*
X63576190Y-104855152D02*
X63614285Y-104893247D01*
X63614285Y-104893247D02*
X63652380Y-104969438D01*
X63652380Y-104969438D02*
X63652380Y-105159914D01*
X63652380Y-105159914D02*
X63614285Y-105236104D01*
X63614285Y-105236104D02*
X63576190Y-105274200D01*
X63576190Y-105274200D02*
X63499999Y-105312295D01*
X63499999Y-105312295D02*
X63271428Y-105312295D01*
X63271428Y-105312295D02*
X63195237Y-105274200D01*
X63195237Y-105274200D02*
X63157142Y-105236104D01*
X63919047Y-104512295D02*
X64452381Y-104512295D01*
X64452381Y-104512295D02*
X64109523Y-105312295D01*
X89687704Y-64559523D02*
X89687704Y-65016666D01*
X88887704Y-64788094D02*
X89687704Y-64788094D01*
X88887704Y-65283333D02*
X89687704Y-65283333D01*
X89687704Y-65283333D02*
X89687704Y-65588095D01*
X89687704Y-65588095D02*
X89649609Y-65664285D01*
X89649609Y-65664285D02*
X89611514Y-65702380D01*
X89611514Y-65702380D02*
X89535323Y-65740476D01*
X89535323Y-65740476D02*
X89421038Y-65740476D01*
X89421038Y-65740476D02*
X89344847Y-65702380D01*
X89344847Y-65702380D02*
X89306752Y-65664285D01*
X89306752Y-65664285D02*
X89268657Y-65588095D01*
X89268657Y-65588095D02*
X89268657Y-65283333D01*
X89687704Y-66007142D02*
X89687704Y-66502380D01*
X89687704Y-66502380D02*
X89382942Y-66235714D01*
X89382942Y-66235714D02*
X89382942Y-66349999D01*
X89382942Y-66349999D02*
X89344847Y-66426190D01*
X89344847Y-66426190D02*
X89306752Y-66464285D01*
X89306752Y-66464285D02*
X89230561Y-66502380D01*
X89230561Y-66502380D02*
X89040085Y-66502380D01*
X89040085Y-66502380D02*
X88963895Y-66464285D01*
X88963895Y-66464285D02*
X88925800Y-66426190D01*
X88925800Y-66426190D02*
X88887704Y-66349999D01*
X88887704Y-66349999D02*
X88887704Y-66121428D01*
X88887704Y-66121428D02*
X88925800Y-66045237D01*
X88925800Y-66045237D02*
X88963895Y-66007142D01*
X88887704Y-67264285D02*
X88887704Y-66807142D01*
X88887704Y-67035714D02*
X89687704Y-67035714D01*
X89687704Y-67035714D02*
X89573419Y-66959523D01*
X89573419Y-66959523D02*
X89497228Y-66883333D01*
X89497228Y-66883333D02*
X89459133Y-66807142D01*
X61737704Y-74909523D02*
X61737704Y-75366666D01*
X60937704Y-75138094D02*
X61737704Y-75138094D01*
X60937704Y-75633333D02*
X61737704Y-75633333D01*
X61737704Y-75633333D02*
X61737704Y-75938095D01*
X61737704Y-75938095D02*
X61699609Y-76014285D01*
X61699609Y-76014285D02*
X61661514Y-76052380D01*
X61661514Y-76052380D02*
X61585323Y-76090476D01*
X61585323Y-76090476D02*
X61471038Y-76090476D01*
X61471038Y-76090476D02*
X61394847Y-76052380D01*
X61394847Y-76052380D02*
X61356752Y-76014285D01*
X61356752Y-76014285D02*
X61318657Y-75938095D01*
X61318657Y-75938095D02*
X61318657Y-75633333D01*
X60937704Y-76852380D02*
X60937704Y-76395237D01*
X60937704Y-76623809D02*
X61737704Y-76623809D01*
X61737704Y-76623809D02*
X61623419Y-76547618D01*
X61623419Y-76547618D02*
X61547228Y-76471428D01*
X61547228Y-76471428D02*
X61509133Y-76395237D01*
X61661514Y-77157142D02*
X61699609Y-77195238D01*
X61699609Y-77195238D02*
X61737704Y-77271428D01*
X61737704Y-77271428D02*
X61737704Y-77461904D01*
X61737704Y-77461904D02*
X61699609Y-77538095D01*
X61699609Y-77538095D02*
X61661514Y-77576190D01*
X61661514Y-77576190D02*
X61585323Y-77614285D01*
X61585323Y-77614285D02*
X61509133Y-77614285D01*
X61509133Y-77614285D02*
X61394847Y-77576190D01*
X61394847Y-77576190D02*
X60937704Y-77119047D01*
X60937704Y-77119047D02*
X60937704Y-77614285D01*
%TO.C,U12*%
D11*
X74025999Y-99470000D02*
G75*
G02*
X73775999Y-99470000I-125000J0D01*
G01*
X73775999Y-99470000D02*
G75*
G02*
X74025999Y-99470000I125000J0D01*
G01*
%TO.C,U13*%
X74025000Y-90000000D02*
G75*
G02*
X73775000Y-90000000I-125000J0D01*
G01*
X73775000Y-90000000D02*
G75*
G02*
X74025000Y-90000000I125000J0D01*
G01*
D13*
%TO.C,J12*%
X56830000Y-119475000D02*
X56830000Y-120825000D01*
X56830000Y-123325000D02*
X56830000Y-124925000D01*
X65770000Y-119475000D02*
X65770000Y-120825000D01*
X65770000Y-123325000D02*
X65770000Y-124925000D01*
D12*
X58200000Y-116275000D02*
G75*
G02*
X58000000Y-116275000I-100000J0D01*
G01*
X58000000Y-116275000D02*
G75*
G02*
X58200000Y-116275000I100000J0D01*
G01*
%TO.C,U8*%
D10*
X64875000Y-107100000D02*
G75*
G02*
X64725000Y-107100000I-75000J0D01*
G01*
X64725000Y-107100000D02*
G75*
G02*
X64875000Y-107100000I75000J0D01*
G01*
D13*
%TO.C,J10*%
X83050000Y-106000000D02*
X89950000Y-106000000D01*
X83050000Y-113000000D02*
X83050000Y-106000000D01*
X89950000Y-106000000D02*
X89950000Y-113000000D01*
X89950000Y-113000000D02*
X83050000Y-113000000D01*
D12*
X86600001Y-113500000D02*
G75*
G02*
X86399999Y-113500000I-100001J0D01*
G01*
X86399999Y-113500000D02*
G75*
G02*
X86600001Y-113500000I100001J0D01*
G01*
D14*
%TO.C,R45*%
X72237258Y-87477500D02*
X71762742Y-87477500D01*
X72237258Y-88522500D02*
X71762742Y-88522500D01*
%TO.C,R18*%
X67727064Y-110765000D02*
X67272936Y-110765000D01*
X67727064Y-112235000D02*
X67272936Y-112235000D01*
D12*
%TO.C,J14*%
X78100000Y-54650000D02*
G75*
G02*
X77900000Y-54650000I-100000J0D01*
G01*
X77900000Y-54650000D02*
G75*
G02*
X78100000Y-54650000I100000J0D01*
G01*
D15*
X82000000Y-55250000D02*
X74000000Y-55250000D01*
X74000000Y-40250001D01*
X82000000Y-40250001D01*
X82000000Y-55250000D01*
D14*
%TO.C,J5*%
X76740001Y-108540000D02*
X76740001Y-117260000D01*
X78040001Y-106840000D02*
X76740001Y-108540000D01*
X80860001Y-106840000D02*
X78040001Y-106840000D01*
X80860001Y-106840000D02*
X82160001Y-108540000D01*
X82160001Y-108540000D02*
X82160001Y-117260000D01*
X82160001Y-117260000D02*
X76740001Y-117260000D01*
%TO.C,C26*%
X78609419Y-60040000D02*
X78890581Y-60040000D01*
X78609419Y-61060000D02*
X78890581Y-61060000D01*
%TO.C,R31*%
X71762742Y-93577500D02*
X72237258Y-93577500D01*
X71762742Y-94622500D02*
X72237258Y-94622500D01*
%TO.C,R37*%
X72237258Y-95327500D02*
X71762742Y-95327500D01*
X72237258Y-96372500D02*
X71762742Y-96372500D01*
%TO.C,C34*%
X61490000Y-106640581D02*
X61490000Y-106359419D01*
X62510000Y-106640581D02*
X62510000Y-106359419D01*
D13*
%TO.C,J2*%
X70000000Y-118050000D02*
X77000000Y-118050000D01*
X70000000Y-124950000D02*
X70000000Y-118050000D01*
X77000000Y-118050000D02*
X77000000Y-124950000D01*
X77000000Y-124950000D02*
X70000000Y-124950000D01*
D12*
X69600001Y-121500000D02*
G75*
G02*
X69399999Y-121500000I-100001J0D01*
G01*
X69399999Y-121500000D02*
G75*
G02*
X69600001Y-121500000I100001J0D01*
G01*
D14*
%TO.C,C5*%
X73640000Y-65840581D02*
X73640000Y-65559419D01*
X74660000Y-65840581D02*
X74660000Y-65559419D01*
D16*
%TO.C,U2*%
X63793500Y-72293500D02*
X63793500Y-72475771D01*
X63793500Y-74524229D02*
X63793500Y-74706500D01*
X66206500Y-72475771D02*
X66206500Y-72293500D01*
X66206500Y-74706500D02*
X66206500Y-74524229D01*
D11*
X64325000Y-75000000D02*
G75*
G02*
X64075000Y-75000000I-125000J0D01*
G01*
X64075000Y-75000000D02*
G75*
G02*
X64325000Y-75000000I125000J0D01*
G01*
D17*
G36*
X64440499Y-72268100D02*
G01*
X64059499Y-72268100D01*
X64059498Y-72014100D01*
X64440499Y-72014100D01*
X64440499Y-72268100D01*
G37*
D14*
%TO.C,R34*%
X75287258Y-96977500D02*
X74812742Y-96977500D01*
X75287258Y-98022500D02*
X74812742Y-98022500D01*
%TO.C,R44*%
X75237258Y-87477499D02*
X74762742Y-87477499D01*
X75237258Y-88522499D02*
X74762742Y-88522499D01*
%TO.C,R55*%
X54027500Y-79612742D02*
X54027500Y-80087258D01*
X55072500Y-79612742D02*
X55072500Y-80087258D01*
%TO.C,C33*%
X61640580Y-66490000D02*
X61359418Y-66490000D01*
X61640580Y-67510000D02*
X61359418Y-67510000D01*
%TO.C,LED_2*%
X50350000Y-81800000D02*
X50350000Y-78100000D01*
X50850000Y-82300000D02*
X50350000Y-81800000D01*
X53550000Y-78100000D02*
X50350000Y-78100000D01*
X53550000Y-82300000D02*
X50850000Y-82300000D01*
X53550000Y-82300000D02*
X53550000Y-78100000D01*
%TO.C,R43*%
X72311258Y-104877500D02*
X71836742Y-104877500D01*
X72311258Y-105922500D02*
X71836742Y-105922500D01*
%TO.C,R35*%
X72312258Y-96977500D02*
X71837742Y-96977500D01*
X72312258Y-98022500D02*
X71837742Y-98022500D01*
%TO.C,C35*%
X65290000Y-106359419D02*
X65290000Y-106640581D01*
X66310000Y-106359419D02*
X66310000Y-106640581D01*
D16*
%TO.C,SW1*%
X69521200Y-67375900D02*
X69521200Y-72024100D01*
X70963341Y-72024100D02*
X71736659Y-72024100D01*
X71736659Y-67375900D02*
X70963341Y-67375900D01*
X73178800Y-72024100D02*
X73178800Y-67375900D01*
D11*
X72575000Y-66500000D02*
G75*
G02*
X72325000Y-66500000I-125000J0D01*
G01*
X72325000Y-66500000D02*
G75*
G02*
X72575000Y-66500000I125000J0D01*
G01*
D14*
%TO.C,R29*%
X53477500Y-64262743D02*
X53477500Y-64737259D01*
X54522500Y-64262743D02*
X54522500Y-64737259D01*
%TO.C,R41*%
X72237258Y-88977500D02*
X71762742Y-88977500D01*
X72237258Y-90022500D02*
X71762742Y-90022500D01*
%TO.C,C25*%
X84134419Y-59990000D02*
X84415581Y-59990000D01*
X84134419Y-61010000D02*
X84415581Y-61010000D01*
%TO.C,R56*%
X51762742Y-76477500D02*
X52237258Y-76477500D01*
X51762742Y-77522500D02*
X52237258Y-77522500D01*
%TO.C,J13*%
X50500000Y-73330000D02*
X50500000Y-72000000D01*
X51830000Y-73330000D02*
X50500000Y-73330000D01*
X53100001Y-70670000D02*
X60780000Y-70670000D01*
X53100001Y-73330000D02*
X53100001Y-70670000D01*
X53100001Y-73330000D02*
X60780000Y-73330000D01*
X60780000Y-73330000D02*
X60780000Y-70670000D01*
%TO.C,R53*%
X87737258Y-82277500D02*
X87262742Y-82277500D01*
X87737258Y-83322500D02*
X87262742Y-83322500D01*
D13*
%TO.C,J9*%
X83050000Y-92000000D02*
X89950000Y-92000000D01*
X83050000Y-99000000D02*
X83050000Y-92000000D01*
X89950000Y-92000000D02*
X89950000Y-99000000D01*
X89950000Y-99000000D02*
X83050000Y-99000000D01*
D12*
X86600001Y-99500000D02*
G75*
G02*
X86399999Y-99500000I-100001J0D01*
G01*
X86399999Y-99500000D02*
G75*
G02*
X86600001Y-99500000I100001J0D01*
G01*
D16*
%TO.C,SW4*%
X50871200Y-93125900D02*
X50871200Y-97774100D01*
X52313341Y-97774100D02*
X53086659Y-97774100D01*
X53086659Y-93125900D02*
X52313341Y-93125900D01*
X54528800Y-97774100D02*
X54528800Y-93125900D01*
D11*
X53925000Y-92250000D02*
G75*
G02*
X53675000Y-92250000I-125000J0D01*
G01*
X53675000Y-92250000D02*
G75*
G02*
X53925000Y-92250000I125000J0D01*
G01*
D14*
%TO.C,R15*%
X67727500Y-120012742D02*
X67727500Y-120487258D01*
X68772500Y-120012742D02*
X68772500Y-120487258D01*
%TO.C,R5*%
X59827500Y-96662742D02*
X59827500Y-97137258D01*
X60872500Y-96662742D02*
X60872500Y-97137258D01*
%TO.C,C27*%
X78659419Y-55090000D02*
X78940581Y-55090000D01*
X78659419Y-56110000D02*
X78940581Y-56110000D01*
%TO.C,R40*%
X72112258Y-101677500D02*
X71637742Y-101677500D01*
X72112258Y-102722500D02*
X71637742Y-102722500D01*
%TO.C,R10*%
X64237258Y-111977500D02*
X63762742Y-111977500D01*
X64237258Y-113022500D02*
X63762742Y-113022500D01*
%TO.C,C22*%
X66990000Y-73640581D02*
X66990000Y-73359419D01*
X68010000Y-73640581D02*
X68010000Y-73359419D01*
%TO.C,R36*%
X75237258Y-95327501D02*
X74762742Y-95327501D01*
X75237258Y-96372501D02*
X74762742Y-96372501D01*
%TO.C,R46*%
X56977500Y-115237258D02*
X56977500Y-114762742D01*
X58022500Y-115237258D02*
X58022500Y-114762742D01*
%TO.C,R32*%
X72287258Y-98527500D02*
X71812742Y-98527500D01*
X72287258Y-99572500D02*
X71812742Y-99572500D01*
%TO.C,U4*%
X59790000Y-98789999D02*
X59965000Y-98790000D01*
X59790000Y-99464999D02*
X59790000Y-98789999D01*
X59790000Y-101334999D02*
X59790000Y-101709999D01*
X62510000Y-98789999D02*
X62335000Y-98790000D01*
X62510000Y-99464999D02*
X62510000Y-98789999D01*
X62510000Y-101334999D02*
X62510000Y-102009999D01*
X62510000Y-102009999D02*
X62335000Y-102009998D01*
X59790000Y-102009999D02*
X59600000Y-102149998D01*
X59600000Y-101869998D01*
X59790000Y-102009999D01*
G36*
X59790000Y-102009999D02*
G01*
X59600000Y-102149998D01*
X59600000Y-101869998D01*
X59790000Y-102009999D01*
G37*
%TO.C,R16*%
X80962742Y-104927500D02*
X81437258Y-104927500D01*
X80962742Y-105972500D02*
X81437258Y-105972500D01*
%TO.C,R9*%
X77477500Y-57862742D02*
X77477500Y-58337258D01*
X78522500Y-57862742D02*
X78522500Y-58337258D01*
%TO.C,R3*%
X64912742Y-75477500D02*
X65387258Y-75477500D01*
X64912742Y-76522500D02*
X65387258Y-76522500D01*
%TO.C,R17*%
X77937742Y-104927500D02*
X78412258Y-104927500D01*
X77937742Y-105972500D02*
X78412258Y-105972500D01*
%TO.C,C24*%
X64159419Y-98140000D02*
X64440581Y-98140000D01*
X64159419Y-99160000D02*
X64440581Y-99160000D01*
D13*
%TO.C,J8*%
X83050000Y-99000000D02*
X89950000Y-99000000D01*
X83050000Y-106000000D02*
X83050000Y-99000000D01*
X89950000Y-99000000D02*
X89950000Y-106000000D01*
X89950000Y-106000000D02*
X83050000Y-106000000D01*
D12*
X86600001Y-106500000D02*
G75*
G02*
X86399999Y-106500000I-100001J0D01*
G01*
X86399999Y-106500000D02*
G75*
G02*
X86600001Y-106500000I100001J0D01*
G01*
D13*
%TO.C,J3*%
X77000000Y-118050000D02*
X84000000Y-118050000D01*
X77000000Y-124950000D02*
X77000000Y-118050000D01*
X84000000Y-118050000D02*
X84000000Y-124950000D01*
X84000000Y-124950000D02*
X77000000Y-124950000D01*
D12*
X76600001Y-121500000D02*
G75*
G02*
X76399999Y-121500000I-100001J0D01*
G01*
X76399999Y-121500000D02*
G75*
G02*
X76600001Y-121500000I100001J0D01*
G01*
D14*
%TO.C,LED_1*%
X86000000Y-77700000D02*
X86000000Y-81900000D01*
X86000000Y-77700000D02*
X88700000Y-77700000D01*
X86000000Y-81900000D02*
X89200000Y-81900000D01*
X88700000Y-77700000D02*
X89200000Y-78200000D01*
X89200000Y-78200000D02*
X89200000Y-81900000D01*
%TO.C,R28*%
X55477500Y-64262742D02*
X55477500Y-64737258D01*
X56522500Y-64262742D02*
X56522500Y-64737258D01*
%TO.C,U7*%
X64650000Y-108840001D02*
X63600000Y-108840000D01*
X64650000Y-111159999D02*
X63350000Y-111159999D01*
X63240000Y-108840000D02*
X62960000Y-108840000D01*
X63240000Y-108560000D01*
X63240000Y-108840000D01*
G36*
X63240000Y-108840000D02*
G01*
X62960000Y-108840000D01*
X63240000Y-108560000D01*
X63240000Y-108840000D01*
G37*
%TO.C,R19*%
X87265000Y-116227064D02*
X87265000Y-115772936D01*
X88735000Y-116227064D02*
X88735000Y-115772936D01*
%TO.C,U15*%
X65939999Y-114500000D02*
X65940000Y-113700000D01*
X65939999Y-114500000D02*
X65940000Y-115300000D01*
X69060001Y-114500000D02*
X69060000Y-113700000D01*
X69060001Y-114500000D02*
X69060000Y-115300000D01*
X69340000Y-113440000D02*
X69010000Y-113200000D01*
X69340000Y-112960000D01*
X69340000Y-113440000D01*
G36*
X69340000Y-113440000D02*
G01*
X69010000Y-113200000D01*
X69340000Y-112960000D01*
X69340000Y-113440000D01*
G37*
%TO.C,R7*%
X87477500Y-72237258D02*
X87477500Y-71762742D01*
X88522500Y-72237258D02*
X88522500Y-71762742D01*
%TO.C,C23*%
X63140000Y-101090581D02*
X63140000Y-100809419D01*
X64160000Y-101090581D02*
X64160000Y-100809419D01*
%TO.C,R42*%
X75387258Y-104877499D02*
X74912742Y-104877499D01*
X75387258Y-105922499D02*
X74912742Y-105922499D01*
%TO.C,U11*%
X57140000Y-65860000D02*
X57140000Y-50140000D01*
X72860000Y-50140000D02*
X57140000Y-50140000D01*
X72860000Y-61450000D02*
X72860000Y-50140000D01*
X72860000Y-65860000D02*
X57140000Y-65860000D01*
X72860000Y-65860000D02*
X72860000Y-62150000D01*
X73190000Y-62040000D02*
X72860000Y-61800000D01*
X73190000Y-61560001D01*
X73190000Y-62040000D01*
G36*
X73190000Y-62040000D02*
G01*
X72860000Y-61800000D01*
X73190000Y-61560001D01*
X73190000Y-62040000D01*
G37*
%TO.C,R8*%
X73677500Y-69412258D02*
X73677500Y-68937742D01*
X74722500Y-69412258D02*
X74722500Y-68937742D01*
D16*
%TO.C,SW5*%
X50821200Y-99425900D02*
X50821200Y-104074100D01*
X52263341Y-104074100D02*
X53036659Y-104074100D01*
X53036659Y-99425900D02*
X52263341Y-99425900D01*
X54478800Y-104074100D02*
X54478800Y-99425900D01*
D11*
X53875000Y-98550000D02*
G75*
G02*
X53625000Y-98550000I-125000J0D01*
G01*
X53625000Y-98550000D02*
G75*
G02*
X53875000Y-98550000I125000J0D01*
G01*
D14*
%TO.C,C20*%
X65140581Y-70640000D02*
X64859419Y-70640000D01*
X65140581Y-71660000D02*
X64859419Y-71660000D01*
D16*
%TO.C,SW3*%
X50871200Y-86825900D02*
X50871200Y-91474100D01*
X52313341Y-91474100D02*
X53086659Y-91474100D01*
X53086659Y-86825900D02*
X52313341Y-86825900D01*
X54528800Y-91474100D02*
X54528800Y-86825900D01*
D11*
X53925000Y-85950000D02*
G75*
G02*
X53675000Y-85950000I-125000J0D01*
G01*
X53675000Y-85950000D02*
G75*
G02*
X53925000Y-85950000I125000J0D01*
G01*
D14*
%TO.C,R47*%
X62677500Y-115062258D02*
X62677500Y-114587742D01*
X63722500Y-115062258D02*
X63722500Y-114587742D01*
%TO.C,R14*%
X67727501Y-123012742D02*
X67727501Y-123487258D01*
X68772501Y-123012742D02*
X68772501Y-123487258D01*
%TO.C,R54*%
X51962742Y-82777500D02*
X52437258Y-82777500D01*
X51962742Y-83822500D02*
X52437258Y-83822500D01*
%TO.C,R51*%
X83898303Y-79862769D02*
X83562770Y-80198302D01*
X84637230Y-80601696D02*
X84301697Y-80937229D01*
%TO.C,R11*%
X67262742Y-108977500D02*
X67737258Y-108977500D01*
X67262742Y-110022500D02*
X67737258Y-110022500D01*
%TO.C,U14*%
X59089999Y-113950000D02*
X59090000Y-113150000D01*
X59089999Y-113950000D02*
X59090000Y-114750000D01*
X62210001Y-113950000D02*
X62210000Y-113150000D01*
X62210001Y-113950000D02*
X62210000Y-114750000D01*
X59140000Y-115250000D02*
X58810000Y-115490000D01*
X58810000Y-115010000D01*
X59140000Y-115250000D01*
G36*
X59140000Y-115250000D02*
G01*
X58810000Y-115490000D01*
X58810000Y-115010000D01*
X59140000Y-115250000D01*
G37*
D13*
%TO.C,J11*%
X83050000Y-85000000D02*
X89950000Y-85000000D01*
X83050000Y-92000000D02*
X83050000Y-85000000D01*
X89950000Y-85000000D02*
X89950000Y-92000000D01*
X89950000Y-92000000D02*
X83050000Y-92000000D01*
D12*
X86600001Y-92500000D02*
G75*
G02*
X86399999Y-92500000I-100001J0D01*
G01*
X86399999Y-92500000D02*
G75*
G02*
X86600001Y-92500000I100001J0D01*
G01*
D14*
%TO.C,R30*%
X71787742Y-100027500D02*
X72262258Y-100027500D01*
X71787742Y-101072500D02*
X72262258Y-101072500D01*
%TO.C,R39*%
X71762742Y-90477500D02*
X72237258Y-90477500D01*
X71762742Y-91522500D02*
X72237258Y-91522500D01*
%TO.C,R38*%
X71762742Y-103227500D02*
X72237258Y-103227500D01*
X71762742Y-104272500D02*
X72237258Y-104272500D01*
%TO.C,C21*%
X65140581Y-69140000D02*
X64859419Y-69140000D01*
X65140581Y-70160000D02*
X64859419Y-70160000D01*
%TO.C,R33*%
X72237258Y-92077500D02*
X71762742Y-92077500D01*
X72237258Y-93122500D02*
X71762742Y-93122500D01*
%TO.C,U16*%
X85000000Y-114439999D02*
X84200000Y-114440000D01*
X85000000Y-114439999D02*
X85800000Y-114440000D01*
X85000000Y-117560001D02*
X84200000Y-117560000D01*
X85000000Y-117560001D02*
X85800000Y-117560000D01*
X86540000Y-117840000D02*
X86060000Y-117840000D01*
X86300000Y-117510000D01*
X86540000Y-117840000D01*
G36*
X86540000Y-117840000D02*
G01*
X86060000Y-117840000D01*
X86300000Y-117510000D01*
X86540000Y-117840000D01*
G37*
%TO.C,R52*%
X83998303Y-82062770D02*
X83662770Y-82398303D01*
X84737230Y-82801697D02*
X84401697Y-83137230D01*
%TO.C,J4*%
X70290000Y-108540000D02*
X70290000Y-117260000D01*
X71590000Y-106840000D02*
X70290000Y-108540000D01*
X74410000Y-106840000D02*
X71590000Y-106840000D01*
X74410000Y-106840000D02*
X75710000Y-108540000D01*
X75710000Y-108540000D02*
X75710000Y-117260000D01*
X75710000Y-117260000D02*
X70290000Y-117260000D01*
%TD*%
M02*
